<svg xmlns="http://www.w3.org/2000/svg" width="200.242" height="209.404" viewBox="0 0 200.242 209.404">
  <g id="Group_1120316" data-name="Group 1120316" transform="translate(-370.064 7529.354)">
    <g id="Group_1120315" data-name="Group 1120315" transform="translate(191 -7616)">
      <g id="Group_1120217" data-name="Group 1120217">
        <path id="Path_916601" data-name="Path 916601" d="M196.424,234.7v-3.019l-3.7-2.138h-5.234l-3.7,2.138V234.7l3.7,2.138h5.234Z" opacity="0.3"/>
        <path id="Path_916602" data-name="Path 916602" d="M192.567,230.6l1.054.6,2.616,1.359v.241l-.1.7-1.663.076-2.134-.849H192l-1.909-.153-.99-.546v-.242l.634-1.625Z" fill="#836e69"/>
        <path id="Path_916603" data-name="Path 916603" d="M186.94,232.144l.316,1.029.624,1.258.139.964v.244L187,235.93l-1.156-.153-.927-.94-.724-2.248v-.241Z" fill="#836e69"/>
        <path id="Path_916604" data-name="Path 916604" d="M192.567,230.354l1.054.6,2.376.917.24.683-.1.7-1.663.076-2.134-.851H192l-1.909-.153-.99-.545.22-1.284.414-.584Z" fill="#efc58b"/>
        <path id="Path_916605" data-name="Path 916605" d="M188.274,193.534l-.292,1.011-.178.864.812,1.155,1.6.585,1.423-.5.567-.584-.351-1.943-2.536-1.107-1.11.066Z" fill="#c7a495"/>
        <path id="Path_916606" data-name="Path 916606" d="M195.661,197.026l.509,1.1.1,2.982-.9,4.335-.39.273h-1.2l.2-7.712Z" fill="#f0c6b4"/>
        <path id="Path_916607" data-name="Path 916607" d="M194.68,198.771l1.118-.441-1.118.863Z" fill="#c7a495"/>
        <path id="Path_916608" data-name="Path 916608" d="M193.22,193.6l.668.153.6.61.382.862.33,1.029.483.651-.17,1.094-1,.53-2.229-3.372Z" fill="#f4efe9"/>
        <path id="Path_916609" data-name="Path 916609" d="M186.059,206.679l-.152-2.591.8.795.237,2.306-.949.523Z" fill="#2d5a78"/>
        <path id="Path_916610" data-name="Path 916610" d="M191.665,195.561l-.33,1.016h-1.652l-1.193-.915-.508-1.117-1.247,1.016-.126.661-.927.38-1.23.937.531,5.085.914,1.828.586,1.524-.23,1.321.28,1.042h3.049l2.794-2.59,2.449-4.773.278-2.054-.542-2.133-.781-1.228-.9-.787Z" fill="#fff"/>
        <path id="Path_916611" data-name="Path 916611" d="M189.32,215.1l.922,5.691-.922,2.644v6.536l.922.78,1.592.2.949-.641.475-7.488.677-2.169.745-6.623-.288-3.81-5.072,2.032Z" fill="#377691"/>
        <path id="Path_916612" data-name="Path 916612" d="M186.94,231.9l.316,1.028.624,1.257.139.8v.406l-1.016.294-1.156-.153-.927-.94-.724-2.248.021-.887Z" fill="#efc58b"/>
        <path id="Path_916613" data-name="Path 916613" d="M194.477,197.026l-2.27,1.8-3.319,1.321.525,3.15-.17,2.59-.915,1.39-1.159.287-.873-.609-.237-.272-1.22,3.05-.084,10.486-.983,3.3.391,7.823.389.848,1.456.288,1.186-.559.322-9.181,1.1-2.319,1.542-7.044,2.133-.862,2.1-2.29-.053-1-.235-4.128.762-4.346v-2.235Z" fill="#428aa8"/>
        <path id="Path_916614" data-name="Path 916614" d="M192.207,196.227l.625.861.46,1.326.939-.564-.47-1.4-.739-1.286Z" fill="#428aa8"/>
        <path id="Path_916615" data-name="Path 916615" d="M193.78,191.251l-.057.919-.09.178-.063,1.306-.457,2.174-1.08.545-1.461-.7-1.232-1-.113-.662-.534-.252-.318-.5-.254-.175-.139-.954.685-1.5,2.6-.623,2.223.216Z" fill="#f0c6b4"/>
        <path id="Path_916616" data-name="Path 916616" d="M188.375,193.26l-.189-.711.3-.52.52.294.229.495.343.1.1-.445.878-.332.482-.977,1.257.267v-.267l1,.254.712-.254-.254-1.308-.495-.889-.763-.559-.889-.573-1.016-.075-.889.114-.66.444-.559.14-.712.762-.356.85-.089,1.119.242.992.432,1,.267.349Z" fill="#574943"/>
        <path id="Path_916617" data-name="Path 916617" d="M189.227,188.854l.545.343.686.85.216.585-.394-.508-.66-.813Z" fill="#362c29"/>
        <path id="Path_916618" data-name="Path 916618" d="M185.771,209.152l1.627-.254.371.627,1.271.577.542,1.388-.847.761-1.337.116-2.473-1.318-.17-.525v-.881Z" fill="#fff"/>
        <path id="Path_916619" data-name="Path 916619" d="M182.977,204.148l-1.017.686,1.017,1.092,2.794,3.226-.153.526-.457.541-.406.305-4.268-2.9-1.195-1.5-.228-2.288,1.472-1.8,1.882-.18Z" fill="#f0c6b4"/>
        <path id="Path_916620" data-name="Path 916620" d="M186.864,198.253l-1.4-.812-1.322.127-1.643,1.694-2.015,2.573.33,1.373,1.16.966,1.3.151,3.15-3.149.508-1.643Z" fill="#f4efe9"/>
        <path id="Path_916621" data-name="Path 916621" d="M185.682,196.6l1.651.508.979,1.016.61,1.067.576,1.254,1.016-.7-.386-1.065-.546-1.067L188.49,196.2l-1.755-.635Z" fill="#428aa8"/>
        <path id="Path_916622" data-name="Path 916622" d="M194.1,205.089V206.8l-.1.865-.322.779.322.932,1.033-.475.644-1.557-.305-1.9L194.68,205Z" fill="#fff"/>
        <path id="Path_916623" data-name="Path 916623" d="M181.96,204.834l-1.337.288.236.238Z" fill="#c7a495"/>
      </g>
      <g id="Group_1120292" data-name="Group 1120292">
        <path id="Path_916624" data-name="Path 916624" d="M367.583,244.46l-76.3-44.054L203.846,250.89v7.567l65.118,37.593h22.944l3.7-2.136h3.454l3.331-1.924V290l19.672-11.357,13.634,7.873h4.762l13.183-7.614v-2.747l-13.634-7.873,27.571-15.918Z" opacity="0.3"/>
        <g id="Group_1120222" data-name="Group 1120222">
          <g id="Group_1120218" data-name="Group 1120218">
            <path id="Path_916625" data-name="Path 916625" d="M281.173,122.268l-20.436,11.8L244.619,142l7.872-22.24,20.447-11.8Z" fill="#211a1a"/>
            <path id="Path_916626" data-name="Path 916626" d="M228.276,133.74l32.68,56.867-6.32-45.462,6.1-11.076-8.246-14.31Z" fill="#362c29"/>
          </g>
          <g id="Group_1120221" data-name="Group 1120221">
            <g id="Group_1120219" data-name="Group 1120219">
              <path id="Path_916627" data-name="Path 916627" d="M245.678,123.7l-7.622-4.3.344-8.34,9.9-5.722,5.817,5.147,1.464,7.486Z" fill="#e6e1dd"/>
              <path id="Path_916628" data-name="Path 916628" d="M255.58,117.974l-7.288-12.627,7.022-4.052L262.6,113.93Z" fill="#d8d1c7"/>
              <path id="Path_916629" data-name="Path 916629" d="M238.664,127.745l-7.291-12.629,7.027-4.053,7.278,12.636Z" fill="#a39c95"/>
            </g>
            <g id="Group_1120220" data-name="Group 1120220">
              <path id="Path_916630" data-name="Path 916630" d="M237.2,108.978l-1.588-.479V106.12l9.9-5.723,2.782.749-1.19,2.11Z" fill="#e6e1dd"/>
              <path id="Path_916631" data-name="Path 916631" d="M247.1,103.256l-1.6-2.849,7.023-4.054,1.589,2.857Z" fill="#d8d1c7"/>
              <path id="Path_916632" data-name="Path 916632" d="M230.183,113.024l-1.6-2.849,7.024-4.055,1.588,2.858Z" fill="#a39c95"/>
            </g>
            <rect id="Rectangle_410782" data-name="Rectangle 410782" width="27.632" height="2.407" transform="matrix(0.866, -0.5, 0.5, 0.866, 230.174, 113.031)" fill="#544540"/>
          </g>
        </g>
        <g id="Group_1120227" data-name="Group 1120227">
          <g id="Group_1120223" data-name="Group 1120223">
            <path id="Path_916633" data-name="Path 916633" d="M258.605,135.3,238.16,147.1l-16.119,7.933,7.879-22.242,20.44-11.8Z" fill="#211a1a"/>
            <path id="Path_916634" data-name="Path 916634" d="M205.705,146.773l32.678,56.867-6.325-45.458,6.107-11.081-8.245-14.309Z" fill="#362c29"/>
          </g>
          <g id="Group_1120226" data-name="Group 1120226">
            <g id="Group_1120224" data-name="Group 1120224">
              <path id="Path_916635" data-name="Path 916635" d="M223.1,136.733l-7.622-4.295.346-8.342,9.9-5.723,5.811,5.149L233,131.008Z" fill="#e6e1dd"/>
              <path id="Path_916636" data-name="Path 916636" d="M233,131.008l-7.29-12.63,7.027-4.051,7.281,12.638Z" fill="#d8d1c7"/>
              <path id="Path_916637" data-name="Path 916637" d="M216.091,140.777,208.8,128.149l7.027-4.053,7.276,12.637Z" fill="#a39c95"/>
            </g>
            <g id="Group_1120225" data-name="Group 1120225">
              <path id="Path_916638" data-name="Path 916638" d="M214.624,122.01l-1.587-.474v-2.379l9.9-5.728,2.774.748-1.187,2.111Z" fill="#e6e1dd"/>
              <path id="Path_916639" data-name="Path 916639" d="M224.527,116.288l-1.6-2.849,7.025-4.052,1.587,2.854Z" fill="#d8d1c7"/>
              <path id="Path_916640" data-name="Path 916640" d="M207.609,126.059l-1.6-2.851,7.024-4.051,1.587,2.853Z" fill="#a39c95"/>
            </g>
            <rect id="Rectangle_410783" data-name="Rectangle 410783" width="27.632" height="2.405" transform="matrix(0.866, -0.5, 0.5, 0.866, 207.62, 126.061)" fill="#544540"/>
          </g>
        </g>
        <g id="Group_1120232" data-name="Group 1120232">
          <g id="Group_1120228" data-name="Group 1120228">
            <path id="Path_916641" data-name="Path 916641" d="M236.032,148.333l-20.444,11.8-16.118,7.932,7.876-22.239,20.44-11.8Z" fill="#211a1a"/>
            <path id="Path_916642" data-name="Path 916642" d="M183.131,159.807l32.679,56.865-6.326-45.458,6.1-11.079-8.242-14.309Z" fill="#362c29"/>
          </g>
          <g id="Group_1120231" data-name="Group 1120231">
            <g id="Group_1120229" data-name="Group 1120229">
              <path id="Path_916643" data-name="Path 916643" d="M200.534,149.766l-7.626-4.3.343-8.342,9.9-5.723,5.814,5.148,1.469,7.487Z" fill="#e6e1dd"/>
              <path id="Path_916644" data-name="Path 916644" d="M210.434,144.04l-7.29-12.63,7.021-4.052L217.446,140Z" fill="#d8d1c7"/>
              <path id="Path_916645" data-name="Path 916645" d="M193.518,153.811l-7.291-12.628,7.024-4.055,7.283,12.638Z" fill="#a39c95"/>
            </g>
            <g id="Group_1120230" data-name="Group 1120230">
              <path id="Path_916646" data-name="Path 916646" d="M192.05,135.044l-1.586-.476v-2.38l9.9-5.725,2.779.746-1.192,2.11Z" fill="#e6e1dd"/>
              <path id="Path_916647" data-name="Path 916647" d="M201.952,129.319l-1.6-2.848,7.026-4.051,1.586,2.853Z" fill="#d8d1c7"/>
              <path id="Path_916648" data-name="Path 916648" d="M185.037,139.088l-1.6-2.849,7.026-4.051,1.586,2.856Z" fill="#a39c95"/>
            </g>
            <path id="Path_916649" data-name="Path 916649" d="M185.037,139.091l1.2,2.083,23.929-13.816-1.2-2.085Z" fill="#544540"/>
          </g>
        </g>
        <g id="Group_1120233" data-name="Group 1120233">
          <path id="Path_916650" data-name="Path 916650" d="M340.862,237.358l-71.881,41.505-2.5-4.646L340.862,232.8Z" fill="#211a1a"/>
          <path id="Path_916651" data-name="Path 916651" d="M260.806,282.56l-29.844-17.23-8.172-13.14v-4.276l46.191,26.67v4.279Z" fill="#362c29"/>
        </g>
        <g id="Group_1120234" data-name="Group 1120234">
          <path id="Path_916652" data-name="Path 916652" d="M350.388,156.554l-75.166,52.789L232.436,202l-21.51-39.169,75.171-43.4Z" fill="#0a0808"/>
          <path id="Path_916653" data-name="Path 916653" d="M356.495,174.682l-77.137,55.272L269.4,212.883l5.823-12.937,75.168-43.392Z" fill="#544540"/>
          <path id="Path_916654" data-name="Path 916654" d="M347.443,229.283l-75.162,43.4-7.973-41.655,17.022-12.946,75.165-43.4Z" fill="#403531"/>
          <path id="Path_916655" data-name="Path 916655" d="M281.33,218.078l-6.11-18.132-64.294-37.119-6.1,11.078,9.046,65.05,6.107,10.58,46.2,26.668,6.11-3.524Z" fill="#685750"/>
          <path id="Path_916656" data-name="Path 916656" d="M271.009,197.519l-22.4-5.054L215.14,165.257v-2.829l55.869,32.255Z" fill="#685750"/>
        </g>
        <path id="Path_916657" data-name="Path 916657" d="M342.211,135.7l-47.942-27.676-8.178,8.574,64.295,37.123Z" fill="#685750"/>
        <path id="Path_916658" data-name="Path 916658" d="M346.178,154.121l-55.871-32.26v-2.829l55.871,32.256Z" fill="#685750"/>
        <g id="Group_1120235" data-name="Group 1120235">
          <path id="Path_916659" data-name="Path 916659" d="M267.046,179.1,219.1,151.422,210.926,160l64.3,37.119Z" fill="#d8d1c7"/>
          <path id="Path_916660" data-name="Path 916660" d="M350.386,153.722l-75.164,43.393L267.046,179.1l75.165-43.4Z" fill="#b5afa7"/>
          <path id="Path_916661" data-name="Path 916661" d="M342.211,135.7l-75.165,43.4L219.1,151.422l75.167-43.4Z" fill="#e6e1dd"/>
        </g>
        <g id="Group_1120240" data-name="Group 1120240">
          <g id="Group_1120236" data-name="Group 1120236">
            <path id="Path_916662" data-name="Path 916662" d="M300.186,100.7l-16.524,9.549-5.922,2.767,16.529-9.548Z" fill="#544540"/>
            <path id="Path_916663" data-name="Path 916663" d="M309.517,106.089l-16.524,9.545-9.331-5.383,16.524-9.549Z" fill="#836e69"/>
            <path id="Path_916664" data-name="Path 916664" d="M309.52,116.827l-16.527,9.549V115.634l16.524-9.545Z" fill="#403531"/>
            <path id="Path_916665" data-name="Path 916665" d="M292.993,115.634l-9.331-5.383-5.922,2.767v4.551l15.253,8.807Z" fill="#685750"/>
          </g>
          <g id="Group_1120237" data-name="Group 1120237">
            <path id="Path_916666" data-name="Path 916666" d="M280.642,111.984l-16.529,9.547-5.919,2.769,16.531-9.544Z" fill="#544540"/>
            <path id="Path_916667" data-name="Path 916667" d="M289.969,117.37l-16.525,9.549-9.331-5.388,16.529-9.547Z" fill="#836e69"/>
            <path id="Path_916668" data-name="Path 916668" d="M289.974,128.112l-16.53,9.545V126.919l16.525-9.549Z" fill="#403531"/>
            <path id="Path_916669" data-name="Path 916669" d="M273.444,126.919l-9.331-5.388-5.919,2.769,0,4.553,15.247,8.8Z" fill="#685750"/>
          </g>
          <g id="Group_1120238" data-name="Group 1120238">
            <path id="Path_916670" data-name="Path 916670" d="M261.091,123.268l-16.522,9.546-5.922,2.769,16.53-9.546Z" fill="#544540"/>
            <path id="Path_916671" data-name="Path 916671" d="M270.426,128.656,253.9,138.2l-9.327-5.386,16.522-9.546Z" fill="#836e69"/>
            <path id="Path_916672" data-name="Path 916672" d="M270.426,139.393,253.9,148.942l0-10.742,16.53-9.544Z" fill="#403531"/>
            <path id="Path_916673" data-name="Path 916673" d="M253.9,138.2l-9.327-5.386-5.922,2.769v4.553l15.249,8.806Z" fill="#685750"/>
          </g>
          <g id="Group_1120239" data-name="Group 1120239">
            <path id="Path_916674" data-name="Path 916674" d="M241.548,134.553,225.02,144.1l-5.918,2.768,16.526-9.543Z" fill="#544540"/>
            <path id="Path_916675" data-name="Path 916675" d="M250.879,139.937l-16.529,9.549-9.329-5.388,16.527-9.545Z" fill="#836e69"/>
            <path id="Path_916676" data-name="Path 916676" d="M250.879,150.678l-16.527,9.545,0-10.737,16.529-9.549Z" fill="#403531"/>
            <path id="Path_916677" data-name="Path 916677" d="M234.35,149.486l-9.33-5.388-5.918,2.768v4.556l15.248,8.8Z" fill="#685750"/>
          </g>
        </g>
        <g id="Group_1120257" data-name="Group 1120257">
          <g id="Group_1120244" data-name="Group 1120244">
            <g id="Group_1120241" data-name="Group 1120241">
              <path id="Path_916678" data-name="Path 916678" d="M320.028,121.94v8.222l-6.705,3.87-2.37-9.642Z" fill="#a39c95"/>
              <path id="Path_916679" data-name="Path 916679" d="M313.317,125.814l.006,8.218-9.487,0-6.7-12.094Z" fill="#b5afa7"/>
              <path id="Path_916680" data-name="Path 916680" d="M303.841,125.812l-.005,8.222-6.7-3.872.006-8.222Z" fill="#d8d1c7"/>
              <path id="Path_916681" data-name="Path 916681" d="M297.132,116.467l.006,5.473,6.7,3.874h9.482l6.711-3.869v-5.478l-6.706-3.874-9.487,0Z" fill="#544540"/>
            </g>
            <g id="Group_1120242" data-name="Group 1120242">
              <path id="Path_916682" data-name="Path 916682" d="M320.028,118.223v2.745l-6.705,3.871-2.37-4.166Z" fill="#a39c95"/>
              <path id="Path_916683" data-name="Path 916683" d="M313.317,122.1l.006,2.741-9.487.005-6.7-6.621Z" fill="#b5afa7"/>
              <path id="Path_916684" data-name="Path 916684" d="M303.841,122.1l-.005,2.746-6.7-3.874.006-2.747Z" fill="#d8d1c7"/>
              <path id="Path_916685" data-name="Path 916685" d="M297.132,112.75l.006,5.473,6.7,3.875,9.482,0,6.711-3.874V112.75l-6.706-3.873h-9.487Z" fill="#544540"/>
            </g>
            <g id="Group_1120243" data-name="Group 1120243">
              <path id="Path_916686" data-name="Path 916686" d="M320.028,114.506v2.745l-6.705,3.871-2.37-4.166Z" fill="#a39c95"/>
              <path id="Path_916687" data-name="Path 916687" d="M313.317,118.383l.006,2.739-9.487,0-6.7-6.619Z" fill="#b5afa7"/>
              <path id="Path_916688" data-name="Path 916688" d="M303.841,118.383l-.005,2.742-6.7-3.87.006-2.749Z" fill="#d8d1c7"/>
              <path id="Path_916689" data-name="Path 916689" d="M297.132,109.034l.006,5.472,6.7,3.877h9.482l6.711-3.872v-5.477l-6.706-3.873h-9.487Z" fill="#e6e1dd"/>
            </g>
          </g>
          <g id="Group_1120248" data-name="Group 1120248">
            <g id="Group_1120245" data-name="Group 1120245">
              <path id="Path_916690" data-name="Path 916690" d="M301.578,132.592l-.005,8.222-6.7,3.872-2.37-9.644Z" fill="#a39c95"/>
              <path id="Path_916691" data-name="Path 916691" d="M294.868,136.469l0,8.217h-9.486l-6.7-12.091Z" fill="#b5afa7"/>
              <path id="Path_916692" data-name="Path 916692" d="M285.39,136.464l0,8.222-6.709-3.872.007-8.219Z" fill="#d8d1c7"/>
              <path id="Path_916693" data-name="Path 916693" d="M278.678,127.119l.007,5.476,6.705,3.874h9.483l6.705-3.872v-5.478l-6.7-3.872H285.39Z" fill="#544540"/>
            </g>
            <g id="Group_1120246" data-name="Group 1120246">
              <path id="Path_916694" data-name="Path 916694" d="M301.578,128.878l-.005,2.747-6.7,3.869-2.37-4.169Z" fill="#a39c95"/>
              <path id="Path_916695" data-name="Path 916695" d="M294.868,132.752l0,2.742h-9.486l-6.7-6.616Z" fill="#b5afa7"/>
              <path id="Path_916696" data-name="Path 916696" d="M285.39,132.752l0,2.742-6.709-3.869.007-2.747Z" fill="#d8d1c7"/>
              <path id="Path_916697" data-name="Path 916697" d="M278.678,123.4l.007,5.476,6.705,3.874h9.483l6.705-3.872V123.4l-6.7-3.872H285.39Z" fill="#544540"/>
            </g>
            <g id="Group_1120247" data-name="Group 1120247">
              <path id="Path_916698" data-name="Path 916698" d="M301.578,125.161l-.005,2.744-6.7,3.869-2.37-4.166Z" fill="#a39c95"/>
              <path id="Path_916699" data-name="Path 916699" d="M294.868,129.035l0,2.739-9.486,0-6.7-6.614Z" fill="#b5afa7"/>
              <path id="Path_916700" data-name="Path 916700" d="M285.39,129.035l0,2.743-6.709-3.87.007-2.744Z" fill="#d8d1c7"/>
              <path id="Path_916701" data-name="Path 916701" d="M278.678,119.688l.007,5.476,6.705,3.871,9.483,0,6.705-3.874v-5.476l-6.7-3.875H285.39Z" fill="#e6e1dd"/>
            </g>
          </g>
          <g id="Group_1120252" data-name="Group 1120252">
            <g id="Group_1120249" data-name="Group 1120249">
              <path id="Path_916702" data-name="Path 916702" d="M283.123,143.247v8.22l-6.7,3.871-2.37-9.643Z" fill="#a39c95"/>
              <path id="Path_916703" data-name="Path 916703" d="M276.413,147.121l.005,8.217-9.486,0-6.7-12.092Z" fill="#b5afa7"/>
              <path id="Path_916704" data-name="Path 916704" d="M266.935,147.121l0,8.22-6.7-3.869,0-8.223Z" fill="#d8d1c7"/>
              <path id="Path_916705" data-name="Path 916705" d="M260.228,137.774l0,5.475,6.7,3.872h9.483l6.711-3.872v-5.475l-6.707-3.874h-9.487Z" fill="#544540"/>
            </g>
            <g id="Group_1120250" data-name="Group 1120250">
              <path id="Path_916706" data-name="Path 916706" d="M283.123,139.53v2.746l-6.7,3.869-2.37-4.168Z" fill="#a39c95"/>
              <path id="Path_916707" data-name="Path 916707" d="M276.413,143.4l.005,2.741-9.486,0-6.7-6.615Z" fill="#b5afa7"/>
              <path id="Path_916708" data-name="Path 916708" d="M266.935,143.4l0,2.744-6.7-3.868,0-2.747Z" fill="#d8d1c7"/>
              <path id="Path_916709" data-name="Path 916709" d="M260.228,134.054l0,5.479,6.7,3.871,9.483,0,6.711-3.874v-5.479l-6.707-3.871-9.487,0Z" fill="#544540"/>
            </g>
            <g id="Group_1120251" data-name="Group 1120251">
              <path id="Path_916710" data-name="Path 916710" d="M283.123,135.815v2.745l-6.7,3.869-2.37-4.166Z" fill="#a39c95"/>
              <path id="Path_916711" data-name="Path 916711" d="M276.413,139.688l.005,2.741-9.486,0-6.7-6.616Z" fill="#b5afa7"/>
              <path id="Path_916712" data-name="Path 916712" d="M266.935,139.688l0,2.743-6.7-3.871,0-2.745Z" fill="#d8d1c7"/>
              <path id="Path_916713" data-name="Path 916713" d="M260.228,130.342l0,5.473,6.7,3.873,9.483,0,6.711-3.874v-5.476l-6.707-3.871h-9.487Z" fill="#e6e1dd"/>
            </g>
          </g>
          <g id="Group_1120256" data-name="Group 1120256">
            <g id="Group_1120253" data-name="Group 1120253">
              <path id="Path_916714" data-name="Path 916714" d="M264.674,153.9v8.22l-6.707,3.87L255.6,156.35Z" fill="#a39c95"/>
              <path id="Path_916715" data-name="Path 916715" d="M257.963,157.776l0,8.215-9.488.005-6.7-12.1Z" fill="#b5afa7"/>
              <path id="Path_916716" data-name="Path 916716" d="M248.481,157.774l0,8.222-6.7-3.872,0-8.223Z" fill="#d8d1c7"/>
              <path id="Path_916717" data-name="Path 916717" d="M241.777,148.428l0,5.473,6.7,3.875,9.486,0,6.707-3.877v-5.473l-6.705-3.874h-9.488Z" fill="#544540"/>
            </g>
            <g id="Group_1120254" data-name="Group 1120254">
              <path id="Path_916718" data-name="Path 916718" d="M264.674,150.185v2.743l-6.707,3.872-2.369-4.165Z" fill="#a39c95"/>
              <path id="Path_916719" data-name="Path 916719" d="M257.963,154.059l0,2.741h-9.488l-6.7-6.615Z" fill="#b5afa7"/>
              <path id="Path_916720" data-name="Path 916720" d="M248.481,154.056l0,2.744-6.7-3.867,0-2.748Z" fill="#d8d1c7"/>
              <path id="Path_916721" data-name="Path 916721" d="M241.777,144.711l0,5.474,6.7,3.874h9.486l6.707-3.873v-5.476l-6.705-3.876-9.488,0Z" fill="#544540"/>
            </g>
            <g id="Group_1120255" data-name="Group 1120255">
              <path id="Path_916722" data-name="Path 916722" d="M264.674,146.468v2.744l-6.707,3.873-2.369-4.17Z" fill="#a39c95"/>
              <path id="Path_916723" data-name="Path 916723" d="M257.963,150.342l0,2.743h-9.488l-6.7-6.615Z" fill="#b5afa7"/>
              <path id="Path_916724" data-name="Path 916724" d="M248.481,150.339l0,2.746-6.7-3.868,0-2.747Z" fill="#d8d1c7"/>
              <path id="Path_916725" data-name="Path 916725" d="M241.777,140.994l0,5.476,6.7,3.872,9.486,0,6.707-3.871v-5.479l-6.705-3.871h-9.488Z" fill="#e6e1dd"/>
            </g>
          </g>
        </g>
        <g id="Group_1120262" data-name="Group 1120262">
          <g id="Group_1120258" data-name="Group 1120258">
            <path id="Path_916726" data-name="Path 916726" d="M310.439,125.707l9.329,5.386,5.913,9.6v4.556l-15.242-8.806Z" fill="#685750"/>
            <path id="Path_916727" data-name="Path 916727" d="M342.211,135.7l-16.53,9.55V140.7l16.53-9.545Z" fill="#403531"/>
            <path id="Path_916728" data-name="Path 916728" d="M342.211,131.15l-16.53,9.545-5.913-9.6,16.525-9.547Z" fill="#544540"/>
            <path id="Path_916729" data-name="Path 916729" d="M336.293,121.546l-16.525,9.547-9.329-5.386,16.521-9.547Z" fill="#836e69"/>
          </g>
          <g id="Group_1120259" data-name="Group 1120259">
            <path id="Path_916730" data-name="Path 916730" d="M290.893,136.993l9.329,5.383,5.917,9.6v4.55l-15.246-8.8Z" fill="#685750"/>
            <path id="Path_916731" data-name="Path 916731" d="M322.667,146.986l-16.528,9.544v-4.55l16.525-9.544Z" fill="#403531"/>
            <path id="Path_916732" data-name="Path 916732" d="M322.664,142.436l-16.525,9.544-5.917-9.6,16.524-9.545Z" fill="#544540"/>
            <path id="Path_916733" data-name="Path 916733" d="M316.746,132.831l-16.524,9.545-9.329-5.383,16.523-9.55Z" fill="#836e69"/>
          </g>
          <g id="Group_1120260" data-name="Group 1120260">
            <path id="Path_916734" data-name="Path 916734" d="M271.339,148.273l9.332,5.389,5.919,9.6v4.553l-15.251-8.8Z" fill="#685750"/>
            <path id="Path_916735" data-name="Path 916735" d="M303.115,158.267l-16.525,9.549v-4.553l16.525-9.546Z" fill="#403531"/>
            <path id="Path_916736" data-name="Path 916736" d="M303.115,153.717l-16.525,9.546-5.919-9.6,16.53-9.55Z" fill="#544540"/>
            <path id="Path_916737" data-name="Path 916737" d="M297.2,144.112l-16.53,9.55-9.332-5.389,16.529-9.546Z" fill="#836e69"/>
          </g>
          <g id="Group_1120261" data-name="Group 1120261">
            <path id="Path_916738" data-name="Path 916738" d="M251.795,159.557l9.33,5.386,5.921,9.6v4.55l-15.251-8.8Z" fill="#685750"/>
            <path id="Path_916739" data-name="Path 916739" d="M283.574,169.553,267.046,179.1v-4.55L283.574,165Z" fill="#403531"/>
            <path id="Path_916740" data-name="Path 916740" d="M283.574,165l-16.528,9.544-5.921-9.6,16.531-9.544Z" fill="#544540"/>
            <path id="Path_916741" data-name="Path 916741" d="M277.656,155.4l-16.531,9.544-9.33-5.386,16.53-9.547Z" fill="#836e69"/>
          </g>
        </g>
        <g id="Group_1120278" data-name="Group 1120278">
          <g id="Group_1120267" data-name="Group 1120267">
            <g id="Group_1120263" data-name="Group 1120263">
              <path id="Path_916742" data-name="Path 916742" d="M377.933,196.541l-20.442,11.8-17.96-9.636-6.256-32.3,20.443-11.8Z" fill="#211a1a"/>
              <path id="Path_916743" data-name="Path 916743" d="M357.491,208.339,324.35,227.477l6.79-38.157-6.107-18.131,8.242-4.79Z" fill="#362c29"/>
            </g>
            <g id="Group_1120266" data-name="Group 1120266">
              <g id="Group_1120264" data-name="Group 1120264">
                <path id="Path_916744" data-name="Path 916744" d="M366.406,190.607l-8.59,4.965-8.1-4.666,8.647-8.3Z" fill="#a39c95"/>
                <path id="Path_916745" data-name="Path 916745" d="M358.3,185.937l-8.583,4.969-5.727-9.911,8.579-14.3Z" fill="#d8d1c7"/>
                <path id="Path_916746" data-name="Path 916746" d="M352.581,176.034l-8.589,4.961-.01-9.342,8.589-4.959Z" fill="#e6e1dd"/>
                <path id="Path_916747" data-name="Path 916747" d="M360.977,161.832l-8.406,4.862,0,9.342,5.731,9.907,8.1,4.669,8.407-4.859,0-9.345-5.731-9.908Z" fill="#544540"/>
              </g>
              <g id="Group_1120265" data-name="Group 1120265">
                <path id="Path_916748" data-name="Path 916748" d="M370.894,188.053l-2.844,1.605-8.1-4.669,2.906-4.935Z" fill="#a39c95"/>
                <path id="Path_916749" data-name="Path 916749" d="M362.8,183.383l-2.842,1.606-5.733-9.911,2.843-10.939Z" fill="#d8d1c7"/>
                <path id="Path_916750" data-name="Path 916750" d="M357.069,173.482l-2.849,1.6-.011-9.34,2.854-1.6Z" fill="#e6e1dd"/>
                <path id="Path_916751" data-name="Path 916751" d="M365.47,159.277l-8.407,4.862.006,9.345,5.732,9.905,8.093,4.669,8.412-4.859-.005-9.344-5.733-9.911Z" fill="#b5afa7"/>
              </g>
            </g>
          </g>
          <g id="Group_1120272" data-name="Group 1120272">
            <g id="Group_1120268" data-name="Group 1120268">
              <path id="Path_916752" data-name="Path 916752" d="M355.356,209.572l-20.436,11.8-17.96-9.637-6.256-32.3,20.441-11.8Z" fill="#211a1a"/>
              <path id="Path_916753" data-name="Path 916753" d="M334.92,221.374l-33,19.134,6.643-38.156-6.105-18.128,8.243-4.792Z" fill="#362c29"/>
            </g>
            <g id="Group_1120271" data-name="Group 1120271">
              <g id="Group_1120269" data-name="Group 1120269">
                <path id="Path_916754" data-name="Path 916754" d="M343.83,203.64l-8.584,4.966-8.1-4.666,8.648-8.3Z" fill="#a39c95"/>
                <path id="Path_916755" data-name="Path 916755" d="M335.727,198.97l-8.584,4.97-5.727-9.909L330,179.726Z" fill="#d8d1c7"/>
                <path id="Path_916756" data-name="Path 916756" d="M330.005,189.066l-8.589,4.965-.011-9.344,8.6-4.961Z" fill="#e6e1dd"/>
                <path id="Path_916757" data-name="Path 916757" d="M338.4,174.861l-8.4,4.865.005,9.344,5.722,9.908,8.1,4.666,8.412-4.859-.009-9.346-5.732-9.908Z" fill="#544540"/>
              </g>
              <g id="Group_1120270" data-name="Group 1120270">
                <path id="Path_916758" data-name="Path 916758" d="M348.322,201.086l-2.843,1.6-8.1-4.666,2.906-4.938Z" fill="#a39c95"/>
                <path id="Path_916759" data-name="Path 916759" d="M340.22,196.416l-2.841,1.607-5.73-9.914,2.843-10.938Z" fill="#d8d1c7"/>
                <path id="Path_916760" data-name="Path 916760" d="M334.495,186.513l-2.846,1.6-.012-9.338,2.855-1.6Z" fill="#e6e1dd"/>
                <path id="Path_916761" data-name="Path 916761" d="M342.9,172.309l-8.4,4.862,0,9.345,5.731,9.908,8.1,4.667,8.409-4.859-.007-9.343-5.733-9.912Z" fill="#b5afa7"/>
              </g>
            </g>
          </g>
          <g id="Group_1120277" data-name="Group 1120277">
            <g id="Group_1120273" data-name="Group 1120273">
              <path id="Path_916762" data-name="Path 916762" d="M332.786,222.6l-20.441,11.8-17.961-9.635-6.258-32.306,20.44-11.8Z" fill="#211a1a"/>
              <path id="Path_916763" data-name="Path 916763" d="M312.345,234.406l-32.674,19.135,6.32-38.157-6.105-18.133,8.24-4.786Z" fill="#362c29"/>
            </g>
            <g id="Group_1120276" data-name="Group 1120276">
              <g id="Group_1120274" data-name="Group 1120274">
                <path id="Path_916764" data-name="Path 916764" d="M321.256,216.672l-8.584,4.97-8.1-4.666,8.644-8.3Z" fill="#a39c95"/>
                <path id="Path_916765" data-name="Path 916765" d="M313.153,212l-8.581,4.972-5.733-9.914,8.585-14.3Z" fill="#d8d1c7"/>
                <path id="Path_916766" data-name="Path 916766" d="M307.431,202.1l-8.592,4.962-.007-9.34,8.592-4.964Z" fill="#e6e1dd"/>
                <path id="Path_916767" data-name="Path 916767" d="M315.831,187.9l-8.407,4.862.007,9.343,5.727,9.909,8.1,4.667,8.407-4.857,0-9.346-5.735-9.91Z" fill="#544540"/>
              </g>
              <g id="Group_1120275" data-name="Group 1120275">
                <path id="Path_916768" data-name="Path 916768" d="M325.749,214.121l-2.847,1.6-8.1-4.667,2.9-4.938Z" fill="#a39c95"/>
                <path id="Path_916769" data-name="Path 916769" d="M317.646,209.449l-2.841,1.608-5.731-9.912,2.842-10.942Z" fill="#d8d1c7"/>
                <path id="Path_916770" data-name="Path 916770" d="M311.923,199.546l-2.849,1.6-.009-9.34,2.851-1.6Z" fill="#e6e1dd"/>
                <path id="Path_916771" data-name="Path 916771" d="M320.322,185.342l-8.406,4.861.007,9.344,5.725,9.91,8.1,4.665,8.409-4.856,0-9.349-5.73-9.908Z" fill="#b5afa7"/>
              </g>
            </g>
          </g>
        </g>
        <g id="Group_1120291" data-name="Group 1120291">
          <g id="Group_1120284" data-name="Group 1120284">
            <g id="Group_1120279" data-name="Group 1120279">
              <path id="Path_916772" data-name="Path 916772" d="M207.627,232.026l5.511,9.547,8.285,4.66L232.616,234.5l-9.133-15.815-15.753,3.831Z" fill="#362c29"/>
              <path id="Path_916773" data-name="Path 916773" d="M225.776,243.722l-4.353,2.511L232.616,234.5l4.355-2.51Z" fill="#0a0808"/>
              <path id="Path_916774" data-name="Path 916774" d="M212.083,220l-4.353,2.516,15.753-3.831,4.353-2.513Z" fill="#574943"/>
            </g>
            <g id="Group_1120280" data-name="Group 1120280">
              <path id="Path_916775" data-name="Path 916775" d="M235.174,264.835l7.795,4.5,5.787-3.51-3.224-23.864-12.919-7.46-3.221,20.144Z" fill="#362c29"/>
              <path id="Path_916776" data-name="Path 916776" d="M253.108,263.31l-5.786,3.515-4.353,2.51,5.787-3.51-3.224-23.864,4.352-2.514Z" fill="#0a0808"/>
            </g>
            <g id="Group_1120281" data-name="Group 1120281">
              <path id="Path_916777" data-name="Path 916777" d="M265.008,271.519l5.513-3.182-.1-9.626L254.665,236.69l-9.133,5.271,11.191,24.651Z" fill="#362c29"/>
              <path id="Path_916778" data-name="Path 916778" d="M274.771,256.2l-4.354,2.516L254.665,236.69l4.351-2.517Z" fill="#211a1a"/>
              <path id="Path_916779" data-name="Path 916779" d="M274.876,265.823l-4.355,2.514-.1-9.626,4.354-2.516Z" fill="#0a0808"/>
            </g>
            <g id="Group_1120282" data-name="Group 1120282">
              <path id="Path_916780" data-name="Path 916780" d="M227.842,201.26l-4.359,2.515-19.05-14.723L198.5,192.3l4.353-2.516,5.93-3.252Z" fill="#574943"/>
              <path id="Path_916781" data-name="Path 916781" d="M198.5,192.3v9l5.932,10.1,19.05,7.274V203.775l-19.05-14.723Z" fill="#362c29"/>
            </g>
            <g id="Group_1120283" data-name="Group 1120283">
              <path id="Path_916782" data-name="Path 916782" d="M213.139,168.946l-5.512,3.183.1,9.628,15.753,22.018,9.136-5.271-11.2-24.655Z" fill="#362c29"/>
              <path id="Path_916783" data-name="Path 916783" d="M225.776,171.338l-4.353,2.511-8.284-4.9,4.355-2.511Z" fill="#574943"/>
              <path id="Path_916784" data-name="Path 916784" d="M236.975,195.991l-4.356,2.513-11.2-24.655,4.353-2.511Z" fill="#211a1a"/>
            </g>
          </g>
          <g id="Group_1120286" data-name="Group 1120286">
            <path id="Path_916785" data-name="Path 916785" d="M259.016,234.173l-11.024,6.367V225.63l11.024-6.365Z" fill="#a39c95"/>
            <path id="Path_916786" data-name="Path 916786" d="M247.992,225.63l-9.132-15.818-12.91-7.454-9.134,5.269v14.916l9.129,15.812,12.915,7.459,9.132-5.274Z" fill="#d8d1c7"/>
            <path id="Path_916787" data-name="Path 916787" d="M230.3,234.6l11.392,6.579L238.1,243.26l-11.4-6.579Z" fill="#e6e1dd"/>
            <path id="Path_916788" data-name="Path 916788" d="M226.7,236.681l-8.053-13.962,3.583-2.075L230.3,234.6Z" fill="#b5afa7"/>
            <path id="Path_916789" data-name="Path 916789" d="M218.651,222.719V209.568l3.583-2.077v13.153Z" fill="#a39c95"/>
            <path id="Path_916790" data-name="Path 916790" d="M246.155,225.448V238.6l-4.463,2.586L230.3,234.6l-8.066-13.961V207.491l4.47-2.58,11.387,6.587Z" fill="#836e69"/>
            <g id="Group_1120285" data-name="Group 1120285">
              <path id="Path_916791" data-name="Path 916791" d="M237.991,217.6,234,215.3l-2.822,1.627v4.61L234,226.422l3.99,2.3,2.82-1.627v-4.609Z" fill="#362c29"/>
              <path id="Path_916792" data-name="Path 916792" d="M240.6,227.19l-3.4,1.964v-4.6l3.4-1.965Z" fill="#a39c95"/>
              <path id="Path_916793" data-name="Path 916793" d="M237.2,224.556l-2.817-4.875-3.98-2.3-2.813,1.627v4.6l2.813,4.879,3.98,2.295,2.817-1.622Z" fill="#d8d1c7"/>
              <path id="Path_916794" data-name="Path 916794" d="M237.783,217.718l-3.4,1.963-3.98-2.3,3.4-1.961Z" fill="#e6e1dd"/>
              <rect id="Rectangle_410784" data-name="Rectangle 410784" width="3.926" height="5.629" transform="translate(234.371 219.686) rotate(-30.034)" fill="#b5afa7"/>
            </g>
            <path id="Path_916795" data-name="Path 916795" d="M249.884,203.447l-11.024,6.365-12.91-7.454,11.025-6.367Z" fill="#e6e1dd"/>
            <rect id="Rectangle_410785" data-name="Rectangle 410785" width="12.729" height="18.264" transform="matrix(0.866, -0.5, 0.5, 0.866, 238.87, 209.803)" fill="#b5afa7"/>
          </g>
          <g id="Group_1120290" data-name="Group 1120290">
            <g id="Group_1120287" data-name="Group 1120287">
              <path id="Path_916796" data-name="Path 916796" d="M242.973,175.63l-7.8-4.5-5.782,3.513,3.224,23.862,12.913,7.46,3.228-20.142Z" fill="#362c29"/>
              <path id="Path_916797" data-name="Path 916797" d="M247.326,173.118l-4.353,2.512-7.8-4.5,4.352-2.511Z" fill="#574943"/>
              <path id="Path_916798" data-name="Path 916798" d="M253.112,183.31l-4.352,2.512-5.787-10.192,4.353-2.512Z" fill="#211a1a"/>
              <path id="Path_916799" data-name="Path 916799" d="M249.884,203.447l-4.352,2.515,3.228-20.14,4.352-2.512Z" fill="#0a0808"/>
            </g>
            <g id="Group_1120288" data-name="Group 1120288">
              <path id="Path_916800" data-name="Path 916800" d="M279.649,248.161v-9l-5.93-10.1-19.054-7.277v14.914l19.054,14.725Z" fill="#362c29"/>
              <path id="Path_916801" data-name="Path 916801" d="M278.068,226.541l-4.349,2.514-19.054-7.277,4.351-2.513Z" fill="#574943"/>
              <path id="Path_916802" data-name="Path 916802" d="M284.006,236.649l-4.357,2.51-5.93-10.1,4.349-2.514Z" fill="#211a1a"/>
              <path id="Path_916803" data-name="Path 916803" d="M284.006,245.648l-4.357,2.513v-9l4.357-2.51Z" fill="#0a0808"/>
            </g>
            <g id="Group_1120289" data-name="Group 1120289">
              <path id="Path_916804" data-name="Path 916804" d="M270.521,208.443l-5.513-9.548-8.28-4.661-11.2,11.728,9.133,15.818,15.752-3.829Z" fill="#362c29"/>
              <path id="Path_916805" data-name="Path 916805" d="M269.363,196.38l-4.355,2.515-8.28-4.661,4.35-2.513Z" fill="#574943"/>
              <rect id="Rectangle_410786" data-name="Rectangle 410786" width="5.029" height="11.026" transform="translate(265.009 198.897) rotate(-29.98)" fill="#211a1a"/>
              <path id="Path_916806" data-name="Path 916806" d="M274.771,215.436l-4.354,2.515.1-9.508,4.355-2.513Z" fill="#0a0808"/>
            </g>
          </g>
        </g>
      </g>
      <g id="Group_1120293" data-name="Group 1120293">
        <path id="Path_916807" data-name="Path 916807" d="M278.436,249.236l.851,2.361.217,1.374,1.184-.128.813-.05.917.521.115,1.883-.725.408h-3.743l-1.069-1.2-.407-1.974.414-3.2Z" fill="#f0c6b4"/>
        <path id="Path_916808" data-name="Path 916808" d="M286.524,252.754l-1.84-.319-2.228.319-.955.039.587.7.076,1.4-.561,1.119,2.113.484,2.292.891Z" fill="#f4efe9"/>
        <path id="Path_916809" data-name="Path 916809" d="M287.521,250.871l.379.61-.1,1.058.44,1.246,1.524.142,1.641-.8.218-1.644-.218-1.144-.624-.6-.148-.835-.5-.259-2.687,1.424Z" fill="#c7a495"/>
        <path id="Path_916810" data-name="Path 916810" d="M296.818,261.866l.137-3.508-1.057.516-.226,3.757.967.068Z" fill="#2d5a78"/>
        <path id="Path_916811" data-name="Path 916811" d="M295.218,251.325H294.1l-.756-.3-.772.155-.433-.434-.738-.406-.179,1.145-.686,1.4-1.145.559-1.155-.662-.338-1.3s-.392.864-.518.891a4.52,4.52,0,0,1-.672-.041l-.881.971-.561,1.974.637,3.029,1.477,2.672,1.068,2.048,3.923,1.058,2.995-.152,1.253-1.694.115-2.608.622-3.615Z" fill="#fff"/>
        <path id="Path_916812" data-name="Path 916812" d="M296.838,259.035l-1.469-.593-1.514.117.578,1.9.936,1.645,1.28-.492.014-.3Z" fill="#e0dedc"/>
        <path id="Path_916813" data-name="Path 916813" d="M289.326,288.681l-.57.8-1.642,1.9v.307l.458.851,1.184.089,1.234-1.145.967-1.257.829-.565.356-.723v-.306Z" fill="#362c29"/>
        <path id="Path_916814" data-name="Path 916814" d="M298.469,288.6l-.455,1.385-.935,2.17v.309l1.02.372,1.611-.441,1.188-2.308.476-.729v-.3Z" fill="#362c29"/>
        <path id="Path_916815" data-name="Path 916815" d="M289.326,288.377l-.57.8-1.439,1.208-.2.994.458.853,1.184.087,1.234-1.144.967-1.258.829-.562.356-.725-.063-.662Z" fill="#fff"/>
        <path id="Path_916816" data-name="Path 916816" d="M298.469,288.3l-.455,1.386-.935,1.612v.862l1.02.375,1.611-.439,1.188-2.31.476-.727-.4-1.744Z" fill="#fff"/>
        <path id="Path_916817" data-name="Path 916817" d="M288.493,267.586l-.407,4.48.161,7.339.816,8.783.992.711,1.63-.3.882-1.188-.306-6.312-.441-2,1.46-8.339-1.529-2.353-2.036-1.051Z" fill="#377691"/>
        <path id="Path_916818" data-name="Path 916818" d="M286.236,256.724l3.31-1.391,4.1-.924.673,3.741.863,2.648,1.086,1.662.552-.594,1.537,5.99.422,4.718.275,5.8,1.253,2.441.747,6.078-.238,1.254-1.462.613-1.152-.613-1.68-6.617-1.151-2.1-1.581-6.451-.341-2.068-2.475-.983-2.479-2.343.1-3.6-.144-.963-1.223-3.039Z" fill="#428aa8"/>
        <path id="Path_916819" data-name="Path 916819" d="M296.762,257.948l1.247-.114.852-.408.458-1.567-.964-.357-1.835,1.441Z" fill="#d1d1d1"/>
        <path id="Path_916820" data-name="Path 916820" d="M296.852,257.756l1.081,1.19-.94.126.438,1.713.257.1,1.8.725,1.6-.266.5-.88-.266-1.475-2.1-3.109-.484-.38-2.215,1.644Z" fill="#f0c6b4"/>
        <path id="Path_916821" data-name="Path 916821" d="M285.659,248.02l.194.585,1.108,1.782.56.484,1.1-.128,1.07-.777.81-1.064.181-.6.191-.28.066-1.349-.8-1.361-1.54-.778h-1.834l-1.1.217-.594.827.079,1.538.241.588Z" fill="#f0c6b4"/>
        <path id="Path_916822" data-name="Path 916822" d="M285.523,247.547l-.194-.959-.043-.959.49-.461h1.733l1-.118.325.526.827.476v.508l.341.085.169-.347h.357l.237.686v.9l-.3.165.034.849h.135l.341-.984.084-1.171-.34-1.272-1.17-1.273-1.035-.56H287.3l-1,.154-.986.371-.237.85-.424.507-.119,1.14.586.99.534.366Z" fill="#a39c95"/>
        <path id="Path_916823" data-name="Path 916823" d="M292.142,250.743l-.485,1.068-.254,1.733.319,2.315,1.305-.181-.3-2.312.167-1.406.452-.939Z" fill="#428aa8"/>
        <path id="Path_916824" data-name="Path 916824" d="M287.9,251.481l-.239,1.188.035,1.612.542,2.4-1.136.357-.578-2.231V253.3l.187-.971Z" fill="#428aa8"/>
        <path id="Path_916825" data-name="Path 916825" d="M297.665,260.926l.344-.573-.344-.956-.712-.343-1.8-.3-1.272.241-1.071.846-.088.883,1.768,1.146.612-.138.764-.318,1.336-.165Z" fill="#fff"/>
        <path id="Path_916826" data-name="Path 916826" d="M294.84,255.224l-.523-1.462.1-1.644.95-.941,1.354.3.79.865,1.806,3.513-.964.217-1.134.9-.459.968Z" fill="#f4efe9"/>
        <path id="Path_916827" data-name="Path 916827" d="M297.933,258.946l1.64-.5,1.045.31-1.438.061Z" fill="#c7a495"/>
        <path id="Path_916828" data-name="Path 916828" d="M278.358,249.4l-.394.2-.675-.079-.395-.393-.114-2.469.38-1.27,1.108-.639.867.293.369,1.769-.815.992-.037,1.006Z" fill="#fff"/>
        <path id="Path_916829" data-name="Path 916829" d="M279.5,252.971l.057.9-.453.942.751-.89Z" fill="#c7a495"/>
      </g>
      <g id="Group_1120313" data-name="Group 1120313">
        <g id="Group_1120311" data-name="Group 1120311">
          <g id="Group_1120294" data-name="Group 1120294">
            <path id="Path_916830" data-name="Path 916830" d="M326.881,177.8l-2.147-1.239.924-.532,2.148,1.239Z" fill="#e6e1dd"/>
            <path id="Path_916831" data-name="Path 916831" d="M351.121,276.768l-.924.534-2.852-7.091L326.2,178.376l.681-.58.925-.532Z" fill="#a39c95"/>
            <path id="Path_916832" data-name="Path 916832" d="M350.2,277.3l-2.147-1.239-23.316-99.506,2.147,1.239Z" fill="#d8d1c7"/>
          </g>
          <g id="Group_1120309" data-name="Group 1120309">
            <g id="Group_1120295" data-name="Group 1120295">
              <path id="Path_916833" data-name="Path 916833" d="M315.239,190.1l11.747-6.781.22.126-11.75,6.871Z" fill="#e6e1dd"/>
              <path id="Path_916834" data-name="Path 916834" d="M315.458,190.23l11.748-6.782.154.269-11.749,7.032Z" fill="#b5afa7"/>
              <path id="Path_916835" data-name="Path 916835" d="M315.611,190.5l11.749-6.781v.252l-11.749,6.78Z" fill="#a39c95"/>
              <path id="Path_916836" data-name="Path 916836" d="M315.458,190.839l.153-.09V190.5l-.153-.268-.219-.127-.155.088v.254l.155.267Z" fill="#d8d1c7"/>
            </g>
            <g id="Group_1120296" data-name="Group 1120296">
              <path id="Path_916837" data-name="Path 916837" d="M316.737,196.5l11.748-6.78.219.127-11.749,6.87Z" fill="#e6e1dd"/>
              <path id="Path_916838" data-name="Path 916838" d="M316.957,196.631l11.747-6.78.153.267-11.746,7.032Z" fill="#b5afa7"/>
              <path id="Path_916839" data-name="Path 916839" d="M317.111,196.9l11.746-6.781v.252l-11.746,6.78Z" fill="#a39c95"/>
              <path id="Path_916840" data-name="Path 916840" d="M316.956,197.242l.155-.092V196.9l-.154-.267-.218-.127-.156.089v.253l.156.268Z" fill="#d8d1c7"/>
            </g>
            <g id="Group_1120297" data-name="Group 1120297">
              <path id="Path_916841" data-name="Path 916841" d="M318.234,202.9l11.749-6.78.219.125-11.749,6.873Z" fill="#e6e1dd"/>
              <path id="Path_916842" data-name="Path 916842" d="M318.454,203.032,330.2,196.25l.153.268-11.746,7.035Z" fill="#b5afa7"/>
              <path id="Path_916843" data-name="Path 916843" d="M318.609,203.3l11.746-6.781v.252l-11.746,6.783Z" fill="#a39c95"/>
              <path id="Path_916844" data-name="Path 916844" d="M318.453,203.641l.156-.088V203.3l-.155-.267-.219-.127-.155.09v.253l.155.267Z" fill="#d8d1c7"/>
            </g>
            <g id="Group_1120298" data-name="Group 1120298">
              <path id="Path_916845" data-name="Path 916845" d="M319.733,209.307l11.749-6.78.217.124-11.749,6.872Z" fill="#e6e1dd"/>
              <path id="Path_916846" data-name="Path 916846" d="M319.951,209.434l11.748-6.783.155.269-11.746,7.033Z" fill="#b5afa7"/>
              <path id="Path_916847" data-name="Path 916847" d="M320.108,209.7l11.746-6.782v.252l-11.746,6.781Z" fill="#a39c95"/>
              <path id="Path_916848" data-name="Path 916848" d="M319.951,210.043l.157-.09V209.7l-.157-.27-.218-.125-.154.088v.255l.154.266Z" fill="#d8d1c7"/>
            </g>
            <g id="Group_1120299" data-name="Group 1120299">
              <path id="Path_916849" data-name="Path 916849" d="M321.231,215.709l11.747-6.783.22.127-11.749,6.873Z" fill="#e6e1dd"/>
              <path id="Path_916850" data-name="Path 916850" d="M321.45,215.835l11.748-6.782.155.267-11.748,7.035Z" fill="#b5afa7"/>
              <path id="Path_916851" data-name="Path 916851" d="M321.605,216.1l11.748-6.784v.253l-11.748,6.782Z" fill="#a39c95"/>
              <path id="Path_916852" data-name="Path 916852" d="M321.45,216.445l.155-.09V216.1l-.155-.269-.219-.126-.155.089v.252l.155.267Z" fill="#d8d1c7"/>
            </g>
            <g id="Group_1120300" data-name="Group 1120300">
              <path id="Path_916853" data-name="Path 916853" d="M322.73,222.109l11.748-6.781.217.126-11.749,6.874Z" fill="#e6e1dd"/>
              <path id="Path_916854" data-name="Path 916854" d="M322.948,222.235l11.747-6.781.156.27L323.1,222.756Z" fill="#b5afa7"/>
              <path id="Path_916855" data-name="Path 916855" d="M323.1,222.5l11.749-6.778v.252l-11.749,6.78Z" fill="#a39c95"/>
              <path id="Path_916856" data-name="Path 916856" d="M322.948,222.846l.154-.09V222.5l-.154-.267-.218-.126-.155.091v.252l.155.267Z" fill="#d8d1c7"/>
            </g>
            <g id="Group_1120301" data-name="Group 1120301">
              <path id="Path_916857" data-name="Path 916857" d="M324.227,228.511l11.749-6.782.218.126-11.75,6.872Z" fill="#e6e1dd"/>
              <path id="Path_916858" data-name="Path 916858" d="M324.447,228.637l11.747-6.782.154.269L324.6,229.156Z" fill="#b5afa7"/>
              <path id="Path_916859" data-name="Path 916859" d="M324.6,228.906l11.747-6.782v.252l-11.747,6.78Z" fill="#a39c95"/>
              <path id="Path_916860" data-name="Path 916860" d="M324.446,229.247l.155-.091v-.25l-.154-.27-.219-.125-.156.089v.255l.156.266Z" fill="#d8d1c7"/>
            </g>
            <g id="Group_1120302" data-name="Group 1120302">
              <path id="Path_916861" data-name="Path 916861" d="M325.726,234.911l11.748-6.78.217.128-11.749,6.869Z" fill="#e6e1dd"/>
              <path id="Path_916862" data-name="Path 916862" d="M325.944,235.039l11.747-6.78.155.265L326.1,235.557Z" fill="#b5afa7"/>
              <path id="Path_916863" data-name="Path 916863" d="M326.1,235.307l11.746-6.783v.252L326.1,235.557Z" fill="#a39c95"/>
              <path id="Path_916864" data-name="Path 916864" d="M325.944,235.648l.156-.091v-.25l-.156-.268-.218-.128-.155.089v.253l.155.267Z" fill="#d8d1c7"/>
            </g>
            <g id="Group_1120303" data-name="Group 1120303">
              <path id="Path_916865" data-name="Path 916865" d="M327.224,241.314l11.747-6.781.219.124-11.75,6.873Z" fill="#e6e1dd"/>
              <path id="Path_916866" data-name="Path 916866" d="M327.441,241.439l11.749-6.782.155.269L327.6,241.961Z" fill="#b5afa7"/>
              <path id="Path_916867" data-name="Path 916867" d="M327.6,241.707l11.748-6.781v.253L327.6,241.961Z" fill="#a39c95"/>
              <path id="Path_916868" data-name="Path 916868" d="M327.441,242.05l.156-.089v-.254l-.156-.269-.217-.124-.155.09v.252l.155.266Z" fill="#d8d1c7"/>
            </g>
            <g id="Group_1120304" data-name="Group 1120304">
              <path id="Path_916869" data-name="Path 916869" d="M328.722,247.714l11.748-6.781.218.125-11.749,6.871Z" fill="#e6e1dd"/>
              <path id="Path_916870" data-name="Path 916870" d="M328.941,247.842l11.747-6.784.155.268L329.1,248.361Z" fill="#b5afa7"/>
              <path id="Path_916871" data-name="Path 916871" d="M329.1,248.108l11.748-6.782v.253L329.1,248.361Z" fill="#a39c95"/>
              <path id="Path_916872" data-name="Path 916872" d="M328.941,248.448l.154-.087v-.253l-.154-.268-.219-.126-.155.089v.254l.155.267Z" fill="#d8d1c7"/>
            </g>
            <g id="Group_1120305" data-name="Group 1120305">
              <path id="Path_916873" data-name="Path 916873" d="M330.22,254.114l11.748-6.779.217.126-11.749,6.872Z" fill="#e6e1dd"/>
              <path id="Path_916874" data-name="Path 916874" d="M330.438,254.242l11.747-6.781.155.268-11.747,7.033Z" fill="#b5afa7"/>
              <path id="Path_916875" data-name="Path 916875" d="M330.593,254.511l11.747-6.782v.251l-11.747,6.782Z" fill="#a39c95"/>
              <path id="Path_916876" data-name="Path 916876" d="M330.438,254.851l.155-.089v-.251l-.155-.269-.217-.128-.157.089v.252l.157.27Z" fill="#d8d1c7"/>
            </g>
            <g id="Group_1120306" data-name="Group 1120306">
              <path id="Path_916877" data-name="Path 916877" d="M331.717,260.516l11.748-6.781.22.126-11.75,6.872Z" fill="#e6e1dd"/>
              <path id="Path_916878" data-name="Path 916878" d="M331.936,260.645l11.749-6.784.154.268-11.747,7.034Z" fill="#b5afa7"/>
              <path id="Path_916879" data-name="Path 916879" d="M332.092,260.909l11.747-6.78v.252l-11.747,6.782Z" fill="#a39c95"/>
              <path id="Path_916880" data-name="Path 916880" d="M331.936,261.253l.156-.09v-.254l-.156-.264-.218-.129-.155.091v.252l.155.267Z" fill="#d8d1c7"/>
            </g>
            <g id="Group_1120307" data-name="Group 1120307">
              <path id="Path_916881" data-name="Path 916881" d="M333.216,266.916l11.747-6.778.219.124-11.749,6.872Z" fill="#e6e1dd"/>
              <path id="Path_916882" data-name="Path 916882" d="M333.434,267.044l11.748-6.782.154.269-11.746,7.033Z" fill="#b5afa7"/>
              <path id="Path_916883" data-name="Path 916883" d="M333.59,267.311l11.746-6.78v.252l-11.746,6.781Z" fill="#a39c95"/>
              <path id="Path_916884" data-name="Path 916884" d="M333.434,267.654l.156-.09v-.253l-.156-.269-.217-.126-.157.091v.253l.157.266Z" fill="#d8d1c7"/>
            </g>
            <g id="Group_1120308" data-name="Group 1120308">
              <path id="Path_916885" data-name="Path 916885" d="M334.714,273.318l11.747-6.78.22.126-11.75,6.871Z" fill="#e6e1dd"/>
              <path id="Path_916886" data-name="Path 916886" d="M334.933,273.446l11.748-6.782.154.267-11.748,7.033Z" fill="#b5afa7"/>
              <path id="Path_916887" data-name="Path 916887" d="M335.087,273.714l11.748-6.783v.253l-11.748,6.78Z" fill="#a39c95"/>
              <path id="Path_916888" data-name="Path 916888" d="M334.933,274.053l.154-.089v-.25l-.154-.268-.219-.128-.154.089v.253l.154.269Z" fill="#d8d1c7"/>
            </g>
          </g>
          <g id="Group_1120310" data-name="Group 1120310">
            <path id="Path_916889" data-name="Path 916889" d="M313.766,185.369l-2.147-1.239.923-.533,2.148,1.238Z" fill="#e6e1dd"/>
            <path id="Path_916890" data-name="Path 916890" d="M338.005,284.342l-.925.532-2.853-7.092-21.143-91.834.682-.579.924-.534Z" fill="#a39c95"/>
            <path id="Path_916891" data-name="Path 916891" d="M337.08,284.874l-2.146-1.237L311.619,184.13l2.147,1.239Z" fill="#d8d1c7"/>
          </g>
        </g>
        <g id="Group_1120312" data-name="Group 1120312">
          <path id="Path_916892" data-name="Path 916892" d="M340.4,249.211l-.711-.2-.776-.318-1.5.266v.256l.827,1.361,1.833,1.045.993,1.5.981.662.94-.434v-.252l-.144-1.6Z" fill="#211a1a"/>
          <path id="Path_916893" data-name="Path 916893" d="M333.487,243.627l-1.018.272-.849.9v.254l.237.523,1.1.279,1.443-.033,1.306.272,1.1-.175.407-.637v-.254Z" fill="#211a1a"/>
          <path id="Path_916894" data-name="Path 916894" d="M336.832,213.629l-1.325-.564-1.193-.764-.454.22-.237.823.194.285,1.163.827,2.189,2.054,1.145.725H339v-3.32Z" fill="#f0c6b4"/>
          <path id="Path_916895" data-name="Path 916895" d="M336.832,213.629l-.1.4.382.676.65.059.6,2.371.294.208v-1.782l-.891-2.029Z" fill="#c7a495"/>
          <path id="Path_916896" data-name="Path 916896" d="M333.817,213.629l.128-.729.369-.6-1.43-1.379-1.146-.477-1.031.2-.7,1.179.3.333.967.032,1.088.7-.461.195-.613-.051-.055.373.963.343.933-.122Z" fill="#fff"/>
          <path id="Path_916897" data-name="Path 916897" d="M342.465,215.338l1.729-.321,1.393.161.781.552.441,1.136-.441.854-.511.554Z" fill="#f4efe9"/>
          <path id="Path_916898" data-name="Path 916898" d="M337.955,214.592l.406,2.547.9.647,1.871-.066.993-1.167.118-1.3-.536-.452-.665-1.458-3.092.242Z" fill="#f0c6b4"/>
          <path id="Path_916899" data-name="Path 916899" d="M337.984,228.151l-.933-2-.637-2.264,1.668.2,1.349,4.936h-.9Z" fill="#2d5a78"/>
          <path id="Path_916900" data-name="Path 916900" d="M336.9,219.02l.435-.418,1.168-.292-.42-.59.279-.581.789.1,1.364-.317,1.093-.549.641-1.119.861.152.153-.152.891.152,1.094.74.714,1.574.407,1.759-.256,2.817-1.731,2.173-1.119,2.623-1.63,1.247-2.062.482-1.323-.212-.6-2.179-1.231-2.291Z" fill="#fff"/>
          <path id="Path_916901" data-name="Path 916901" d="M340.4,248.955l-.711-.2-.776-.317h-1.043l-.459.519.827,1.361,1.833,1.046.993,1.5.981.662.94-.431-.062-1.186-.082-.672Z" fill="#fff"/>
          <path id="Path_916902" data-name="Path 916902" d="M347.519,234.327l-2.469,7.55.3,2.622-2.263,6.619-.968.458-1.686-1.041-.152-1.374,1.238-5.637-.112-2.385,0-5.35,3.529-1.981Z" fill="#377691"/>
          <path id="Path_916903" data-name="Path 916903" d="M327.582,221.924l-.477-2.06-.8-.573-1.133.115-1.362,1.464-.027.386.382.033.563-.334.9,1.852.738.406,1.035-.406Z" fill="#fff"/>
          <path id="Path_916904" data-name="Path 916904" d="M333.48,223.333l-1.605,2.256-1.068-1-2.123-1.6-1.1-1.07-.407.165-.713.7-.1.423,2.919,4.19,1.035.883,2.8.323,3.009-3.342-.668-1.969Z" fill="#f0c6b4"/>
          <path id="Path_916905" data-name="Path 916905" d="M336.965,210.439l-.143.73.143.545-.233.395.116,1.782.355.536.752.165.624-.254.852-.447-.368-3.879Z" fill="#f0c6b4"/>
          <path id="Path_916906" data-name="Path 916906" d="M340.514,208.314l-1.325-.519-1.553.916-.534.6-.2.721.228,1.375.483.536v.685l.154.2h.662l.279.714-.126.789.406.738.739.33h1.043l.993-.636,1.145-1.781.357-1.757-.2-1.22-.636-.74-1.324-.993Z" fill="#944e39"/>
          <path id="Path_916907" data-name="Path 916907" d="M340.514,208.314l1.463,1.073.827,1.514-1.147-1.425Z" fill="#693121"/>
          <path id="Path_916908" data-name="Path 916908" d="M337.814,218.894l.713.867.128,1.3-.841,1.631-1.578,2.6-1.2-.178-1.4-.966-.178-.891,1.731-3.182,1.127-.966Z" fill="#f4efe9"/>
          <path id="Path_916909" data-name="Path 916909" d="M337.334,218.6l1.932.624,1.23,1.154.44,1.709.917-.573-.423-1.627-1.222-1.328-2.126-.841Z" fill="#428aa8"/>
          <path id="Path_916910" data-name="Path 916910" d="M342.248,215.254l1.15,1.39.83,1.538.238,2,.917-.573-.22-1.924-.931-1.773-.97-.662Z" fill="#428aa8"/>
          <path id="Path_916911" data-name="Path 916911" d="M333.487,243.373l-1.018.272-.849.423v.726l.237.522,1.1.281,1.443-.036,1.306.273,1.1-.174.407-.637-.589-1.546Z" fill="#fff"/>
          <path id="Path_916912" data-name="Path 916912" d="M340.207,221.795l3.055-1.347,2.443-1.427.424,3.411.034,3.513.479,1.694,1.023,2.684.128,3.716-1.019,1.07-5.362,1.392-2.273-.408-4.787-1.087.441,1.156,2.071,7.092-1.12,1.052h-2.1l-.543-.815-1.086-4.037-2.173-5.646.416-1.5.988-1.036,4.79-.95,2.394-.033-.442-2.139.671.221.653-.254,1.128-1.494.179-2.493Z" fill="#428aa8"/>
          <path id="Path_916913" data-name="Path 916913" d="M334.352,235.006l-3.11-1.05.5.744Z" fill="#2d5a78"/>
          <path id="Path_916914" data-name="Path 916914" d="M331.875,225.589l-.119,1.1-.514-.178Z" fill="#c7a495"/>
        </g>
      </g>
      <g id="Group_1120314" data-name="Group 1120314">
        <path id="Path_916915" data-name="Path 916915" d="M279.169,134.476v-3.428l-4.2-2.424h-5.937l-4.2,2.424v3.428l4.2,2.423h5.937Z" opacity="0.3"/>
        <path id="Path_916916" data-name="Path 916916" d="M275.566,130.045l1.172,1.107,1.731,1.082.255.8v.255l-.613.547-1.055.064-1.336-.776-.98-.853-.968-.217-.8-.394-.32-.56.034-.254.731-1.159Z" fill="#211a1a"/>
        <path id="Path_916917" data-name="Path 916917" d="M268.987,131.619l.47,1.175,1.069,1.731v.255l-.686.572h-1.184l-1.1-.61-1.589-2.947v-.254Z" fill="#211a1a"/>
        <path id="Path_916918" data-name="Path 916918" d="M275.566,129.79l1.172,1.108,1.731,1.082.255.637v.419l-.613.547-1.055.064-1.336-.776-.98-.853-.968-.216-.8-.4-.32-.559.034-1.138.731-.275Z" fill="#944e39"/>
        <path id="Path_916919" data-name="Path 916919" d="M268.987,131.364l.47,1.176.93,1.285.139.7-.686.573h-1.184l-1.1-.611-1.589-2.946.128-1.115Z" fill="#944e39"/>
        <path id="Path_916920" data-name="Path 916920" d="M277.446,103.157l.513,3.878.323.67,1.015-.264.564-5.141V99.593l-1.123-1.924-1.666.4Z" fill="#f0c6b4"/>
        <path id="Path_916921" data-name="Path 916921" d="M277.616,100.289l1.553-.577-1.723,1.149Z" fill="#c7a495"/>
        <path id="Path_916922" data-name="Path 916922" d="M276.72,93.247l.726.309.684,1.286.67,2.66-.307.839-1.279.556-1.868-4.31Z" fill="#f4efe9"/>
        <path id="Path_916923" data-name="Path 916923" d="M271.583,92.223l-.572,1.333-.242,1.382.814,1.1,1.82.547,1.145-.1.6-.943-.7-3.512-2.826-.421Z" fill="#c7a495"/>
        <path id="Path_916924" data-name="Path 916924" d="M269.028,106.307l-.742-2.658V102.3H270.1l.415,4.007-1.035.982Z" fill="#2d5a78"/>
        <path id="Path_916925" data-name="Path 916925" d="M274.74,95.007l-.51,1.141-1.521-.352-1.393-1.349-.305-.891-.624.912-.454.9-.784.159-.734.91-1.045,4.378.611,1.884,1.29,2.172.038,1.5-.021,1.72,1.917.493,4.192-2.359,2.333-5.906.319-.9V97.08l-.739-1.712-.962-1.188Z" fill="#fff"/>
        <path id="Path_916926" data-name="Path 916926" d="M272.589,114.238l.942,6.44-.764,2.087-.382,6.516.712,1.019,1.35.331,1.374-.789,1.476-8.451.433-6.44L277.446,109,272,111.184Z" fill="#377691"/>
        <path id="Path_916927" data-name="Path 916927" d="M277.446,109l-.023.5-.621,1.488.089.332h.343l1.056-.7.662-1.032.345-2.138-.524-.406h-.94l-.446.216-.281,1.081Z" fill="#fff"/>
        <path id="Path_916928" data-name="Path 916928" d="M277.446,96.242,275.134,97.9l-3.308,1.425.33,4.023-.9,3.08-1.189.636-1.04-.753-1.345,3.553-.261,10.386-1.044,2.6-.406,7.331.634,1.247,1.3.382,1.2-.484,1.044-8.374.916-1.578,2.139-8.4,1.756-.967,2.49-3v-5.473l.589-3.589-.151-2.165Z" fill="#428aa8"/>
        <path id="Path_916929" data-name="Path 916929" d="M273.605,93.986l.855.4,1.171,1.264.525,2.121,1.29-.713-.729-2.24-1.375-1.527-.4-.227Z" fill="#428aa8"/>
        <path id="Path_916930" data-name="Path 916930" d="M269.081,95.5l1.8.832,1.171,1.264.526,2.121L273.865,99l-.729-2.24-1.374-1.527-1.413-.785Z" fill="#428aa8"/>
        <path id="Path_916931" data-name="Path 916931" d="M265.679,97.4l.293-1.672,1.5-.721,1.437.408.778,1.344-.316.815-.848,1.06-2.01.035Z" fill="#d1d1d1"/>
        <path id="Path_916932" data-name="Path 916932" d="M265.267,95.572l.821,2.249.315.771.782.425,1.526-.459.764-.9-.187-1.417-.331-.455-.815-.849H266.42Z" fill="#f0c6b4"/>
        <path id="Path_916933" data-name="Path 916933" d="M268.415,95.223l-.993.573-.085-.436.8-.422Z" fill="#c7a495"/>
        <path id="Path_916934" data-name="Path 916934" d="M270.261,88.567l-1.143,1.387-2.545,2.552-1.188,1.534-.118,1.532.56.576,1.6-.352,1.794-2.138,1.752-3.237.6-.924.586-.611-1.035-.815Z" fill="#f0c6b4"/>
        <path id="Path_916935" data-name="Path 916935" d="M276.6,89.581l.645,1.061.063,1.666-.354.51v.509l-.88,2.355-.968.56-.56-.165-1.935-1.694-.145-.814-.578-.543-.166-.79-.141-1.072.993-1.667,2.571-.726Z" fill="#f0c6b4"/>
        <path id="Path_916936" data-name="Path 916936" d="M271.724,92.236l.152-.4.382-.025.374.423v.535l.237.255h.475l.187-.39.339-.51v-.644l-.339-.594-.119-.628.577-.238.542.153.56.407.832.407.559-.22.238-.289-.118-.9-.679-.95-.8-.662-.763-.153-1.748.459-.949,1.191-.29.658-.118,1.154.22.934Z" fill="#6b4414"/>
        <path id="Path_916937" data-name="Path 916937" d="M270.261,88.567l1.042.153.356.293-.089.484.509-.166,1.541-1.082.522.064.242.254.292-.318-.153-.547-.5-.866-.988-.19-1.125.19Z" fill="#fff"/>
        <path id="Path_916938" data-name="Path 916938" d="M268.91,95.415l.227,1.8-1.088,1.1-1.407.069-.963-.989,1.522,3.3,1.085.764,1.648-.577.576-2.342-.526-1.969Z" fill="#f4efe9"/>
      </g>
    </g>
  </g>
</svg>
