<svg xmlns="http://www.w3.org/2000/svg" xmlns:xlink="http://www.w3.org/1999/xlink" width="112.221" height="112.221" viewBox="0 0 112.221 112.221">
  <defs>
    <filter id="Path_919120" x="0" y="0" width="112.221" height="112.221" filterUnits="userSpaceOnUse">
      <feOffset input="SourceAlpha"/>
      <feGaussianBlur stdDeviation="3" result="blur"/>
      <feFlood flood-color="#fff" flood-opacity="0.659"/>
      <feComposite operator="in" in2="blur"/>
      <feComposite in="SourceGraphic"/>
    </filter>
    <clipPath id="clip-path">
      <path id="path2259" d="M0-682.665H63.128v63.128H0Z" transform="translate(0 682.665)"/>
    </clipPath>
  </defs>
  <g id="Group_1121575" data-name="Group 1121575" transform="translate(-752.554 -17675.059)">
    <g id="Group_1121574" data-name="Group 1121574">
      <g transform="matrix(1, 0, 0, 1, 752.55, 17675.06)" filter="url(#Path_919120)">
        <path id="Path_919120-2" data-name="Path 919120" d="M47.11,0A47.11,47.11,0,1,1,0,47.11,47.11,47.11,0,0,1,47.11,0Z" transform="translate(9 9)" fill="#5c6d74"/>
      </g>
      <g id="g2253" transform="translate(777.1 18382.271)">
        <g id="g2255" transform="translate(0 -682.665)">
          <g id="g2257" clip-path="url(#clip-path)">
            <g id="g2263" transform="translate(0.925 0.925)">
              <path id="path2265" d="M-588.119-274.983h-2.869a26.424,26.424,0,0,0-1-5.071l2.647-1.1a1.352,1.352,0,0,0,.732-1.766l-.971-2.343a1.352,1.352,0,0,0-1.766-.732l-2.648,1.1a26.6,26.6,0,0,0-2.875-4.3l2.029-2.029a1.352,1.352,0,0,0,0-1.912l-1.793-1.793a1.352,1.352,0,0,0-1.912,0l-2.029,2.029a26.59,26.59,0,0,0-4.3-2.875l1.1-2.648a1.352,1.352,0,0,0-.732-1.766l-2.343-.97a1.352,1.352,0,0,0-1.766.731l-1.1,2.647a26.422,26.422,0,0,0-5.071-1v-2.869A1.352,1.352,0,0,0-616.138-303h-2.536a1.352,1.352,0,0,0-1.352,1.352v2.869a26.423,26.423,0,0,0-5.071,1l-1.1-2.647a1.352,1.352,0,0,0-1.766-.731l-2.343.97a1.352,1.352,0,0,0-.732,1.766l1.1,2.648a26.587,26.587,0,0,0-4.3,2.875l-2.029-2.029a1.352,1.352,0,0,0-1.912,0l-1.793,1.793a1.352,1.352,0,0,0,0,1.912l2.029,2.029a26.59,26.59,0,0,0-2.875,4.3l-2.648-1.1a1.352,1.352,0,0,0-1.766.732l-.97,2.343a1.352,1.352,0,0,0,.732,1.766l2.647,1.1a26.415,26.415,0,0,0-1,5.071h-2.869a1.352,1.352,0,0,0-1.352,1.352v2.536a1.352,1.352,0,0,0,1.352,1.352h2.869a26.423,26.423,0,0,0,1,5.071l-2.647,1.1a1.352,1.352,0,0,0-.732,1.766l.97,2.343a1.352,1.352,0,0,0,1.766.732l2.648-1.1a26.584,26.584,0,0,0,2.875,4.3l-2.029,2.029a1.352,1.352,0,0,0,0,1.912l1.793,1.793a1.352,1.352,0,0,0,1.912,0l2.029-2.029a26.587,26.587,0,0,0,4.3,2.875l-1.1,2.648a1.352,1.352,0,0,0,.732,1.766l2.343.97a1.352,1.352,0,0,0,1.766-.732l1.1-2.647a26.426,26.426,0,0,0,5.071,1v2.869a1.352,1.352,0,0,0,1.352,1.352h2.536a1.352,1.352,0,0,0,1.352-1.352v-2.869a26.424,26.424,0,0,0,5.071-1l1.1,2.647a1.352,1.352,0,0,0,1.766.732l2.343-.97a1.352,1.352,0,0,0,.732-1.766l-1.1-2.648a26.6,26.6,0,0,0,4.3-2.875l2.029,2.029a1.352,1.352,0,0,0,1.912,0l1.793-1.793a1.352,1.352,0,0,0,0-1.912l-2.029-2.029a26.6,26.6,0,0,0,2.875-4.3l2.648,1.1a1.352,1.352,0,0,0,1.766-.732l.97-2.343a1.352,1.352,0,0,0-.732-1.766l-2.647-1.1a26.428,26.428,0,0,0,1-5.071h2.869a1.352,1.352,0,0,0,1.352-1.352v-2.536a1.352,1.352,0,0,0-1.352-1.352" transform="translate(648.045 303.002)" fill="#e2dee2"/>
            </g>
            <g id="g2267" transform="translate(49.053 8.606)">
              <path id="path2269" d="M-12.3-16.953l.428.461a1.352,1.352,0,0,1,0,1.912L-13.246-13.2a1.033,1.033,0,0,0-.094,1.357,26.6,26.6,0,0,1,2.027,3.067,1.035,1.035,0,0,0,.9.525h2.779a26.609,26.609,0,0,0-2.875-4.3l2.029-2.029a1.352,1.352,0,0,0,0-1.912l-1.793-1.793a1.352,1.352,0,0,0-1.912,0l-.942.942a1.346,1.346,0,0,1,.828.39" transform="translate(13.551 18.681)" fill="#d0cdd1"/>
            </g>
            <g id="g2271" transform="translate(29.868 0.925)">
              <path id="path2273" d="M-9.073-13.267v1.832A1.037,1.037,0,0,0-8.036-10.4h2.354v-2.869a1.352,1.352,0,0,0-1.352-1.352H-9.57a1.347,1.347,0,0,0-.427.07,1.352,1.352,0,0,1,.924,1.282" transform="translate(9.997 14.619)" fill="#d0cdd1"/>
            </g>
            <g id="g2275" transform="translate(40.374 2.669)">
              <path id="path2277" d="M-6.822-10.535a1.352,1.352,0,0,1,.732,1.766l-.744,1.8A1.033,1.033,0,0,0-6.4-5.683,26.6,26.6,0,0,1-3.176-3.476a1.044,1.044,0,0,0,.651.23H.5A26.59,26.59,0,0,0-3.8-6.121l1.1-2.648a1.352,1.352,0,0,0-.732-1.766l-2.343-.97a1.351,1.351,0,0,0-1.743.682Z" transform="translate(7.517 11.609)" fill="#d0cdd1"/>
            </g>
            <g id="g2279" transform="translate(49.053 44.095)">
              <path id="path2281" d="M-21.963-5.15A26.583,26.583,0,0,1-23.99-2.083,1.033,1.033,0,0,0-23.9-.726L-22.519.651a1.352,1.352,0,0,1,0,1.912l-.413.4a1.345,1.345,0,0,1-.9.393l1,1a1.352,1.352,0,0,0,1.912,0l1.793-1.793a1.352,1.352,0,0,0,0-1.912l-2.029-2.029a26.6,26.6,0,0,0,2.875-4.3h-2.779a1.035,1.035,0,0,0-.9.525" transform="translate(24.2 5.675)" fill="#d0cdd1"/>
            </g>
            <g id="g2283" transform="translate(53.798 17.832)">
              <path id="path2285" d="M-69.22-109.05h-2.869a26.407,26.407,0,0,0-1-5.071l2.647-1.1a1.352,1.352,0,0,0,.732-1.766l-.97-2.343a1.352,1.352,0,0,0-1.766-.732l-1.646.682.021.05.97,2.343a1.352,1.352,0,0,1-.732,1.766l-1.795.743a1.033,1.033,0,0,0-.607,1.217,26.4,26.4,0,0,1,.656,3.314,1.033,1.033,0,0,0,1.027.893h1.945a1.352,1.352,0,0,1,1.352,1.352v2.536a1.352,1.352,0,0,1-1.352,1.352h-1.945a1.033,1.033,0,0,0-1.027.893,26.409,26.409,0,0,1-.656,3.314,1.033,1.033,0,0,0,.606,1.217l1.795.743a1.352,1.352,0,0,1,.732,1.766l-.97,2.343-.021.05,1.646.682a1.352,1.352,0,0,0,1.766-.732l.97-2.343a1.352,1.352,0,0,0-.732-1.766l-2.647-1.1a26.407,26.407,0,0,0,1-5.071h2.869a1.352,1.352,0,0,0,1.352-1.352V-107.7a1.352,1.352,0,0,0-1.352-1.352" transform="translate(76.273 120.161)" fill="#d0cdd1"/>
            </g>
            <g id="g2287" transform="translate(40.374 52.096)">
              <path id="path2289" d="M-45.4,0a26.605,26.605,0,0,1-3.512,2.438,1.033,1.033,0,0,0-.431,1.289l.744,1.8a1.352,1.352,0,0,1-.732,1.766l-.7.288a1.351,1.351,0,0,0,1.743.682l2.343-.97a1.352,1.352,0,0,0,.732-1.766l-1.1-2.648A26.59,26.59,0,0,0-42.01,0Z" transform="translate(50.027)" fill="#d0cdd1"/>
            </g>
            <g id="g2291" transform="translate(29.868 57.982)">
              <path id="path2293" d="M-9.073-28.157A1.352,1.352,0,0,1-10-26.876a1.347,1.347,0,0,0,.427.07h2.536a1.352,1.352,0,0,0,1.352-1.352v-2.869H-8.036A1.037,1.037,0,0,0-9.073-29.99Z" transform="translate(9.997 31.027)" fill="#d0cdd1"/>
            </g>
            <g id="g2295" transform="translate(12.27 12.27)">
              <path id="path2297" d="M-378.692-176.907v2.535a1.352,1.352,0,0,1-1.351,1.352h-2.345a15.732,15.732,0,0,1-2.716,6.556l1.658,1.658a1.353,1.353,0,0,1,0,1.912l-1.793,1.793a1.353,1.353,0,0,1-1.912,0l-1.658-1.658a15.79,15.79,0,0,1-6.556,2.716v2.345a1.352,1.352,0,0,1-1.353,1.351h-2.535a1.352,1.352,0,0,1-1.352-1.351v-2.345a15.734,15.734,0,0,1-6.556-2.716l-1.658,1.658a1.353,1.353,0,0,1-1.912,0l-1.793-1.793a1.353,1.353,0,0,1,0-1.912l1.658-1.658a15.733,15.733,0,0,1-2.716-6.556h-2.345a1.352,1.352,0,0,1-1.351-1.352v-2.535a1.352,1.352,0,0,1,1.351-1.353h2.345a15.733,15.733,0,0,1,2.716-6.556l-1.658-1.658a1.353,1.353,0,0,1,0-1.912l1.793-1.793a1.353,1.353,0,0,1,1.912,0l1.658,1.658a15.732,15.732,0,0,1,6.556-2.716v-2.345a1.352,1.352,0,0,1,1.352-1.351h2.535a1.352,1.352,0,0,1,1.353,1.351v2.345a15.776,15.776,0,0,1,6.556,2.716l1.658-1.658a1.353,1.353,0,0,1,1.912,0l1.793,1.793a1.353,1.353,0,0,1,0,1.912l-1.658,1.658a15.732,15.732,0,0,1,2.716,6.556h2.345a1.352,1.352,0,0,1,1.351,1.353" transform="translate(417.279 194.933)" fill="#aca5d6"/>
            </g>
            <g id="g2299" transform="translate(25.67 25.67)">
              <path id="path2301" d="M-115.677-57.838a5.893,5.893,0,0,1-5.893,5.893,5.893,5.893,0,0,1-5.893-5.893,5.893,5.893,0,0,1,5.893-5.893,5.893,5.893,0,0,1,5.893,5.893" transform="translate(127.464 63.732)" fill="#7a6d79"/>
            </g>
            <g id="g2303" transform="translate(29.76 25.67)">
              <path id="path2305" d="M-17.7,0a5.888,5.888,0,0,0-1.8.282,5.9,5.9,0,0,1,4.09,5.611,5.9,5.9,0,0,1-4.09,5.611,5.888,5.888,0,0,0,1.8.282,5.894,5.894,0,0,0,5.893-5.893A5.893,5.893,0,0,0-17.7,0" transform="translate(19.505)" fill="#685e68"/>
            </g>
            <g id="g2307" transform="translate(29.278 29.278)">
              <path id="path2309" d="M-44.868-22.434a2.286,2.286,0,0,1-2.286,2.286,2.286,2.286,0,0,1-2.286-2.286,2.286,2.286,0,0,1,2.286-2.286,2.286,2.286,0,0,1,2.286,2.286" transform="translate(49.44 24.72)" fill="#e2dee2"/>
            </g>
            <g id="g2311" transform="translate(28.944 12.27)">
              <path id="path2313" d="M-215.059-176.907v2.535a1.352,1.352,0,0,1-1.351,1.352h-2.345a15.734,15.734,0,0,1-2.716,6.556l1.658,1.658a1.353,1.353,0,0,1,0,1.912l-1.793,1.793a1.353,1.353,0,0,1-1.912,0l-1.658-1.658a15.842,15.842,0,0,1-6.556,2.716v2.345a1.352,1.352,0,0,1-1.353,1.351h-2.535a1.352,1.352,0,0,1-1.352-1.351v-2.345a12.465,12.465,0,0,0,3.124-1.031,18.768,18.768,0,0,0,2.778-1.685,13.565,13.565,0,0,0,1.471-1.219l1.09,1.09a.954.954,0,0,0,1.349,0l2.124-2.124a.954.954,0,0,0,0-1.349l-1.461-1.461a15.647,15.647,0,0,0,1.684-4.359,1.074,1.074,0,0,1,1.049-.838h1.46a1.352,1.352,0,0,0,1.351-1.352v-2.535a1.352,1.352,0,0,0-1.351-1.353h-1.46a1.074,1.074,0,0,1-1.049-.838,15.664,15.664,0,0,0-1-3.01,15.643,15.643,0,0,0-.73-1.427l1.506-1.5a.956.956,0,0,0,0-1.35l-2.124-2.123a.954.954,0,0,0-1.349,0l-1.145,1.145a15.2,15.2,0,0,0-7.317-3.87v-2.345a1.352,1.352,0,0,1,1.352-1.351h2.535a1.352,1.352,0,0,1,1.353,1.351v2.345a15.678,15.678,0,0,1,1.551.343v0a15.928,15.928,0,0,1,5,2.376l1.658-1.658a1.353,1.353,0,0,1,1.912,0l1.793,1.793a1.353,1.353,0,0,1,0,1.912l-1.658,1.658a15.733,15.733,0,0,1,2.716,6.556h2.345a1.352,1.352,0,0,1,1.351,1.353" transform="translate(236.973 194.933)" fill="#978ecb"/>
            </g>
            <g id="g2315" transform="translate(25.67 25.67)">
              <path id="path2317" d="M-36.533-111.627a5.9,5.9,0,0,1-3.723-5.481A5.893,5.893,0,0,1-34.363-123a5.893,5.893,0,0,1,5.893,5.893,5.9,5.9,0,0,1-3.794,5.508" transform="translate(40.256 123.001)" fill="none" stroke="#000" stroke-linecap="round" stroke-linejoin="round" stroke-miterlimit="10" stroke-width="2"/>
            </g>
            <g id="g2319" transform="translate(12.27 12.27)">
              <path id="path2321" d="M-43.186-137.07a15.726,15.726,0,0,0-.7,2.707h-2.345a1.352,1.352,0,0,0-1.352,1.352v2.536a1.352,1.352,0,0,0,1.352,1.352h2.345a15.731,15.731,0,0,0,2.716,6.556l-1.659,1.658a1.352,1.352,0,0,0,0,1.912l1.793,1.793a1.352,1.352,0,0,0,1.912,0l1.659-1.659a15.728,15.728,0,0,0,6.556,2.716v2.345a1.352,1.352,0,0,0,1.352,1.352h2.536a1.352,1.352,0,0,0,1.352-1.352v-2.345a15.728,15.728,0,0,0,6.556-2.716l1.659,1.659a1.352,1.352,0,0,0,1.912,0L-13.754-119a1.352,1.352,0,0,0,0-1.912l-1.658-1.658a15.728,15.728,0,0,0,2.716-6.556h2.345A1.352,1.352,0,0,0-9-130.476v-2.536a1.352,1.352,0,0,0-1.352-1.352H-12.7a15.727,15.727,0,0,0-2.716-6.556l1.658-1.659a1.352,1.352,0,0,0,0-1.912l-1.793-1.793a1.352,1.352,0,0,0-1.912,0l-1.659,1.659a15.727,15.727,0,0,0-6.556-2.716v-2.345a1.352,1.352,0,0,0-1.352-1.352h-2.536a1.352,1.352,0,0,0-1.352,1.352v2.345a15.728,15.728,0,0,0-6.556,2.716l-1.659-1.659a1.352,1.352,0,0,0-1.912,0l-1.793,1.793a1.352,1.352,0,0,0,0,1.912l1.659,1.659" transform="translate(47.587 151.037)" fill="none" stroke="#000" stroke-linecap="round" stroke-linejoin="round" stroke-miterlimit="10" stroke-width="2"/>
            </g>
            <g id="g2323" transform="translate(0.925 0.925)">
              <path id="path2325" d="M-588.119-274.983h-2.869a26.424,26.424,0,0,0-1-5.071l2.647-1.1a1.352,1.352,0,0,0,.732-1.766l-.971-2.343a1.352,1.352,0,0,0-1.766-.732l-2.648,1.1a26.6,26.6,0,0,0-2.875-4.3l2.029-2.029a1.352,1.352,0,0,0,0-1.912l-1.793-1.793a1.352,1.352,0,0,0-1.912,0l-2.029,2.029a26.59,26.59,0,0,0-4.3-2.875l1.1-2.648a1.352,1.352,0,0,0-.732-1.766l-2.343-.97a1.352,1.352,0,0,0-1.766.731l-1.1,2.647a26.422,26.422,0,0,0-5.071-1v-2.869A1.352,1.352,0,0,0-616.138-303h-2.536a1.352,1.352,0,0,0-1.352,1.352v2.869a26.423,26.423,0,0,0-5.071,1l-1.1-2.647a1.352,1.352,0,0,0-1.766-.731l-2.343.97a1.352,1.352,0,0,0-.732,1.766l1.1,2.648a26.587,26.587,0,0,0-4.3,2.875l-2.029-2.029a1.352,1.352,0,0,0-1.912,0l-1.793,1.793a1.352,1.352,0,0,0,0,1.912l2.029,2.029a26.59,26.59,0,0,0-2.875,4.3l-2.648-1.1a1.352,1.352,0,0,0-1.766.732l-.97,2.343a1.352,1.352,0,0,0,.732,1.766l2.647,1.1a26.415,26.415,0,0,0-1,5.071h-2.869a1.352,1.352,0,0,0-1.352,1.352v2.536a1.352,1.352,0,0,0,1.352,1.352h2.869a26.423,26.423,0,0,0,1,5.071l-2.647,1.1a1.352,1.352,0,0,0-.732,1.766l.97,2.343a1.352,1.352,0,0,0,1.766.732l2.648-1.1a26.584,26.584,0,0,0,2.875,4.3l-2.029,2.029a1.352,1.352,0,0,0,0,1.912l1.793,1.793a1.352,1.352,0,0,0,1.912,0l2.029-2.029a26.587,26.587,0,0,0,4.3,2.875l-1.1,2.648a1.352,1.352,0,0,0,.732,1.766l2.343.97a1.352,1.352,0,0,0,1.766-.732l1.1-2.647a26.426,26.426,0,0,0,5.071,1v2.869a1.352,1.352,0,0,0,1.352,1.352h2.536a1.352,1.352,0,0,0,1.352-1.352v-2.869a26.424,26.424,0,0,0,5.071-1l1.1,2.647a1.352,1.352,0,0,0,1.766.732l2.343-.97a1.352,1.352,0,0,0,.732-1.766l-1.1-2.648a26.6,26.6,0,0,0,4.3-2.875l2.029,2.029a1.352,1.352,0,0,0,1.912,0l1.793-1.793a1.352,1.352,0,0,0,0-1.912l-2.029-2.029a26.6,26.6,0,0,0,2.875-4.3l2.648,1.1a1.352,1.352,0,0,0,1.766-.732l.97-2.343a1.352,1.352,0,0,0-.732-1.766l-2.647-1.1a26.428,26.428,0,0,0,1-5.071h2.869a1.352,1.352,0,0,0,1.352-1.352v-2.536A1.352,1.352,0,0,0-588.119-274.983Z" transform="translate(648.045 303.002)" fill="none" stroke="#000" stroke-linecap="round" stroke-linejoin="round" stroke-miterlimit="10" stroke-width="2"/>
            </g>
            <g id="g2327" transform="translate(8.743 8.743)">
              <path id="path2329" d="M-446.968-244.831a22.823,22.823,0,0,1-22.723,20.694,22.821,22.821,0,0,1-22.821-22.821,22.821,22.821,0,0,1,22.821-22.821,22.823,22.823,0,0,1,22.715,20.614" transform="translate(492.512 269.778)" fill="none" stroke="#000" stroke-linecap="round" stroke-linejoin="round" stroke-miterlimit="10" stroke-width="2"/>
            </g>
            <g id="g2331" transform="translate(29.278 29.278)">
              <path id="path2333" d="M-44.868-22.434a2.286,2.286,0,0,1-2.286,2.286,2.286,2.286,0,0,1-2.286-2.286,2.286,2.286,0,0,1,2.286-2.286A2.286,2.286,0,0,1-44.868-22.434Z" transform="translate(49.44 24.72)" fill="none" stroke="#000" stroke-linecap="round" stroke-linejoin="round" stroke-miterlimit="10" stroke-width="2"/>
            </g>
            <g id="g2335" transform="translate(30.636 41.733)">
              <path id="path2337" d="M0-9.106a.928.928,0,0,1,.928-.928.928.928,0,0,1,.928.928.928.928,0,0,1-.928.928A.928.928,0,0,1,0-9.106" transform="translate(0 10.033)"/>
            </g>
            <g id="g2339" transform="translate(21.96 37.555)">
              <path id="path2341" d="M-3.429-1.987a.928.928,0,0,1,1.3.147.928.928,0,0,1-.147,1.3.928.928,0,0,1-1.3-.147.928.928,0,0,1,.147-1.3" transform="translate(3.778 2.189)"/>
            </g>
            <g id="g2343" transform="translate(19.817 28.166)">
              <path id="path2345" d="M-11.133-.23a.928.928,0,0,1,.7,1.111.928.928,0,0,1-1.111.7.928.928,0,0,1-.7-1.111.928.928,0,0,1,1.111-.7" transform="translate(12.267 0.254)"/>
            </g>
            <g id="g2347" transform="translate(25.821 20.638)">
              <path id="path2349" d="M-17.312-5.157a.928.928,0,0,1-.433,1.238.928.928,0,0,1-1.239-.433A.928.928,0,0,1-18.55-5.59a.928.928,0,0,1,1.239.433" transform="translate(19.076 5.682)"/>
            </g>
            <g id="g2351" transform="translate(35.45 20.638)">
              <path id="path2353" d="M-17.311-13.058a.928.928,0,0,1-1.239.433.928.928,0,0,1-.433-1.239.928.928,0,0,1,1.239-.433.928.928,0,0,1,.433,1.238" transform="translate(19.075 14.388)"/>
            </g>
            <g id="g2355" transform="translate(41.454 28.167)">
              <path id="path2357" d="M-11.134-17.984a.928.928,0,0,1-1.111-.7.928.928,0,0,1,.7-1.111.928.928,0,0,1,1.111.7.928.928,0,0,1-.7,1.111" transform="translate(12.268 19.816)"/>
            </g>
            <g id="g2359" transform="translate(39.312 37.555)">
              <path id="path2361" d="M-3.429-16.224a.928.928,0,0,1-.147-1.3.928.928,0,0,1,1.3-.147.928.928,0,0,1,.147,1.3.928.928,0,0,1-1.3.147" transform="translate(3.778 17.877)"/>
            </g>
          </g>
        </g>
      </g>
    </g>
  </g>
</svg>
