<svg xmlns="http://www.w3.org/2000/svg" xmlns:xlink="http://www.w3.org/1999/xlink" width="112.221" height="112.221" viewBox="0 0 112.221 112.221">
  <defs>
    <filter id="Path_918852" x="0" y="0" width="112.221" height="112.221" filterUnits="userSpaceOnUse">
      <feOffset input="SourceAlpha"/>
      <feGaussianBlur stdDeviation="3" result="blur"/>
      <feFlood flood-color="#fff" flood-opacity="0.659"/>
      <feComposite operator="in" in2="blur"/>
      <feComposite in="SourceGraphic"/>
    </filter>
  </defs>
  <g id="Group_1121576" data-name="Group 1121576" transform="translate(-1061.554 -17675.061)">
    <g transform="matrix(1, 0, 0, 1, 1061.55, 17675.06)" filter="url(#Path_918852)">
      <path id="Path_918852-2" data-name="Path 918852" d="M47.11,0A47.11,47.11,0,1,1,0,47.11,47.11,47.11,0,0,1,47.11,0Z" transform="translate(9 9)" fill="#5c6d74"/>
    </g>
    <g id="Group_1120929" data-name="Group 1120929" transform="translate(1083.245 17699.545)">
      <path id="Path_918841" data-name="Path 918841" d="M32.61,11.476l.575,2.194,2.629.7,1.6-1.615a.618.618,0,0,1,.757-.1l3.156,1.825a.617.617,0,0,1,.289.706l-.6,2.188L42.939,19.3l2.188-.6a.619.619,0,0,1,.706.289l1.825,3.156a.618.618,0,0,1-.1.757l-1.615,1.6.7,2.629,2.194.575a.618.618,0,0,1,.466.6v3.647a.616.616,0,0,1-.466.6l-2.194.575-.7,2.63,1.615,1.6a.618.618,0,0,1,.1.757l-1.825,3.156a.617.617,0,0,1-.706.289l-2.188-.6-1.925,1.925.6,2.188a.619.619,0,0,1-.289.706L38.169,47.61a.618.618,0,0,1-.757-.1l-1.6-1.615-2.629.7-.575,2.194a.618.618,0,0,1-.6.466H28.36a.616.616,0,0,1-.6-.466L27.18,46.6l-2.629-.7-1.6,1.615a.618.618,0,0,1-.757.1l-3.156-1.825a.617.617,0,0,1-.289-.706l.6-2.188-1.925-1.925-2.188.6a.619.619,0,0,1-.706-.289L12.707,38.12a.618.618,0,0,1,.1-.757l1.615-1.6-.7-2.63-2.194-.575a.618.618,0,0,1-.466-.6V28.31a.616.616,0,0,1,.466-.6l2.194-.575.7-2.629-1.615-1.6a.618.618,0,0,1-.1-.757l1.825-3.156a.617.617,0,0,1,.706-.289l2.188.6,1.925-1.925-.6-2.188a.619.619,0,0,1,.289-.706L22.2,12.657a.618.618,0,0,1,.757.1l1.6,1.615,2.629-.7.575-2.194a.618.618,0,0,1,.6-.466h3.647a.616.616,0,0,1,.6.466Z" transform="translate(-7.072 -7.034)" fill="#4eb1fc" fill-rule="evenodd"/>
      <circle id="Ellipse_12022" data-name="Ellipse 12022" cx="8.826" cy="8.826" r="8.826" transform="translate(13.173 15.552) rotate(-7.757)" fill="#fff"/>
      <path id="Path_918842" data-name="Path 918842" d="M27.913,45.578,45.577,27.915a13.4,13.4,0,0,1,16.8-16.337l-8.6,8.6,1.892,7.06,7.059,1.892,8.6-8.6a13.468,13.468,0,0,1-3.353,13.341A13.3,13.3,0,0,1,54.99,37.326L37.326,54.99A13.307,13.307,0,0,1,33.87,67.973a13.467,13.467,0,0,1-13.341,3.353l8.6-8.6-1.892-7.059-7.059-1.892-8.6,8.6a13.4,13.4,0,0,1,16.337-16.8Z" transform="translate(-7.028 -7.033)" fill="#d1d1d6" fill-rule="evenodd"/>
      <path id="Path_918843" data-name="Path 918843" d="M238.054,214.181l.521,1.984,2.378.637,1.445-1.461a.559.559,0,0,1,.685-.092l2.854,1.651a.56.56,0,0,1,.262.639l-.542,1.979,1.741,1.741,1.979-.542a.56.56,0,0,1,.639.262l1.651,2.854a.559.559,0,0,1-.092.685l-1.461,1.445.637,2.378,1.984.521a.558.558,0,0,1,.421.547v3.3a.559.559,0,0,1-.421.547l-1.984.521-.637,2.378,1.461,1.445a.559.559,0,0,1,.092.685l-1.651,2.854a.561.561,0,0,1-.639.262l-1.979-.542-1.741,1.741.542,1.979a.56.56,0,0,1-.262.639l-2.854,1.651a.559.559,0,0,1-.685-.092l-1.445-1.461-2.378.637-.521,1.984a.558.558,0,0,1-.547.421h-3.3a.559.559,0,0,1-.547-.421l-.521-1.984-2.378-.637-1.445,1.461a.559.559,0,0,1-.685.092l-2.854-1.651a.56.56,0,0,1-.262-.639l.542-1.979-1.741-1.741-1.979.542a.56.56,0,0,1-.639-.262l-1.651-2.854a.559.559,0,0,1,.092-.685l1.461-1.445-.637-2.378-1.984-.521a.558.558,0,0,1-.421-.547v-3.3a.559.559,0,0,1,.421-.547l1.984-.521.637-2.378-1.461-1.445a.559.559,0,0,1-.092-.685l1.651-2.854a.56.56,0,0,1,.639-.262l1.979.542,1.741-1.741-.542-1.979a.56.56,0,0,1,.262-.639l2.854-1.651a.559.559,0,0,1,.685.092l1.445,1.461,2.378-.637.521-1.984a.558.558,0,0,1,.547-.421h3.3A.559.559,0,0,1,238.054,214.181Z" transform="translate(-188.792 -184.594)" fill="#ffeb87" fill-rule="evenodd"/>
      <circle id="Ellipse_12023" data-name="Ellipse 12023" cx="8.826" cy="8.826" r="8.826" transform="translate(34.576 46.464) rotate(-45)" fill="#fff"/>
      <path id="Path_918844" data-name="Path 918844" d="M54.9,46.465a7.834,7.834,0,1,0-7.83,7.832A7.842,7.842,0,0,0,54.9,46.465Zm1.992,0a9.823,9.823,0,1,1-9.823-9.82A9.834,9.834,0,0,1,56.89,46.465Zm6.479-1.318v2.636l-1.664.436a1,1,0,0,0-.711.7L60.363,51.3a.992.992,0,0,0,.26.964l1.221,1.211-1.317,2.282L58.865,55.3a.983.983,0,0,0-.962.256L56.162,57.3a1,1,0,0,0-.26.965l.46,1.66-2.286,1.319-1.213-1.225a.985.985,0,0,0-.962-.261l-2.373.636a1.01,1.01,0,0,0-.711.708l-.434,1.664H45.752L45.31,61.1a.981.981,0,0,0-.7-.708l-2.382-.636a.988.988,0,0,0-.962.261l-1.213,1.225-2.277-1.319.451-1.66a.992.992,0,0,0-.251-.965L36.234,55.56a1.006,1.006,0,0,0-.97-.256l-1.655.455-1.326-2.282,1.23-1.211a.992.992,0,0,0,.26-.964l-.641-2.378a.986.986,0,0,0-.711-.7l-1.664-.436V45.146l1.664-.436a.986.986,0,0,0,.711-.7l.641-2.378a.993.993,0,0,0-.26-.964l-1.23-1.211,1.326-2.281,1.655.453a1.006,1.006,0,0,0,.97-.256l1.741-1.741a.993.993,0,0,0,.251-.965L37.774,33l2.277-1.319,1.213,1.225a1,1,0,0,0,.962.262l2.382-.637a.983.983,0,0,0,.7-.708l.442-1.664h2.633l.434,1.664a1.008,1.008,0,0,0,.711.708l2.373.637a.983.983,0,0,0,.962-.262l1.213-1.225L56.362,33l-.46,1.66a1,1,0,0,0,.26.965L57.9,37.369a.991.991,0,0,0,.962.256l1.662-.453,1.317,2.281-1.221,1.211a.992.992,0,0,0-.26.964L61,44.006a1,1,0,0,0,.711.7Zm1.992-.33v3.3a1.566,1.566,0,0,1-1.169,1.508L62.772,50l-.338,1.262L63.483,52.3a1.561,1.561,0,0,1,.251,1.888l-1.646,2.855a1.566,1.566,0,0,1-1.767.723l-1.42-.39-.927.926.39,1.421a1.563,1.563,0,0,1-.719,1.762l-2.859,1.651a1.56,1.56,0,0,1-1.888-.253l-1.04-1.05-1.265.339L50.22,63.6a1.552,1.552,0,0,1-1.507,1.164h-3.3A1.567,1.567,0,0,1,43.906,63.6l-.373-1.425-1.265-.339-1.04,1.051a1.558,1.558,0,0,1-1.888.253l-2.85-1.651a1.567,1.567,0,0,1-.728-1.762l.39-1.421-.927-.926-1.42.39a1.554,1.554,0,0,1-1.758-.723l-1.655-2.854a1.55,1.55,0,0,1,.26-1.888L31.7,51.262,31.362,50l-1.429-.374a1.556,1.556,0,0,1-1.16-1.508v-3.3a1.558,1.558,0,0,1,1.16-1.508l1.429-.373.338-1.262-1.049-1.039a1.553,1.553,0,0,1-.26-1.89l1.655-2.854A1.561,1.561,0,0,1,33.8,35.17l1.42.39.927-.924-.39-1.423a1.568,1.568,0,0,1,.728-1.762L39.34,29.8a1.56,1.56,0,0,1,1.888.253l1.04,1.051,1.265-.339.373-1.425a1.566,1.566,0,0,1,1.507-1.163h3.3A1.551,1.551,0,0,1,50.22,29.34l.373,1.425,1.265.339,1.04-1.05a1.558,1.558,0,0,1,1.888-.253l2.859,1.651a1.564,1.564,0,0,1,.719,1.762l-.39,1.423.927.924,1.42-.39a1.568,1.568,0,0,1,1.767.723l1.646,2.854a1.561,1.561,0,0,1-.251,1.889l-1.049,1.04.338,1.262,1.42.373a1.564,1.564,0,0,1,1.169,1.508Zm-.113-31.6A14.451,14.451,0,0,1,58.96,29.664a.994.994,0,1,1-1.039-1.7,12.466,12.466,0,0,0,2.321-1.835,12.6,12.6,0,0,0,3.483-10.66L56.406,22.8a1,1,0,0,1-.962.257L48.385,21.16a.977.977,0,0,1-.7-.7l-1.9-7.059a1.008,1.008,0,0,1,.26-.96l7.328-7.325A12.408,12.408,0,0,0,39.506,20.621a.988.988,0,0,1-.251.963L21.585,39.247a.985.985,0,0,1-.962.256,12.4,12.4,0,0,0-15.5,13.863l7.328-7.325a.984.984,0,0,1,.953-.257l7.068,1.892a1.007,1.007,0,0,1,.7.7l1.888,7.06a.987.987,0,0,1-.26.96l-7.319,7.32a12.455,12.455,0,0,0,12.88-6.472.995.995,0,0,1,1.759.929,14.709,14.709,0,0,1-2.572,3.465,14.326,14.326,0,0,1-6.765,3.791,14.477,14.477,0,0,1-3.439.415,14.2,14.2,0,0,1-4.122-.605.986.986,0,0,1-.416-1.654L20.991,55.4,19.4,49.444l-5.95-1.594L5.254,56.042a.988.988,0,0,1-.944.261,1,1,0,0,1-.711-.677A14.392,14.392,0,0,1,20.584,37.442L37.456,20.574A14.383,14.383,0,0,1,55.637,3.592a.994.994,0,0,1,.416,1.654l-8.194,8.193,1.594,5.951,5.95,1.594L63.6,12.791a.994.994,0,0,1,.944-.261.972.972,0,0,1,.711.677ZM23.11,15.271A7.842,7.842,0,0,1,30.94,23.1a1,1,0,0,0,1.993,0,9.823,9.823,0,1,0-9.823,9.82.994.994,0,1,0,0-1.988,7.832,7.832,0,0,1,0-15.665ZM2.991,24.927a1.616,1.616,0,0,0,1.2,1.565l1.638.429.408,1.515-1.2,1.191a1.621,1.621,0,0,0-.268,1.962L6.6,34.745a1.623,1.623,0,0,0,1.828.75l1.638-.446,1.516,1.517a.993.993,0,0,0,1.4-1.405l-1.923-1.926a1,1,0,0,0-.97-.256L8.181,33.5,6.639,30.84l1.411-1.4a1.013,1.013,0,0,0,.26-.964l-.7-2.63a1,1,0,0,0-.711-.7l-1.923-.5V21.565l1.923-.5a1,1,0,0,0,.711-.7l.7-2.63a1.014,1.014,0,0,0-.26-.964l-1.411-1.4L8.181,12.7l1.906.524a1,1,0,0,0,.97-.256l1.923-1.926a1,1,0,0,0,.26-.965l-.528-1.915,2.668-1.541,1.394,1.413a.991.991,0,0,0,.962.261l2.633-.7a.983.983,0,0,0,.7-.708l.5-1.918h3.075l.511,1.918a.981.981,0,0,0,.7.708l2.624.7a1.006,1.006,0,0,0,.97-.261l1.394-1.413,2.659,1.541-.519,1.915a.992.992,0,0,0,.251.965l1.932,1.926a.993.993,0,0,0,1.4-1.405l-1.516-1.517.451-1.631a1.633,1.633,0,0,0-.754-1.829L31.6,4.764a1.625,1.625,0,0,0-1.967.262L28.447,6.231l-1.516-.406L26.5,4.19A1.616,1.616,0,0,0,24.93,2.981H21.283A1.606,1.606,0,0,0,19.724,4.19l-.434,1.635-1.516.406L16.588,5.026a1.625,1.625,0,0,0-1.966-.262L11.469,6.589a1.62,1.62,0,0,0-.754,1.829l.451,1.631-1.108,1.108L8.421,10.71a1.625,1.625,0,0,0-1.828.75L4.765,14.616a1.619,1.619,0,0,0,.268,1.961l1.2,1.191L5.83,19.283l-1.638.429a1.617,1.617,0,0,0-1.2,1.565v3.648Z" transform="translate(0 0)" fill-rule="evenodd"/>
    </g>
  </g>
</svg>
