<svg xmlns="http://www.w3.org/2000/svg" xmlns:xlink="http://www.w3.org/1999/xlink" width="400" height="413.875" viewBox="0 0 400 413.875">
  <defs>
    <clipPath id="clip-path">
      <rect id="Rectangle_401407" data-name="Rectangle 401407" width="228.437" height="233.617" fill="none"/>
    </clipPath>
  </defs>
  <g id="Group_1121562" data-name="Group 1121562" transform="translate(-390 -3694.143)">
    <rect id="Rectangle_410756" data-name="Rectangle 410756" width="400" height="413.083" rx="26" transform="translate(390 3694.143)" fill="#f4f4f4"/>
    <g id="Group_1099579" data-name="Group 1099579" transform="translate(136.512 -5068.947)">
      <g id="Group_1099558" data-name="Group 1099558" transform="translate(340.051 8800)">
        <g id="Group_1099557" data-name="Group 1099557" clip-path="url(#clip-path)">
          <path id="Path_873588" data-name="Path 873588" d="M112.007,173.556c-2.858,0-5.591-7.521-8.393-7.595-2.862-.075-5.988,7.292-8.782,7.143-2.864-.152-5.188-7.809-7.973-8.036-2.864-.232-6.4,6.946-9.169,6.638-2.863-.318-4.727-8.1-7.477-8.5-2.863-.412-6.856,6.524-9.584,6.034-2.857-.514-4.167-8.408-6.859-9-2.849-.63-7.385,5.963-10.032,5.248-2.836-.766-3.4-8.745-5.979-9.6-2.813-.934-8.085,5.089-10.574,4.056-2.774-1.151-2.119-9.11-4.451-10.373-2.7-1.461-9.163,3.256-11.211,1.665-2.489-1.932.906-9.024-.528-11.116-1.744-2.545-9.495-3.079-9.495-5.8s7.752-3.258,9.5-5.806c1.433-2.091-1.959-9.184.531-11.116,2.05-1.591,8.514,3.126,11.212,1.665,2.334-1.262,1.682-9.221,4.457-10.374,2.489-1.032,7.759,4.991,10.572,4.058,2.582-.857,3.141-8.835,5.975-9.6,2.646-.715,7.182,5.878,10.029,5.249,2.691-.6,4-8.488,6.85-9,2.725-.49,6.716,6.446,9.577,6.034,2.751-.394,4.613-8.176,7.477-8.5,2.768-.308,6.306,6.87,9.17,6.637,2.783-.226,5.107-7.883,7.971-8.035,2.8-.148,5.923,7.217,8.787,7.142,2.8-.074,5.539-7.595,8.4-7.595s5.591,7.521,8.393,7.595c2.862.075,5.988-7.292,8.782-7.143,2.864.152,5.188,7.809,7.973,8.036,2.864.233,6.4-6.946,9.169-6.638,2.863.319,4.727,8.1,7.477,8.5,2.863.412,6.856-6.524,9.584-6.033,2.857.513,4.167,8.407,6.859,9,2.849.63,7.385-5.963,10.032-5.248,2.836.767,3.4,8.745,5.979,9.6,2.813.934,8.085-5.088,10.574-4.056,2.774,1.153,2.119,9.11,4.451,10.373,2.7,1.461,9.163-3.255,11.211-1.665,2.489,1.934-.906,9.026.528,11.116,1.744,2.545,9.495,3.08,9.495,5.8,0,2.073-7.6,2.38-8.625,4.356-.9,1.729,3.8,7.777,2.183,9.411-1.379,1.388-7.814-2.96-9.677-1.653-1.625,1.141.507,8.6-1.463,9.671-1.766.961-6.97-4.82-8.994-3.922-1.855.821-1,8.545-3.055,9.31-1.916.712-6.348-5.679-8.429-5.021-1.957.619-1.876,8.393-3.971,8.962-1.992.541-5.876-6.2-7.983-5.7-2.016.472-2.494,8.233-4.608,8.659-2.035.408-5.485-6.562-7.606-6.2-2.051.353-2.969,8.075-5.095,8.383-2.063.3-5.146-6.841-7.275-6.585-2.075.249-3.368,7.919-5.5,8.127" transform="translate(0.371 23.532)" fill="none" stroke="#c13325" stroke-miterlimit="10" stroke-width="1"/>
          <path id="Path_873589" data-name="Path 873589" d="M65.735,196.474C29.543,190.792,4.5,178.548,4.5,164.359c0-19.6,47.8-35.493,106.765-35.493S218.03,144.757,218.03,164.359s-47.8,35.493-106.765,35.493a302.848,302.848,0,0,1-39.3-2.481" transform="translate(1.114 31.893)" fill="none" stroke="#8c8c8c" stroke-miterlimit="10" stroke-width="3"/>
          <path id="Path_873590" data-name="Path 873590" d="M136.514,137.29c-8.095.652-16.55,1-25.249,1C52.3,138.288,4.5,122.4,4.5,102.794S52.3,67.3,111.265,67.3,218.03,83.191,218.03,102.794c0,16.135-32.382,29.755-76.719,34.069" transform="translate(1.114 16.656)" fill="none" stroke="#8c8c8c" stroke-miterlimit="10" stroke-width="3"/>
          <path id="Path_873591" data-name="Path 873591" d="M27.618,96.28c19.785,9.36,50.491,15.574,85.029,15.974,59.98.7,108.81-16.4,109.062-38.192S173.543,34.046,113.563,33.35,4.753,49.753,4.5,71.542c-.074,6.322,3.951,12.344,11.166,17.726" transform="translate(1.114 8.249)" fill="none" stroke="#859ca6" stroke-miterlimit="10" stroke-width="9"/>
          <path id="Path_873592" data-name="Path 873592" d="M198.319,66.547c-19.892,9.147-50.668,15.016-85.208,15.016C53.127,81.563,4.5,63.864,4.5,42.032S53.127,2.5,113.111,2.5,221.722,20.2,221.722,42.032c0,6.335-4.094,12.321-11.371,17.628" transform="translate(1.114 0.619)" fill="none" stroke="#6ad8c2" stroke-miterlimit="10" stroke-width="5"/>
        </g>
      </g>
    </g>
    <g id="Group_1100398" data-name="Group 1100398" transform="translate(1 -1334.308)">
      <path id="Rectangle_33728" data-name="Rectangle 33728" d="M0,0H400a0,0,0,0,1,0,0V65a22,22,0,0,1-22,22H25A25,25,0,0,1,0,62V0A0,0,0,0,1,0,0Z" transform="translate(389 5355.326)" fill="#45ceb3"/>
      <text id="MATERIALES_Y_ALEACIONES" data-name="MATERIALES Y ALEACIONES" transform="translate(589.781 5405.326)" font-size="20" font-family="Roboto-Black, Roboto" font-weight="800"><tspan x="-131.777" y="0">MATERIALES Y ALEACIONES</tspan></text>
    </g>
  </g>
</svg>
