<svg xmlns="http://www.w3.org/2000/svg" width="112.828" height="112.828" viewBox="0 0 112.828 112.828">
  <g id="Group_1120334" data-name="Group 1120334" transform="translate(-320.326 -5219)">
    <rect id="Rectangle_409891" data-name="Rectangle 409891" width="112.828" height="112.828" transform="translate(320.326 5219)" fill="none"/>
    <g id="Group_1120333" data-name="Group 1120333" transform="translate(320.826 5215.338)">
      <g id="Group_1120330" data-name="Group 1120330" transform="translate(7.5 12.662)">
        <g id="Group_1120318" data-name="Group 1120318" transform="translate(0 0)">
          <path id="Path_916939" data-name="Path 916939" d="M104.9,65.808a49.568,49.568,0,0,0,0-10.634L93.465,51.805A37.831,37.831,0,0,0,91.482,45.7l7.274-9.451a48.991,48.991,0,0,0-6.257-8.6l-11.238,4a38.232,38.232,0,0,0-5.185-3.773l.33-11.93A48.472,48.472,0,0,0,66.3,12.662L59.55,22.509q-1.585-.132-3.206-.133t-3.206.133l-6.746-9.847a48.48,48.48,0,0,0-10.11,3.282l.33,11.93a38.244,38.244,0,0,0-5.185,3.773l-11.238-4a49.011,49.011,0,0,0-6.257,8.6L21.206,45.7a37.826,37.826,0,0,0-1.983,6.107L7.786,55.175a49.566,49.566,0,0,0,0,10.634l11.437,3.369a37.832,37.832,0,0,0,1.983,6.107l-7.274,9.451a48.991,48.991,0,0,0,6.257,8.6l11.238-4a38.233,38.233,0,0,0,5.185,3.773l-.33,11.93a48.472,48.472,0,0,0,10.11,3.282l6.746-9.847q1.585.132,3.206.133t3.206-.133l6.746,9.847a48.48,48.48,0,0,0,10.11-3.282l-.33-11.93a38.245,38.245,0,0,0,5.185-3.773l11.238,4a49,49,0,0,0,6.257-8.6l-7.274-9.451a37.825,37.825,0,0,0,1.983-6.107Z" transform="translate(-7.5 -12.662)" fill="#685e68"/>
          <circle id="Ellipse_11999" data-name="Ellipse 11999" cx="24.434" cy="24.434" r="24.434" transform="translate(24.41 23.395)" fill="none" stroke="#000" stroke-linecap="round" stroke-linejoin="round" stroke-miterlimit="10" stroke-width="2"/>
          <g id="Group_1120317" data-name="Group 1120317" transform="translate(40.032 34.488)">
            <path id="Path_916940" data-name="Path 916940" d="M227.587,201.364a8.874,8.874,0,1,1-15.215,0l7.607-13.244Z" transform="translate(-211.168 -188.12)" fill="none" stroke="#000" stroke-linecap="round" stroke-linejoin="round" stroke-miterlimit="10" stroke-width="2"/>
          </g>
        </g>
        <g id="Group_1120320" data-name="Group 1120320" transform="translate(18.317 17.302)">
          <circle id="Ellipse_12000" data-name="Ellipse 12000" cx="30.528" cy="30.528" r="30.528" fill="#698ed5"/>
          <path id="Path_916941" data-name="Path 916941" d="M106.7,131.215a30.531,30.531,0,0,1,27.52-30.381q-1.484-.145-3.007-.146a30.528,30.528,0,1,0,0,61.055q1.522,0,3.007-.146A30.531,30.531,0,0,1,106.7,131.215Z" transform="translate(-100.687 -100.687)" fill="#3f73c8"/>
          <circle id="Ellipse_12001" data-name="Ellipse 12001" cx="24.434" cy="24.434" r="24.434" transform="translate(6.093 6.093)" fill="#d2e4f9"/>
          <path id="Path_916942" data-name="Path 916942" d="M137.585,156.122a24.438,24.438,0,0,1,21.486-24.258,24.7,24.7,0,0,0-2.948-.176,24.434,24.434,0,1,0,2.948,48.692A24.438,24.438,0,0,1,137.585,156.122Z" transform="translate(-125.595 -125.595)" fill="#bbd3ea"/>
          <g id="Group_1120319" data-name="Group 1120319" transform="translate(21.716 17.186)">
            <path id="Path_916943" data-name="Path 916943" d="M227.587,201.364a8.874,8.874,0,1,1-15.215,0l7.607-13.244Z" transform="translate(-211.168 -188.12)" fill="#fee07d"/>
          </g>
          <path id="Path_916944" data-name="Path 916944" d="M218.27,201.364l4.659-8.111-2.948-5.133-7.607,13.244a8.885,8.885,0,0,0,10.55,12.948A9.018,9.018,0,0,1,218.27,201.364Z" transform="translate(-189.452 -170.934)" fill="#ffcf64"/>
        </g>
        <g id="Group_1120329" data-name="Group 1120329" transform="translate(0 0.093)">
          <g id="Group_1120328" data-name="Group 1120328">
            <g id="Group_1120321" data-name="Group 1120321" transform="translate(53.35 0.069)">
              <path id="Path_916945" data-name="Path 916945" d="M280.313,23.041q1.235,0,2.452.078a1.344,1.344,0,0,0,1.192-.584l4.362-6.367a1.351,1.351,0,0,0-.749-2.065q-1.137-.317-2.3-.58a1.354,1.354,0,0,0-1.418.553l-4.694,6.852a1.351,1.351,0,0,0,1.125,2.113Z" transform="translate(-278.922 -13.489)" fill="#554e56"/>
            </g>
            <g id="Group_1120322" data-name="Group 1120322" transform="translate(26.612)">
              <path id="Path_916946" data-name="Path 916946" d="M143.422,31.076l2.247.8a.8.8,0,0,0,.783-.145A38.256,38.256,0,0,1,150.9,28.5a.8.8,0,0,0,.379-.7l-.3-10.935a.8.8,0,0,1,.475-.754q1.779-.779,3.629-1.418a.8.8,0,0,0,.4-1.2h0a.8.8,0,0,0-.827-.331,48.476,48.476,0,0,0-9.1,2.953.8.8,0,0,0-.475.754l.3,10.935a.8.8,0,0,1-.379.7q-.9.561-1.767,1.17A.8.8,0,0,0,143.422,31.076Z" transform="translate(-142.891 -13.138)" fill="#554e56"/>
            </g>
            <g id="Group_1120323" data-name="Group 1120323" transform="translate(51.506 9.713)">
              <path id="Path_916947" data-name="Path 916947" d="M269.544,62.552l.028.041.257-.02Z" transform="translate(-269.544 -62.552)" fill="#554e56"/>
            </g>
            <g id="Group_1120324" data-name="Group 1120324" transform="translate(51.506 85.718)">
              <path id="Path_916948" data-name="Path 916948" d="M269.83,449.255l-.257-.021-.028.041Z" transform="translate(-269.544 -449.235)" fill="#554e56"/>
            </g>
            <g id="Group_1120325" data-name="Group 1120325" transform="translate(0 15.123)">
              <path id="Path_916949" data-name="Path 916949" d="M20.39,146.206l6.235-8.1a1.354,1.354,0,0,0,.19-1.325,37.844,37.844,0,0,1-1.514-4.664,1.354,1.354,0,0,0-.933-.961l-9.8-2.888a1.367,1.367,0,0,1-.974-1.192q-.193-2.167-.194-4.385t.194-4.385a1.367,1.367,0,0,1,.974-1.192l9.8-2.888a1.354,1.354,0,0,0,.933-.961,37.788,37.788,0,0,1,1.514-4.664,1.354,1.354,0,0,0-.19-1.325l-6.235-8.1a1.37,1.37,0,0,1-.085-1.54,48.984,48.984,0,0,1,3.211-4.716,1.361,1.361,0,0,0-.626-2.11l-1.835-.653a1.368,1.368,0,0,0-1.487.39,49,49,0,0,0-5.161,7.091,1.368,1.368,0,0,0,.087,1.537l6.235,8.1a1.354,1.354,0,0,1,.19,1.325,37.844,37.844,0,0,0-1.514,4.664,1.354,1.354,0,0,1-.933.961l-9.8,2.888a1.367,1.367,0,0,0-.974,1.192Q7.5,120.472,7.5,122.69t.194,4.385a1.367,1.367,0,0,0,.974,1.192l9.8,2.888a1.354,1.354,0,0,1,.933.961,37.789,37.789,0,0,0,1.514,4.664,1.354,1.354,0,0,1-.19,1.325l-6.235,8.1a1.368,1.368,0,0,0-.087,1.537,49,49,0,0,0,5.161,7.091,1.368,1.368,0,0,0,1.487.39l1.835-.653a1.361,1.361,0,0,0,.626-2.11,48.92,48.92,0,0,1-3.211-4.716A1.369,1.369,0,0,1,20.39,146.206Z" transform="translate(-7.501 -90.077)" fill="#554e56"/>
            </g>
            <g id="Group_1120326" data-name="Group 1120326" transform="translate(53.35 85.771)">
              <path id="Path_916950" data-name="Path 916950" d="M283.956,450.089a1.344,1.344,0,0,0-1.192-.584q-1.216.077-2.452.078h-.027a1.351,1.351,0,0,0-1.125,2.113l4.694,6.852a1.354,1.354,0,0,0,1.418.553q1.159-.263,2.3-.58a1.351,1.351,0,0,0,.749-2.064Z" transform="translate(-278.921 -449.502)" fill="#554e56"/>
            </g>
            <g id="Group_1120327" data-name="Group 1120327" transform="translate(26.612 76.688)">
              <path id="Path_916951" data-name="Path 916951" d="M150.972,418.35l.3-10.935a.8.8,0,0,0-.379-.7,38.234,38.234,0,0,1-4.444-3.234.8.8,0,0,0-.783-.145l-2.247.8a.8.8,0,0,0-.189,1.409q.866.609,1.767,1.17a.8.8,0,0,1,.379.7l-.3,10.935a.8.8,0,0,0,.475.754,48.476,48.476,0,0,0,9.1,2.953.8.8,0,0,0,.827-.331h0a.8.8,0,0,0-.4-1.2q-1.849-.638-3.629-1.418A.8.8,0,0,1,150.972,418.35Z" transform="translate(-142.891 -403.291)" fill="#554e56"/>
            </g>
          </g>
        </g>
      </g>
      <g id="Group_1120332" data-name="Group 1120332" transform="translate(7.5 12.662)">
        <path id="Path_916952" data-name="Path 916952" d="M109.438,109.82a30.467,30.467,0,1,1-4.021,5.065" transform="translate(-82.37 -83.385)" fill="none" stroke="#000" stroke-linecap="round" stroke-linejoin="round" stroke-miterlimit="10" stroke-width="2"/>
        <circle id="Ellipse_12002" data-name="Ellipse 12002" cx="24.434" cy="24.434" r="24.434" transform="translate(24.41 23.395)" fill="none" stroke="#000" stroke-linecap="round" stroke-linejoin="round" stroke-miterlimit="10" stroke-width="2"/>
        <path id="Path_916953" data-name="Path 916953" d="M256,172.452q1.62,0,3.206-.133l6.746,9.847a48.478,48.478,0,0,0,10.11-3.282l-.33-11.93a38.247,38.247,0,0,0,5.185-3.773l11.238,4a49,49,0,0,0,6.257-8.6l-7.274-9.451a37.828,37.828,0,0,0,1.983-6.107l11.437-3.369a49.563,49.563,0,0,0,0-10.634l-11.437-3.369a37.834,37.834,0,0,0-1.983-6.107l7.274-9.451a48.933,48.933,0,0,0-3.681-5.519" transform="translate(-207.154 -86.508)" fill="none" stroke="#000" stroke-linecap="round" stroke-linejoin="round" stroke-miterlimit="10" stroke-width="2"/>
        <path id="Path_916954" data-name="Path 916954" d="M88.651,29.021l-7.39,2.629a38.231,38.231,0,0,0-5.185-3.773l.33-11.93A48.472,48.472,0,0,0,66.3,12.664L59.55,22.511q-1.585-.132-3.206-.133t-3.206.133l-6.746-9.847a48.48,48.48,0,0,0-10.11,3.282l.33,11.93a38.244,38.244,0,0,0-5.185,3.773l-11.238-4a49.011,49.011,0,0,0-6.257,8.6L21.206,45.7a37.826,37.826,0,0,0-1.983,6.107L7.786,55.176a49.566,49.566,0,0,0,0,10.634l11.437,3.369a37.832,37.832,0,0,0,1.983,6.107l-7.274,9.451a48.991,48.991,0,0,0,6.257,8.6l11.238-4a38.233,38.233,0,0,0,5.185,3.773l-.33,11.93a48.472,48.472,0,0,0,10.11,3.282l3.459-5.049" transform="translate(-7.5 -12.664)" fill="none" stroke="#000" stroke-linecap="round" stroke-linejoin="round" stroke-miterlimit="10" stroke-width="2"/>
        <g id="Group_1120331" data-name="Group 1120331" transform="translate(40.032 34.487)">
          <path id="Path_916955" data-name="Path 916955" d="M227.587,201.364a8.874,8.874,0,1,1-15.215,0l7.607-13.244Z" transform="translate(-211.168 -188.12)" fill="none" stroke="#000" stroke-linecap="round" stroke-linejoin="round" stroke-miterlimit="10" stroke-width="2"/>
        </g>
      </g>
    </g>
  </g>
</svg>
