<svg xmlns="http://www.w3.org/2000/svg" xmlns:xlink="http://www.w3.org/1999/xlink" width="401.024" height="413.875" viewBox="0 0 401.024 413.875">
  <defs>
    <clipPath id="clip-path">
      <rect id="Rectangle_401407" data-name="Rectangle 401407" width="168.904" height="172.734" fill="none"/>
    </clipPath>
    <clipPath id="clip-path-2">
      <rect id="Rectangle_401408" data-name="Rectangle 401408" width="18.138" height="18.138" fill="none" stroke="#9b291e" stroke-width="1.5"/>
    </clipPath>
    <clipPath id="clip-path-4">
      <rect id="Rectangle_401408-3" data-name="Rectangle 401408" width="18.138" height="18.138" fill="none" stroke="#45ceb3" stroke-width="1.5"/>
    </clipPath>
    <clipPath id="clip-path-7">
      <rect id="Rectangle_401409" data-name="Rectangle 401409" width="68.05" height="166.489" fill="none"/>
    </clipPath>
  </defs>
  <g id="Group_1121567" data-name="Group 1121567" transform="translate(-810 -3694.143)">
    <path id="Path_921835" data-name="Path 921835" d="M26,0H374a26,26,0,0,1,26,26V387.083a26,26,0,0,1-26,26H26a26,26,0,0,1-26-26V26A26,26,0,0,1,26,0Z" transform="translate(811.024 3694.143)" fill="#f4f4f4"/>
    <g id="Group_1121566" data-name="Group 1121566">
      <g id="Group_1099559" data-name="Group 1099559" transform="translate(836.303 3767.847)" opacity="0.21">
        <g id="Group_1099557" data-name="Group 1099557" clip-path="url(#clip-path)">
          <path id="Path_873588" data-name="Path 873588" d="M83.208,153.105c-2.113,0-4.134-5.561-6.206-5.615-2.116-.055-4.427,5.391-6.494,5.282-2.118-.113-3.836-5.774-5.895-5.942-2.118-.172-4.732,5.136-6.779,4.908-2.117-.235-3.495-5.989-5.529-6.281-2.117-.3-5.069,4.824-7.087,4.462-2.112-.38-3.081-6.217-5.071-6.657-2.107-.466-5.46,4.409-7.418,3.88-2.1-.566-2.511-6.466-4.421-7.1-2.08-.691-5.978,3.762-7.818,3-2.051-.851-1.567-6.736-3.291-7.67-1.994-1.08-6.775,2.407-8.289,1.231-1.84-1.429.67-6.672-.39-8.219-1.289-1.882-7.02-2.276-7.02-4.288s5.732-2.409,7.023-4.293c1.06-1.546-1.448-6.791.393-8.219,1.515-1.176,6.3,2.311,8.29,1.231,1.726-.933,1.243-6.818,3.3-7.67,1.84-.763,5.737,3.69,7.817,3,1.909-.634,2.323-6.532,4.418-7.1,1.956-.529,5.31,4.346,7.415,3.881,1.99-.44,2.954-6.276,5.065-6.655,2.014-.362,4.966,4.766,7.081,4.462,2.034-.291,3.411-6.045,5.529-6.281,2.047-.228,4.663,5.08,6.78,4.907,2.058-.167,3.776-5.829,5.894-5.941,2.067-.11,4.379,5.336,6.5,5.281,2.073-.054,4.1-5.615,6.209-5.615s4.134,5.561,6.206,5.615c2.116.055,4.427-5.391,6.494-5.282,2.118.113,3.836,5.774,5.895,5.942,2.118.172,4.732-5.136,6.779-4.908,2.117.236,3.495,5.99,5.529,6.281,2.117.3,5.069-4.824,7.087-4.461,2.112.379,3.081,6.216,5.071,6.656,2.107.466,5.46-4.409,7.418-3.88,2.1.567,2.511,6.466,4.421,7.1,2.08.691,5.978-3.762,7.818-3,2.051.852,1.567,6.736,3.291,7.67,1.994,1.08,6.775-2.406,8.289-1.231,1.84,1.43-.67,6.673.39,8.219,1.289,1.882,7.02,2.277,7.02,4.289,0,1.533-5.618,1.76-6.377,3.221-.664,1.278,2.813,5.75,1.614,6.958-1.019,1.027-5.778-2.189-7.155-1.222-1.2.844.374,6.359-1.082,7.15-1.306.71-5.153-3.564-6.65-2.9-1.372.607-.737,6.318-2.259,6.884-1.417.527-4.694-4.2-6.232-3.713-1.447.458-1.387,6.206-2.936,6.626-1.473.4-4.344-4.582-5.9-4.218-1.491.349-1.844,6.088-3.407,6.4-1.5.3-4.056-4.852-5.624-4.583-1.516.261-2.2,5.971-3.767,6.2-1.526.221-3.8-5.058-5.379-4.869-1.534.184-2.49,5.855-4.067,6.009" transform="translate(-0.116 -7.381)" fill="none" stroke="#c13325" stroke-miterlimit="10" stroke-width="1"/>
          <path id="Path_873589" data-name="Path 873589" d="M49.777,178.854C23.017,174.654,4.5,165.6,4.5,155.109c0-14.494,35.344-26.243,78.941-26.243s78.941,11.749,78.941,26.243-35.343,26.243-78.941,26.243a223.924,223.924,0,0,1-29.056-1.835" transform="translate(-0.349 -10.003)" fill="none" stroke="#8c8c8c" stroke-miterlimit="10" stroke-width="3"/>
          <path id="Path_873590" data-name="Path 873590" d="M102.11,119.05c-5.985.482-12.237.738-18.669.738-43.6,0-78.941-11.749-78.941-26.243S39.843,67.3,83.441,67.3s78.941,11.749,78.941,26.243c0,11.93-23.943,22-56.725,25.19" transform="translate(-0.349 -5.224)" fill="none" stroke="#8c8c8c" stroke-miterlimit="10" stroke-width="3"/>
          <path id="Path_873591" data-name="Path 873591" d="M21.594,79.874c14.629,6.921,37.332,11.515,62.869,11.811,44.349.515,80.452-12.128,80.639-28.239s-35.613-29.587-79.962-30.1S4.687,45.473,4.5,61.583c-.054,4.675,2.921,9.127,8.256,13.106" transform="translate(-0.349 -2.587)" fill="none" stroke="#859ca6" stroke-miterlimit="10" stroke-width="9"/>
          <path id="Path_873592" data-name="Path 873592" d="M147.808,49.856c-14.708,6.763-37.463,11.1-63,11.1C40.454,60.958,4.5,47.872,4.5,31.729S40.454,2.5,84.806,2.5s80.306,13.087,80.306,29.229c0,4.684-3.027,9.11-8.407,13.034" transform="translate(-0.349 -0.194)" fill="none" stroke="#6ad8c2" stroke-miterlimit="10" stroke-width="5"/>
        </g>
      </g>
      <path id="Path_873593" data-name="Path 873593" d="M-7878-2787l53.191,29.823" transform="translate(8737.877 6573.294)" fill="none" stroke="#707070" stroke-width="1" stroke-dasharray="5"/>
      <path id="Path_873594" data-name="Path 873594" d="M0,0,53.191,29.823" transform="translate(925.367 3814.335) rotate(-51)" fill="none" stroke="#707070" stroke-width="1" stroke-dasharray="5"/>
      <path id="Path_873595" data-name="Path 873595" d="M3.075,0,0,126.058" transform="matrix(0.999, -0.035, 0.035, 0.999, 915.481, 3822.667)" fill="none" stroke="#707070" stroke-width="1" stroke-dasharray="5"/>
      <path id="Path_921836" data-name="Path 921836" d="M3.52,0H2.25V-4.9l-1.516.47V-5.458l2.65-.949H3.52ZM9.984,0H5.6V-.87l2.07-2.206A5.106,5.106,0,0,0,8.3-3.889a1.306,1.306,0,0,0,.2-.659.977.977,0,0,0-.215-.67.777.777,0,0,0-.615-.244.838.838,0,0,0-.679.3,1.175,1.175,0,0,0-.248.78H5.471A2.1,2.1,0,0,1,5.75-5.454a1.967,1.967,0,0,1,.789-.758,2.4,2.4,0,0,1,1.156-.275,2.27,2.27,0,0,1,1.536.475,1.679,1.679,0,0,1,.547,1.34,2.151,2.151,0,0,1-.246.967,5.373,5.373,0,0,1-.844,1.147L7.233-1.024H9.984Zm5.084-2.646a3.241,3.241,0,0,1-.549,2.03,1.917,1.917,0,0,1-1.608.7,1.931,1.931,0,0,1-1.6-.69,3.147,3.147,0,0,1-.567-1.978V-3.757A3.2,3.2,0,0,1,11.3-5.792a1.932,1.932,0,0,1,1.6-.694,1.934,1.934,0,0,1,1.6.688,3.137,3.137,0,0,1,.567,1.975ZM13.8-3.937A2.339,2.339,0,0,0,13.581-5.1a.735.735,0,0,0-.679-.363.722.722,0,0,0-.661.345,2.189,2.189,0,0,0-.226,1.079v1.556a2.455,2.455,0,0,0,.213,1.162.726.726,0,0,0,.683.38.713.713,0,0,0,.672-.365A2.4,2.4,0,0,0,13.8-2.417Zm2.246-1.336A1.168,1.168,0,0,1,16.4-6.13a1.148,1.148,0,0,1,.839-.356,1.125,1.125,0,0,1,.828.354,1.177,1.177,0,0,1,.349.859,1.148,1.148,0,0,1-.349.85,1.139,1.139,0,0,1-.828.345,1.171,1.171,0,0,1-.835-.345A1.131,1.131,0,0,1,16.044-5.273Zm1.2.545a.513.513,0,0,0,.385-.156.536.536,0,0,0,.152-.389.569.569,0,0,0-.152-.4.5.5,0,0,0-.385-.167.517.517,0,0,0-.391.167.556.556,0,0,0-.158.4.522.522,0,0,0,.16.387A.533.533,0,0,0,17.24-4.729Z" transform="translate(906.919 3787.916)" fill="#12263f"/>
      <path id="Path_921840" data-name="Path 921840" d="M3.52,0H2.25V-4.9l-1.516.47V-5.458l2.65-.949H3.52ZM9.984,0H5.6V-.87l2.07-2.206A5.106,5.106,0,0,0,8.3-3.889a1.306,1.306,0,0,0,.2-.659.977.977,0,0,0-.215-.67.777.777,0,0,0-.615-.244.838.838,0,0,0-.679.3,1.175,1.175,0,0,0-.248.78H5.471A2.1,2.1,0,0,1,5.75-5.454a1.967,1.967,0,0,1,.789-.758,2.4,2.4,0,0,1,1.156-.275,2.27,2.27,0,0,1,1.536.475,1.679,1.679,0,0,1,.547,1.34,2.151,2.151,0,0,1-.246.967,5.373,5.373,0,0,1-.844,1.147L7.233-1.024H9.984Zm5.084-2.646a3.241,3.241,0,0,1-.549,2.03,1.917,1.917,0,0,1-1.608.7,1.931,1.931,0,0,1-1.6-.69,3.147,3.147,0,0,1-.567-1.978V-3.757A3.2,3.2,0,0,1,11.3-5.792a1.932,1.932,0,0,1,1.6-.694,1.934,1.934,0,0,1,1.6.688,3.137,3.137,0,0,1,.567,1.975ZM13.8-3.937A2.339,2.339,0,0,0,13.581-5.1a.735.735,0,0,0-.679-.363.722.722,0,0,0-.661.345,2.189,2.189,0,0,0-.226,1.079v1.556a2.455,2.455,0,0,0,.213,1.162.726.726,0,0,0,.683.38.713.713,0,0,0,.672-.365A2.4,2.4,0,0,0,13.8-2.417Zm2.246-1.336A1.168,1.168,0,0,1,16.4-6.13a1.148,1.148,0,0,1,.839-.356,1.125,1.125,0,0,1,.828.354,1.177,1.177,0,0,1,.349.859,1.148,1.148,0,0,1-.349.85,1.139,1.139,0,0,1-.828.345,1.171,1.171,0,0,1-.835-.345A1.131,1.131,0,0,1,16.044-5.273Zm1.2.545a.513.513,0,0,0,.385-.156.536.536,0,0,0,.152-.389.569.569,0,0,0-.152-.4.5.5,0,0,0-.385-.167.517.517,0,0,0-.391.167.556.556,0,0,0-.158.4.522.522,0,0,0,.16.387A.533.533,0,0,0,17.24-4.729Z" transform="translate(863.567 3822.043)" fill="#12263f"/>
      <path id="Path_921839" data-name="Path 921839" d="M3.52,0H2.25V-4.9l-1.516.47V-5.458l2.65-.949H3.52ZM9.984,0H5.6V-.87l2.07-2.206A5.106,5.106,0,0,0,8.3-3.889a1.306,1.306,0,0,0,.2-.659.977.977,0,0,0-.215-.67.777.777,0,0,0-.615-.244.838.838,0,0,0-.679.3,1.175,1.175,0,0,0-.248.78H5.471A2.1,2.1,0,0,1,5.75-5.454a1.967,1.967,0,0,1,.789-.758,2.4,2.4,0,0,1,1.156-.275,2.27,2.27,0,0,1,1.536.475,1.679,1.679,0,0,1,.547,1.34,2.151,2.151,0,0,1-.246.967,5.373,5.373,0,0,1-.844,1.147L7.233-1.024H9.984Zm5.084-2.646a3.241,3.241,0,0,1-.549,2.03,1.917,1.917,0,0,1-1.608.7,1.931,1.931,0,0,1-1.6-.69,3.147,3.147,0,0,1-.567-1.978V-3.757A3.2,3.2,0,0,1,11.3-5.792a1.932,1.932,0,0,1,1.6-.694,1.934,1.934,0,0,1,1.6.688,3.137,3.137,0,0,1,.567,1.975ZM13.8-3.937A2.339,2.339,0,0,0,13.581-5.1a.735.735,0,0,0-.679-.363.722.722,0,0,0-.661.345,2.189,2.189,0,0,0-.226,1.079v1.556a2.455,2.455,0,0,0,.213,1.162.726.726,0,0,0,.683.38.713.713,0,0,0,.672-.365A2.4,2.4,0,0,0,13.8-2.417Zm2.246-1.336A1.168,1.168,0,0,1,16.4-6.13a1.148,1.148,0,0,1,.839-.356,1.125,1.125,0,0,1,.828.354,1.177,1.177,0,0,1,.349.859,1.148,1.148,0,0,1-.349.85,1.139,1.139,0,0,1-.828.345,1.171,1.171,0,0,1-.835-.345A1.131,1.131,0,0,1,16.044-5.273Zm1.2.545a.513.513,0,0,0,.385-.156.536.536,0,0,0,.152-.389.569.569,0,0,0-.152-.4.5.5,0,0,0-.385-.167.517.517,0,0,0-.391.167.556.556,0,0,0-.158.4.522.522,0,0,0,.16.387A.533.533,0,0,0,17.24-4.729Z" transform="translate(952.116 3824.81)" fill="#12263f"/>
      <g id="Group_1099562" data-name="Group 1099562" transform="translate(873.905 3788.174) rotate(-5)">
        <g id="Group_1099561" data-name="Group 1099561" transform="translate(2.33 1.926)">
          <g id="Group_1099560" data-name="Group 1099560" transform="translate(0 0)" clip-path="url(#clip-path-2)">
            <path id="Path_873596" data-name="Path 873596" d="M0,17.337A17.337,17.337,0,0,1,17.337,0" transform="translate(0.801 0.801)" fill="none" stroke="#9b291e" stroke-miterlimit="10" stroke-width="1.5"/>
          </g>
        </g>
        <path id="Path_873597" data-name="Path 873597" d="M2.466,0,0,3.042,2.466,5.549" transform="matrix(-1, 0, 0, -1, 21.09, 5.549)" fill="none" stroke="#9b291e" stroke-width="1.5"/>
        <path id="Path_873598" data-name="Path 873598" d="M2.466,0,0,3.042,2.466,5.549" transform="matrix(0, -1, 1, 0, 0, 20.555)" fill="none" stroke="#9b291e" stroke-width="1.5"/>
      </g>
      <g id="Group_1099563" data-name="Group 1099563" transform="translate(919.406 3855.404) rotate(-135)">
        <g id="Group_1099561-2" data-name="Group 1099561" transform="translate(2.33 1.926)">
          <g id="Group_1099560-2" data-name="Group 1099560" transform="translate(0 0)" clip-path="url(#clip-path-2)">
            <path id="Path_873596-2" data-name="Path 873596" d="M0,17.337A17.337,17.337,0,0,1,17.337,0" transform="translate(0.801 0.801)" fill="none" stroke="#9b291e" stroke-miterlimit="10" stroke-width="1.5"/>
          </g>
        </g>
        <path id="Path_873597-2" data-name="Path 873597" d="M2.466,0,0,3.042,2.466,5.549" transform="matrix(-1, 0, 0, -1, 21.09, 5.549)" fill="none" stroke="#9b291e" stroke-width="1.5"/>
        <path id="Path_873598-2" data-name="Path 873598" d="M2.466,0,0,3.042,2.466,5.549" transform="matrix(0, -1, 1, 0, 0, 20.555)" fill="none" stroke="#9b291e" stroke-width="1.5"/>
      </g>
      <g id="Group_1099565" data-name="Group 1099565" transform="translate(942.466 3910.747) rotate(-135)">
        <g id="Group_1099561-3" data-name="Group 1099561" transform="translate(2.33 1.926)">
          <g id="Group_1099560-3" data-name="Group 1099560" transform="translate(0 0)" clip-path="url(#clip-path-4)">
            <path id="Path_873596-3" data-name="Path 873596" d="M0,17.337A17.337,17.337,0,0,1,17.337,0" transform="translate(0.801 0.801)" fill="none" stroke="#45ceb3" stroke-miterlimit="10" stroke-width="1.5"/>
          </g>
        </g>
        <path id="Path_873597-3" data-name="Path 873597" d="M2.466,0,0,3.042,2.466,5.549" transform="matrix(-1, 0, 0, -1, 21.09, 5.549)" fill="none" stroke="#45ceb3" stroke-width="1.5"/>
        <path id="Path_873598-3" data-name="Path 873598" d="M2.466,0,0,3.042,2.466,5.549" transform="matrix(0, -1, 1, 0, 0, 20.555)" fill="none" stroke="#45ceb3" stroke-width="1.5"/>
      </g>
      <g id="Group_1099566" data-name="Group 1099566" transform="translate(886.201 3938.417) rotate(-135)">
        <g id="Group_1099561-4" data-name="Group 1099561" transform="translate(2.33 1.926)">
          <g id="Group_1099560-4" data-name="Group 1099560" transform="translate(0 0)" clip-path="url(#clip-path-4)">
            <path id="Path_873596-4" data-name="Path 873596" d="M0,17.337A17.337,17.337,0,0,1,17.337,0" transform="translate(0.801 0.801)" fill="none" stroke="#45ceb3" stroke-miterlimit="10" stroke-width="1.5"/>
          </g>
        </g>
        <path id="Path_873597-4" data-name="Path 873597" d="M2.466,0,0,3.042,2.466,5.549" transform="matrix(-1, 0, 0, -1, 21.09, 5.549)" fill="none" stroke="#45ceb3" stroke-width="1.5"/>
        <path id="Path_873598-4" data-name="Path 873598" d="M2.466,0,0,3.042,2.466,5.549" transform="matrix(0, -1, 1, 0, 0, 20.555)" fill="none" stroke="#45ceb3" stroke-width="1.5"/>
      </g>
      <g id="Group_1099564" data-name="Group 1099564" transform="translate(964.964 3788.927) rotate(90)">
        <g id="Group_1099561-5" data-name="Group 1099561" transform="translate(2.33 1.926)">
          <g id="Group_1099560-5" data-name="Group 1099560" transform="translate(0 0)" clip-path="url(#clip-path-2)">
            <path id="Path_873596-5" data-name="Path 873596" d="M0,17.337A17.337,17.337,0,0,1,17.337,0" transform="translate(0.801 0.801)" fill="none" stroke="#9b291e" stroke-miterlimit="10" stroke-width="1.5"/>
          </g>
        </g>
        <path id="Path_873597-5" data-name="Path 873597" d="M2.466,0,0,3.042,2.466,5.549" transform="matrix(-1, 0, 0, -1, 21.09, 5.549)" fill="none" stroke="#9b291e" stroke-width="1.5"/>
        <path id="Path_873598-5" data-name="Path 873598" d="M2.466,0,0,3.042,2.466,5.549" transform="matrix(0, -1, 1, 0, 0, 20.555)" fill="none" stroke="#9b291e" stroke-width="1.5"/>
      </g>
      <g id="Group_1099575" data-name="Group 1099575" transform="translate(1039.741 3777.071)">
        <g id="Group_1099568" data-name="Group 1099568">
          <g id="Group_1099567" data-name="Group 1099567" clip-path="url(#clip-path-7)">
            <path id="Path_873599" data-name="Path 873599" d="M25.538,166.528V14.576L38.712.5H69.571" transform="translate(-1.982 -0.039)" fill="none" stroke="#859ca6" stroke-miterlimit="10" stroke-width="1"/>
          </g>
        </g>
        <rect id="Rectangle_401410" data-name="Rectangle 401410" width="61.719" height="25.987" transform="translate(5.87 26.448)" fill="#fff"/>
        <g id="Group_1099570" data-name="Group 1099570">
          <g id="Group_1099569" data-name="Group 1099569" clip-path="url(#clip-path-7)">
            <rect id="Rectangle_401411" data-name="Rectangle 401411" width="61.719" height="25.987" transform="translate(5.87 26.448)" fill="none" stroke="#859ca6" stroke-miterlimit="10" stroke-width="1"/>
          </g>
        </g>
        <rect id="Rectangle_401413" data-name="Rectangle 401413" width="61.719" height="25.987" transform="translate(5.87 65.067)" fill="#fff"/>
        <g id="Group_1099572" data-name="Group 1099572">
          <g id="Group_1099571" data-name="Group 1099571" clip-path="url(#clip-path-7)">
            <rect id="Rectangle_401414" data-name="Rectangle 401414" width="61.719" height="25.987" transform="translate(5.87 65.067)" fill="none" stroke="#859ca6" stroke-miterlimit="10" stroke-width="1"/>
          </g>
        </g>
        <path id="Path_873600" data-name="Path 873600" d="M25.538,105.37v39.341H69.572V105.37Z" transform="translate(-1.982 -8.179)" fill="#fff"/>
        <g id="Group_1099574" data-name="Group 1099574">
          <g id="Group_1099573" data-name="Group 1099573" clip-path="url(#clip-path-7)">
            <path id="Path_873601" data-name="Path 873601" d="M25.538,114.513V105.37H69.571v39.341H25.538V126.3" transform="translate(-1.982 -8.179)" fill="none" stroke="#859ca6" stroke-miterlimit="10" stroke-width="1"/>
            <path id="Path_873602" data-name="Path 873602" d="M50.288,117.735H4.53a4.03,4.03,0,0,1,0-8.061H50.288a4.03,4.03,0,1,1,0,8.061" transform="translate(-0.039 -8.513)" fill="#fff"/>
            <path id="Path_873603" data-name="Path 873603" d="M50.288,117.735H4.53a4.03,4.03,0,0,1,0-8.061H50.288a4.03,4.03,0,1,1,0,8.061Z" transform="translate(-0.039 -8.513)" fill="none" stroke="#859ca6" stroke-miterlimit="10" stroke-width="1"/>
            <path id="Path_873604" data-name="Path 873604" d="M42.883,122.444H13.667a2.015,2.015,0,1,1,0-4.031H42.883a2.015,2.015,0,1,1,0,4.031" transform="translate(-0.904 -9.192)" fill="#fff"/>
            <path id="Path_873605" data-name="Path 873605" d="M42.883,122.444H13.667a2.015,2.015,0,1,1,0-4.031H42.883a2.015,2.015,0,1,1,0,4.031Z" transform="translate(-0.904 -9.192)" fill="none" stroke="#859ca6" stroke-miterlimit="10" stroke-width="1"/>
            <path id="Path_873606" data-name="Path 873606" d="M4.531,133.739H50.289a4.03,4.03,0,0,1,0,8.061H4.531a4.03,4.03,0,1,1,0-8.061" transform="translate(-0.039 -10.381)" fill="#fff"/>
            <path id="Path_873607" data-name="Path 873607" d="M4.531,133.739H50.289a4.03,4.03,0,0,1,0,8.061H4.531a4.03,4.03,0,1,1,0-8.061Z" transform="translate(-0.039 -10.381)" fill="none" stroke="#859ca6" stroke-miterlimit="10" stroke-width="1"/>
            <path id="Path_873608" data-name="Path 873608" d="M13.667,129.37H42.883a2.015,2.015,0,0,1,0,4.031H13.667a2.015,2.015,0,0,1,0-4.031" transform="translate(-0.904 -10.042)" fill="#fff"/>
            <path id="Path_873609" data-name="Path 873609" d="M13.667,129.37H42.883a2.015,2.015,0,0,1,0,4.031H13.667a2.015,2.015,0,0,1,0-4.031Z" transform="translate(-0.904 -10.042)" fill="none" stroke="#859ca6" stroke-miterlimit="10" stroke-width="1"/>
            <line id="Line_156" data-name="Line 156" y2="25.987" transform="translate(59.288 26.448)" fill="#fff"/>
            <line id="Line_157" data-name="Line 157" y2="25.987" transform="translate(59.288 26.448)" fill="none" stroke="#859ca6" stroke-miterlimit="10" stroke-width="1"/>
            <line id="Line_158" data-name="Line 158" y2="25.987" transform="translate(59.288 65.068)" fill="#fff"/>
            <line id="Line_159" data-name="Line 159" y2="25.987" transform="translate(59.288 65.068)" fill="none" stroke="#859ca6" stroke-miterlimit="10" stroke-width="1"/>
          </g>
        </g>
      </g>
      <path id="Path_921832" data-name="Path 921832" d="M6.508,12.949h-3.6L2.229,15H.048L3.753,5.047h1.9L9.379,15H7.2ZM3.466,11.288H5.954L4.7,7.563Zm8.2-3.685.062.854a2.582,2.582,0,0,1,2.126-.991,2.146,2.146,0,0,1,1.75.69,3.221,3.221,0,0,1,.588,2.064V15H14.219V10.27a1.282,1.282,0,0,0-.273-.913,1.224,1.224,0,0,0-.909-.284,1.359,1.359,0,0,0-1.251.711V15H9.81V7.6ZM19.776,15H17.794V7.6h1.982Zm-2.1-9.311a.973.973,0,0,1,.3-.731,1.281,1.281,0,0,1,1.617,0,.967.967,0,0,1,.3.731.97.97,0,0,1-.3.738,1.267,1.267,0,0,1-1.606,0A.97.97,0,0,1,17.678,5.689ZM23.488,15H21.506V4.5h1.982ZM27.2,15H25.218V4.5H27.2Zm1.319-3.767a4.387,4.387,0,0,1,.424-1.962,3.1,3.1,0,0,1,1.22-1.333,3.56,3.56,0,0,1,1.849-.472,3.368,3.368,0,0,1,2.444.916,3.676,3.676,0,0,1,1.056,2.488l.014.506a3.866,3.866,0,0,1-.95,2.731,3.683,3.683,0,0,1-5.1,0,3.934,3.934,0,0,1-.954-2.789Zm1.976.144a2.757,2.757,0,0,0,.4,1.61,1.426,1.426,0,0,0,2.256.007,3.017,3.017,0,0,0,.4-1.76,2.73,2.73,0,0,0-.4-1.6,1.312,1.312,0,0,0-1.135-.567,1.29,1.29,0,0,0-1.121.564A3.068,3.068,0,0,0,30.5,11.377Zm13.74,1.579a.637.637,0,0,0-.359-.571,4.077,4.077,0,0,0-1.152-.373q-2.639-.554-2.639-2.242A2.032,2.032,0,0,1,40.9,8.126a3.3,3.3,0,0,1,2.136-.66,3.547,3.547,0,0,1,2.252.663,2.09,2.09,0,0,1,.844,1.723H44.16a.956.956,0,0,0-.273-.7,1.157,1.157,0,0,0-.854-.277,1.182,1.182,0,0,0-.772.226.712.712,0,0,0-.273.574.609.609,0,0,0,.311.53,3.2,3.2,0,0,0,1.049.349,8.571,8.571,0,0,1,1.244.332,2.044,2.044,0,0,1,1.565,1.989,1.929,1.929,0,0,1-.868,1.637,3.745,3.745,0,0,1-2.242.625,3.912,3.912,0,0,1-1.651-.332,2.77,2.77,0,0,1-1.131-.909,2.113,2.113,0,0,1-.41-1.248h1.873a1.031,1.031,0,0,0,.39.807,1.546,1.546,0,0,0,.971.28,1.43,1.43,0,0,0,.858-.215A.67.67,0,0,0,44.235,12.956Zm7.622,1.292a2.477,2.477,0,0,1-2.023.889,2.337,2.337,0,0,1-1.815-.684,2.918,2.918,0,0,1-.639-2V7.6h1.976v4.778q0,1.155,1.053,1.155a1.427,1.427,0,0,0,1.381-.7V7.6h1.982V15H51.912ZM61.92,11.37a4.436,4.436,0,0,1-.776,2.738,2.488,2.488,0,0,1-2.1,1.029,2.3,2.3,0,0,1-1.812-.779v3.486H55.262V7.6h1.832l.068.725a2.322,2.322,0,0,1,1.873-.861,2.5,2.5,0,0,1,2.126,1.012,4.556,4.556,0,0,1,.759,2.789Zm-1.976-.144a2.911,2.911,0,0,0-.366-1.593,1.191,1.191,0,0,0-1.063-.561,1.294,1.294,0,0,0-1.278.711v3.028a1.316,1.316,0,0,0,1.292.731Q59.944,13.544,59.944,11.227Zm6.6,3.91a3.631,3.631,0,0,1-2.649-1,3.548,3.548,0,0,1-1.022-2.659v-.191A4.468,4.468,0,0,1,63.308,9.3a3.161,3.161,0,0,1,1.22-1.354,3.425,3.425,0,0,1,1.8-.475,3.07,3.07,0,0,1,2.389.957,3.889,3.889,0,0,1,.872,2.714v.807H64.88a1.835,1.835,0,0,0,.578,1.162,1.746,1.746,0,0,0,1.22.438,2.132,2.132,0,0,0,1.784-.827l.971,1.087a2.966,2.966,0,0,1-1.2.981A3.947,3.947,0,0,1,66.548,15.137Zm-.226-6.07a1.237,1.237,0,0,0-.954.4A2.048,2.048,0,0,0,64.9,10.6h2.748V10.44a1.46,1.46,0,0,0-.355-1.015A1.277,1.277,0,0,0,66.322,9.066Zm8.545.39a5.367,5.367,0,0,0-.711-.055,1.447,1.447,0,0,0-1.47.759V15H70.711V7.6h1.866l.055.882a1.831,1.831,0,0,1,1.647-1.019,2.07,2.07,0,0,1,.615.089ZM77.9,15H75.92V7.6H77.9ZM75.8,5.689a.973.973,0,0,1,.3-.731,1.281,1.281,0,0,1,1.617,0,.967.967,0,0,1,.3.731.97.97,0,0,1-.3.738,1.267,1.267,0,0,1-1.606,0A.97.97,0,0,1,75.8,5.689Zm3.418,5.544a4.387,4.387,0,0,1,.424-1.962,3.1,3.1,0,0,1,1.22-1.333,3.56,3.56,0,0,1,1.849-.472,3.368,3.368,0,0,1,2.444.916,3.676,3.676,0,0,1,1.056,2.488l.014.506a3.866,3.866,0,0,1-.95,2.731,3.683,3.683,0,0,1-5.1,0,3.934,3.934,0,0,1-.954-2.789Zm1.976.144a2.757,2.757,0,0,0,.4,1.61,1.426,1.426,0,0,0,2.256.007,3.017,3.017,0,0,0,.4-1.76,2.73,2.73,0,0,0-.4-1.6,1.312,1.312,0,0,0-1.135-.567,1.29,1.29,0,0,0-1.121.564A3.068,3.068,0,0,0,81.2,11.377ZM91.6,9.456a5.367,5.367,0,0,0-.711-.055,1.447,1.447,0,0,0-1.47.759V15H87.445V7.6h1.866l.055.882a1.831,1.831,0,0,1,1.647-1.019,2.07,2.07,0,0,1,.615.089Z" transform="translate(1065.568 3734.641)" fill="#12263f"/>
      <g id="Group_1099576" data-name="Group 1099576" transform="matrix(0, 1, -1, 0, 1090.062, 3763.123)">
        <path id="Path_873415" data-name="Path 873415" d="M0,0H34.24" transform="translate(0 8.838)" fill="none" stroke="#45ceb3" stroke-width="2"/>
        <path id="Path_873417" data-name="Path 873417" d="M0,0,7.242,8.93,0,16.295" transform="translate(26.999)" fill="none" stroke="#45ceb3" stroke-width="2"/>
      </g>
      <g id="Group_1099577" data-name="Group 1099577" transform="matrix(0.719, 0.695, -0.695, 0.719, 956.057, 3743.865)">
        <path id="Path_873415-2" data-name="Path 873415" d="M0,0H129.232" transform="translate(0 8.838)" fill="none" stroke="#45ceb3" stroke-width="2"/>
        <path id="Path_873417-2" data-name="Path 873417" d="M0,0,7.242,8.93,0,16.295" transform="translate(121.99)" fill="none" stroke="#45ceb3" stroke-width="2"/>
      </g>
      <path id="Path_921831" data-name="Path 921831" d="M6.05-2.611A1.052,1.052,0,0,0,5.64-3.5,5.38,5.38,0,0,0,4.163-4.16a10.467,10.467,0,0,1-1.688-.68,2.759,2.759,0,0,1-1.7-2.468,2.4,2.4,0,0,1,.455-1.439A2.965,2.965,0,0,1,2.54-9.734,4.914,4.914,0,0,1,4.45-10.09a4.473,4.473,0,0,1,1.9.386,3.026,3.026,0,0,1,1.3,1.09,2.853,2.853,0,0,1,.461,1.6H6.057a1.342,1.342,0,0,0-.431-1.063,1.77,1.77,0,0,0-1.21-.379,1.891,1.891,0,0,0-1.169.318A1,1,0,0,0,2.83-7.3a.96.96,0,0,0,.489.813,5.522,5.522,0,0,0,1.439.615,6.217,6.217,0,0,1,2.55,1.306,2.6,2.6,0,0,1,.8,1.941A2.4,2.4,0,0,1,7.13-.6,4.279,4.279,0,0,1,4.5.137a5.082,5.082,0,0,1-2.092-.42A3.31,3.31,0,0,1,.967-1.436a2.95,2.95,0,0,1-.5-1.7H2.529q0,1.647,1.969,1.647a1.915,1.915,0,0,0,1.142-.3A.967.967,0,0,0,6.05-2.611ZM12.77.137a3.631,3.631,0,0,1-2.649-1A3.548,3.548,0,0,1,9.1-3.521v-.191A4.468,4.468,0,0,1,9.529-5.7a3.161,3.161,0,0,1,1.22-1.354,3.425,3.425,0,0,1,1.8-.475,3.07,3.07,0,0,1,2.389.957,3.889,3.889,0,0,1,.872,2.714v.807H11.1a1.835,1.835,0,0,0,.578,1.162,1.746,1.746,0,0,0,1.22.438,2.132,2.132,0,0,0,1.784-.827L15.654-1.2a2.966,2.966,0,0,1-1.2.981A3.947,3.947,0,0,1,12.77.137Zm-.226-6.07a1.237,1.237,0,0,0-.954.4A2.048,2.048,0,0,0,11.122-4.4H13.87V-4.56a1.46,1.46,0,0,0-.355-1.015A1.277,1.277,0,0,0,12.544-5.934Zm4.1,2.181a4.335,4.335,0,0,1,.81-2.741A2.625,2.625,0,0,1,19.64-7.533a2.3,2.3,0,0,1,1.894.834l.082-.7h1.791v7.15a3.161,3.161,0,0,1-.441,1.688,2.832,2.832,0,0,1-1.241,1.094,4.362,4.362,0,0,1-1.873.376,4.056,4.056,0,0,1-1.586-.325A2.815,2.815,0,0,1,17.1,1.75l.875-1.2a2.314,2.314,0,0,0,1.791.827,1.694,1.694,0,0,0,1.224-.42,1.577,1.577,0,0,0,.438-1.193v-.4a2.285,2.285,0,0,1-1.8.772A2.618,2.618,0,0,1,17.469-.906a4.334,4.334,0,0,1-.824-2.765Zm1.976.144a2.692,2.692,0,0,0,.4,1.576,1.284,1.284,0,0,0,1.107.571,1.372,1.372,0,0,0,1.292-.677V-5.25a1.369,1.369,0,0,0-1.278-.677,1.292,1.292,0,0,0-1.118.581A3.034,3.034,0,0,0,18.621-3.609ZM29.354-.752A2.477,2.477,0,0,1,27.33.137a2.337,2.337,0,0,1-1.815-.684,2.918,2.918,0,0,1-.639-2V-7.4h1.976v4.778q0,1.155,1.053,1.155a1.427,1.427,0,0,0,1.381-.7V-7.4h1.982V0H29.408ZM34.576-7.4l.062.854a2.582,2.582,0,0,1,2.126-.991,2.146,2.146,0,0,1,1.75.69A3.221,3.221,0,0,1,39.1-4.778V0H37.126V-4.73a1.282,1.282,0,0,0-.273-.913,1.224,1.224,0,0,0-.909-.284,1.359,1.359,0,0,0-1.251.711V0H32.717V-7.4Zm5.715,3.644a4.457,4.457,0,0,1,.776-2.755,2.517,2.517,0,0,1,2.123-1.025,2.265,2.265,0,0,1,1.784.807V-10.5h1.982V0H45.172l-.1-.786a2.325,2.325,0,0,1-1.9.923,2.511,2.511,0,0,1-2.1-1.029A4.6,4.6,0,0,1,40.291-3.753Zm1.976.144a2.912,2.912,0,0,0,.362,1.593,1.181,1.181,0,0,0,1.053.554,1.322,1.322,0,0,0,1.292-.772V-5.154A1.3,1.3,0,0,0,43.7-5.927Q42.267-5.927,42.267-3.609Zm5.913-.157A4.387,4.387,0,0,1,48.6-5.729a3.1,3.1,0,0,1,1.22-1.333,3.56,3.56,0,0,1,1.849-.472,3.368,3.368,0,0,1,2.444.916,3.676,3.676,0,0,1,1.056,2.488l.014.506a3.866,3.866,0,0,1-.95,2.731A3.3,3.3,0,0,1,51.687.137,3.319,3.319,0,0,1,49.133-.889a3.934,3.934,0,0,1-.954-2.789Zm1.976.144a2.757,2.757,0,0,0,.4,1.61,1.309,1.309,0,0,0,1.135.557,1.312,1.312,0,0,0,1.121-.55,3.017,3.017,0,0,0,.4-1.76,2.73,2.73,0,0,0-.4-1.6,1.312,1.312,0,0,0-1.135-.567,1.29,1.29,0,0,0-1.121.564A3.068,3.068,0,0,0,50.155-3.623ZM64.176,0a2.194,2.194,0,0,1-.2-.663,2.39,2.39,0,0,1-1.866.8,2.626,2.626,0,0,1-1.8-.629A2.023,2.023,0,0,1,59.6-2.078a2.09,2.09,0,0,1,.872-1.8,4.3,4.3,0,0,1,2.519-.636H63.9v-.424a1.219,1.219,0,0,0-.263-.82A1.035,1.035,0,0,0,62.8-6.07a1.177,1.177,0,0,0-.783.239.813.813,0,0,0-.284.656H59.76a1.984,1.984,0,0,1,.4-1.189,2.621,2.621,0,0,1,1.121-.858A4.086,4.086,0,0,1,62.9-7.533a3.228,3.228,0,0,1,2.17.687,2.4,2.4,0,0,1,.8,1.931v3.206a3.536,3.536,0,0,0,.294,1.593V0ZM62.542-1.374a1.7,1.7,0,0,0,.807-.195,1.28,1.28,0,0,0,.547-.523V-3.363h-.738q-1.483,0-1.579,1.025l-.007.116a.791.791,0,0,0,.26.608A1.009,1.009,0,0,0,62.542-1.374ZM69.214-7.4l.062.854A2.582,2.582,0,0,1,71.4-7.533a2.146,2.146,0,0,1,1.75.69,3.221,3.221,0,0,1,.588,2.064V0H71.764V-4.73a1.282,1.282,0,0,0-.273-.913,1.224,1.224,0,0,0-.909-.284,1.359,1.359,0,0,0-1.251.711V0H67.354V-7.4ZM77.321,0H75.339V-7.4h1.982Zm-2.1-9.311a.973.973,0,0,1,.3-.731,1.117,1.117,0,0,1,.81-.287,1.12,1.12,0,0,1,.807.287.967.967,0,0,1,.3.731.97.97,0,0,1-.3.738,1.122,1.122,0,0,1-.8.287,1.122,1.122,0,0,1-.8-.287A.97.97,0,0,1,75.223-9.311ZM81.033,0H79.051V-10.5h1.982Zm3.712,0H82.763V-10.5h1.982Zm1.319-3.767a4.387,4.387,0,0,1,.424-1.962,3.1,3.1,0,0,1,1.22-1.333,3.56,3.56,0,0,1,1.849-.472A3.368,3.368,0,0,1,92-6.617a3.676,3.676,0,0,1,1.056,2.488l.014.506a3.866,3.866,0,0,1-.95,2.731A3.3,3.3,0,0,1,89.571.137,3.319,3.319,0,0,1,87.018-.889a3.934,3.934,0,0,1-.954-2.789Zm1.976.144a2.757,2.757,0,0,0,.4,1.61,1.309,1.309,0,0,0,1.135.557,1.312,1.312,0,0,0,1.121-.55,3.017,3.017,0,0,0,.4-1.76,2.73,2.73,0,0,0-.4-1.6,1.312,1.312,0,0,0-1.135-.567,1.29,1.29,0,0,0-1.121.564A3.068,3.068,0,0,0,88.04-3.623Z" transform="translate(895.851 3746.409)" fill="#12263f"/>
      <path id="Path_921833" data-name="Path 921833" d="M6.508,12.949h-3.6L2.229,15H.048L3.753,5.047h1.9L9.379,15H7.2ZM3.466,11.288H5.954L4.7,7.563Zm8.2-3.685.062.854a2.582,2.582,0,0,1,2.126-.991,2.146,2.146,0,0,1,1.75.69,3.221,3.221,0,0,1,.588,2.064V15H14.219V10.27a1.282,1.282,0,0,0-.273-.913,1.224,1.224,0,0,0-.909-.284,1.359,1.359,0,0,0-1.251.711V15H9.81V7.6ZM19.776,15H17.794V7.6h1.982Zm-2.1-9.311a.973.973,0,0,1,.3-.731,1.281,1.281,0,0,1,1.617,0,.967.967,0,0,1,.3.731.97.97,0,0,1-.3.738,1.267,1.267,0,0,1-1.606,0A.97.97,0,0,1,17.678,5.689ZM23.488,15H21.506V4.5h1.982ZM27.2,15H25.218V4.5H27.2Zm1.319-3.767a4.387,4.387,0,0,1,.424-1.962,3.1,3.1,0,0,1,1.22-1.333,3.56,3.56,0,0,1,1.849-.472,3.368,3.368,0,0,1,2.444.916,3.676,3.676,0,0,1,1.056,2.488l.014.506a3.866,3.866,0,0,1-.95,2.731,3.683,3.683,0,0,1-5.1,0,3.934,3.934,0,0,1-.954-2.789Zm1.976.144a2.757,2.757,0,0,0,.4,1.61,1.426,1.426,0,0,0,2.256.007,3.017,3.017,0,0,0,.4-1.76,2.73,2.73,0,0,0-.4-1.6,1.312,1.312,0,0,0-1.135-.567,1.29,1.29,0,0,0-1.121.564A3.068,3.068,0,0,0,30.5,11.377Zm10.254,1.579a.637.637,0,0,0-.359-.571,4.077,4.077,0,0,0-1.152-.373Q36.6,11.459,36.6,9.771a2.032,2.032,0,0,1,.817-1.644,3.3,3.3,0,0,1,2.136-.66,3.547,3.547,0,0,1,2.252.663,2.09,2.09,0,0,1,.844,1.723H40.674a.956.956,0,0,0-.273-.7,1.157,1.157,0,0,0-.854-.277,1.182,1.182,0,0,0-.772.226.712.712,0,0,0-.273.574.609.609,0,0,0,.311.53,3.2,3.2,0,0,0,1.049.349,8.571,8.571,0,0,1,1.244.332,2.044,2.044,0,0,1,1.565,1.989,1.929,1.929,0,0,1-.868,1.637,3.745,3.745,0,0,1-2.242.625,3.912,3.912,0,0,1-1.651-.332,2.77,2.77,0,0,1-1.131-.909,2.113,2.113,0,0,1-.41-1.248H38.24a1.031,1.031,0,0,0,.39.807,1.546,1.546,0,0,0,.971.28,1.43,1.43,0,0,0,.858-.215A.67.67,0,0,0,40.749,12.956ZM.451,23.247a4.457,4.457,0,0,1,.776-2.755A2.517,2.517,0,0,1,3.35,19.467a2.265,2.265,0,0,1,1.784.807V16.5H7.116V27H5.332l-.1-.786a2.325,2.325,0,0,1-1.9.923,2.511,2.511,0,0,1-2.1-1.029A4.6,4.6,0,0,1,.451,23.247Zm1.976.144a2.912,2.912,0,0,0,.362,1.593,1.181,1.181,0,0,0,1.053.554,1.322,1.322,0,0,0,1.292-.772V21.846a1.3,1.3,0,0,0-1.278-.772Q2.427,21.073,2.427,23.391Zm9.625,3.746a3.631,3.631,0,0,1-2.649-1,3.548,3.548,0,0,1-1.022-2.659v-.191A4.468,4.468,0,0,1,8.812,21.3a3.161,3.161,0,0,1,1.22-1.354,3.425,3.425,0,0,1,1.8-.475,3.07,3.07,0,0,1,2.389.957,3.889,3.889,0,0,1,.872,2.714v.807h-4.71a1.835,1.835,0,0,0,.578,1.162,1.746,1.746,0,0,0,1.22.438,2.132,2.132,0,0,0,1.784-.827l.971,1.087a2.966,2.966,0,0,1-1.2.981A3.947,3.947,0,0,1,12.052,27.137Zm-.226-6.07a1.237,1.237,0,0,0-.954.4A2.048,2.048,0,0,0,10.4,22.6h2.748V22.44a1.46,1.46,0,0,0-.355-1.015A1.277,1.277,0,0,0,11.826,21.066ZM23.987,27a2.194,2.194,0,0,1-.2-.663,2.39,2.39,0,0,1-1.866.8,2.626,2.626,0,0,1-1.8-.629,2.023,2.023,0,0,1-.714-1.586,2.09,2.09,0,0,1,.872-1.8,4.3,4.3,0,0,1,2.519-.636h.909v-.424a1.219,1.219,0,0,0-.263-.82,1.035,1.035,0,0,0-.831-.308,1.177,1.177,0,0,0-.783.239.813.813,0,0,0-.284.656H19.571a1.985,1.985,0,0,1,.4-1.189,2.621,2.621,0,0,1,1.121-.858,4.086,4.086,0,0,1,1.627-.311,3.228,3.228,0,0,1,2.17.687,2.4,2.4,0,0,1,.8,1.931v3.206a3.536,3.536,0,0,0,.294,1.593V27Zm-1.634-1.374a1.7,1.7,0,0,0,.807-.195,1.28,1.28,0,0,0,.547-.523V23.637h-.738q-1.483,0-1.579,1.025l-.007.116a.791.791,0,0,0,.26.608A1.009,1.009,0,0,0,22.354,25.626Zm7.93-.082a1.3,1.3,0,0,0,.889-.3,1.054,1.054,0,0,0,.355-.8H33.38a2.534,2.534,0,0,1-.41,1.377,2.706,2.706,0,0,1-1.1.971,3.455,3.455,0,0,1-1.548.345,3.211,3.211,0,0,1-2.5-1.008,3.99,3.99,0,0,1-.916-2.786v-.13a3.944,3.944,0,0,1,.909-2.728,3.174,3.174,0,0,1,2.5-1.019,3.111,3.111,0,0,1,2.225.79,2.8,2.8,0,0,1,.851,2.1H31.527a1.346,1.346,0,0,0-.355-.933,1.324,1.324,0,0,0-1.945.144,2.908,2.908,0,0,0-.352,1.63V23.4a2.945,2.945,0,0,0,.349,1.641A1.205,1.205,0,0,0,30.283,25.544Zm7.629,1.593a3.631,3.631,0,0,1-2.649-1,3.548,3.548,0,0,1-1.022-2.659v-.191a4.468,4.468,0,0,1,.431-1.993,3.161,3.161,0,0,1,1.22-1.354,3.425,3.425,0,0,1,1.8-.475,3.07,3.07,0,0,1,2.389.957,3.889,3.889,0,0,1,.872,2.714v.807h-4.71a1.835,1.835,0,0,0,.578,1.162,1.746,1.746,0,0,0,1.22.438,2.132,2.132,0,0,0,1.784-.827L40.8,25.8a2.966,2.966,0,0,1-1.2.981A3.947,3.947,0,0,1,37.912,27.137Zm-.226-6.07a1.237,1.237,0,0,0-.954.4,2.048,2.048,0,0,0-.468,1.135h2.748V22.44a1.46,1.46,0,0,0-.355-1.015A1.277,1.277,0,0,0,37.687,21.066ZM44.16,27H42.178V19.6H44.16Zm-2.1-9.311a.973.973,0,0,1,.3-.731,1.281,1.281,0,0,1,1.617,0,1.044,1.044,0,0,1,0,1.47,1.267,1.267,0,0,1-1.606,0A.97.97,0,0,1,42.062,17.689Zm6.091.1V19.6h1.265v1.449H48.152v3.691a.881.881,0,0,0,.157.588.79.79,0,0,0,.6.178,3.151,3.151,0,0,0,.581-.048v1.5a4.067,4.067,0,0,1-1.2.178,1.886,1.886,0,0,1-2.119-2.1V21.053H45.1V19.6h1.08V17.785Zm5.77,9.352a3.631,3.631,0,0,1-2.649-1,3.548,3.548,0,0,1-1.022-2.659v-.191a4.468,4.468,0,0,1,.431-1.993,3.161,3.161,0,0,1,1.22-1.354,3.425,3.425,0,0,1,1.8-.475,3.07,3.07,0,0,1,2.389.957,3.889,3.889,0,0,1,.872,2.714v.807h-4.71a1.835,1.835,0,0,0,.578,1.162,1.746,1.746,0,0,0,1.22.438,2.132,2.132,0,0,0,1.784-.827l.971,1.087a2.966,2.966,0,0,1-1.2.981A3.947,3.947,0,0,1,53.922,27.137Zm-.226-6.07a1.237,1.237,0,0,0-.954.4,2.048,2.048,0,0,0-.468,1.135h2.748V22.44a1.46,1.46,0,0,0-.355-1.015A1.277,1.277,0,0,0,53.7,21.066Z" transform="translate(1125 3938.417)" fill="#12263f"/>
      <path id="Path_873610" data-name="Path 873610" d="M-7652.667-2660.3l59.955,28.9-47.963-52.268" transform="translate(8724.998 6566.196)" fill="none" stroke="#45ceb3" stroke-width="2"/>
      <path id="Path_873611" data-name="Path 873611" d="M-7667.519-2672.333h-41.814v54.113" transform="translate(8729.396 6565.316)" fill="none" stroke="#45ceb3" stroke-width="2"/>
      <path id="Path_921837" data-name="Path 921837" d="M6.05-2.611A1.052,1.052,0,0,0,5.64-3.5,5.38,5.38,0,0,0,4.163-4.16a10.467,10.467,0,0,1-1.688-.68,2.759,2.759,0,0,1-1.7-2.468,2.4,2.4,0,0,1,.455-1.439A2.965,2.965,0,0,1,2.54-9.734,4.914,4.914,0,0,1,4.45-10.09a4.473,4.473,0,0,1,1.9.386,3.026,3.026,0,0,1,1.3,1.09,2.853,2.853,0,0,1,.461,1.6H6.057a1.342,1.342,0,0,0-.431-1.063,1.77,1.77,0,0,0-1.21-.379,1.891,1.891,0,0,0-1.169.318A1,1,0,0,0,2.83-7.3a.96.96,0,0,0,.489.813,5.522,5.522,0,0,0,1.439.615,6.217,6.217,0,0,1,2.55,1.306,2.6,2.6,0,0,1,.8,1.941A2.4,2.4,0,0,1,7.13-.6,4.279,4.279,0,0,1,4.5.137a5.082,5.082,0,0,1-2.092-.42A3.31,3.31,0,0,1,.967-1.436a2.95,2.95,0,0,1-.5-1.7H2.529q0,1.647,1.969,1.647a1.915,1.915,0,0,0,1.142-.3A.967.967,0,0,0,6.05-2.611ZM12.77.137a3.631,3.631,0,0,1-2.649-1A3.548,3.548,0,0,1,9.1-3.521v-.191A4.468,4.468,0,0,1,9.529-5.7a3.161,3.161,0,0,1,1.22-1.354,3.425,3.425,0,0,1,1.8-.475,3.07,3.07,0,0,1,2.389.957,3.889,3.889,0,0,1,.872,2.714v.807H11.1a1.835,1.835,0,0,0,.578,1.162,1.746,1.746,0,0,0,1.22.438,2.132,2.132,0,0,0,1.784-.827L15.654-1.2a2.966,2.966,0,0,1-1.2.981A3.947,3.947,0,0,1,12.77.137Zm-.226-6.07a1.237,1.237,0,0,0-.954.4A2.048,2.048,0,0,0,11.122-4.4H13.87V-4.56a1.46,1.46,0,0,0-.355-1.015A1.277,1.277,0,0,0,12.544-5.934Zm11.047,2.3a4.436,4.436,0,0,1-.776,2.738A2.488,2.488,0,0,1,20.72.137a2.3,2.3,0,0,1-1.812-.779V2.844H16.933V-7.4h1.832l.068.725a2.322,2.322,0,0,1,1.873-.861,2.5,2.5,0,0,1,2.126,1.012,4.556,4.556,0,0,1,.759,2.789Zm-1.976-.144a2.911,2.911,0,0,0-.366-1.593,1.191,1.191,0,0,0-1.063-.561,1.294,1.294,0,0,0-1.278.711v3.028a1.316,1.316,0,0,0,1.292.731Q21.615-1.456,21.615-3.773ZM29.1,0a2.194,2.194,0,0,1-.2-.663,2.39,2.39,0,0,1-1.866.8,2.626,2.626,0,0,1-1.8-.629,2.023,2.023,0,0,1-.714-1.586,2.09,2.09,0,0,1,.872-1.8,4.3,4.3,0,0,1,2.519-.636h.909v-.424a1.219,1.219,0,0,0-.263-.82,1.035,1.035,0,0,0-.831-.308,1.177,1.177,0,0,0-.783.239.813.813,0,0,0-.284.656H24.685a1.984,1.984,0,0,1,.4-1.189A2.621,2.621,0,0,1,26.2-7.222a4.086,4.086,0,0,1,1.627-.311A3.228,3.228,0,0,1,30-6.846a2.4,2.4,0,0,1,.8,1.931v3.206A3.536,3.536,0,0,0,31.1-.116V0ZM27.467-1.374a1.7,1.7,0,0,0,.807-.195,1.28,1.28,0,0,0,.547-.523V-3.363h-.738q-1.483,0-1.579,1.025l-.007.116a.791.791,0,0,0,.26.608A1.009,1.009,0,0,0,27.467-1.374Zm9.01-4.17a5.367,5.367,0,0,0-.711-.055,1.447,1.447,0,0,0-1.47.759V0H32.32V-7.4h1.866l.055.882a1.831,1.831,0,0,1,1.647-1.019,2.07,2.07,0,0,1,.615.089ZM41.508,0a2.194,2.194,0,0,1-.2-.663,2.39,2.39,0,0,1-1.866.8,2.626,2.626,0,0,1-1.8-.629,2.023,2.023,0,0,1-.714-1.586,2.09,2.09,0,0,1,.872-1.8,4.3,4.3,0,0,1,2.519-.636h.909v-.424a1.219,1.219,0,0,0-.263-.82,1.035,1.035,0,0,0-.831-.308,1.177,1.177,0,0,0-.783.239.813.813,0,0,0-.284.656H37.092a1.984,1.984,0,0,1,.4-1.189,2.621,2.621,0,0,1,1.121-.858,4.086,4.086,0,0,1,1.627-.311,3.228,3.228,0,0,1,2.17.687,2.4,2.4,0,0,1,.8,1.931v3.206A3.536,3.536,0,0,0,43.5-.116V0ZM39.874-1.374a1.7,1.7,0,0,0,.807-.195,1.28,1.28,0,0,0,.547-.523V-3.363h-.738q-1.483,0-1.579,1.025l-.007.116a.791.791,0,0,0,.26.608A1.009,1.009,0,0,0,39.874-1.374ZM44.42-3.753A4.457,4.457,0,0,1,45.2-6.508a2.517,2.517,0,0,1,2.123-1.025,2.265,2.265,0,0,1,1.784.807V-10.5h1.982V0H49.3l-.1-.786a2.325,2.325,0,0,1-1.9.923,2.511,2.511,0,0,1-2.1-1.029A4.6,4.6,0,0,1,44.42-3.753Zm1.976.144a2.912,2.912,0,0,0,.362,1.593,1.181,1.181,0,0,0,1.053.554A1.322,1.322,0,0,0,49.1-2.235V-5.154a1.3,1.3,0,0,0-1.278-.772Q46.4-5.927,46.4-3.609Zm5.913-.157a4.387,4.387,0,0,1,.424-1.962,3.1,3.1,0,0,1,1.22-1.333A3.56,3.56,0,0,1,55.8-7.533a3.368,3.368,0,0,1,2.444.916A3.676,3.676,0,0,1,59.3-4.129l.014.506a3.866,3.866,0,0,1-.95,2.731A3.3,3.3,0,0,1,55.815.137,3.319,3.319,0,0,1,53.262-.889a3.934,3.934,0,0,1-.954-2.789Zm1.976.144a2.757,2.757,0,0,0,.4,1.61,1.309,1.309,0,0,0,1.135.557,1.312,1.312,0,0,0,1.121-.55,3.017,3.017,0,0,0,.4-1.76,2.73,2.73,0,0,0-.4-1.6A1.312,1.312,0,0,0,55.8-5.934a1.29,1.29,0,0,0-1.121.564A3.068,3.068,0,0,0,54.284-3.623Zm10.4-1.921a5.367,5.367,0,0,0-.711-.055,1.447,1.447,0,0,0-1.47.759V0H60.532V-7.4H62.4l.055.882A1.831,1.831,0,0,1,64.1-7.533a2.07,2.07,0,0,1,.615.089Z" transform="translate(997.312 3959.477)" fill="#12263f"/>
      <path id="Path_921838" data-name="Path 921838" d="M0,0H400V65a22,22,0,0,1-22,22H25A25,25,0,0,1,0,62Z" transform="translate(810 4021.018)" fill="#45ceb3"/>
      <path id="Path_921834" data-name="Path 921834" d="M14.539,15.98H12.684V21H9.256V6.781h5.6A6.241,6.241,0,0,1,18.807,7.9a3.807,3.807,0,0,1,1.426,3.174,4.625,4.625,0,0,1-.6,2.461,4.264,4.264,0,0,1-1.88,1.582l2.969,5.732V21H17.049Zm-1.855-2.646h2.168a1.949,1.949,0,0,0,1.47-.513,1.979,1.979,0,0,0,.493-1.431,2,2,0,0,0-.5-1.44,1.931,1.931,0,0,0-1.465-.522H12.684Zm18.438,1.641H25.73v3.389H32.1V21H22.3V6.781h9.814V9.428H25.73v3h5.391ZM45,16.186a5.193,5.193,0,0,1-.8,2.622,4.833,4.833,0,0,1-2.056,1.763,7,7,0,0,1-3.022.625,5.584,5.584,0,0,1-4.414-1.826,7.54,7.54,0,0,1-1.611-5.156v-.7a8.607,8.607,0,0,1,.728-3.657,5.513,5.513,0,0,1,2.095-2.422,5.844,5.844,0,0,1,3.164-.854,6.129,6.129,0,0,1,4.16,1.362,5.383,5.383,0,0,1,1.787,3.755H41.609a2.547,2.547,0,0,0-.654-1.865,2.691,2.691,0,0,0-1.875-.566,2.048,2.048,0,0,0-1.875.957,6.151,6.151,0,0,0-.625,3.057v1.006a6.806,6.806,0,0,0,.571,3.252,2.091,2.091,0,0,0,1.968.977,2.632,2.632,0,0,0,1.807-.557,2.363,2.363,0,0,0,.664-1.768Zm12.773-9.4v9.307a5.349,5.349,0,0,1-.674,2.739,4.365,4.365,0,0,1-1.934,1.763,6.812,6.812,0,0,1-2.979.605,5.885,5.885,0,0,1-4.092-1.348,4.806,4.806,0,0,1-1.523-3.691V6.781h3.447v9.443q.059,2.334,2.168,2.334a2.1,2.1,0,0,0,1.611-.586,2.739,2.739,0,0,0,.547-1.9V6.781ZM59.91,21V6.781h5.107a7.232,7.232,0,0,1,4.175,1.006,3.347,3.347,0,0,1,1.431,2.92,3.383,3.383,0,0,1-.508,1.885,2.959,2.959,0,0,1-1.494,1.152,3,3,0,0,1,1.709,1.094,3.18,3.18,0,0,1,.6,1.953,3.765,3.765,0,0,1-1.323,3.14A6.3,6.3,0,0,1,65.682,21Zm3.428-6.045v3.408h2.246a2.136,2.136,0,0,0,1.426-.425,1.487,1.487,0,0,0,.5-1.2,1.576,1.576,0,0,0-1.768-1.787Zm0-2.246h1.787a2.545,2.545,0,0,0,1.6-.41,1.453,1.453,0,0,0,.479-1.182,1.526,1.526,0,0,0-.518-1.294,2.777,2.777,0,0,0-1.67-.4h-1.68ZM78.094,15.98H76.238V21H72.811V6.781h5.6A6.241,6.241,0,0,1,82.361,7.9a3.807,3.807,0,0,1,1.426,3.174,4.625,4.625,0,0,1-.6,2.461,4.264,4.264,0,0,1-1.88,1.582l2.969,5.732V21H80.6Zm-1.855-2.646h2.168a1.949,1.949,0,0,0,1.47-.513,1.979,1.979,0,0,0,.493-1.431,2,2,0,0,0-.5-1.44,1.931,1.931,0,0,0-1.465-.522H76.238ZM89.51,21H86.092V6.781H89.51ZM96.395,6.781l3.174,9.893,3.164-9.893h4.512V21h-3.437V17.68l.332-6.8L100.7,21H98.436L94.988,10.873l.332,6.807V21H91.893V6.781ZM113.074,21h-3.418V6.781h3.418Zm11.2-6.025h-5.391v3.389h6.367V21h-9.795V6.781h9.814V9.428h-6.387v3h5.391ZM138.523,21h-3.408l-5.039-8.848V21h-3.428V6.781h3.428l5.029,8.848V6.781h3.418Zm13.33-11.572h-4.268V21h-3.428V9.428h-4.189V6.781h11.885Zm13.213,4.756a8.385,8.385,0,0,1-.771,3.682,5.7,5.7,0,0,1-2.192,2.466,6.1,6.1,0,0,1-3.237.864,6.191,6.191,0,0,1-3.223-.835,5.692,5.692,0,0,1-2.192-2.388,8.144,8.144,0,0,1-.825-3.564v-.8a8.422,8.422,0,0,1,.767-3.687,5.688,5.688,0,0,1,2.2-2.466,6.5,6.5,0,0,1,6.479-.01,5.79,5.79,0,0,1,2.2,2.446,8.18,8.18,0,0,1,.8,3.638Zm-3.486-.6a5.979,5.979,0,0,0-.708-3.218,2.271,2.271,0,0,0-2.026-1.1q-2.578,0-2.725,3.867l-.01,1.045A6.15,6.15,0,0,0,156.8,17.4a2.268,2.268,0,0,0,2.061,1.123,2.24,2.24,0,0,0,2-1.1,5.982,5.982,0,0,0,.713-3.174Zm12.588,3.633a1.408,1.408,0,0,0-.532-1.172,6.615,6.615,0,0,0-1.87-.869,17.942,17.942,0,0,1-2.187-.869q-2.764-1.357-2.764-3.73A3.345,3.345,0,0,1,167.5,8.5a4.453,4.453,0,0,1,1.948-1.406,7.582,7.582,0,0,1,2.832-.5,6.632,6.632,0,0,1,2.749.547,4.352,4.352,0,0,1,1.89,1.558A4.068,4.068,0,0,1,177.6,11h-3.418a1.719,1.719,0,0,0-.532-1.348,2.075,2.075,0,0,0-1.44-.479,2.339,2.339,0,0,0-1.45.405,1.193,1.193,0,0,0,.054,2.021,7.389,7.389,0,0,0,2.061.918,12.623,12.623,0,0,1,2.422,1.021,4.07,4.07,0,0,1,2.3,3.662,3.472,3.472,0,0,1-1.406,2.93,6.255,6.255,0,0,1-3.857,1.064,7.653,7.653,0,0,1-3.13-.62,4.719,4.719,0,0,1-2.109-1.7,4.428,4.428,0,0,1-.708-2.485h3.438a2.181,2.181,0,0,0,.591,1.685,2.793,2.793,0,0,0,1.919.542,2.206,2.206,0,0,0,1.343-.366A1.209,1.209,0,0,0,174.168,17.221Zm15.371-4.268,2.617-6.172h3.7l-4.58,9.111V21H187.8V15.893l-4.57-9.111h3.682ZM10.447,48V33.781h4.58a6.737,6.737,0,0,1,3.389.854,6.006,6.006,0,0,1,2.349,2.412,7.283,7.283,0,0,1,.854,3.491v.654a7.325,7.325,0,0,1-.825,3.5,6.032,6.032,0,0,1-2.324,2.422A6.589,6.589,0,0,1,15.125,48Zm3.428-11.572v8.936h1.191a2.666,2.666,0,0,0,2.266-1.05,5.145,5.145,0,0,0,.791-3.12v-.615a5.1,5.1,0,0,0-.791-3.105,2.713,2.713,0,0,0-2.3-1.045ZM27.029,48H23.611V33.781h3.418Zm9.717-3.779a1.408,1.408,0,0,0-.532-1.172,6.615,6.615,0,0,0-1.87-.869,17.942,17.942,0,0,1-2.187-.869q-2.764-1.357-2.764-3.73a3.345,3.345,0,0,1,.688-2.085,4.453,4.453,0,0,1,1.948-1.406,7.582,7.582,0,0,1,2.832-.5,6.632,6.632,0,0,1,2.749.547A4.352,4.352,0,0,1,39.5,35.69,4.068,4.068,0,0,1,40.174,38H36.756a1.719,1.719,0,0,0-.532-1.348,2.075,2.075,0,0,0-1.44-.479,2.339,2.339,0,0,0-1.45.405,1.193,1.193,0,0,0,.054,2.021,7.389,7.389,0,0,0,2.061.918,12.623,12.623,0,0,1,2.422,1.021,4.07,4.07,0,0,1,2.3,3.662,3.472,3.472,0,0,1-1.406,2.93A6.255,6.255,0,0,1,34.91,48.2a7.653,7.653,0,0,1-3.13-.62,4.719,4.719,0,0,1-2.109-1.7,4.428,4.428,0,0,1-.708-2.485H32.4a2.181,2.181,0,0,0,.591,1.685,2.793,2.793,0,0,0,1.919.542,2.206,2.206,0,0,0,1.343-.366A1.209,1.209,0,0,0,36.746,44.221Zm14-2.246H45.359v3.389h6.367V48H41.932V33.781h9.814v2.646H45.359v3H50.75ZM65,48H61.59l-5.039-8.848V48H53.123V33.781h3.428l5.029,8.848V33.781H65Zm-2.09-17.939a2.847,2.847,0,0,1-.649,1.89,2.015,2.015,0,0,1-1.606.776,3.169,3.169,0,0,1-1.436-.41,2.994,2.994,0,0,0-1.279-.41.733.733,0,0,0-.532.215.892.892,0,0,0-.22.664l-1.826-.1a2.863,2.863,0,0,1,.649-1.875,1.992,1.992,0,0,1,1.6-.791,3.327,3.327,0,0,1,1.279.356,7.907,7.907,0,0,0,1,.405,1.957,1.957,0,0,0,.444.049.75.75,0,0,0,.537-.215.881.881,0,0,0,.225-.664Zm16.3,11.123a8.385,8.385,0,0,1-.771,3.682,5.7,5.7,0,0,1-2.192,2.466,6.1,6.1,0,0,1-3.237.864,6.191,6.191,0,0,1-3.223-.835,5.692,5.692,0,0,1-2.192-2.388,8.144,8.144,0,0,1-.825-3.564v-.8a8.422,8.422,0,0,1,.767-3.687,5.688,5.688,0,0,1,2.2-2.466,6.5,6.5,0,0,1,6.479-.01,5.79,5.79,0,0,1,2.2,2.446,8.18,8.18,0,0,1,.8,3.638Zm-3.486-.6a5.979,5.979,0,0,0-.708-3.218,2.271,2.271,0,0,0-2.026-1.1q-2.578,0-2.725,3.867l-.01,1.045a6.149,6.149,0,0,0,.693,3.213,2.268,2.268,0,0,0,2.061,1.123,2.24,2.24,0,0,0,2-1.1,5.982,5.982,0,0,0,.713-3.174ZM94.91,42.336H89.383V48H85.955V33.781h9.512v2.646H89.383V39.7H94.91Zm13.135-8.555v9.307a5.349,5.349,0,0,1-.674,2.739,4.365,4.365,0,0,1-1.934,1.763,6.812,6.812,0,0,1-2.979.605,5.885,5.885,0,0,1-4.092-1.348,4.806,4.806,0,0,1-1.523-3.691V33.781h3.447v9.443q.059,2.334,2.168,2.334a2.1,2.1,0,0,0,1.611-.586,2.739,2.739,0,0,0,.547-1.9V33.781ZM122.059,48H118.65l-5.039-8.848V48h-3.428V33.781h3.428l5.029,8.848V33.781h3.418Zm13.672-4.814a5.193,5.193,0,0,1-.8,2.622,4.833,4.833,0,0,1-2.056,1.763,7,7,0,0,1-3.022.625,5.584,5.584,0,0,1-4.414-1.826,7.54,7.54,0,0,1-1.611-5.156v-.7a8.607,8.607,0,0,1,.728-3.657,5.513,5.513,0,0,1,2.095-2.422,5.844,5.844,0,0,1,3.164-.854,6.129,6.129,0,0,1,4.16,1.362,5.383,5.383,0,0,1,1.787,3.755h-3.418a2.547,2.547,0,0,0-.654-1.865,2.691,2.691,0,0,0-1.875-.566,2.048,2.048,0,0,0-1.875.957,6.151,6.151,0,0,0-.625,3.057v1.006a6.806,6.806,0,0,0,.571,3.252,2.091,2.091,0,0,0,1.968.977,2.632,2.632,0,0,0,1.807-.557,2.363,2.363,0,0,0,.664-1.768ZM141,48h-3.418V33.781H141Zm14.424-6.816a8.385,8.385,0,0,1-.771,3.682,5.7,5.7,0,0,1-2.192,2.466,6.1,6.1,0,0,1-3.237.864A6.191,6.191,0,0,1,146,47.36a5.692,5.692,0,0,1-2.192-2.388,8.144,8.144,0,0,1-.825-3.564v-.8a8.422,8.422,0,0,1,.767-3.687,5.688,5.688,0,0,1,2.2-2.466,6.5,6.5,0,0,1,6.479-.01,5.79,5.79,0,0,1,2.2,2.446,8.18,8.18,0,0,1,.8,3.638Zm-3.486-.6a5.979,5.979,0,0,0-.708-3.218,2.271,2.271,0,0,0-2.026-1.1q-2.578,0-2.725,3.867l-.01,1.045a6.15,6.15,0,0,0,.693,3.213,2.268,2.268,0,0,0,2.061,1.123,2.24,2.24,0,0,0,2-1.1,5.982,5.982,0,0,0,.713-3.174ZM169.07,48h-3.408l-5.039-8.848V48H157.2V33.781h3.428l5.029,8.848V33.781h3.418Zm10.244-2.656h-4.7L173.8,48h-3.662l5.215-14.219h3.223L183.826,48h-3.682ZM175.438,42.7h3.057l-1.533-4.932Zm12.852,2.666h5.967V48h-9.395V33.781h3.428Z" transform="translate(898.051 4039.018)"/>
    </g>
  </g>
</svg>
