<svg xmlns="http://www.w3.org/2000/svg" xmlns:xlink="http://www.w3.org/1999/xlink" width="112.221" height="112.221" viewBox="0 0 112.221 112.221">
  <defs>
    <filter id="Path_921826" x="0" y="0" width="112.221" height="112.221" filterUnits="userSpaceOnUse">
      <feOffset input="SourceAlpha"/>
      <feGaussianBlur stdDeviation="3" result="blur"/>
      <feFlood flood-color="#fff" flood-opacity="0.659"/>
      <feComposite operator="in" in2="blur"/>
      <feComposite in="SourceGraphic"/>
    </filter>
  </defs>
  <g id="Group_1121565" data-name="Group 1121565" transform="translate(-1131.813 -6087.337)">
    <g transform="matrix(1, 0, 0, 1, 1131.81, 6087.34)" filter="url(#Path_921826)">
      <path id="Path_921826-2" data-name="Path 921826" d="M47.11,0A47.11,47.11,0,1,1,0,47.11,47.11,47.11,0,0,1,47.11,0Z" transform="translate(9 9)" fill="#5c6d74"/>
    </g>
    <g id="Group_1120341" data-name="Group 1120341" transform="translate(11.923 515.48)">
      <rect id="Rectangle_409911" data-name="Rectangle 409911" width="70" height="70" transform="translate(1141 5596.077)" fill="none"/>
      <g id="_crankshaft" data-name=" crankshaft" transform="translate(1147.655 5602.732)">
        <path id="Path_917016" data-name="Path 917016" d="M23.679,43.592l-.558.546a2.277,2.277,0,0,1-3.211,0C16.791,41.031,12.851,37.1,7.773,32a4.554,4.554,0,0,1-1.013-4.93A5.693,5.693,0,0,1,8.32,25L23.679,40.37a2.277,2.277,0,0,1,0,3.222Z" transform="translate(0.897 3.47)" fill="#d1d1d1"/>
        <path id="Path_917017" data-name="Path 917017" d="M23.536,40.268l-.455.455a2.277,2.277,0,0,1-3.211,0C6.731,27.63,7.175,28.2,6.72,27.061A5.693,5.693,0,0,1,8.28,25Z" transform="translate(0.938 3.47)" fill="#e8e8e8"/>
        <path id="Path_917018" data-name="Path 917018" d="M38.649,28.609l-.558.558a4.554,4.554,0,0,1-6.433,0L19.521,17.03a2.277,2.277,0,0,1,0-3.222l.546-.546a2.277,2.277,0,0,1,3.222,0C40.914,30.886,36.337,26.3,38.649,28.609Z" transform="translate(2.618 1.751)" fill="#d1d1d1"/>
        <path id="Path_917019" data-name="Path 917019" d="M37.721,27.855a4.554,4.554,0,0,1-5.066-.934C19.6,13.828,19.937,14.488,19.88,13.3a2.277,2.277,0,0,1,3.268,0C37.493,27.6,36.218,26.34,37.721,27.855Z" transform="translate(2.761 1.754)" fill="#e8e8e8"/>
        <path id="Path_917020" data-name="Path 917020" d="M43.344,21.614A4.8,4.8,0,0,1,41.5,25.759L26.141,10.411a2.277,2.277,0,0,1-.353-2.755,4.941,4.941,0,0,1,.9-1.025,2.277,2.277,0,0,1,3.222,0C43,19.724,43.253,19.451,43.344,21.614Z" transform="translate(3.536 0.833)" fill="#d1d1d1"/>
        <path id="Path_917021" data-name="Path 917021" d="M30.527,36.731l-.546.558a2.277,2.277,0,0,1-3.222,0L11.4,21.93a6.114,6.114,0,0,1,1.435-1.241,4.554,4.554,0,0,1,5.556.683c13.048,12.991,12.228,12.205,12.364,12.41a2.277,2.277,0,0,1-.228,2.949Z" transform="translate(1.586 2.783)" fill="#d1d1d1"/>
        <path id="Path_917022" data-name="Path 917022" d="M30.581,33.782c-1.378,1.833-2.983,1.844-4,.831L12.66,20.689a4.554,4.554,0,0,1,5.556.683c13.048,12.991,12.228,12.205,12.364,12.41Z" transform="translate(1.76 2.783)" fill="#e8e8e8"/>
        <path id="Path_917023" data-name="Path 917023" d="M0,0H5.328V8H0Z" transform="translate(11.099 30.366) rotate(-45)" fill="#e8e8e8"/>
        <path id="Path_917024" data-name="Path 917024" d="M17.874,29.687l-2.63,2.63L10.69,27.763a3.712,3.712,0,0,1,5.26,0Z" transform="translate(1.488 3.701)" fill="#d1d1d1"/>
        <path id="Path_917025" data-name="Path 917025" d="M0,0H5.328V8H0Z" transform="translate(33.719 22.83) rotate(-45)" fill="#d1d1d1"/>
        <path id="Path_917026" data-name="Path 917026" d="M37.764,23.069l-2.63,2.619L30.58,21.133a3.723,3.723,0,0,1,5.271,0Z" transform="translate(4.243 2.783)" fill="#e8e8e8"/>
        <path id="Path_917027" data-name="Path 917027" d="M0,0H5.328V8H0Z" transform="translate(22.413 26.6) rotate(-45)" fill="#e8e8e8"/>
        <path id="Path_917028" data-name="Path 917028" d="M27.874,26.367,25.244,29,20.69,24.443a3.712,3.712,0,0,1,5.26,0Z" transform="translate(2.873 3.241)" fill="#d1d1d1"/>
        <path id="Path_917029" data-name="Path 917029" d="M0,0H5.328V8H0Z" transform="translate(7.327 41.68) rotate(-45)" fill="#dad7e5"/>
        <path id="Path_917030" data-name="Path 917030" d="M0,0H5.328V8H0Z" transform="translate(7.327 41.68) rotate(-45)" fill="#e8e8e8"/>
        <path id="Path_917031" data-name="Path 917031" d="M14.584,39.627l-2.63,2.63L7.4,37.7a3.712,3.712,0,0,1,5.26,0Z" transform="translate(1.032 5.078)" fill="#d1d1d1"/>
        <path id="Path_917032" data-name="Path 917032" d="M0,0H7.389V5.351H0Z" transform="translate(38.425 12.459) rotate(-45)" fill="#d1d1d1"/>
        <path id="Path_917033" data-name="Path 917033" d="M37.837,12.643l-1.446,1.446L33.75,11.447,37.837,7.36a3.734,3.734,0,0,1,0,5.283Z" transform="translate(4.682 1.026)" fill="#e8e8e8"/>
        <path id="Path_917034" data-name="Path 917034" d="M48.524,10.108l-3.416,3.416L36,4.416,39.416,1Z" transform="translate(4.994 0.145)" fill="#d1d1d1"/>
        <path id="Path_917035" data-name="Path 917035" d="M47.247,8.97a3.222,3.222,0,0,1-4.554,0L37,3.277,39.277,1Z" transform="translate(5.132 0.145)" fill="#e8e8e8"/>
        <path id="Path_917036" data-name="Path 917036" d="M0,0H10.326V4.827H0Z" transform="translate(1.166 50.117) rotate(-44.96)" fill="#d1d1d1"/>
        <path id="Path_917037" data-name="Path 917037" d="M7.171,38.729l3.416,3.416,1.139-1.139L8.309,37.59,1,44.888Z" transform="translate(0.145 5.214)" fill="#e8e8e8"/>
        <path id="Path_917038" data-name="Path 917038" d="M43.265,21.62a2.038,2.038,0,0,1-2.846,0C25.459,6.66,25.994,7.309,26.062,7.149l.546-.558a2.277,2.277,0,0,1,3.222,0C42.924,19.73,43.174,19.457,43.265,21.62Z" transform="translate(3.545 0.827)" fill="#e8e8e8"/>
        <path id="Path_917039" data-name="Path 917039" d="M54.32,9.439,45.212.331a1.139,1.139,0,0,0-1.617,0L40.18,3.747a1.139,1.139,0,0,0,0,1.617l1.867,1.856L38.426,10.84,34.248,6.661a3.416,3.416,0,0,0-4.827,0l-.558.546a3.416,3.416,0,0,0,0,4.827l7.013,7.013-2.163,2.163-7-7.013a3.518,3.518,0,0,0-4.839,0l-.546.546a3.416,3.416,0,0,0,0,4.839l3.245,3.188-2.163,2.163-1.628-1.628a5.693,5.693,0,0,0-8.049,0l-.558.546a1.139,1.139,0,0,0,0,1.605L13.31,26.6,11.147,28.76,10.02,27.667a1.139,1.139,0,0,0-1.617,0l-.546.558a5.693,5.693,0,0,0,0,8.049L9.485,37.9l-2.96,2.96a1.139,1.139,0,0,0,0,1.617l.307.307-6.5,6.5a1.139,1.139,0,0,0,0,1.617c3.552,3.541,3.564,3.746,4.224,3.746s.33.148,7.309-6.831c1.366,1.366,1.537.695,4.884-2.653,3.142,3.142,3.814,4.235,5.693,4.235,2.824,0,5.465-3.882,2.96-6.376l-7-7.013,2.095-2.163,7.013,7.013a3.416,3.416,0,0,0,4.827,0l.558-.547a3.416,3.416,0,0,0,0-4.827l-3.245-3.245,2.163-2.163L33.44,31.72a5.693,5.693,0,0,0,8.049,0l.546-.558a1.139,1.139,0,0,0,0-1.605l-1.047-1.093L43.14,26.3c1.013,1.013,1.264,1.412,1.89,1.412s.786-.319,1.355-.877a5.693,5.693,0,0,0,0-8.049l-2.573-2.573,3.621-3.621,1.856,1.867a1.139,1.139,0,0,0,1.617,0l3.416-3.416a1.139,1.139,0,0,0,0-1.605ZM4.555,51.907,2.745,50.1,8.437,44.4l1.81,1.8Zm8.425-6.194L8.938,41.671l2.152-2.163,4.053,4.053Zm10.782.535-.546.546a1.139,1.139,0,0,1-1.617,0L9.462,34.658A3.416,3.416,0,0,1,9.223,30.1L23.762,44.631a1.139,1.139,0,0,1,0,1.617ZM16.749,34.407l-4.042-4.053L14.87,28.2l4.042,4.042Zm14.55,4.3-.547.546a1.139,1.139,0,0,1-1.605,0L14.608,24.718a3.416,3.416,0,0,1,4.554.239L31.3,37.094a1.139,1.139,0,0,1,0,1.617Zm-3.233-8.072-4.053-4.053,2.175-2.152c2.277,2.277,1.321,1.309,4.042,4.042Zm7-.535C20.961,16,33.348,28.384,22.942,17.967a1.139,1.139,0,0,1,0-1.605c.683-.683.854-.888,1.355-.888.683,0-.444-.922,15.347,14.869a3.416,3.416,0,0,1-4.577-.239Zm4.3-3.245L35.3,22.771l2.163-2.163L41.5,24.661Zm5.693-1.89L30.479,10.43a1.139,1.139,0,0,1,0-1.617c.626-.626.808-.843,1.4-.843s-.262-.729,12.945,12.524a3.416,3.416,0,0,1,.194,4.474ZM42.252,14.62l-2.175-2.175L43.7,8.824,45.872,11ZM50.1,12.058l-7.5-7.5,1.81-1.81,7.5,7.5Z" transform="translate(0.006 0.006)" fill="#231f20"/>
      </g>
    </g>
  </g>
</svg>
