<svg xmlns="http://www.w3.org/2000/svg" xmlns:xlink="http://www.w3.org/1999/xlink" width="112.221" height="112.221" viewBox="0 0 112.221 112.221">
  <defs>
    <filter id="Path_921828" x="0" y="0" width="112.221" height="112.221" filterUnits="userSpaceOnUse">
      <feOffset input="SourceAlpha"/>
      <feGaussianBlur stdDeviation="3" result="blur"/>
      <feFlood flood-color="#fff" flood-opacity="0.659"/>
      <feComposite operator="in" in2="blur"/>
      <feComposite in="SourceGraphic"/>
    </filter>
  </defs>
  <g id="Group_1121567" data-name="Group 1121567" transform="translate(-4375.89 5518.553)">
    <g transform="matrix(1, 0, 0, 1, 4375.89, -5518.55)" filter="url(#Path_921828)">
      <path id="Path_921828-2" data-name="Path 921828" d="M47.11,0A47.11,47.11,0,1,1,0,47.11,47.11,47.11,0,0,1,47.11,0Z" transform="translate(9 9)" fill="#5c6d74"/>
    </g>
    <g id="Group_1120372" data-name="Group 1120372" transform="translate(22.89 514.447)">
      <rect id="Rectangle_410790" data-name="Rectangle 410790" width="64" height="64" transform="translate(4378.11 -6007.89)" fill="none"/>
      <g id="Group_1120371" data-name="Group 1120371" transform="translate(4383.373 -6002.627)">
        <g id="Group_1120369" data-name="Group 1120369" transform="translate(0.83 0.83)">
          <g id="Group_1120357" data-name="Group 1120357" transform="translate(13.284 41.512)">
            <path id="Path_917082" data-name="Path 917082" d="M172.53,408v3.321c0,2.751-8.178,4.981-18.265,4.981S136,414.072,136,411.321V408c0,2.751,8.178,4.981,18.265,4.981S172.53,410.751,172.53,408Z" transform="translate(-136 -408)" fill="#aab2bd"/>
          </g>
          <g id="Group_1120358" data-name="Group 1120358" transform="translate(13.284 37.954)">
            <path id="Path_917083" data-name="Path 917083" d="M167.049,373.72c3.383.9,5.482,2.164,5.482,3.558,0,2.751-8.178,4.981-18.265,4.981S136,380.029,136,377.278c0-1.394,2.1-2.654,5.482-3.558l2.217,2.217,1.769-1.18a16.49,16.49,0,0,0,5.06,2.1l.416,2.083h6.642l.416-2.083a16.491,16.491,0,0,0,5.06-2.1l1.769,1.18Z" transform="translate(-136 -373.72)" fill="#ccd1d9"/>
          </g>
          <g id="Group_1120359" data-name="Group 1120359" transform="translate(16.285 6.642)">
            <path id="Path_917084" data-name="Path 917084" d="M198.449,86.944v6.642L196.366,94a16.49,16.49,0,0,1-2.1,5.06l1.18,1.769-2.48,2.48-2.217,2.217-1.769-1.18a16.49,16.49,0,0,1-5.06,2.1l-.416,2.083h-6.642l-.416-2.083a16.49,16.49,0,0,1-5.06-2.1l-1.769,1.18-2.217-2.217-2.48-2.48,1.18-1.769a16.556,16.556,0,0,1-1.145-2.17,5.669,5.669,0,0,0,3.605-1.646h1.119a11.627,11.627,0,0,0,21.008,0h0a11.65,11.65,0,0,0,0-9.963h0a11.627,11.627,0,0,0-21.008,0h-1.119l-3.339-2.226a16.418,16.418,0,0,1,.878-1.59L164.92,79.7l4.7-4.7,1.769,1.18a16.49,16.49,0,0,1,5.06-2.1L176.863,72H183.5l.416,2.083a16.49,16.49,0,0,1,5.06,2.1L190.751,75l4.7,4.7-1.18,1.769a16.489,16.489,0,0,1,2.1,5.06Z" transform="translate(-164.92 -72)" fill="#fcd770"/>
          </g>
          <g id="Group_1120360" data-name="Group 1120360" transform="translate(19.926 19.926)">
            <path id="Path_917085" data-name="Path 917085" d="M222.128,200a11.65,11.65,0,0,1,0,9.963H200V200h22.127Z" transform="translate(-200 -200)" fill="#b4dd7f"/>
          </g>
          <g id="Group_1120361" data-name="Group 1120361" transform="translate(4.981 19.926)">
            <path id="Path_917086" data-name="Path 917086" d="M62.642,211.623v1.66a1.66,1.66,0,0,1-1.66,1.661H57.66A1.66,1.66,0,0,1,56,213.284v-1.66h1.66a1.66,1.66,0,1,0,0-3.321,1.66,1.66,0,0,0,0-3.321,1.66,1.66,0,0,0,0-3.321,1.66,1.66,0,0,0,1.66-1.66h3.321Z" transform="translate(-56 -200)" fill="#ccd1d9"/>
          </g>
          <g id="Group_1120362" data-name="Group 1120362">
            <path id="Path_917087" data-name="Path 917087" d="M24.6,12.981V16.3a4.981,4.981,0,0,1-4.981,4.981H12.981A4.981,4.981,0,0,1,8,16.3V12.981A4.981,4.981,0,0,1,12.981,8v4.981h6.642V8A4.982,4.982,0,0,1,24.6,12.981Z" transform="translate(-8 -8)" fill="#ccd1d9"/>
          </g>
          <g id="Group_1120363" data-name="Group 1120363" transform="translate(4.981 13.284)">
            <path id="Path_917088" data-name="Path 917088" d="M62.642,136v3.321H56.83a.829.829,0,0,0-.83.83V136Z" transform="translate(-56 -136)" fill="#ccd1d9"/>
          </g>
          <g id="Group_1120364" data-name="Group 1120364" transform="translate(4.981 16.605)">
            <path id="Path_917089" data-name="Path 917089" d="M62.642,171.321H58.491A2.49,2.49,0,0,1,56,168.83a.829.829,0,0,1,.83-.83h8.127a3.322,3.322,0,0,1,1.842.557l.806.538,3.339,2.226v9.963a5.669,5.669,0,0,1-3.605,1.646c-.134.009-.269.015-.4.015H62.642Z" transform="translate(-56 -168)" fill="#f0d0b4"/>
          </g>
          <g id="Group_1120365" data-name="Group 1120365" transform="translate(1.66 24.907)">
            <path id="Path_917090" data-name="Path 917090" d="M28.981,248a1.66,1.66,0,1,1,0,3.321H25.66a1.66,1.66,0,1,1,0-3.321Z" transform="translate(-24 -248)" fill="#f0d0b4"/>
          </g>
          <g id="Group_1120366" data-name="Group 1120366" transform="translate(1.66 28.228)">
            <path id="Path_917091" data-name="Path 917091" d="M28.981,280a1.66,1.66,0,1,1,0,3.321H25.66a1.66,1.66,0,1,1,0-3.321Z" transform="translate(-24 -280)" fill="#f0d0b4"/>
          </g>
          <g id="Group_1120367" data-name="Group 1120367" transform="translate(1.66 21.586)">
            <path id="Path_917092" data-name="Path 917092" d="M28.981,216a1.66,1.66,0,1,1,0,3.321H25.66a1.66,1.66,0,1,1,0-3.321Z" transform="translate(-24 -216)" fill="#f0d0b4"/>
          </g>
          <g id="Group_1120368" data-name="Group 1120368" transform="translate(1.66 18.265)">
            <path id="Path_917093" data-name="Path 917093" d="M29.812,185.66h.83a1.66,1.66,0,0,1-1.66,1.66H25.66a1.66,1.66,0,1,1,0-3.321h1.8A2.493,2.493,0,0,0,29.812,185.66Z" transform="translate(-24 -184)" fill="#f0d0b4"/>
          </g>
        </g>
        <g id="Group_1120370" data-name="Group 1120370" transform="translate(0 0)">
          <ellipse id="Ellipse_12012" data-name="Ellipse 12012" cx="0.575" cy="1.15" rx="0.575" ry="1.15" transform="translate(31.487 9.638)"/>
          <path id="Path_917094" data-name="Path 917094" d="M203.007,138.177a.83.83,0,1,0,.587.243A.828.828,0,0,0,203.007,138.177Z" transform="translate(-181.195 -123.837)"/>
          <path id="Path_917095" data-name="Path 917095" d="M203.007,341.823a.83.83,0,1,0,.587.243A.828.828,0,0,0,203.007,341.823Z" transform="translate(-181.195 -306.349)"/>
          <ellipse id="Ellipse_12013" data-name="Ellipse 12013" cx="0.575" cy="1.15" rx="0.575" ry="1.15" transform="translate(31.487 39.537)"/>
          <path id="Path_917096" data-name="Path 917096" d="M406.653,341.823a.83.83,0,1,0,.587.243A.828.828,0,0,0,406.653,341.823Z" transform="translate(-363.707 -306.349)"/>
          <ellipse id="Ellipse_12014" data-name="Ellipse 12014" cx="0.575" cy="1.15" rx="0.575" ry="1.15" transform="translate(46.437 24.588)"/>
          <path id="Path_917097" data-name="Path 917097" d="M406.653,138.177a.83.83,0,1,0,.587.243A.828.828,0,0,0,406.653,138.177Z" transform="translate(-363.707 -123.837)"/>
          <path id="Path_917098" data-name="Path 917098" d="M51.475,29.739v-8l-2.233-.447a17.3,17.3,0,0,0-1.795-4.328l1.265-1.9L43.052,9.405l-1.9,1.265a17.29,17.29,0,0,0-4.328-1.795l-.446-2.233h-8l-.447,2.233A17.3,17.3,0,0,0,23.6,10.67l-1.9-1.265-5.659,5.659,1.265,1.9c-.07.12-.138.241-.206.363l-.035-.023a4.138,4.138,0,0,0-2.3-.7H13.284V14.884a5.82,5.82,0,0,0,4.981-5.751V5.812A5.818,5.818,0,0,0,12.454,0h-.83V4.981H6.642V0h-.83A5.818,5.818,0,0,0,0,5.812V9.133a5.82,5.82,0,0,0,4.981,5.751v3.381h-.83A2.489,2.489,0,0,0,2.3,22.416a2.485,2.485,0,0,0,0,3.321,2.485,2.485,0,0,0,0,3.321,2.489,2.489,0,0,0,1.854,4.151h.83v.83A2.493,2.493,0,0,0,7.472,36.53h3.321a2.493,2.493,0,0,0,2.491-2.491v-.83h3.34c.211.443.44.879.688,1.3l-1.265,1.9,1.976,1.976c-3.107,1.029-4.739,2.385-4.739,3.956v3.321c0,3.815,9.606,5.812,19.1,5.812s19.1-2,19.1-5.812V42.342c0-1.571-1.632-2.927-4.739-3.956l1.976-1.976-1.265-1.9a17.294,17.294,0,0,0,1.795-4.327ZM6.642,16.6v-1.66h4.981V16.6ZM1.66,9.133V5.812A4.159,4.159,0,0,1,4.981,1.744v4.9h8.3v-4.9A4.159,4.159,0,0,1,16.6,5.812V9.133a4.156,4.156,0,0,1-4.151,4.151H5.812A4.156,4.156,0,0,1,1.66,9.133ZM4.151,19.926H5.428a3.329,3.329,0,0,0,2.318,1.613.824.824,0,0,1-.274.047H4.151a.83.83,0,0,1,0-1.66ZM3.321,27.4a.831.831,0,0,1,.83-.83H7.472a.83.83,0,0,1,0,1.66H4.151A.831.831,0,0,1,3.321,27.4Zm0-3.321a.831.831,0,0,1,.83-.83H7.472a.83.83,0,0,1,0,1.66H4.151A.831.831,0,0,1,3.321,24.077Zm0,6.642a.831.831,0,0,1,.83-.83H7.472a.83.83,0,0,1,0,1.66H4.151A.831.831,0,0,1,3.321,30.719Zm7.472,4.151H7.472a.831.831,0,0,1-.83-.83v-.83h.83a2.489,2.489,0,0,0,1.854-4.151,2.485,2.485,0,0,0,0-3.321,2.485,2.485,0,0,0,0-3.321,2.492,2.492,0,0,0,.493-.83h1.8V34.04A.831.831,0,0,1,10.793,34.87Zm2.491-10.726a4.286,4.286,0,0,0,1.27.677l.128.043.525-1.575-.128-.043a2.622,2.622,0,0,1-1.8-2.491v-.83H8.3a1.662,1.662,0,0,1-1.66-1.66h8.127a2.483,2.483,0,0,1,1.382.418L19.926,21.2v9.157a4.8,4.8,0,0,1-3.178,1.192H13.284Zm29.058,5.744H21.586v-8.3H42.342a10.787,10.787,0,0,1,0,8.3Zm-.871,1.66a10.789,10.789,0,0,1-18.185,0ZM23.286,19.926a10.789,10.789,0,0,1,18.185,0ZM14.944,45.663v-.8a9.968,9.968,0,0,0,1.66.9v1.484C15.474,46.664,14.944,46.09,14.944,45.663Zm3.321,2.284V46.381c.523.167,1.078.322,1.66.466v1.6l-.243-.065q-.776-.212-1.417-.437Zm11.623.161v1.66q-.84-.031-1.66-.084V48.025Q29.052,48.077,29.888,48.108Zm-3.321,1.447q-.847-.078-1.66-.18V47.726q.817.1,1.66.173Zm-3.321-.416q-.858-.138-1.66-.3V47.212q.807.157,1.66.288Zm8.3.67v-1.66q.415.005.83.005t.83-.005v1.66q-.413.005-.83.005T31.549,49.809Zm11.623-2.6v1.624q-.8.165-1.66.3V47.5Q42.365,47.369,43.172,47.212Zm-3.321,2.163q-.813.1-1.66.18V47.9q.842-.075,1.66-.173Zm-3.321.309q-.819.052-1.66.084v-1.66q.835-.031,1.66-.082Zm8.3-1.235v-1.6c.582-.144,1.137-.3,1.66-.466v1.566q-.642.225-1.417.437l-.243.065Zm3.321-1.2V45.764a9.969,9.969,0,0,0,1.66-.9v.8C49.814,46.09,49.285,46.664,48.154,47.247Zm1.66-4.905c0,.711-1.465,1.829-4.738,2.721a50.488,50.488,0,0,1-12.7,1.43,50.488,50.488,0,0,1-12.7-1.43c-3.273-.893-4.738-2.01-4.738-2.721,0-.69,1.368-1.752,4.407-2.628l2.355,2.355L23.6,40.8A17.294,17.294,0,0,0,27.931,42.6l.447,2.234h8l.447-2.233A17.294,17.294,0,0,0,41.155,40.8l1.9,1.265,2.355-2.355c3.039.876,4.407,1.937,4.407,2.628ZM47.752,29.289a15.648,15.648,0,0,1-1.993,4.806l-.285.455,1.1,1.65L42.84,39.933l-1.65-1.1-.455.285a15.65,15.65,0,0,1-4.806,1.993l-.523.12-.388,1.942H29.739l-.388-1.942-.523-.12a15.649,15.649,0,0,1-4.806-1.993l-.455-.285-1.65,1.1L18.184,36.2l1.1-1.65L19,34.094c-.222-.354-.429-.72-.622-1.091a6.444,6.444,0,0,0,2.71-1.454h.277a12.456,12.456,0,1,0,0-11.623h-.356L18.494,18.25c.16-.3.328-.586.505-.87l.285-.455-1.1-1.65,3.734-3.734,1.65,1.1.455-.285a15.65,15.65,0,0,1,4.806-1.993l.523-.12L29.739,8.3H35.02l.388,1.942.523.12a15.653,15.653,0,0,1,4.806,1.993l.455.285,1.65-1.1,3.734,3.734-1.1,1.65.285.455a15.649,15.649,0,0,1,1.993,4.806l.12.523,1.941.388v5.281l-1.942.388Z" transform="translate(0 0)"/>
        </g>
      </g>
    </g>
  </g>
</svg>
