<svg xmlns="http://www.w3.org/2000/svg" xmlns:xlink="http://www.w3.org/1999/xlink" width="112.221" height="112.221" viewBox="0 0 112.221 112.221">
  <defs>
    <filter id="Path_921829" x="0" y="0" width="112.221" height="112.221" filterUnits="userSpaceOnUse">
      <feOffset input="SourceAlpha"/>
      <feGaussianBlur stdDeviation="3" result="blur"/>
      <feFlood flood-color="#fff" flood-opacity="0.659"/>
      <feComposite operator="in" in2="blur"/>
      <feComposite in="SourceGraphic"/>
    </filter>
  </defs>
  <g id="Group_1121568" data-name="Group 1121568" transform="translate(-4691.39 5518.553)">
    <g transform="matrix(1, 0, 0, 1, 4691.39, -5518.55)" filter="url(#Path_921829)">
      <path id="Path_921829-2" data-name="Path 921829" d="M47.11,0A47.11,47.11,0,1,1,0,47.11,47.11,47.11,0,0,1,47.11,0Z" transform="translate(9 9)" fill="#5c6d74"/>
    </g>
    <g id="Group_1120374" data-name="Group 1120374" transform="translate(12 521.558)">
      <rect id="Rectangle_409922" data-name="Rectangle 409922" width="66" height="66" transform="translate(4703 -6017)" fill="none"/>
      <g id="Filled_outline" data-name="Filled outline" transform="translate(4711.067 -6008.933)">
        <path id="Path_917099" data-name="Path 917099" d="M37.332,55.032V41.337a9.155,9.155,0,0,0,4.555-10.992L36.5,35.691a2.021,2.021,0,0,1-2.85-.008l-3-3a2.021,2.021,0,0,1-.008-2.85l5.345-5.389a9.143,9.143,0,0,0-3.963-.379,9.169,9.169,0,0,0-3.035,17.268V55.032a9.155,9.155,0,0,0-4.555,10.992l5.389-5.345a2.021,2.021,0,0,1,2.85.008l3,3a2.021,2.021,0,0,1,.008,2.85l-5.345,5.389A9.143,9.143,0,0,0,34.3,72.3a9.169,9.169,0,0,0,3.035-17.268Z" transform="translate(-23.152 -23.165)" fill="#d6d6d4"/>
        <path id="Path_917100" data-name="Path 917100" d="M37.332,231.794V221.333l-8.34,8.34v2.122a9.155,9.155,0,0,0-4.555,10.992l5.389-5.345a2.021,2.021,0,0,1,2.851.008l3,2.995a2.021,2.021,0,0,1,.008,2.851l-5.345,5.389a9.144,9.144,0,0,0,3.963.379,9.169,9.169,0,0,0,3.035-17.268Z" transform="translate(-23.152 -199.927)" fill="#c7c7c5"/>
        <path id="Path_917101" data-name="Path 917101" d="M104,184h1.668v15.012H104Z" transform="translate(-94.823 -166.486)" fill="#b0b0ae"/>
        <path id="Path_917102" data-name="Path 917102" d="M215.691,242.348v-7.336a5,5,0,0,0-4.3-4.954L204.015,229v-5h-8.34v5l-7.72,1.654A5,5,0,0,0,184,235.551v6.8" transform="translate(-166.483 -202.316)" fill="#fec9a3"/>
        <path id="Path_917103" data-name="Path 917103" d="M296,224v2.9a7.5,7.5,0,0,0,8.34,0V224Z" transform="translate(-266.808 -202.316)" fill="#feb784"/>
        <path id="Path_917104" data-name="Path 917104" d="M211.395,273.054,204.015,272l-1.787,5h-4.766l-1.787-5-7.72,1.654A5,5,0,0,0,184,278.547v6.8h31.691v-7.336a5,5,0,0,0-4.3-4.954Z" transform="translate(-166.483 -245.312)" fill="#e0e0de"/>
        <path id="Path_917105" data-name="Path 917105" d="M215.691,278.008v9h-5.838v8.34H189.838v-7.506H184v-9.3a5,5,0,0,1,3.955-4.892L195.676,272l4.17,11.676L204.016,272l7.38,1.054A5.006,5.006,0,0,1,215.691,278.008Z" transform="translate(-166.483 -245.312)" fill="#425b82"/>
        <path id="Path_917106" data-name="Path 917106" d="M265.853,298.547v9h-5.838v8.34H240v-3.936c9.548-3.8,17.582-7.827,24.306-17.025a4.994,4.994,0,0,1,1.547,3.617Z" transform="translate(-216.646 -265.852)" fill="#3c5174"/>
        <g id="Group_1120373" data-name="Group 1120373" transform="translate(22.52 35.028)">
          <path id="Path_917107" data-name="Path 917107" d="M328,384h1.668v11.676H328Z" transform="translate(-317.992 -380.664)" fill="#334562"/>
          <path id="Path_917108" data-name="Path 917108" d="M360,376h7.506v1.668H360Z" transform="translate(-346.656 -373.498)" fill="#334562"/>
          <path id="Path_917109" data-name="Path 917109" d="M296,368h1.668v1.668H296Z" transform="translate(-289.328 -366.332)" fill="#334562"/>
          <path id="Path_917110" data-name="Path 917110" d="M424,352h1.668v13.344H424Z" transform="translate(-403.985 -352)" fill="#334562"/>
          <path id="Path_917111" data-name="Path 917111" d="M232,352h1.668v13.344H232Z" transform="translate(-232 -352)" fill="#334562"/>
        </g>
        <path id="Path_917112" data-name="Path 917112" d="M265.871,265.507l.639,7.667,4.552-2.6L269.012,264Z" transform="translate(-239.82 -238.146)" fill="#49648e"/>
        <path id="Path_917113" data-name="Path 917113" d="M356.339,270.573l4.552,2.6.657-7.888L358.389,264Z" transform="translate(-320.857 -238.146)" fill="#49648e"/>
        <path id="Path_917114" data-name="Path 917114" d="M187.336,394.842h2.5l15.846-3.336h4.17l1.668-1.668h4.17V384h-4.17l-5.838,2.5L184,388.17v3.336A3.336,3.336,0,0,0,187.336,394.842Z" transform="translate(-166.483 -345.636)" fill="#feb784"/>
        <path id="Path_917115" data-name="Path 917115" d="M212.355,394.842h-2.5l-15.846-3.336h-4.17l-1.668-1.668H184V384h4.17l5.838,2.5,21.683,1.668v3.336A3.336,3.336,0,0,1,212.355,394.842Z" transform="translate(-166.483 -345.636)" fill="#fec9a3"/>
        <path id="Path_917116" data-name="Path 917116" d="M408.834,128H408v5h.834a2.5,2.5,0,0,0,0-5Z" transform="translate(-367.132 -116.324)" fill="#feb784"/>
        <path id="Path_917117" data-name="Path 917117" d="M234.544,128H234.5a2.5,2.5,0,1,0,0,5h.834v-5Z" transform="translate(-209.48 -116.324)" fill="#feb784"/>
        <path id="Path_917118" data-name="Path 917118" d="M279.012,55.506v5.838a7.506,7.506,0,0,1-7.505,7.506,7.7,7.7,0,0,1-.781-.04A7.508,7.508,0,0,1,264,61.344V55.506A7.506,7.506,0,0,1,271.505,48q.314,0,.62.025h0a7.506,7.506,0,0,1,6.886,7.48Z" transform="translate(-238.144 -44.663)" fill="#fec9a3"/>
        <path id="Path_917119" data-name="Path 917119" d="M336.8,55.73v5.838a7.506,7.506,0,0,1-7.505,7.506,7.7,7.7,0,0,1-.781-.04,9.173,9.173,0,0,0,5.263-8.3v-5a9.184,9.184,0,0,0-3.862-7.48A7.506,7.506,0,0,1,336.8,55.73Z" transform="translate(-295.936 -44.887)" fill="#fec093"/>
        <path id="Path_917120" data-name="Path 917120" d="M267.941,52.291a18.177,18.177,0,0,0,7.131,0l.6-.121,3.336,3.892v-.556a7.506,7.506,0,0,0-15.012,0v.556l3.336-3.892Z" transform="translate(-238.144 -44.663)" fill="#7a432a"/>
        <path id="Path_917121" data-name="Path 917121" d="M313.766,181.892H312v-1.668h1.766a10.328,10.328,0,0,0,3-.439l.484,1.6A11.991,11.991,0,0,1,313.766,181.892Z" transform="translate(-281.14 -162.71)" fill="#f7a468"/>
        <circle id="Ellipse_12015" data-name="Ellipse 12015" cx="1.251" cy="1.251" r="1.251" transform="translate(35.864 12.51)" fill="#7a432a"/>
        <circle id="Ellipse_12016" data-name="Ellipse 12016" cx="1.251" cy="1.251" r="1.251" transform="translate(28.358 12.51)" fill="#7a432a"/>
        <path id="Path_917122" data-name="Path 917122" d="M271.311,104.944a2.532,2.532,0,0,1-2.947,2.487l-2.287-.382a20.05,20.05,0,0,0-6.58,0l-2.287.382A2.528,2.528,0,0,1,254.447,104h16.68A2.538,2.538,0,0,1,271.311,104.944Z" transform="translate(-229.425 -94.826)" fill="#49648e"/>
        <path id="Path_917123" data-name="Path 917123" d="M272.68,29V32.34H256V29a5,5,0,0,1,5-5h6.672a5,5,0,0,1,1.582.256c.093.031.185.065.274.1A5,5,0,0,1,272.68,29Z" transform="translate(-230.978 -23.165)" fill="#425b82"/>
        <path id="Path_917124" data-name="Path 917124" d="M294.178,32.076v3.336H280a22.153,22.153,0,0,0,11.03-7.982A5,5,0,0,1,294.178,32.076Z" transform="translate(-252.476 -26.238)" fill="#3c5174"/>
        <path id="Path_917125" data-name="Path 917125" d="M304,72h6.672v3.336H304Z" transform="translate(-273.974 -66.161)" fill="#e0e0de"/>
        <path id="Path_917126" data-name="Path 917126" d="M304,88h6.672v1.668H304Z" transform="translate(-273.974 -80.494)" fill="#d6d6d4"/>
        <path id="Path_917127" data-name="Path 917127" d="M354.413,104.944a2.532,2.532,0,0,1-2.947,2.487l-2.287-.382a19.946,19.946,0,0,0-2.139-.239A11.97,11.97,0,0,0,351.294,104h2.935A2.54,2.54,0,0,1,354.413,104.944Z" transform="translate(-312.527 -94.826)" fill="#425b82"/>
        <path id="Path_917128" data-name="Path 917128" d="M61,42.907l-4.124-.587-2.54-1.033V39.341a8.289,8.289,0,0,0,3.294-5.833h.042a3.336,3.336,0,0,0,.908-6.545,3.321,3.321,0,0,0-.074-1.94V21.832a5.838,5.838,0,0,0-5.838-5.838H46a5.838,5.838,0,0,0-5.838,5.838v3.191a3.321,3.321,0,0,0-.074,1.94,3.336,3.336,0,0,0,.908,6.545h.042a8.289,8.289,0,0,0,3.294,5.834v1.981l-2.585,1.241-4.481.955a5.887,5.887,0,0,0-4.575,5.094,10.1,10.1,0,0,0-1.7-1.245v-12.7A9.982,9.982,0,0,0,35.5,22.915a.834.834,0,0,0-1.38-.333l-5.383,5.342a1.209,1.209,0,0,1-.851.346,1.182,1.182,0,0,1-.828-.348l-2.994-2.994a1.182,1.182,0,0,1-.348-.828,1.207,1.207,0,0,1,.342-.847L29.4,17.866a.834.834,0,0,0-.333-1.38,10,10,0,0,0-8.09,18.176v12.7a9.982,9.982,0,0,0-4.512,11.747.834.834,0,0,0,1.38.333L23.229,54.1a1.209,1.209,0,0,1,.851-.346,1.182,1.182,0,0,1,.828.348L27.9,57.1a1.182,1.182,0,0,1,.348.828,1.207,1.207,0,0,1-.342.847l-5.346,5.387a.834.834,0,0,0,.334,1.38,10.1,10.1,0,0,0,9.992-2.3,4.176,4.176,0,0,0,3.936,2.8h2.5c.058,0,9.174-1.917,9.174-1.917v1.917h1.668V64.12l9,1.9a.841.841,0,0,0,.172.018h2.5a4.175,4.175,0,0,0,4.17-4.17V48.686A5.878,5.878,0,0,0,61,42.907ZM49.334,51.875l-1.2-3.355h2.4ZM46,40.314a8.3,8.3,0,0,0,6.672,0v1.407l-1.6,5.13H47.6L46,41.72Zm6.474,7.646,1.558-5,1.751.712-.5,5.973-2.807-1.6.027-.074Zm.29-20.563a20.806,20.806,0,0,0-6.855,0l-2.287.381A1.7,1.7,0,0,1,41.648,26H57.019a1.7,1.7,0,0,1-1.971,1.775Zm-.926-3.062h-5V22.666h5Zm7.506,5.838a1.672,1.672,0,0,1-1.668,1.668V28.514l.01-.01A1.67,1.67,0,0,1,59.341,30.172Zm-17.514-8.34A4.17,4.17,0,0,1,46,17.662h6.672a4.17,4.17,0,0,1,4.17,4.17v2.5H53.5v-2.5A.834.834,0,0,0,52.669,21H46a.834.834,0,0,0-.834.834v2.5H41.828ZM39.816,31.35a1.666,1.666,0,0,1,1.17-2.846l.008.009V31.84A1.679,1.679,0,0,1,39.816,31.35Zm2.846,1.324V29.4a3.394,3.394,0,0,0,1.231.02l.51-.085a1.251,1.251,0,1,0,2.159-.356,19.132,19.132,0,0,1,5.543,0,1.252,1.252,0,1,0,2.159.356l.51.085a4.28,4.28,0,0,0,1.231-.02v3.271a6.672,6.672,0,0,1-13.344,0Zm1.993,10.343,1.54,4.938-.031.011.028.078-2.807,1.6-.483-5.79Zm-7.04,2.132,3.656-.779.56,6.721a.834.834,0,0,0,.443.669,1.591,1.591,0,0,0,.8-.014l3.689-2.108L48.5,54.5v1.906l-4.8-.369L40.16,54.522v-3.5H38.492v2.786l-.505-.217a.834.834,0,0,0-.328-.067H34.322v-4.3A4.2,4.2,0,0,1,37.615,45.148ZM27.017,64.3A8.43,8.43,0,0,1,24.8,64.28l4.3-4.335a2.869,2.869,0,0,0,.822-2.018,2.823,2.823,0,0,0-.836-2.007l-2.994-2.994a2.823,2.823,0,0,0-2.007-.836,2.873,2.873,0,0,0-2.022.826l-4.331,4.3A8.325,8.325,0,0,1,22.192,48.6a.834.834,0,0,0,.454-.742V34.167a.834.834,0,0,0-.454-.742,8.334,8.334,0,0,1,4.977-15.677l-4.3,4.335a2.869,2.869,0,0,0-.822,2.018,2.823,2.823,0,0,0,.836,2.007L25.876,29.1a2.823,2.823,0,0,0,2.007.836,2.873,2.873,0,0,0,2.022-.826l4.331-4.3a8.325,8.325,0,0,1-4.464,8.609.834.834,0,0,0-.454.742V47.861a.834.834,0,0,0,.454.742,8.444,8.444,0,0,1,2.882,2.432v9.953A8.364,8.364,0,0,1,27.017,64.3Zm12.222.061H36.824a2.5,2.5,0,0,1-2.5-2.5v-.834h2.991l1.424,1.424a.834.834,0,0,0,.59.244h4.083l1.869.394Zm25.106-2.5a2.5,2.5,0,0,1-2.5,2.5H59.428L43.667,61.047c-.057-.012-4-.018-4-.018l-1.424-1.424a.834.834,0,0,0-.59-.244H34.322v-4.17h3.165s5.854,2.492,5.945,2.5L64.345,59.3Zm0-4.236-7.5-.577,4.335-1.858h3.164Zm0-4.1H61.009a7.017,7.017,0,0,0-.834.285V51.021H58.507v2.5H51.835v1.668h5.114l-1.979.847-4.8.371V54.5L51.9,49.637l3.689,2.108a.834.834,0,0,0,1.245-.655l.584-7.009,3.344.476a4.2,4.2,0,0,1,3.581,4.128Z" transform="translate(-15.971 -15.993)"/>
        <path id="Path_917129" data-name="Path 917129" d="M296,368h1.668v1.668H296Z" transform="translate(-266.808 -331.304)"/>
        <path id="Path_917130" data-name="Path 917130" d="M317.246,181.383l-.484-1.6a10.327,10.327,0,0,1-3,.439H312v1.668h1.765A11.992,11.992,0,0,0,317.246,181.383Z" transform="translate(-281.14 -162.712)"/>
        <path id="Path_917131" data-name="Path 917131" d="M104,184h1.668v15.012H104Z" transform="translate(-94.823 -166.486)"/>
      </g>
    </g>
  </g>
</svg>
