<svg xmlns="http://www.w3.org/2000/svg" width="90" height="90" viewBox="0 0 90 90">
  <g id="Group_1121563" data-name="Group 1121563" transform="translate(-189.051 -1005.428)">
    <g id="Group_1119976" data-name="Group 1119976" transform="translate(0 -6.572)">
      <rect id="Rectangle_409888" data-name="Rectangle 409888" width="90" height="90" transform="translate(189.051 1012)" fill="none"/>
      <g id="filled_outline_creat" data-name="filled outline creat" transform="translate(183.051 1005.943)">
        <path id="Path_915765" data-name="Path 915765" d="M299.738,33.491a1.165,1.165,0,0,1,.6,1.535l-8.4,19.243A48.749,48.749,0,0,0,268.42,44l8.4-19.245a1.165,1.165,0,0,1,1.535-.6Z" transform="translate(-215.614 -6.836)" fill="#757575"/>
        <path id="Path_915766" data-name="Path 915766" d="M47.617,24.76,56.018,44A48.749,48.749,0,0,0,32.5,54.27L24.1,35.026a1.165,1.165,0,0,1,.6-1.535l21.382-9.334a1.165,1.165,0,0,1,1.535.6Z" transform="translate(-6.833 -6.836)" fill="#757575"/>
        <path id="Path_915767" data-name="Path 915767" d="M135.46,189.871,142.387,174a4.673,4.673,0,0,0-3.132-6.391,48.718,48.718,0,0,1,14.208,6.2,4.672,4.672,0,0,0-6.8,2.059L139.795,191.6l4.227,1.691v15.165l-11.665,5.833-11.665-5.833V193.3l4.227-1.691-6.868-15.735a4.672,4.672,0,0,0-6.8-2.059,48.7,48.7,0,0,1,14.374-6.241,4.812,4.812,0,0,0-3.228,6.591l6.858,15.71,3.1-1.241Zm3.9,11.591a7,7,0,1,0-7,7A7,7,0,0,0,139.356,201.462Z" transform="translate(-81.361 -129.42)" fill="#e0e0e0"/>
        <path id="Path_915768" data-name="Path 915768" d="M47.617,24.76l1.4,3.208L25.5,38.233l-1.4-3.206a1.165,1.165,0,0,1,.6-1.535l21.382-9.334a1.165,1.165,0,0,1,1.535.6Z" transform="translate(-6.833 -6.836)" fill="#e0e0e0"/>
        <path id="Path_915769" data-name="Path 915769" d="M340.748,33.491a1.165,1.165,0,0,1,.6,1.535l-1.4,3.206L316.43,27.968l1.4-3.208a1.165,1.165,0,0,1,1.535-.6Z" transform="translate(-256.623 -6.836)" fill="#e0e0e0"/>
        <path id="Path_915770" data-name="Path 915770" d="M57.79,50.86l1.866,4.275L36.136,65.4,34.27,61.125Z" transform="translate(-15.606 -29.728)" fill="#616161"/>
        <path id="Path_915771" data-name="Path 915771" d="M329.016,61.125,327.15,65.4,303.63,55.135,305.5,50.86Z" transform="translate(-245.689 -29.728)" fill="#616161"/>
        <g id="Group_1119975" data-name="Group 1119975" transform="translate(25.056 30.092)">
          <path id="Path_915772" data-name="Path 915772" d="M78.108,229.3a2.28,2.28,0,0,1,2.236,2.727l-.3,1.5a2.28,2.28,0,1,0,4.472,0l-.3-1.5a2.28,2.28,0,0,1,2.236-2.727Z" transform="translate(-78.108 -212.241)" fill="#fbc02d"/>
          <path id="Path_915773" data-name="Path 915773" d="M318.773,112.311a2.28,2.28,0,0,1,2.236,2.727l-.3,1.5a2.28,2.28,0,1,0,4.472,0l-.3-1.5a2.28,2.28,0,0,1,2.236-2.727Z" transform="translate(-283.68 -112.311)" fill="#fbc02d"/>
          <path id="Path_915774" data-name="Path 915774" d="M418.21,264l-2.029,3.452a2.354,2.354,0,1,0,4.059,0Z" transform="translate(-366.608 -241.881)" fill="#fbc02d"/>
          <path id="Path_915775" data-name="Path 915775" d="M90.21,320l-2.029,3.452a2.354,2.354,0,1,0,4.059,0Z" transform="translate(-86.435 -289.716)" fill="#fbc02d"/>
        </g>
        <path id="Path_915776" data-name="Path 915776" d="M200,352.166A8.166,8.166,0,1,0,208.166,344,8.166,8.166,0,0,0,200,352.166Zm14,0a5.833,5.833,0,1,1-5.833-5.833A5.833,5.833,0,0,1,214,352.166Z" transform="translate(-157.17 -280.124)"/>
        <path id="Path_915777" data-name="Path 915777" d="M85.829,26.87a2.313,2.313,0,0,0-1.238-1.284L63.21,16.253a2.332,2.332,0,0,0-3.072,1.2L51.738,36.7a1.167,1.167,0,0,0,.9,1.621,47.5,47.5,0,0,1,5.029,1.017,3.5,3.5,0,0,1,2.289,4.776L53.482,58.947l-2.054-.821a1.167,1.167,0,0,0-.866,0l-2.054.821L42.1,44.273a3.645,3.645,0,0,1,2.4-4.98,47.516,47.516,0,0,1,4.852-.971,1.167,1.167,0,0,0,.9-1.621l-8.4-19.243a2.332,2.332,0,0,0-3.073-1.206L17.4,25.585a2.332,2.332,0,0,0-1.206,3.072L24.6,47.9a1.167,1.167,0,0,0,1.069.7,1.151,1.151,0,0,0,.125-.008,1.094,1.094,0,0,1,.358,1.057l-.3,1.5a3.448,3.448,0,1,0,6.76,0l-.3-1.5a1.1,1.1,0,0,1,.231-.924,1.109,1.109,0,0,1,.86-.408V45.982a3.447,3.447,0,0,0-3.379,4.124l.3,1.5a1.114,1.114,0,1,1-2.185,0l.3-1.5a3.434,3.434,0,0,0-.676-2.821q1.365-1.02,2.8-1.936a3.5,3.5,0,0,1,5.063,1.566l6.387,14.633L38.9,62.792a1.167,1.167,0,0,0-.732,1.084V79.041a1.166,1.166,0,0,0,.645,1.043l11.665,5.833a1.167,1.167,0,0,0,1.043,0l11.665-5.833a1.167,1.167,0,0,0,.645-1.043V63.876a1.167,1.167,0,0,0-.733-1.083l-3.11-1.244,6.387-14.633a3.5,3.5,0,0,1,5.063-1.566,47.487,47.487,0,0,1,4.16,2.993,1.167,1.167,0,0,0,1.8-.442l8.4-19.243a2.318,2.318,0,0,0,.034-1.788ZM62.276,18.39l21.382,9.333-.933,2.138L61.343,20.529Zm-2.8,6.415.933-2.138L81.792,32l-.933,2.138Zm-16.961,0L21.133,34.138,20.2,32l21.382-9.334Zm-2.8-6.415.933,2.138L19.266,29.862l-.933-2.138ZM22.066,36.276l21.382-9.333,4.065,9.314q-1.785.317-3.537.762l-.017,0a49.968,49.968,0,0,0-14.7,6.384l-.018.011q-1.594,1.024-3.112,2.171Zm42.166,9.706L56.117,64.576l2.138.933.795-1.821,2.444.978V78.32L51,83.569,40.5,78.32V64.665l2.444-.978.795,1.821,2.138-.933L37.758,45.982a5.816,5.816,0,0,0-3.031-3.018,47.642,47.642,0,0,1,5.111-2.225,5.967,5.967,0,0,0,.127,4.467l7.843,17.97,2.138-.933-.5-1.156L51,60.466l1.553.621-.5,1.156,2.138.933,7.912-18.127a5.815,5.815,0,0,0,.152-4.274,47.631,47.631,0,0,1,5.017,2.19,5.816,5.816,0,0,0-3.031,3.018Zm11.626-.394q-1.516-1.146-3.112-2.171l-.015-.009a49.966,49.966,0,0,0-14.509-6.336l-.038-.011h0q-1.835-.472-3.708-.806l4.065-9.314,7.325,3.2-.04.046a3.435,3.435,0,0,0-.714,2.861l.3,1.5a1.114,1.114,0,1,1-2.184,0l.3-1.5a3.447,3.447,0,0,0-3.38-4.123v2.333a1.114,1.114,0,0,1,1.092,1.332l-.3,1.5a3.447,3.447,0,1,0,6.76,0l-.3-1.5a1.11,1.11,0,0,1,1.036-1.328l11.487,5.014Z" transform="translate(0)"/>
        <path id="Path_915778" data-name="Path 915778" d="M412.386,256.576a1.166,1.166,0,0,0-2.011,0l-2.029,3.452a3.52,3.52,0,1,0,6.07,0Zm.025,5.826a1.187,1.187,0,1,1-2.054-1.192l1.023-1.741,1.024,1.741a1.166,1.166,0,0,1,.007,1.191Z" transform="translate(-334.721 -204.957)"/>
        <path id="Path_915779" data-name="Path 915779" d="M84.383,312.576a1.167,1.167,0,0,0-2.011,0l-2.03,3.452a3.52,3.52,0,1,0,6.07,0Zm.025,5.826a1.187,1.187,0,1,1-2.054-1.191l1.023-1.741,1.024,1.741a1.166,1.166,0,0,1,.007,1.191Z" transform="translate(-54.545 -252.791)"/>
      </g>
    </g>
  </g>
</svg>
