<svg xmlns="http://www.w3.org/2000/svg" xmlns:xlink="http://www.w3.org/1999/xlink" width="125" height="125" viewBox="0 0 125 125">
  <defs>
    <clipPath id="clip-path">
      <path id="path2001" d="M0-682.665H65.807v65.807H0Z" transform="translate(0 682.665)"/>
    </clipPath>
  </defs>
  <g id="Group_1121563" data-name="Group 1121563" transform="translate(-265 -878.081)">
    <circle id="Ellipse_11952" data-name="Ellipse 11952" cx="62.5" cy="62.5" r="62.5" transform="translate(265 878.081)" fill="#e8e8e8"/>
    <g id="Group_1120884" data-name="Group 1120884" transform="translate(0 -21.851)">
      <g id="g1995" transform="translate(294.597 1612.193)">
        <g id="g1997" transform="translate(0 -682.665)">
          <g id="g1999" transform="translate(0 0)" clip-path="url(#clip-path)">
            <g id="g2005" transform="translate(0.964 0.964)">
              <path id="path2007" d="M-251.651-127.1l-5.177-5.136a.386.386,0,0,0-.657.275l.027,6.642a.385.385,0,0,1-.658.274l-15.425-15.425a.648.648,0,0,0-.917,0l-3.849,3.849a.648.648,0,0,0,0,.917l15.442,15.442a.386.386,0,0,1-.271.658l-6.632.027a.386.386,0,0,0-.27.659l5.177,5.136a.9.9,0,0,0,.637.261l12.249-.05a.642.642,0,0,0,.64-.645l-.05-12.249a.9.9,0,0,0-.266-.635" transform="translate(278.498 140.663)" fill="#fea95c"/>
            </g>
            <g id="g2009" transform="translate(0.964 37.703)">
              <path id="path2011" d="M-251.651-127.3l-5.177,5.136a.386.386,0,0,1-.657-.275l.027-6.642a.385.385,0,0,0-.658-.274l-15.425,15.425a.648.648,0,0,1-.917,0l-3.849-3.849a.648.648,0,0,1,0-.917l15.442-15.442a.386.386,0,0,0-.271-.658l-6.632-.027a.386.386,0,0,1-.27-.659l5.177-5.136a.9.9,0,0,1,.637-.261l12.249.05a.643.643,0,0,1,.64.645l-.05,12.249a.9.9,0,0,1-.266.635" transform="translate(278.498 140.877)" fill="#fea95c"/>
            </g>
            <g id="g2013" transform="translate(37.68 0.964)">
              <path id="path2015" d="M-2.966-127.1l5.177-5.136a.386.386,0,0,1,.657.275l-.027,6.642a.385.385,0,0,0,.658.274l15.425-15.425a.648.648,0,0,1,.917,0l3.849,3.849a.648.648,0,0,1,0,.917L8.248-120.266a.386.386,0,0,0,.271.658l6.632.027a.386.386,0,0,1,.27.659l-5.177,5.136a.9.9,0,0,1-.637.261l-12.249-.05a.643.643,0,0,1-.64-.645l.051-12.249a.9.9,0,0,1,.266-.635" transform="translate(3.283 140.663)" fill="#fea95c"/>
            </g>
            <g id="g2017" transform="translate(37.68 37.703)">
              <path id="path2019" d="M-2.966-127.3l5.177,5.136a.386.386,0,0,0,.657-.275l-.027-6.642a.385.385,0,0,1,.658-.274l15.425,15.425a.648.648,0,0,0,.917,0l3.849-3.849a.648.648,0,0,0,0-.917L8.248-134.135a.386.386,0,0,1,.271-.658l6.632-.027a.386.386,0,0,0,.27-.659l-5.177-5.136a.9.9,0,0,0-.637-.261l-12.249.05a.643.643,0,0,0-.64.645l.051,12.249a.9.9,0,0,0,.266.635" transform="translate(3.283 140.877)" fill="#fea95c"/>
            </g>
            <g id="g2021" transform="translate(21.976 9.275)">
              <path id="path2023" d="M-57.185-55.154a.9.9,0,0,0-.266-.635l-5.177-5.136a.386.386,0,0,0-.657.275l.01,2.4,2.483,2.463a.9.9,0,0,1,.266.635l.05,12.249a.643.643,0,0,1-.64.645h3.342a.643.643,0,0,0,.64-.645Z" transform="translate(63.285 61.038)" fill="#fe860a"/>
            </g>
            <g id="g2025" transform="translate(3.79 0.964)">
              <path id="path2027" d="M-170.312-174.718l-.008-3.1a.386.386,0,0,1-.607.08l-15.425-15.425a.648.648,0,0,0-.917,0l-1.213,1.213,17.511,17.511a.386.386,0,0,0,.658-.274" transform="translate(188.481 193.357)" fill="#fe860a"/>
            </g>
            <g id="g2029" transform="translate(21.976 37.753)">
              <path id="path2031" d="M-51.658,0H-55a.643.643,0,0,1,.64.645l-.05,12.249a.9.9,0,0,1-.266.635l-2.483,2.463-.01,2.4a.386.386,0,0,0,.657.275l5.177-5.136a.9.9,0,0,0,.266-.635l.05-12.249A.643.643,0,0,0-51.658,0" transform="translate(57.169)" fill="#fe860a"/>
            </g>
            <g id="g2033" transform="translate(40.462 9.275)">
              <path id="path2035" d="M-6.17-99.12-3-102.29a.386.386,0,0,1-.486-.374l.027-6.643a.386.386,0,0,0-.657-.275l-2.694,2.673-.017,7.514a.386.386,0,0,0,.658.274" transform="translate(6.828 109.694)" fill="#fe860a"/>
            </g>
            <g id="g2037" transform="translate(40.462 45.844)">
              <path id="path2039" d="M-6.17-1.066-3,2.1a.386.386,0,0,0-.486.374l.027,6.643a.386.386,0,0,1-.657.275L-6.811,6.723-6.828-.792a.386.386,0,0,1,.658-.274" transform="translate(6.828 1.18)" fill="#fe860a"/>
            </g>
            <g id="g2041" transform="translate(45.755 0.964)">
              <path id="path2043" d="M-177.141-46.451a.648.648,0,0,0,0-.916l-3.849-3.849a.648.648,0,0,0-.917,0L-183.119-50l2.637,2.637a.648.648,0,0,1,0,.916l-15.442,15.442a.386.386,0,0,0,.271.658l6.632.027a.386.386,0,0,1,.27.659l-5.177,5.136a.9.9,0,0,1-.486.248l3.19.013a.9.9,0,0,0,.637-.261l5.177-5.136a.386.386,0,0,0-.27-.659l-6.632-.027a.386.386,0,0,1-.271-.658Z" transform="translate(196.038 51.406)" fill="#fe860a"/>
            </g>
            <g id="g2045" transform="translate(45.755 37.703)">
              <path id="path2047" d="M-177.141-207.951l-15.442-15.442a.386.386,0,0,1,.271-.658l6.632-.027a.386.386,0,0,0,.27-.659l-5.177-5.136a.9.9,0,0,0-.637-.261l-3.19.013a.9.9,0,0,1,.486.248l5.177,5.136a.386.386,0,0,1-.27.659l-6.632.027a.386.386,0,0,0-.271.658l15.442,15.442a.648.648,0,0,1,0,.916l-2.637,2.636,1.213,1.213a.648.648,0,0,0,.917,0l3.849-3.849a.648.648,0,0,0,0-.916" transform="translate(196.038 230.135)" fill="#fe860a"/>
            </g>
            <g id="g2049" transform="translate(3.79 45.816)">
              <path id="path2051" d="M-170.312-3.637l-.008,3.1a.386.386,0,0,0-.607-.08l-15.425,15.425a.648.648,0,0,1-.917,0l-1.213-1.213L-170.97-3.911a.386.386,0,0,1,.658.274" transform="translate(188.481 4.025)" fill="#fe860a"/>
            </g>
            <g id="g2053" transform="translate(0.964 0.964)">
              <path id="path2055" d="M-76.123-31.451l-3.165-3.165a.648.648,0,0,0-.916,0l-3.849,3.849a.648.648,0,0,0,0,.917l15.442,15.442a.386.386,0,0,1-.271.658l-6.632.027a.386.386,0,0,0-.27.659l5.178,5.136a.9.9,0,0,0,.637.261l12.249-.051a.643.643,0,0,0,.64-.645l-.051-12.249a.9.9,0,0,0-.266-.635l-5.177-5.136a.386.386,0,0,0-.657.275l.027,6.643a.386.386,0,0,1-.658.274l-9.064-9.064" transform="translate(84.244 34.806)" fill="none" stroke="#000" stroke-linecap="round" stroke-linejoin="round" stroke-miterlimit="10" stroke-width="2"/>
            </g>
            <g id="g2057" transform="translate(0.964 37.703)">
              <path id="path2059" d="M-251.651-127.3l-5.177,5.136a.386.386,0,0,1-.657-.275l.027-6.642a.385.385,0,0,0-.658-.274l-15.425,15.425a.648.648,0,0,1-.917,0l-3.849-3.849a.648.648,0,0,1,0-.917l15.442-15.442a.386.386,0,0,0-.271-.658l-6.632-.027a.386.386,0,0,1-.27-.659l5.177-5.136a.9.9,0,0,1,.637-.261l12.249.05a.643.643,0,0,1,.64.645l-.05,12.249A.9.9,0,0,1-251.651-127.3Z" transform="translate(278.498 140.877)" fill="none" stroke="#000" stroke-linecap="round" stroke-linejoin="round" stroke-miterlimit="10" stroke-width="2"/>
            </g>
            <g id="g2061" transform="translate(37.68 0.964)">
              <path id="path2063" d="M-2.966-127.1l5.177-5.136a.386.386,0,0,1,.657.275l-.027,6.642a.385.385,0,0,0,.658.274l15.425-15.425a.648.648,0,0,1,.917,0l3.849,3.849a.648.648,0,0,1,0,.917L8.248-120.266a.386.386,0,0,0,.271.658l6.632.027a.386.386,0,0,1,.27.659l-5.177,5.136a.9.9,0,0,1-.637.261l-12.249-.05a.643.643,0,0,1-.64-.645l.051-12.249A.9.9,0,0,1-2.966-127.1Z" transform="translate(3.283 140.663)" fill="none" stroke="#000" stroke-linecap="round" stroke-linejoin="round" stroke-miterlimit="10" stroke-width="2"/>
            </g>
            <g id="g2065" transform="translate(37.68 37.703)">
              <path id="path2067" d="M-174.414-129.526l-7.076-7.076a.386.386,0,0,1,.271-.658l6.632-.027a.386.386,0,0,0,.27-.659l-5.177-5.136a.9.9,0,0,0-.637-.261l-12.249.051a.643.643,0,0,0-.64.645l.051,12.249a.9.9,0,0,0,.266.635l5.177,5.136a.386.386,0,0,0,.657-.275l-.027-6.643a.386.386,0,0,1,.658-.274l15.425,15.425a.648.648,0,0,0,.917,0l3.849-3.849a.648.648,0,0,0,0-.917l-5.115-5.115" transform="translate(193.021 143.344)" fill="none" stroke="#000" stroke-linecap="round" stroke-linejoin="round" stroke-miterlimit="10" stroke-width="2"/>
            </g>
          </g>
        </g>
      </g>
      <rect id="Rectangle_410806" data-name="Rectangle 410806" width="85" height="85" transform="translate(285.326 920)" fill="none"/>
    </g>
  </g>
</svg>
