<svg xmlns="http://www.w3.org/2000/svg" width="112.828" height="112.828" viewBox="0 0 112.828 112.828">
  <g id="Group_1120834" data-name="Group 1120834" transform="translate(-408.923 -8695)">
    <rect id="Rectangle_409891" data-name="Rectangle 409891" width="112.828" height="112.828" transform="translate(408.923 8695)" fill="none"/>
    <g id="Group_1120833" data-name="Group 1120833" transform="translate(388.449 8668.438)">
      <g id="Group_1120816" data-name="Group 1120816" transform="translate(33.791 38.563)">
        <g id="Group_1120804" data-name="Group 1120804" transform="translate(1.581 22.117)">
          <g id="Group_1120803" data-name="Group 1120803">
            <path id="Path_918753" data-name="Path 918753" d="M80.871,189.89l38.28-38.28-8.123-8.123-38.28,38.28-5.456-5.456L53.71,189.893l3.613,3.613a9.6,9.6,0,0,0,11.809,11.809l3.613,3.613,13.582-13.582ZM64.3,198.337a6.992,6.992,0,1,1,9.888,0A6.992,6.992,0,0,1,64.3,198.337Z" transform="translate(-53.71 -143.487)" fill="#e6e7e8"/>
          </g>
        </g>
        <g id="Group_1120805" data-name="Group 1120805" transform="translate(0 20.537)">
          <path id="Path_918754" data-name="Path 918754" d="M66.825,204.591a1.581,1.581,0,0,1-1.118-.463l-3-3a11.179,11.179,0,0,1-13.044-13.045l-3-3a1.581,1.581,0,0,1,0-2.236l13.582-13.582a1.581,1.581,0,0,1,2.236,0l4.338,4.338,37.162-37.162a1.581,1.581,0,0,1,2.236,0l8.123,8.123a1.581,1.581,0,0,1,0,2.236L77.187,183.971l4.338,4.338a1.581,1.581,0,0,1,0,2.236L67.943,204.128a1.581,1.581,0,0,1-1.118.463Zm-3.613-6.775a1.581,1.581,0,0,1,1.118.463l2.5,2.5,11.347-11.347-4.338-4.338a1.581,1.581,0,0,1,0-2.236L111,145.692l-5.887-5.887L67.946,176.966a1.581,1.581,0,0,1-2.236,0l-4.338-4.338L50.026,183.975l2.5,2.5a1.581,1.581,0,0,1,.406,1.537,8.019,8.019,0,0,0,9.865,9.865,1.579,1.579,0,0,1,.419-.057Z" transform="translate(-46.209 -135.988)" fill="#231f20"/>
        </g>
        <g id="Group_1120806" data-name="Group 1120806" transform="translate(46.331 1.581)">
          <path id="Path_918755" data-name="Path 918755" d="M298,55.295c-8.184-8.184-13.153-9.233-13.153-9.233L266,64.9l3.2,3.2c1.407,1.407,4.79-.437,10.609,5.381s3.975,9.2,5.382,10.609l3.2,3.2,18.842-18.842S306.782,64.08,298,55.295Z" transform="translate(-266 -46.062)" fill="#efe4dc"/>
        </g>
        <g id="Group_1120807" data-name="Group 1120807" transform="translate(60.24 16.235)">
          <path id="Path_918756" data-name="Path 918756" d="M354.955,115.58c-5.566,6.178-15.545,10.407-22.968,12.873,5.69,5.753,3.88,9.1,5.279,10.5l3.2,3.2,18.842-18.842s-.263-2.57-4.351-7.732Z" transform="translate(-331.987 -115.58)" fill="#d9bba9"/>
        </g>
        <g id="Group_1120808" data-name="Group 1120808" transform="translate(44.75)">
          <path id="Path_918757" data-name="Path 918757" d="M282.467,82.953a1.576,1.576,0,0,1-1.118-.463l-3.2-3.2a4.851,4.851,0,0,1-1.165-2.916c-.285-1.753-.676-4.153-4.217-7.693s-5.941-3.931-7.693-4.216a4.851,4.851,0,0,1-2.916-1.165l-3.2-3.2a1.581,1.581,0,0,1,0-2.236l18.842-18.842a1.581,1.581,0,0,1,1.444-.429,15.278,15.278,0,0,1,3.961,1.719,48.427,48.427,0,0,1,9.983,7.943c8.926,8.926,9.636,13.606,9.688,14.11a1.581,1.581,0,0,1-.455,1.279L283.585,82.49A1.576,1.576,0,0,1,282.467,82.953Zm-20.15-23.967,2.08,2.08a4.476,4.476,0,0,0,1.188.28c1.93.314,5.16.84,9.421,5.1s4.787,7.491,5.1,9.421a4.478,4.478,0,0,0,.28,1.188l2.08,2.08,17.08-17.08c-.521-1.468-2.363-5.338-8.588-11.562a45.631,45.631,0,0,0-9.1-7.308,18.5,18.5,0,0,0-2.507-1.238Zm37.424,3.742h0Z" transform="translate(-258.5 -38.563)" fill="#231f20"/>
        </g>
        <g id="Group_1120809" data-name="Group 1120809" transform="translate(59.251 4.332)">
          <path id="Path_918758" data-name="Path 918758" d="M349.7,83.281c-.006-.041-.7-4.153-8.782-12.233-7.639-7.639-12.331-8.8-12.377-8.807a1.581,1.581,0,1,1,.669-3.09c.222.047,5.525,1.242,13.945,9.662,8.926,8.926,9.636,13.606,9.688,14.11l-3.145.322Z" transform="translate(-327.292 -59.115)" fill="#231f20"/>
        </g>
        <g id="Group_1120810" data-name="Group 1120810" transform="translate(55.765 7.818)">
          <path id="Path_918759" data-name="Path 918759" d="M333.164,99.816c-.006-.041-.7-4.153-8.782-12.233-7.639-7.639-12.331-8.8-12.377-8.807a1.581,1.581,0,1,1,.669-3.09c.222.047,5.525,1.242,13.945,9.662,8.926,8.926,9.636,13.606,9.688,14.11l-3.145.322Z" transform="translate(-310.757 -75.651)" fill="#231f20"/>
        </g>
        <g id="Group_1120811" data-name="Group 1120811" transform="translate(62.051 20.875)">
          <circle id="Ellipse_12017" data-name="Ellipse 12017" cx="3.107" cy="3.107" r="3.107" fill="#231f20"/>
        </g>
        <g id="Group_1120812" data-name="Group 1120812" transform="translate(8.543 63.45)">
          <path id="Path_918760" data-name="Path 918760" d="M95.311,356.714a8.574,8.574,0,1,1,6.062-2.511s0,0,0,0A8.517,8.517,0,0,1,95.311,356.714Zm0-13.984a5.411,5.411,0,1,0,3.826,9.237h0a5.411,5.411,0,0,0-3.826-9.237Z" transform="translate(-86.738 -339.568)" fill="#231f20"/>
        </g>
        <g id="Group_1120813" data-name="Group 1120813" transform="translate(6.018 60.925)">
          <path id="Path_918761" data-name="Path 918761" d="M80.912,335.323a1.576,1.576,0,0,1-1.118-.463l-4.573-4.573a1.581,1.581,0,0,1,2.236-2.236l4.573,4.573a1.581,1.581,0,0,1-1.118,2.7Z" transform="translate(-74.758 -327.588)" fill="#231f20"/>
        </g>
        <g id="Group_1120814" data-name="Group 1120814" transform="translate(20.479 75.387)">
          <path id="Path_918762" data-name="Path 918762" d="M149.518,403.93a1.576,1.576,0,0,1-1.118-.463l-4.574-4.574a1.581,1.581,0,0,1,2.236-2.236l4.574,4.574a1.581,1.581,0,0,1-1.118,2.7Z" transform="translate(-143.363 -396.194)" fill="#231f20"/>
        </g>
        <g id="Group_1120815" data-name="Group 1120815" transform="translate(27.009 31.175)">
          <path id="Path_918763" data-name="Path 918763" d="M175.921,217.411a1.581,1.581,0,0,1-1.118-2.7L202.6,186.919a1.581,1.581,0,0,1,2.236,2.236l-27.794,27.794a1.576,1.576,0,0,1-1.118.463Z" transform="translate(-174.34 -186.456)" fill="#231f20"/>
        </g>
      </g>
      <g id="Group_1120832" data-name="Group 1120832" transform="translate(30.474 38.563)">
        <g id="Group_1120818" data-name="Group 1120818" transform="translate(22.21 22.117)">
          <g id="Group_1120817" data-name="Group 1120817">
            <path id="Path_918764" data-name="Path 918764" d="M168.663,195.346l13.582,13.582,3.613-3.613a9.6,9.6,0,0,0,11.809-11.809l3.613-3.613L187.7,176.31l-5.456,5.456-38.28-38.28-8.123,8.123,38.28,38.28Zm12.138,2.991a6.992,6.992,0,1,1,9.888,0A6.992,6.992,0,0,1,180.8,198.337Z" transform="translate(-135.839 -143.487)" fill="#e6e7e8"/>
          </g>
        </g>
        <g id="Group_1120819" data-name="Group 1120819" transform="translate(20.629 20.536)">
          <path id="Path_918765" data-name="Path 918765" d="M176.326,204.591a1.581,1.581,0,0,1-1.118-.463l-13.582-13.582a1.581,1.581,0,0,1,0-2.236l4.338-4.338L128.8,146.809a1.581,1.581,0,0,1,0-2.236l8.123-8.123a1.581,1.581,0,0,1,2.236,0l28.425,28.425a1.581,1.581,0,1,1-2.236,2.236L138.043,139.8l-5.887,5.887,37.162,37.162a1.581,1.581,0,0,1,0,2.236l-4.338,4.338,11.347,11.347,2.5-2.5a1.58,1.58,0,0,1,1.537-.407,8.019,8.019,0,0,0,9.865-9.865,1.581,1.581,0,0,1,.406-1.537l2.5-2.5-11.347-11.347-4.338,4.338a1.581,1.581,0,0,1-2.236,0l-3.267-3.267a1.581,1.581,0,1,1,2.236-2.236l2.149,2.15,4.338-4.338a1.581,1.581,0,0,1,2.236,0l13.582,13.582a1.581,1.581,0,0,1,0,2.236l-3,3a11.179,11.179,0,0,1-13.045,13.045l-3,3a1.581,1.581,0,0,1-1.118.463Z" transform="translate(-128.339 -135.987)" fill="#231f20"/>
        </g>
        <g id="Group_1120820" data-name="Group 1120820" transform="translate(60.342 52.127)">
          <path id="Path_918766" data-name="Path 918766" d="M318.674,289.367a1.576,1.576,0,0,1-1.118-.463l-.356-.356a1.581,1.581,0,1,1,2.236-2.236l.356.356a1.581,1.581,0,0,1-1.118,2.7Z" transform="translate(-316.736 -285.849)" fill="#231f20"/>
        </g>
        <g id="Group_1120821" data-name="Group 1120821" transform="translate(1.674 1.581)">
          <path id="Path_918767" data-name="Path 918767" d="M47.647,55.295C55.831,47.11,60.8,46.062,60.8,46.062L79.643,64.9l-3.2,3.2c-1.407,1.407-4.79-.437-10.609,5.381s-3.975,9.2-5.382,10.609l-3.2,3.2L38.414,68.448s.447-4.367,9.233-13.153Z" transform="translate(-38.414 -46.062)" fill="#ced7db"/>
        </g>
        <g id="Group_1120822" data-name="Group 1120822" transform="translate(9.461 16.473)">
          <path id="Path_918768" data-name="Path 918768" d="M105.6,123.859l3.2-3.2-3.95-3.95c-7.093,8.48-22.578,13.421-29.491,15.281l11.055,11.055,3.2-3.2c1.407-1.407-.437-4.79,5.382-10.609s9.2-3.974,10.609-5.381Z" transform="translate(-75.356 -116.711)" fill="#859ca6"/>
        </g>
        <g id="Group_1120823" data-name="Group 1120823" transform="translate(4.698 14.016)">
          <path id="Path_918769" data-name="Path 918769" d="M54.34,108.537a1.581,1.581,0,0,1-1.23-2.573l.267-.329a1.581,1.581,0,0,1,2.446,2l-.251.309A1.578,1.578,0,0,1,54.34,108.537Z" transform="translate(-52.76 -105.055)" fill="#231f20"/>
        </g>
        <g id="Group_1120824" data-name="Group 1120824" transform="translate(0)">
          <path id="Path_918770" data-name="Path 918770" d="M50.99,82.953a1.576,1.576,0,0,1-1.118-.463L31.093,63.71c-1.639-1.393.387-4.442,1.375-5.928a1.581,1.581,0,1,1,2.633,1.75,13.649,13.649,0,0,0-1.341,2.374l17.23,17.23,2.08-2.08a4.474,4.474,0,0,0,.28-1.188c.314-1.93.84-5.16,5.1-9.421s7.491-4.787,9.421-5.1a4.479,4.479,0,0,0,1.188-.28l2.08-2.08L54.1,41.95c-1.616.638-5.743,2.683-11.605,8.545-.617.617-.965.974-.969.979a1.581,1.581,0,0,1-2.265-2.206s.359-.369,1-1.008a48.422,48.422,0,0,1,9.983-7.942A15.278,15.278,0,0,1,54.207,38.6a1.582,1.582,0,0,1,1.444.429L74.494,57.868a1.581,1.581,0,0,1,0,2.236l-3.2,3.2a4.851,4.851,0,0,1-2.916,1.165c-1.753.285-4.153.676-7.693,4.216s-3.931,5.941-4.216,7.693a4.852,4.852,0,0,1-1.165,2.916l-3.2,3.2A1.576,1.576,0,0,1,50.99,82.953ZM33.135,61.3h0Zm-.069-.052.068.052C33.112,61.277,33.09,61.26,33.066,61.243Zm0,0,0,0Zm0,0,0,0Zm0,0,0,0Z" transform="translate(-30.474 -38.563)" fill="#231f20"/>
        </g>
        <g id="Group_1120825" data-name="Group 1120825" transform="translate(4.434 4.332)">
          <path id="Path_918771" data-name="Path 918771" d="M54.649,83.28l0-.037-3.145-.322c.052-.5.762-5.184,9.688-14.11,8.419-8.419,13.723-9.615,13.945-9.662a1.581,1.581,0,1,1,.653,3.094c-.031.007-4.723,1.165-12.362,8.8C55.351,79.127,54.655,83.239,54.649,83.28Z" transform="translate(-51.508 -59.114)" fill="#231f20"/>
        </g>
        <g id="Group_1120826" data-name="Group 1120826" transform="translate(7.919 7.818)">
          <path id="Path_918772" data-name="Path 918772" d="M71.185,99.815l0-.037-3.145-.322c.052-.5.762-5.184,9.688-14.11,8.419-8.419,13.723-9.615,13.945-9.662a1.581,1.581,0,1,1,.653,3.094c-.031.007-4.723,1.165-12.362,8.8-8.081,8.081-8.776,12.193-8.782,12.233Z" transform="translate(-68.044 -75.649)" fill="#231f20"/>
        </g>
        <g id="Group_1120827" data-name="Group 1120827" transform="translate(20.968 20.875)">
          <circle id="Ellipse_12018" data-name="Ellipse 12018" cx="3.107" cy="3.107" r="3.107" fill="#231f20"/>
        </g>
        <g id="Group_1120828" data-name="Group 1120828" transform="translate(63.543 63.454)">
          <path id="Path_918773" data-name="Path 918773" d="M340.494,356.73a8.573,8.573,0,1,1,6.062-2.511A8.517,8.517,0,0,1,340.494,356.73Zm0-13.982a5.407,5.407,0,1,0,3.826,1.582A5.394,5.394,0,0,0,340.494,342.748Z" transform="translate(-331.921 -339.588)" fill="#231f20"/>
        </g>
        <g id="Group_1120829" data-name="Group 1120829" transform="translate(75.48 60.925)">
          <path id="Path_918774" data-name="Path 918774" d="M390.127,335.323a1.581,1.581,0,0,1-1.118-2.7l4.573-4.573a1.581,1.581,0,0,1,2.236,2.236l-4.573,4.573A1.576,1.576,0,0,1,390.127,335.323Z" transform="translate(-388.546 -327.588)" fill="#231f20"/>
        </g>
        <g id="Group_1120830" data-name="Group 1120830" transform="translate(61.018 75.387)">
          <path id="Path_918775" data-name="Path 918775" d="M321.521,403.93a1.581,1.581,0,0,1-1.118-2.7l4.573-4.574a1.581,1.581,0,1,1,2.236,2.236l-4.573,4.574a1.576,1.576,0,0,1-1.118.463Z" transform="translate(-319.94 -396.194)" fill="#231f20"/>
        </g>
        <g id="Group_1120831" data-name="Group 1120831" transform="translate(31.268 31.175)">
          <path id="Path_918776" data-name="Path 918776" d="M208.183,217.411a1.576,1.576,0,0,1-1.118-.463l-27.794-27.794a1.581,1.581,0,0,1,2.236-2.236L209.3,214.712a1.581,1.581,0,0,1-1.118,2.7Z" transform="translate(-178.808 -186.455)" fill="#231f20"/>
        </g>
      </g>
    </g>
  </g>
</svg>
