<svg xmlns="http://www.w3.org/2000/svg" width="112.828" height="112.828" viewBox="0 0 112.828 112.828">
  <g id="Group_1120872" data-name="Group 1120872" transform="translate(-1289.923 -11451)">
    <rect id="Rectangle_409891" data-name="Rectangle 409891" width="112.828" height="112.828" transform="translate(1289.923 11451)" fill="none"/>
    <g id="Group_1120871" data-name="Group 1120871" transform="translate(1292.424 11454.5)">
      <path id="Path_918802" data-name="Path 918802" d="M97.4,44.177,88.99,42.861a2.139,2.139,0,0,1-1.683-1.413,35.916,35.916,0,0,0-1.535-3.7,2.136,2.136,0,0,1,.19-2.192l5.014-6.876a2.126,2.126,0,0,0-.214-2.756l-10-10a2.126,2.126,0,0,0-2.756-.214L71.135,20.73a2.14,2.14,0,0,1-2.194.19,35.914,35.914,0,0,0-3.7-1.535A2.139,2.139,0,0,1,63.831,17.7L62.515,9.3a2.126,2.126,0,0,0-2.1-1.8H46.278a2.126,2.126,0,0,0-2.1,1.8L42.861,17.7a2.139,2.139,0,0,1-1.413,1.683,35.914,35.914,0,0,0-3.7,1.535,2.14,2.14,0,0,1-2.194-.19l-6.874-5.014a2.126,2.126,0,0,0-2.756.214l-10,10a2.126,2.126,0,0,0-.214,2.756l5.014,6.876a2.136,2.136,0,0,1,.19,2.192,35.914,35.914,0,0,0-1.535,3.7A2.139,2.139,0,0,1,17.7,42.861L9.3,44.177a2.126,2.126,0,0,0-1.8,2.1V60.414a2.126,2.126,0,0,0,1.8,2.1L17.7,63.831a2.139,2.139,0,0,1,1.683,1.413,35.915,35.915,0,0,0,1.535,3.7,2.136,2.136,0,0,1-.19,2.192l-5.014,6.876a2.126,2.126,0,0,0,.214,2.756l10,10a2.126,2.126,0,0,0,2.756.214l6.874-5.014a2.14,2.14,0,0,1,2.194-.19,35.912,35.912,0,0,0,3.7,1.535,2.139,2.139,0,0,1,1.413,1.683L44.177,97.4a2.126,2.126,0,0,0,2.1,1.8H60.414a2.126,2.126,0,0,0,2.1-1.8l1.315-8.405a2.139,2.139,0,0,1,1.413-1.683,35.913,35.913,0,0,0,3.7-1.535,2.14,2.14,0,0,1,2.194.19l6.874,5.014a2.126,2.126,0,0,0,2.756-.214l10-10a2.126,2.126,0,0,0,.214-2.756l-5.014-6.876a2.136,2.136,0,0,1-.19-2.192,35.914,35.914,0,0,0,1.535-3.7,2.139,2.139,0,0,1,1.683-1.413L97.4,62.515a2.126,2.126,0,0,0,1.8-2.1V46.278A2.126,2.126,0,0,0,97.4,44.177ZM53.346,79.525A26.179,26.179,0,1,1,79.525,53.346,26.179,26.179,0,0,1,53.346,79.525Z" transform="translate(-0.001 0)" fill="#c5d3dd"/>
      <g id="Group_1120861" data-name="Group 1120861" transform="translate(54.879 7.5)">
        <path id="Path_918803" data-name="Path 918803" d="M266.413,9.3l1.315,8.4a2.139,2.139,0,0,0,1.414,1.683,35.72,35.72,0,0,1,3.7,1.535,2.139,2.139,0,0,0,2.193-.189l1.094-.8c-.478-.192-.96-.376-1.449-.548a2.138,2.138,0,0,1-1.414-1.683l-1.315-8.4a2.127,2.127,0,0,0-2.1-1.8h-5.535A2.127,2.127,0,0,1,266.413,9.3Z" transform="translate(-264.312 -7.5)" fill="#b6c4cf"/>
        <path id="Path_918804" data-name="Path 918804" d="M401.418,78.686l-8.4-1.315a2.139,2.139,0,0,1-1.683-1.414,35.732,35.732,0,0,0-1.535-3.7,2.139,2.139,0,0,1,.189-2.193L395,63.192a2.127,2.127,0,0,0-.214-2.757l-10-10a2.127,2.127,0,0,0-2.757-.214l-1.73,1.262,8.949,8.949a2.127,2.127,0,0,1,.214,2.757l-5.015,6.875a2.139,2.139,0,0,0-.189,2.193,35.745,35.745,0,0,1,1.535,3.7,2.139,2.139,0,0,0,1.683,1.414l8.4,1.315a2.127,2.127,0,0,1,1.8,2.1V94.923a2.127,2.127,0,0,1-1.8,2.1l-8.4,1.315a2.139,2.139,0,0,0-1.683,1.414,35.764,35.764,0,0,1-1.535,3.7,2.139,2.139,0,0,0,.189,2.193l5.015,6.875a2.127,2.127,0,0,1-.214,2.757l-8.949,8.949,1.73,1.262a2.126,2.126,0,0,0,2.757-.214l10-10a2.126,2.126,0,0,0,.214-2.757l-5.015-6.875a2.139,2.139,0,0,1-.189-2.193,35.73,35.73,0,0,0,1.535-3.7,2.139,2.139,0,0,1,1.683-1.414l8.4-1.315a2.127,2.127,0,0,0,1.8-2.1V80.787A2.127,2.127,0,0,0,401.418,78.686Z" transform="translate(-358.904 -42.009)" fill="#b6c4cf"/>
        <path id="Path_918805" data-name="Path 918805" d="M275.033,430.994a2.139,2.139,0,0,0-2.193-.189,35.748,35.748,0,0,1-3.7,1.535,2.138,2.138,0,0,0-1.414,1.683l-1.315,8.4a2.127,2.127,0,0,1-2.1,1.8h5.535a2.126,2.126,0,0,0,2.1-1.8l1.315-8.4a2.139,2.139,0,0,1,1.414-1.683c.488-.171.97-.356,1.449-.548Z" transform="translate(-264.314 -352.532)" fill="#b6c4cf"/>
      </g>
      <path id="Path_918806" data-name="Path 918806" d="M223.786,195.059a9.418,9.418,0,0,1-18.837,0c0-6.642,5.84-14.149,8.323-17.04a1.433,1.433,0,0,1,2.181.008C217.929,180.953,223.786,188.561,223.786,195.059Z" transform="translate(-161.022 -138.652)" fill="#918291"/>
      <path id="Path_918807" data-name="Path 918807" d="M244.769,178.028a1.433,1.433,0,0,0-2.181-.008c-.466.542-1.049,1.247-1.69,2.077,2.78,3.635,6.67,9.668,6.67,14.963a9.422,9.422,0,0,1-6.651,9,9.423,9.423,0,0,0,12.186-9C253.1,188.562,247.246,180.954,244.769,178.028Z" transform="translate(-190.339 -138.653)" fill="#7a6d79"/>
      <g id="Group_1120862" data-name="Group 1120862" transform="translate(49.471 18.474)">
        <path id="Path_918808" data-name="Path 918808" d="M242.749,73.625H235l.631-5.434a1.357,1.357,0,0,1,1.343-1.207h3.8a1.357,1.357,0,0,1,1.343,1.207Z" transform="translate(-235 -66.983)" fill="#7a6d79"/>
        <path id="Path_918809" data-name="Path 918809" d="M235,409.017h7.749l-.631,5.434a1.357,1.357,0,0,1-1.343,1.207h-3.8a1.357,1.357,0,0,1-1.343-1.207Z" transform="translate(-235 -345.915)" fill="#7a6d79"/>
      </g>
      <g id="Group_1120863" data-name="Group 1120863" transform="translate(26.95 26.951)">
        <path id="Path_918810" data-name="Path 918810" d="M354.83,122.1l-5.479-5.479,4.289-3.4a1.357,1.357,0,0,1,1.8.1l2.688,2.688a1.357,1.357,0,0,1,.1,1.8Z" transform="translate(-305.733 -112.931)" fill="#7a6d79"/>
        <path id="Path_918811" data-name="Path 918811" d="M116.623,349.35l5.479,5.479-4.289,3.4a1.357,1.357,0,0,1-1.8-.1l-2.688-2.688a1.357,1.357,0,0,1-.1-1.8Z" transform="translate(-112.93 -305.733)" fill="#7a6d79"/>
      </g>
      <g id="Group_1120864" data-name="Group 1120864" transform="translate(18.473 49.472)">
        <path id="Path_918812" data-name="Path 918812" d="M409.017,242.749V235l5.434.631a1.357,1.357,0,0,1,1.207,1.343v3.8a1.357,1.357,0,0,1-1.207,1.343Z" transform="translate(-345.915 -235)" fill="#7a6d79"/>
        <path id="Path_918813" data-name="Path 918813" d="M73.625,235v7.749l-5.434-.631a1.357,1.357,0,0,1-1.207-1.343v-3.8a1.357,1.357,0,0,1,1.207-1.343Z" transform="translate(-66.983 -235)" fill="#7a6d79"/>
      </g>
      <g id="Group_1120865" data-name="Group 1120865" transform="translate(26.95 26.951)">
        <path id="Path_918814" data-name="Path 918814" d="M349.35,354.83l5.479-5.479,3.4,4.289a1.357,1.357,0,0,1-.1,1.8l-2.688,2.688a1.357,1.357,0,0,1-1.8.1Z" transform="translate(-305.733 -305.733)" fill="#7a6d79"/>
        <path id="Path_918815" data-name="Path 918815" d="M122.1,116.623l-5.479,5.479-3.4-4.289a1.357,1.357,0,0,1,.1-1.8l2.688-2.688a1.357,1.357,0,0,1,1.8-.1Z" transform="translate(-112.931 -112.93)" fill="#7a6d79"/>
      </g>
      <path id="Path_918816" data-name="Path 918816" d="M128.049,99.1A28.946,28.946,0,1,0,157,128.049,28.979,28.979,0,0,0,128.049,99.1Zm0,52.357a23.411,23.411,0,1,1,23.411-23.411A23.438,23.438,0,0,1,128.049,151.46Z" transform="translate(-74.704 -74.703)" fill="#6cabca"/>
      <g id="Group_1120870" data-name="Group 1120870" transform="translate(7.499 7.5)">
        <path id="Path_918817" data-name="Path 918817" d="M223.786,195.059a9.418,9.418,0,0,1-18.837,0c0-6.642,5.84-14.149,8.323-17.04a1.433,1.433,0,0,1,2.181.008C217.929,180.953,223.786,188.561,223.786,195.059Z" transform="translate(-168.521 -146.153)" fill="none" stroke="#000" stroke-linecap="round" stroke-linejoin="round" stroke-miterlimit="10" stroke-width="2"/>
        <path id="Path_918818" data-name="Path 918818" d="M19.851,22l-3.922,3.922a2.127,2.127,0,0,0-.214,2.757l5.015,6.875a2.139,2.139,0,0,1,.189,2.193,35.74,35.74,0,0,0-1.535,3.7A2.138,2.138,0,0,1,17.7,42.862L9.3,44.177a2.127,2.127,0,0,0-1.8,2.1V60.415a2.127,2.127,0,0,0,1.8,2.1l8.4,1.315a2.139,2.139,0,0,1,1.683,1.414,35.739,35.739,0,0,0,1.535,3.7,2.139,2.139,0,0,1-.189,2.193L15.715,78.01a2.127,2.127,0,0,0,.214,2.757l10,10a2.127,2.127,0,0,0,2.757.214l6.875-5.015a2.139,2.139,0,0,1,2.193-.189,35.74,35.74,0,0,0,3.7,1.535,2.138,2.138,0,0,1,1.414,1.683l1.315,8.4a2.127,2.127,0,0,0,2.1,1.8H60.413a2.127,2.127,0,0,0,2.1-1.8l1.315-8.4a2.139,2.139,0,0,1,1.414-1.683,35.74,35.74,0,0,0,3.7-1.535,2.139,2.139,0,0,1,2.193.189l6.875,5.015a2.127,2.127,0,0,0,2.757-.214l10-10a2.127,2.127,0,0,0,.214-2.757l-5.015-6.875a2.139,2.139,0,0,1-.189-2.193,35.742,35.742,0,0,0,1.535-3.7,2.138,2.138,0,0,1,1.683-1.414l8.4-1.315a2.127,2.127,0,0,0,1.8-2.1V46.279a2.127,2.127,0,0,0-1.8-2.1l-8.4-1.315a2.139,2.139,0,0,1-1.683-1.414,35.742,35.742,0,0,0-1.535-3.7,2.139,2.139,0,0,1,.189-2.193l5.015-6.875a2.127,2.127,0,0,0-.214-2.757l-10-10a2.127,2.127,0,0,0-2.757-.214l-6.875,5.015a2.139,2.139,0,0,1-2.193.189,35.74,35.74,0,0,0-3.7-1.535A2.138,2.138,0,0,1,63.83,17.7L62.514,9.3a2.127,2.127,0,0,0-2.1-1.8H46.277a2.127,2.127,0,0,0-2.1,1.8l-1.315,8.4a2.139,2.139,0,0,1-1.414,1.683,35.74,35.74,0,0,0-3.7,1.535,2.139,2.139,0,0,1-2.193-.189l-6.875-5.015a2.127,2.127,0,0,0-2.757.214L24.4,17.457" transform="translate(-7.499 -7.501)" fill="none" stroke="#000" stroke-linecap="round" stroke-linejoin="round" stroke-miterlimit="10" stroke-width="2"/>
        <g id="Group_1120866" data-name="Group 1120866" transform="translate(42.048 10.973)">
          <path id="Path_918819" data-name="Path 918819" d="M235.41,72.969l.555-4.78a1.358,1.358,0,0,1,1.343-1.208h3.8a1.358,1.358,0,0,1,1.343,1.208l.555,4.78" transform="translate(-235.41 -66.98)" fill="none" stroke="#000" stroke-linecap="round" stroke-linejoin="round" stroke-miterlimit="10" stroke-width="2"/>
          <path id="Path_918820" data-name="Path 918820" d="M235.41,412.56l.555,4.78a1.358,1.358,0,0,0,1.343,1.208h3.8a1.358,1.358,0,0,0,1.343-1.208l.555-4.78" transform="translate(-235.41 -348.804)" fill="none" stroke="#000" stroke-linecap="round" stroke-linejoin="round" stroke-miterlimit="10" stroke-width="2"/>
        </g>
        <g id="Group_1120867" data-name="Group 1120867" transform="translate(19.451 19.451)">
          <path id="Path_918821" data-name="Path 918821" d="M352.09,116.223l3.784-3a1.356,1.356,0,0,1,1.8.1l2.688,2.688a1.356,1.356,0,0,1,.1,1.8l-3,3.784" transform="translate(-307.967 -112.93)" fill="none" stroke="#000" stroke-linecap="round" stroke-linejoin="round" stroke-miterlimit="10" stroke-width="2"/>
          <path id="Path_918822" data-name="Path 918822" d="M116.223,352.09l-3,3.784a1.356,1.356,0,0,0,.1,1.8l2.688,2.688a1.356,1.356,0,0,0,1.8.1l3.784-3" transform="translate(-112.93 -307.967)" fill="none" stroke="#000" stroke-linecap="round" stroke-linejoin="round" stroke-miterlimit="10" stroke-width="2"/>
        </g>
        <g id="Group_1120868" data-name="Group 1120868" transform="translate(10.974 42.047)">
          <path id="Path_918823" data-name="Path 918823" d="M412.56,235.41l4.78.555a1.358,1.358,0,0,1,1.208,1.343v3.8a1.358,1.358,0,0,1-1.208,1.343l-4.78.555" transform="translate(-348.804 -235.41)" fill="none" stroke="#000" stroke-linecap="round" stroke-linejoin="round" stroke-miterlimit="10" stroke-width="2"/>
          <path id="Path_918824" data-name="Path 918824" d="M72.969,243.007l-4.78-.555a1.358,1.358,0,0,1-1.208-1.343v-3.8a1.358,1.358,0,0,1,1.208-1.343l4.78-.555" transform="translate(-66.98 -235.41)" fill="none" stroke="#000" stroke-linecap="round" stroke-linejoin="round" stroke-miterlimit="10" stroke-width="2"/>
        </g>
        <g id="Group_1120869" data-name="Group 1120869" transform="translate(19.451 19.451)">
          <path id="Path_918825" data-name="Path 918825" d="M357.464,352.09l3,3.784a1.356,1.356,0,0,1-.1,1.8l-2.688,2.688a1.356,1.356,0,0,1-1.8.1l-3.784-3" transform="translate(-307.967 -307.967)" fill="none" stroke="#000" stroke-linecap="round" stroke-linejoin="round" stroke-miterlimit="10" stroke-width="2"/>
          <path id="Path_918826" data-name="Path 918826" d="M116.223,121.6l-3-3.784a1.356,1.356,0,0,1,.1-1.8l2.688-2.688a1.356,1.356,0,0,1,1.8-.1l3.784,3" transform="translate(-112.93 -112.93)" fill="none" stroke="#000" stroke-linecap="round" stroke-linejoin="round" stroke-miterlimit="10" stroke-width="2"/>
        </g>
        <circle id="Ellipse_12020" data-name="Ellipse 12020" cx="28.946" cy="28.946" r="28.946" transform="translate(16.9 16.9)" fill="none" stroke="#000" stroke-linecap="round" stroke-linejoin="round" stroke-miterlimit="10" stroke-width="2"/>
        <path id="Path_918827" data-name="Path 918827" d="M159.872,174.742a23.47,23.47,0,1,1,5.915-2.951" transform="translate(-106.668 -106.669)" fill="none" stroke="#000" stroke-linecap="round" stroke-linejoin="round" stroke-miterlimit="10" stroke-width="2"/>
      </g>
    </g>
  </g>
</svg>
