<svg xmlns="http://www.w3.org/2000/svg" width="90" height="90" viewBox="0 0 90 90">
  <g id="Group_1121564" data-name="Group 1121564" transform="translate(-610.051 -1010.428)">
    <g id="Group_1119982" data-name="Group 1119982" transform="translate(0 -1.572)">
      <rect id="Rectangle_409889" data-name="Rectangle 409889" width="90" height="90" transform="translate(610.051 1012)" fill="none"/>
      <g id="Group_1119981" data-name="Group 1119981" transform="translate(619.958 1022)">
        <path id="Path_915780" data-name="Path 915780" d="M239.872,79.627,221.214,62.772a2.141,2.141,0,0,0-1.475-.589H201.311a2.141,2.141,0,0,0-2.141,2.141V82.38h3.679a2.793,2.793,0,0,1,.363.026V69.382a1.723,1.723,0,0,1,1.723-1.723h14.23a1.723,1.723,0,0,1,1.187.474L235.96,82.567a1.723,1.723,0,0,1,.536,1.249v32.077a1.723,1.723,0,0,1-1.723,1.723H205.635v1.729a2.785,2.785,0,0,1-2.785,2.785H238.4a2.141,2.141,0,0,0,2.141-2.141V81.179A2.141,2.141,0,0,0,239.872,79.627Z" transform="translate(-172.097 -53.755)" fill="#016ef1"/>
        <path id="Path_915781" data-name="Path 915781" d="M231.422,120.1v32.45H260.56a1.723,1.723,0,0,0,1.723-1.723V118.745a1.722,1.722,0,0,0-.536-1.249L246.14,103.063a1.723,1.723,0,0,0-1.187-.474h-14.23A1.723,1.723,0,0,0,229,104.312v13.024A2.784,2.784,0,0,1,231.422,120.1Z" transform="translate(-197.884 -88.685)" fill="#d8d8da"/>
        <g id="Group_1119977" data-name="Group 1119977" transform="translate(27.073 23.698)">
          <path id="Path_915782" data-name="Path 915782" d="M233.122,472.576v-1.384H229.1v1.729a2.785,2.785,0,0,1-2.785,2.785h3.674A3.13,3.13,0,0,0,233.122,472.576Z" transform="translate(-222.639 -431.031)" fill="#004fae"/>
          <path id="Path_915783" data-name="Path 915783" d="M202.848,179.786a2.788,2.788,0,0,1,.363.026V174.86h-4.043v4.926Z" transform="translate(-199.169 -174.86)" fill="#004fae"/>
        </g>
        <path id="Path_915784" data-name="Path 915784" d="M231.421,182.573v32.45h4.019V181.161a6.3,6.3,0,0,0-6.3-6.3H229v4.953A2.784,2.784,0,0,1,231.421,182.573Z" transform="translate(-197.883 -151.163)" fill="#acabb1"/>
        <path id="Path_915785" data-name="Path 915785" d="M37.6,211.234a2.793,2.793,0,0,0-.363-.026H10.376a2.785,2.785,0,0,0-2.785,2.785v34.179a2.785,2.785,0,0,0,2.785,2.785H37.235a2.785,2.785,0,0,0,2.785-2.785V213.993A2.784,2.784,0,0,0,37.6,211.234Z" transform="translate(-6.482 -182.583)" fill="#ff3502"/>
        <rect id="Rectangle_410746" data-name="Rectangle 410746" width="32.429" height="20.366" transform="translate(1.109 38.401)" fill="#d8d8da"/>
        <g id="Group_1119978" data-name="Group 1119978" transform="translate(10.882 1.016)">
          <rect id="Rectangle_410747" data-name="Rectangle 410747" width="15.595" height="7.411" transform="translate(18.932)" fill="#77767e"/>
          <rect id="Rectangle_410748" data-name="Rectangle 410748" width="12.883" height="6.897" transform="translate(0 20.711)" fill="#77767e"/>
        </g>
        <path id="Path_915786" data-name="Path 915786" d="M319.46,223.89s-5.068,10.249-5.068,13.9a5.068,5.068,0,1,0,10.137,0C324.529,234.222,319.46,223.89,319.46,223.89Z" transform="translate(-271.703 -193.547)" fill="#fff"/>
        <g id="Group_1119979" data-name="Group 1119979" transform="translate(1.109 28.625)">
          <path id="Path_915787" data-name="Path 915787" d="M12.147,440.438v-6.821H7.592v6.821a2.785,2.785,0,0,0,2.785,2.785h4.555A2.785,2.785,0,0,1,12.147,440.438Z" transform="translate(-7.592 -403.475)" fill="#cd2a01"/>
          <path id="Path_915788" data-name="Path 915788" d="M12.146,213.994a2.785,2.785,0,0,1,2.785-2.785H10.376a2.785,2.785,0,0,0-2.785,2.785v6.991h4.555S12.146,213.994,12.146,213.994Z" transform="translate(-7.591 -211.209)" fill="#cd2a01"/>
        </g>
        <rect id="Rectangle_410749" data-name="Rectangle 410749" width="4.555" height="20.366" transform="translate(1.109 38.401)" fill="#acabb1"/>
        <path id="Path_915789" data-name="Path 915789" d="M69.076,440.44v-6.821H41.2v6.821a2.785,2.785,0,0,0,2.785,2.785h22.3A2.786,2.786,0,0,0,69.076,440.44Z" transform="translate(-35.538 -374.852)" fill="#ff3502"/>
        <path id="Path_915790" data-name="Path 915790" d="M107.513,321.2s-3.091,6.251-3.091,8.481a3.091,3.091,0,0,0,6.183,0C110.6,327.5,107.513,321.2,107.513,321.2Z" transform="translate(-90.19 -277.664)" fill="#fff"/>
        <path id="Path_915791" data-name="Path 915791" d="M312.978,229.211a6.091,6.091,0,0,0,6.084-6.085c0-3.7-4.643-13.273-5.172-14.353l-.909-1.852-.915,1.849c-.53,1.071-5.174,10.572-5.174,14.355A6.092,6.092,0,0,0,312.978,229.211Zm0-17.624c1.629,3.535,4.055,9.286,4.055,11.539a4.052,4.052,0,1,1-8.1,0C308.925,220.823,311.346,215.1,312.975,211.588Z" transform="translate(-265.22 -178.878)"/>
        <path id="Path_915792" data-name="Path 915792" d="M101.031,319.114a4.112,4.112,0,0,0,4.107-4.107c0-2.347-2.868-8.261-3.195-8.928l-.909-1.852-.915,1.849c-.327.662-3.2,6.533-3.2,8.931A4.112,4.112,0,0,0,101.031,319.114Zm0-10.191c1.016,2.279,2.078,5.006,2.078,6.084a2.075,2.075,0,1,1-4.15,0C98.956,313.9,100.014,311.188,101.029,308.923Z" transform="translate(-83.708 -262.995)"/>
        <rect id="Rectangle_410750" data-name="Rectangle 410750" width="22.481" height="2.032" transform="translate(36.517 58.337)"/>
        <rect id="Rectangle_410751" data-name="Rectangle 410751" width="22.481" height="2.032" transform="translate(36.517 54.49)"/>
        <rect id="Rectangle_410752" data-name="Rectangle 410752" width="2.295" height="2.032" transform="translate(35.662 19.888)"/>
        <rect id="Rectangle_410753" data-name="Rectangle 410753" width="2.295" height="2.032" transform="translate(40.099 19.888)"/>
        <path id="Path_915793" data-name="Path 915793" d="M68.476,25.135,49.807,8.271a3.145,3.145,0,0,0-2.165-.859H46.424V0H28.8V7.44a3.162,3.162,0,0,0-2.74,3.129v17.04H24.781v-6.9H9.866v6.9H3.895a3.806,3.806,0,0,0-3.8,3.8V65.589a3.806,3.806,0,0,0,3.8,3.8H66.3a3.161,3.161,0,0,0,3.158-3.157V27.423A3.17,3.17,0,0,0,68.476,25.135ZM30.829,2.032H44.391V3.705H30.829Zm0,3.706H44.391V7.411H30.829ZM21.771,22.743h.978v4.865h-.978Zm-3.431,0h1.4v4.865h-1.4Zm-3.431,0h1.4v4.865h-1.4Zm-3.01,0h.978v4.865H11.9Zm20.623,40.1v2.745a1.771,1.771,0,0,1-1.769,1.769H3.895a1.771,1.771,0,0,1-1.769-1.769V59.783h30.4v3.06Zm0-5.092H2.125V39.417h30.4V57.751Zm0-20.367H2.125V31.41a1.771,1.771,0,0,1,1.769-1.769H30.753a1.791,1.791,0,0,1,1.769,1.769v5.975Zm1.5-7.908q-.063-.106-.133-.207l-.026-.037c-.049-.069-.1-.137-.151-.2l-.006-.007c-.052-.064-.107-.127-.163-.187l-.026-.029q-.085-.09-.175-.174l-.033-.03c-.062-.057-.126-.112-.192-.165l-.01-.007c-.065-.051-.132-.1-.2-.148l-.03-.021c-.069-.046-.139-.091-.211-.133l-.04-.023c-.074-.042-.149-.082-.226-.119l-.015-.007c-.075-.036-.151-.068-.228-.1l-.023-.01V15.626a.707.707,0,0,1,.707-.707h14.23a.7.7,0,0,1,.487.194L63.167,29.551a.71.71,0,0,1,.216.509V62.137a.708.708,0,0,1-.707.707H34.554V31.41c0-.09,0-.178-.01-.267,0-.016,0-.032,0-.048q-.011-.127-.029-.251c0-.016-.005-.032-.008-.048-.014-.086-.03-.171-.05-.254v0c-.02-.083-.043-.165-.068-.246l-.013-.043q-.038-.118-.084-.233l-.018-.044c-.032-.078-.066-.156-.1-.232l0-.007c-.037-.075-.077-.148-.119-.22Zm33.4,36.756A1.127,1.127,0,0,1,66.3,67.358H34.117c.007-.014.014-.028.021-.042.021-.042.042-.084.062-.127l.031-.069c.019-.042.036-.084.053-.127.009-.023.018-.045.027-.068.019-.05.036-.1.053-.151.005-.016.011-.031.016-.047q.031-.1.057-.2c0-.018.009-.037.013-.056.012-.05.023-.1.033-.152,0-.025.009-.05.014-.075.008-.046.015-.092.022-.139,0-.026.007-.052.01-.079.006-.049.01-.1.014-.148,0-.023,0-.046.005-.069,0-.073.007-.146.007-.219v-.713H62.676a2.742,2.742,0,0,0,2.739-2.739V30.059a2.751,2.751,0,0,0-.852-1.985L48.951,13.636a2.73,2.73,0,0,0-1.882-.749H32.839A2.742,2.742,0,0,0,30.1,15.626V27.609H28.089V10.569a1.127,1.127,0,0,1,1.125-1.125H47.641a1.122,1.122,0,0,1,.775.31L67.084,26.615a1.131,1.131,0,0,1,.342.808V66.233Z"/>
        <rect id="Rectangle_410754" data-name="Rectangle 410754" width="15.877" height="2.032" transform="translate(9.385 31.125)"/>
        <g id="Group_1119980" data-name="Group 1119980" transform="translate(19.602 61.524)">
          <rect id="Rectangle_410755" data-name="Rectangle 410755" width="2.964" height="2.032" transform="translate(0 2.725)" fill="#fff"/>
          <path id="Path_915794" data-name="Path 915794" d="M179.306,458.715h-4.027v-2.032h4.027a1.274,1.274,0,0,0,1.2-1.333v-1.391h2.032v1.391A3.305,3.305,0,0,1,179.306,458.715Z" transform="translate(-171.045 -453.958)" fill="#fff"/>
        </g>
      </g>
    </g>
  </g>
</svg>
