<svg xmlns="http://www.w3.org/2000/svg" width="125" height="125" viewBox="0 0 125 125">
  <g id="Group_1121564" data-name="Group 1121564" transform="translate(-580 -878.081)">
    <circle id="Ellipse_11953" data-name="Ellipse 11953" cx="62.5" cy="62.5" r="62.5" transform="translate(580 878.081)" fill="#e8e8e8"/>
    <g id="Group_1120883" data-name="Group 1120883" transform="translate(0 -21.851)">
      <g id="Group_1120013" data-name="Group 1120013" transform="translate(610.326 889.75)">
        <g id="Group_1120007" data-name="Group 1120007" transform="translate(3.734 76.74)">
          <rect id="Rectangle_410762" data-name="Rectangle 410762" width="18.581" height="4.361" transform="translate(0 10.839)" fill="#a9adbf"/>
          <rect id="Rectangle_410763" data-name="Rectangle 410763" width="18.581" height="4.361" transform="translate(39.204 10.839)" fill="#a9adbf"/>
          <rect id="Rectangle_410764" data-name="Rectangle 410764" width="18.581" height="4.361" transform="translate(20.622)" fill="#a9adbf"/>
        </g>
        <g id="Group_1120008" data-name="Group 1120008" transform="translate(3.734 78.824)">
          <rect id="Rectangle_410765" data-name="Rectangle 410765" width="18.581" height="2.277" transform="translate(0 10.839)" fill="#828aa0"/>
          <rect id="Rectangle_410766" data-name="Rectangle 410766" width="18.581" height="2.277" transform="translate(39.204 10.839)" fill="#828aa0"/>
          <rect id="Rectangle_410767" data-name="Rectangle 410767" width="18.581" height="2.277" transform="translate(20.622)" fill="#828aa0"/>
        </g>
        <g id="Group_1120009" data-name="Group 1120009" transform="translate(0.898 61.668)">
          <path id="Path_915835" data-name="Path 915835" d="M8.42,354.922A1.422,1.422,0,0,1,7,353.5V344.67a1.422,1.422,0,0,1,1.42-1.42h2.034a1.422,1.422,0,0,1,1.42,1.42V353.5a1.422,1.422,0,0,1-1.42,1.42Z" transform="translate(-7 -321.444)" fill="#5b5d6e"/>
          <path id="Path_915836" data-name="Path 915836" d="M377.72,284.1a2.294,2.294,0,0,1-2.283-2.3v-3.276h-1.124A1.314,1.314,0,0,1,373,277.2v-3.915a1.314,1.314,0,0,1,1.313-1.313h1.124v-9.684l-1.176-4.04h7.1l-1.438,4.042v9.682h1.124a1.314,1.314,0,0,1,1.313,1.313V277.2a1.314,1.314,0,0,1-1.313,1.313h-1.124v3.335A2.247,2.247,0,0,1,377.72,284.1Z" transform="translate(-326.053 -247.347)" fill="#5b5d6e"/>
          <path id="Path_915837" data-name="Path 915837" d="M227.335,199.1a2.294,2.294,0,0,1-2.283-2.3v-3.276h-.739A1.314,1.314,0,0,1,223,192.2v-3.915a1.314,1.314,0,0,1,1.313-1.313h.739v-9.682l-1.438-4.042h7.1l-1.176,4.04v9.684h.611a1.314,1.314,0,0,1,1.313,1.313V192.2a1.314,1.314,0,0,1-1.313,1.313h-.611v3.335A2.247,2.247,0,0,1,227.335,199.1Z" transform="translate(-195.294 -173.25)" fill="#5b5d6e"/>
          <path id="Path_915838" data-name="Path 915838" d="M72.72,284.1a2.294,2.294,0,0,1-2.283-2.3v-3.275H69.313A1.314,1.314,0,0,1,68,277.2v-3.915a1.314,1.314,0,0,1,1.313-1.313h1.124v-9.682L69,258.25h7.1l-1.176,4.04v9.684H76.05a1.314,1.314,0,0,1,1.313,1.313V277.2a1.314,1.314,0,0,1-1.313,1.313H74.927v3.335A2.247,2.247,0,0,1,72.72,284.1Z" transform="translate(-60.176 -247.347)" fill="#5b5d6e"/>
        </g>
        <g id="Group_1120010" data-name="Group 1120010" transform="translate(8.722 61.668)">
          <path id="Path_915839" data-name="Path 915839" d="M72.3,258.25H69l1.438,4.042v9.682H69.313A1.313,1.313,0,0,0,68,273.288V277.2a1.313,1.313,0,0,0,1.313,1.313h1.124v3.276A2.312,2.312,0,0,0,72.3,284.06Z" transform="translate(-68 -247.347)" fill="#3c3f4f"/>
          <path id="Path_915840" data-name="Path 915840" d="M227.233,173.25h-3.618l1.438,4.042v9.682h-.739A1.313,1.313,0,0,0,223,188.288V192.2a1.313,1.313,0,0,0,1.313,1.313h.739v3.275a2.3,2.3,0,0,0,2.181,2.3Z" transform="translate(-203.118 -173.25)" fill="#3c3f4f"/>
          <path id="Path_915841" data-name="Path 915841" d="M377.682,258.25h-3.421l1.176,4.04v9.684h-1.124A1.313,1.313,0,0,0,373,273.288V277.2a1.313,1.313,0,0,0,1.313,1.313h1.124v3.276a2.3,2.3,0,0,0,2.245,2.3Z" transform="translate(-333.878 -247.347)" fill="#3c3f4f"/>
        </g>
        <path id="Path_915842" data-name="Path 915842" d="M349.877,152.835a.877.877,0,0,1-.877-.877V139.965a2.878,2.878,0,0,1,3.012-2.715h9.5a2.878,2.878,0,0,1,3.012,2.715v11.993a.877.877,0,0,1-.877.877Z" transform="translate(-304.234 -80.199)" fill="#c7cfe2"/>
        <path id="Path_915843" data-name="Path 915843" d="M355.8,151.958V139.965a2.878,2.878,0,0,1,3.012-2.715h-6.8A2.878,2.878,0,0,0,349,139.965v11.993a.877.877,0,0,0,.877.877h6.8A.877.877,0,0,1,355.8,151.958Z" transform="translate(-304.234 -80.199)" fill="#a9adbf"/>
        <rect id="Rectangle_410768" data-name="Rectangle 410768" width="15.594" height="3.544" transform="translate(44.887 61.828)" fill="#5b5d6e"/>
        <rect id="Rectangle_410769" data-name="Rectangle 410769" width="6.379" height="3.544" transform="translate(44.887 61.828)" fill="#3c3f4f"/>
        <path id="Path_915844" data-name="Path 915844" d="M196.877,67.835a.877.877,0,0,1-.877-.877V54.965a2.878,2.878,0,0,1,3.012-2.715h9.5a2.878,2.878,0,0,1,3.012,2.715V66.958a.877.877,0,0,1-.877.877Z" transform="translate(-170.859 -6.102)" fill="#c7cfe2"/>
        <path id="Path_915845" data-name="Path 915845" d="M202.8,66.958V54.965a2.878,2.878,0,0,1,3.012-2.715h-6.8A2.878,2.878,0,0,0,196,54.965V66.958a.877.877,0,0,0,.877.877h6.8A.877.877,0,0,1,202.8,66.958Z" transform="translate(-170.859 -6.102)" fill="#a9adbf"/>
        <rect id="Rectangle_410770" data-name="Rectangle 410770" width="15.594" height="2.835" transform="translate(25.04 51.195)" fill="#5b5d6e"/>
        <rect id="Rectangle_410771" data-name="Rectangle 410771" width="7.088" height="2.835" transform="translate(25.04 51.195)" fill="#3c3f4f"/>
        <path id="Path_915846" data-name="Path 915846" d="M44.877,152.835a.877.877,0,0,1-.877-.877V139.965a2.878,2.878,0,0,1,3.012-2.715h9.5a2.878,2.878,0,0,1,3.012,2.715v11.993a.877.877,0,0,1-.877.877Z" transform="translate(-38.356 -80.199)" fill="#c7cfe2"/>
        <path id="Path_915847" data-name="Path 915847" d="M50.8,151.958V139.965a2.878,2.878,0,0,1,3.012-2.715h-6.8A2.878,2.878,0,0,0,44,139.965v11.993a.877.877,0,0,0,.877.877h6.8A.877.877,0,0,1,50.8,151.958Z" transform="translate(-38.356 -80.199)" fill="#a9adbf"/>
        <rect id="Rectangle_410772" data-name="Rectangle 410772" width="15.594" height="3.544" transform="translate(5.902 61.828)" fill="#5b5d6e"/>
        <rect id="Rectangle_410773" data-name="Rectangle 410773" width="6.379" height="3.544" transform="translate(5.902 61.828)" fill="#3c3f4f"/>
        <g id="Group_1120011" data-name="Group 1120011" transform="translate(20.78 75.842)">
          <path id="Path_915848" data-name="Path 915848" d="M314.42,300.938a1.422,1.422,0,0,1-1.42-1.42V285.17a1.422,1.422,0,0,1,1.42-1.42h2.034a1.422,1.422,0,0,1,1.42,1.42v14.347a1.422,1.422,0,0,1-1.42,1.42Z" transform="translate(-293.631 -283.75)" fill="#5b5d6e"/>
          <path id="Path_915849" data-name="Path 915849" d="M163.42,300.938a1.422,1.422,0,0,1-1.42-1.42V285.17a1.422,1.422,0,0,1,1.42-1.42h2.034a1.422,1.422,0,0,1,1.42,1.42v14.347a1.422,1.422,0,0,1-1.42,1.42Z" transform="translate(-162 -283.75)" fill="#5b5d6e"/>
          <path id="Path_915850" data-name="Path 915850" d="M468.42,354.922A1.422,1.422,0,0,1,467,353.5V344.67a1.422,1.422,0,0,1,1.42-1.42h2.034a1.422,1.422,0,0,1,1.42,1.42V353.5a1.422,1.422,0,0,1-1.42,1.42Z" transform="translate(-427.878 -335.618)" fill="#5b5d6e"/>
        </g>
        <g id="Group_1120012" data-name="Group 1120012" transform="translate(0.898 75.842)">
          <path id="Path_915851" data-name="Path 915851" d="M9.594,353.5V344.67a1.423,1.423,0,0,1,1.14-1.392,1.42,1.42,0,0,0-.28-.028H8.42A1.422,1.422,0,0,0,7,344.67V353.5a1.422,1.422,0,0,0,1.42,1.42h2.034a1.423,1.423,0,0,0,.28-.028A1.423,1.423,0,0,1,9.594,353.5Z" transform="translate(-7 -335.618)" fill="#3c3f4f"/>
          <path id="Path_915852" data-name="Path 915852" d="M315.593,299.518V285.17a1.423,1.423,0,0,1,1.14-1.392,1.423,1.423,0,0,0-.28-.028h-2.034a1.422,1.422,0,0,0-1.42,1.42v14.347a1.422,1.422,0,0,0,1.42,1.42h2.034a1.423,1.423,0,0,0,.28-.028A1.423,1.423,0,0,1,315.593,299.518Z" transform="translate(-273.749 -283.75)" fill="#3c3f4f"/>
          <path id="Path_915853" data-name="Path 915853" d="M164.593,299.518V285.17a1.423,1.423,0,0,1,1.14-1.392,1.422,1.422,0,0,0-.28-.028h-2.034a1.422,1.422,0,0,0-1.42,1.42v14.347a1.422,1.422,0,0,0,1.42,1.42h2.034a1.422,1.422,0,0,0,.28-.028A1.423,1.423,0,0,1,164.593,299.518Z" transform="translate(-142.117 -283.75)" fill="#3c3f4f"/>
          <path id="Path_915854" data-name="Path 915854" d="M469.593,353.5V344.67a1.423,1.423,0,0,1,1.14-1.392,1.42,1.42,0,0,0-.28-.028h-2.034a1.422,1.422,0,0,0-1.42,1.42V353.5a1.422,1.422,0,0,0,1.42,1.42h2.034a1.422,1.422,0,0,0,.28-.028A1.423,1.423,0,0,1,469.593,353.5Z" transform="translate(-407.995 -335.618)" fill="#3c3f4f"/>
        </g>
        <circle id="Ellipse_11993" data-name="Ellipse 11993" cx="1.667" cy="1.667" r="1.667" transform="translate(31.234 56.217)"/>
        <circle id="Ellipse_11994" data-name="Ellipse 11994" cx="1.667" cy="1.667" r="1.667" transform="translate(11.737 67.12)"/>
        <circle id="Ellipse_11995" data-name="Ellipse 11995" cx="1.667" cy="1.667" r="1.667" transform="translate(50.859 67.12)"/>
        <path id="Path_915855" data-name="Path 915855" d="M63.356,82.576H61.322A2.318,2.318,0,0,0,59,84.895v1.786h-.9V86.36a.962.962,0,0,0-.962-.962H55.669v-8.63l1.151-3.235h3.4a.962.962,0,0,0,.962-.962V59.766a3.774,3.774,0,0,0-3.91-3.613h-9.5a3.774,3.774,0,0,0-3.91,3.613V72.571a.962.962,0,0,0,.962.962h3.621l.933,3.206V85.4H47.909a.962.962,0,0,0-.962.962v.321H45.92V77.263A2.318,2.318,0,0,0,43.6,74.944H41.569a2.32,2.32,0,0,0-2.04,1.219H37.968v-.705a.962.962,0,0,0-.962-.962h-.962v-.616a.948.948,0,0,0-.927-.948h-.028a.948.948,0,0,0-.969.948v1.579a.962.962,0,0,0,.962.962h.962v4.489h-.962a.962.962,0,0,0-.962.962v3.356a1.247,1.247,0,0,1-1.135,1.259,1.22,1.22,0,0,1-1.3-1.216v-3.4a.962.962,0,0,0-.962-.962H29.63V76.419h1.09a.962.962,0,0,0,.962-.962V65.7a.962.962,0,0,0-.056-.322l-.954-2.683h4.281l-.8,2.736a.963.963,0,0,0-.038.269v2.639a.948.948,0,0,0,.969.948h.028a.948.948,0,0,0,.927-.948v-2.5l.933-3.206H40.6a.962.962,0,0,0,.962-.962V48.863a3.774,3.774,0,0,0-3.91-3.613h-9.5a3.774,3.774,0,0,0-3.91,3.613V61.668a.962.962,0,0,0,.962.962h3.4l1.151,3.235V74.5h-1.09a.962.962,0,0,0-.962.962v.705H26.274a2.32,2.32,0,0,0-2.04-1.219H22.2a2.318,2.318,0,0,0-2.318,2.318v9.418h-.9V86.36a.962.962,0,0,0-.962-.962H16.547V76.74l.933-3.206H21.1a.962.962,0,0,0,.962-.962V59.766a3.774,3.774,0,0,0-3.91-3.613h-9.5a3.774,3.774,0,0,0-3.91,3.613V72.571a.962.962,0,0,0,.962.962h3.4l1.151,3.235V85.4H8.786a.962.962,0,0,0-.962.962v.321H6.67V84.895a2.318,2.318,0,0,0-2.318-2.318H2.318A2.318,2.318,0,0,0,0,84.895v8.832a2.318,2.318,0,0,0,2.318,2.318H4.352A2.318,2.318,0,0,0,6.67,93.726v-.889H7.828a.961.961,0,0,0,.959.9h1.475V96.1a3.2,3.2,0,0,0,3.2,3.214,3.146,3.146,0,0,0,3.089-3.142V93.736h1.475a.961.961,0,0,0,.959-.9h1.257a2.317,2.317,0,0,0,1.963,1.09h2.034a2.318,2.318,0,0,0,2.318-2.318V81.678h1.154v.192a.962.962,0,0,0,.962.962h1.09V85.2a3.2,3.2,0,0,0,3.2,3.214,3.146,3.146,0,0,0,3.088-3.142V82.833h.962a.962.962,0,0,0,.962-.962v-.192H39.25V91.61a2.318,2.318,0,0,0,2.318,2.318H43.6a2.317,2.317,0,0,0,1.963-1.09H46.95a.961.961,0,0,0,.959.9h1.475V96.1a3.2,3.2,0,0,0,3.2,3.214,3.146,3.146,0,0,0,3.089-3.142V93.736h1.475a.961.961,0,0,0,.959-.9H59v.889a2.318,2.318,0,0,0,2.318,2.318h2.034a2.318,2.318,0,0,0,2.318-2.318V84.895A2.318,2.318,0,0,0,63.356,82.576ZM26.167,48.863a1.857,1.857,0,0,1,1.986-1.689h9.5a1.857,1.857,0,0,1,1.986,1.689v1.262H26.167Zm0,3.186H39.635v1.282H26.167Zm0,8.658V55.255H39.635v5.451ZM4.746,93.726a.4.4,0,0,1-.394.394H2.318a.4.4,0,0,1-.394-.394V84.895a.4.4,0,0,1,.394-.394H4.352a.4.4,0,0,1,.394.394Zm3.078-2.813H6.67V88.6H7.824ZM6.67,59.766a1.857,1.857,0,0,1,1.986-1.689h9.5a1.857,1.857,0,0,1,1.986,1.689v1.262H6.67Zm0,3.186H20.138v1.282H6.67Zm0,8.658V66.158H20.138v5.451Zm10.39,20.2H15.585a.962.962,0,0,0-.962.962v3.4a1.219,1.219,0,0,1-2.437,0v-3.4a.962.962,0,0,0-.962-.962H9.748V87.322h1.475a.962.962,0,0,0,.962-.962V76.6a.96.96,0,0,0-.056-.322L11.176,73.6h4.281l-.8,2.736a.963.963,0,0,0-.038.269V86.36a.962.962,0,0,0,.962.962H17.06Zm2.822-.9h-.9V88.6h.9Zm4.746.7a.4.4,0,0,1-.394.394H22.2a.4.4,0,0,1-.394-.394V77.263a.4.4,0,0,1,.394-.394h2.034a.4.4,0,0,1,.394.394Zm2.95-11.856h-.9V78.087h.9Zm11.544,0h-.9V78.087h.9ZM44,91.61A.4.4,0,0,1,43.6,92H41.569a.4.4,0,0,1-.394-.394V77.263a.4.4,0,0,1,.394-.394H43.6a.4.4,0,0,1,.394.394Zm2.95-.7h-.9V88.6h.9ZM45.792,59.766a1.857,1.857,0,0,1,1.986-1.689h9.5a1.857,1.857,0,0,1,1.986,1.689v1.262H45.792Zm0,3.186H59.26v1.282H45.792Zm0,8.658V66.158H59.26v5.451Zm10.39,20.2H54.707a.962.962,0,0,0-.962.962v3.4a1.219,1.219,0,0,1-2.437,0v-3.4a.962.962,0,0,0-.962-.962H48.871V87.322h1.475a.962.962,0,0,0,.962-.962V76.6a.963.963,0,0,0-.038-.269l-.8-2.736h4.281L53.8,76.28a.963.963,0,0,0-.056.322V86.36a.962.962,0,0,0,.962.962h1.475Zm2.822-.9h-.9V88.6H59Zm4.746,2.813a.4.4,0,0,1-.394.394H61.322a.4.4,0,0,1-.394-.394V84.895a.4.4,0,0,1,.394-.394h2.034a.4.4,0,0,1,.394.394Z"/>
      </g>
      <rect id="Rectangle_410807" data-name="Rectangle 410807" width="85" height="85" transform="translate(600.326 920)" fill="none"/>
    </g>
  </g>
</svg>
