<svg xmlns="http://www.w3.org/2000/svg" width="112.828" height="112.828" viewBox="0 0 112.828 112.828">
  <g id="Group_1120874" data-name="Group 1120874" transform="translate(-313.923 -14070)">
    <rect id="Rectangle_409891" data-name="Rectangle 409891" width="112.828" height="112.828" transform="translate(313.923 14070)" fill="none"/>
    <g id="Fill_out_line" data-name="Fill out line" transform="translate(306.923 14063)">
      <rect id="Rectangle_410792" data-name="Rectangle 410792" width="11.106" height="71.078" transform="translate(33.277 41.13) rotate(-45)" fill="#d4e4f0"/>
      <path id="Path_918828" data-name="Path 918828" d="M50.7,42.847V31.853L42.847,24H31.853l9.424,9.424v4.712l-3.141,3.141H33.424L24,31.853V42.847L31.853,50.7H42.847Z" transform="translate(-6.429 -6.429)" fill="#c1d7e6"/>
      <path id="Path_918829" data-name="Path 918829" d="M362.847,344H351.853L344,351.853v10.994l7.853,7.853h10.994l7.853-7.853V351.853Zm0,15.706-3.141,3.141h-4.712l-3.141-3.141v-4.712l3.141-3.141h4.712l3.141,3.141Z" transform="translate(-263.605 -263.605)" fill="#c1d7e6"/>
      <path id="Path_918830" data-name="Path 918830" d="M48,306.994,58.994,296l4.712,4.712-6.282,7.853,10.994,10.994,7.853-6.282,4.712,4.712L69.988,328.983Z" transform="translate(-25.718 -225.029)" fill="#529ddf"/>
      <path id="Path_918831" data-name="Path 918831" d="M176.983,152l-.264.66a37.741,37.741,0,0,1-8.355,12.67h0a37.741,37.741,0,0,1-16.757,9.724L144,177.13l12.565,4.712,4.712,12.565,2.075-7.607a37.741,37.741,0,0,1,9.724-16.757h0a37.742,37.742,0,0,1,12.67-8.355l.66-.264Z" transform="translate(-102.87 -109.3)" fill="#529ddf"/>
      <path id="Path_918832" data-name="Path 918832" d="M363.141,24h4.712L385.13,41.277v4.712l-3.141,3.141L360,27.141Z" transform="translate(-276.464 -6.429)" fill="#d4e4f0"/>
      <rect id="Rectangle_410793" data-name="Rectangle 410793" width="6.664" height="26.654" transform="translate(80.395 26.994) rotate(-45)" fill="#c1d7e6"/>
      <path id="Path_918833" data-name="Path 918833" d="M265.277,64l21.988,21.988-17.277,17.277h0A18.565,18.565,0,0,0,264.8,87.086l-.625-.625A18.565,18.565,0,0,0,248,81.277h0Z" transform="translate(-186.452 -38.576)" fill="#d4e4f0"/>
      <circle id="Ellipse_12021" data-name="Ellipse 12021" cx="3.036" cy="3.036" r="3.036" transform="translate(80.576 39.588)" fill="#529ddf"/>
      <rect id="Rectangle_410794" data-name="Rectangle 410794" width="6.664" height="8.885" transform="translate(17.571 86.678) rotate(-45)" fill="#d4e4f0"/>
      <rect id="Rectangle_410795" data-name="Rectangle 410795" width="6.664" height="8.885" transform="translate(33.277 102.384) rotate(-45)" fill="#d4e4f0"/>
      <path id="Path_918834" data-name="Path 918834" d="M130.543,288.352a15.5,15.5,0,0,1-4.555,10.994l-4.712-4.712a8.885,8.885,0,0,0-12.565-12.565L104,277.357a15.549,15.549,0,0,1,26.543,10.994Z" transform="translate(-70.723 -206.386)" fill="#d4e4f0"/>
      <path id="Path_918835" data-name="Path 918835" d="M107.346,317.988A15.548,15.548,0,0,1,85.358,296l4.712,4.712a8.885,8.885,0,0,0,12.565,12.565Z" transform="translate(-52.081 -225.029)" fill="#c1d7e6"/>
      <path id="Path_918836" data-name="Path 918836" d="M92.5,16.46A1.571,1.571,0,0,0,91.389,16H86.677a1.571,1.571,0,0,0-1.111.46L82.425,19.6a1.571,1.571,0,0,0,0,2.221l.46.46-2.491,2.491-.46-.46a1.571,1.571,0,0,0-2.221,0L60.437,41.59a1.571,1.571,0,0,0,1.369,2.66,17,17,0,0,1,9.426,1.121A36.164,36.164,0,0,1,48.324,64.24l-2.514.686a17.089,17.089,0,0,0-13.644,4.935L16.46,85.567a1.571,1.571,0,0,0,0,2.221l6.282,6.282a1.571,1.571,0,0,0,2.221,0l3.6-3.6,7.2,7.2-3.6,3.6a1.571,1.571,0,0,0,0,2.221l6.282,6.282a1.571,1.571,0,0,0,2.221,0L56.376,94.07a17.088,17.088,0,0,0,4.935-13.644L62,77.913A36.164,36.164,0,0,1,80.866,55a17.011,17.011,0,0,1,1.121,9.426,1.571,1.571,0,0,0,2.66,1.369l17.277-17.277a1.571,1.571,0,0,0,0-2.221l-.46-.46,2.491-2.491.46.46a1.571,1.571,0,0,0,2.221,0l3.141-3.141a1.571,1.571,0,0,0,.46-1.111V34.847a1.571,1.571,0,0,0-.46-1.111ZM49.443,87.137a7.314,7.314,0,1,1,2.142-5.172,7.314,7.314,0,0,1-2.142,5.172ZM36.878,89.359A10.472,10.472,0,0,0,50.47,90.386L52.98,92.9a13.976,13.976,0,0,1-19.64-19.64l2.51,2.51a10.459,10.459,0,0,0,1.028,13.593Zm-9.466-10.3a17.255,17.255,0,0,0,0,5.816L24.5,81.965ZM23.853,90.739l-4.061-4.061,2.491-2.491,4.061,4.061Zm15.706,15.706L35.5,102.383l2.491-2.491,4.061,4.061Zm4.712-4.712-2.908-2.908a16.928,16.928,0,0,0,5.816,0ZM55.2,90.675l-2.51-2.51a10.457,10.457,0,0,0-14.62-14.62l-2.511-2.511A13.976,13.976,0,0,1,55.2,90.675ZM69.095,59.632a39.385,39.385,0,0,0-9.366,14.982,17.083,17.083,0,0,0-8.107-8.107A39.305,39.305,0,0,0,74,46.859,16.924,16.924,0,0,1,76.616,49l.625.625a16.919,16.919,0,0,1,2.136,2.615,39.143,39.143,0,0,0-10.282,7.4ZM85.334,60.67A20.181,20.181,0,0,0,79.462,47.4l-.625-.625A20.177,20.177,0,0,0,65.567,40.9L78.824,27.645,98.591,47.412ZM99.242,43.62,82.616,26.994,85.107,24.5,101.733,41.13Zm7.853-4.712-1.571,1.571L85.757,20.712l1.571-1.571h3.411L107.1,35.5Z" transform="translate(0 0)"/>
      <path id="Path_918837" data-name="Path 918837" d="M340.712,137.424A4.712,4.712,0,1,0,336,132.712,4.712,4.712,0,0,0,340.712,137.424Zm0-6.282a1.571,1.571,0,1,1-1.571,1.571A1.571,1.571,0,0,1,340.712,131.141Z" transform="translate(-257.176 -90.012)"/>
      <path id="Path_918838" data-name="Path 918838" d="M266.343,269.988l13.675,13.675v10.344a1.571,1.571,0,0,0,.46,1.111l7.853,7.853a1.571,1.571,0,0,0,1.111.46h10.994a1.571,1.571,0,0,0,1.111-.46l7.853-7.853a1.571,1.571,0,0,0,.46-1.111V283.013a1.571,1.571,0,0,0-.46-1.111l-7.853-7.853a1.571,1.571,0,0,0-1.111-.46H290.093l-15.246-15.246-2.221,2.221,14.6,14.6-5.632,5.632-13.025-13.025Zm23.75,6.742h9.693l6.933,6.933v9.693l-6.933,6.933h-9.693l-6.933-6.933v-9.693Z" transform="translate(-201.194 -194.765)"/>
      <path id="Path_918839" data-name="Path 918839" d="M24.313,45.382a1.571,1.571,0,0,0,1.111.46H35.767L51.013,61.088l2.221-2.221-14.6-14.6,5.632-5.632L60.437,54.805l2.221-2.221L45.842,35.767V25.424a1.571,1.571,0,0,0-.46-1.111L37.528,16.46A1.571,1.571,0,0,0,36.418,16H25.424a1.571,1.571,0,0,0-1.111,2.681l8.964,8.964v3.411l-2.221,2.221H27.645l-8.964-8.964A1.571,1.571,0,0,0,16,25.424V36.418a1.571,1.571,0,0,0,.46,1.111ZM19.141,29.215l6.742,6.743a1.571,1.571,0,0,0,1.111.46h4.712a1.571,1.571,0,0,0,1.111-.46l3.141-3.141a1.571,1.571,0,0,0,.46-1.111V26.994a1.571,1.571,0,0,0-.46-1.111l-6.742-6.742h6.552L42.7,26.074v9.693L35.767,42.7H26.074l-6.933-6.933Z" transform="translate(0 0)"/>
      <path id="Path_918840" data-name="Path 918840" d="M376.46,386.534l3.141,3.141a1.571,1.571,0,0,0,1.111.46h4.712a1.571,1.571,0,0,0,1.111-.46l3.141-3.141a1.571,1.571,0,0,0,.46-1.111v-4.712a1.571,1.571,0,0,0-.46-1.111l-3.141-3.141a1.571,1.571,0,0,0-1.111-.46h-4.712a1.571,1.571,0,0,0-1.111.46L376.46,379.6a1.571,1.571,0,0,0-.46,1.111v4.712A1.571,1.571,0,0,0,376.46,386.534Zm2.681-5.172,2.221-2.221h3.411l2.221,2.221v3.411l-2.221,2.221h-3.411l-2.221-2.221Z" transform="translate(-289.323 -289.323)"/>
      <rect id="Rectangle_410796" data-name="Rectangle 410796" width="3.141" height="14.438" transform="translate(43.16 45.382) rotate(-45.002)"/>
      <rect id="Rectangle_410797" data-name="Rectangle 410797" width="3.141" height="14.438" transform="translate(69.075 71.297) rotate(-45.002)"/>
    </g>
  </g>
</svg>
