<svg xmlns="http://www.w3.org/2000/svg" width="125" height="125" viewBox="0 0 125 125">
  <g id="Group_1121565" data-name="Group 1121565" transform="translate(-895 -878.081)">
    <circle id="Ellipse_11954" data-name="Ellipse 11954" cx="62.5" cy="62.5" r="62.5" transform="translate(895 878.081)" fill="#e8e8e8"/>
    <g id="Group_1120882" data-name="Group 1120882" transform="translate(0 -21.851)">
      <g id="Group_1120880" data-name="Group 1120880" transform="translate(926.749 910.881)">
        <g id="Group_1120879" data-name="Group 1120879" transform="translate(1.933 21.082)">
          <g id="Group_1120876" data-name="Group 1120876" transform="translate(12.317 0)">
            <path id="Path_918845" data-name="Path 918845" d="M128.317,28.148h5.507v2.763a13.931,13.931,0,0,1,5.013,2.077l1.955-1.955,3.894,3.894-1.955,1.955a13.93,13.93,0,0,1,2.077,5.012h2.763V47.4h-2.763a13.931,13.931,0,0,1-2.077,5.013l1.955,1.955-3.894,3.894-1.955-1.955a13.931,13.931,0,0,1-5.013,2.078V61.15h-5.507V58.387A13.93,13.93,0,0,1,123.3,56.31l-1.955,1.955-3.894-3.894,1.955-1.955a13.928,13.928,0,0,1-2.077-5.013h-2.763V41.9h2.763a13.931,13.931,0,0,1,2.077-5.013l-1.955-1.955,3.894-3.894,1.955,1.955a13.933,13.933,0,0,1,5.013-2.077Z" transform="translate(-114.569 -28.148)" fill="#ffda2d" fill-rule="evenodd"/>
            <circle id="Ellipse_12024" data-name="Ellipse 12024" cx="9.77" cy="9.77" r="9.77" transform="translate(6.731 6.731)" fill="#eff4f7"/>
            <path id="Path_918846" data-name="Path 918846" d="M182.062,131.086a5.668,5.668,0,0,0,9.226-4.258l-4.078,2.355-2.962-1.71v-3.421l4.078-2.354a5.667,5.667,0,0,0-8.3,5.86l-3.7,2.135a9.863,9.863,0,0,0,2.037,3.529Z" transform="translate(-169.122 -110.176)" fill="#8d9ca8" fill-rule="evenodd"/>
          </g>
          <g id="Group_1120877" data-name="Group 1120877" transform="translate(35.208 30.74)">
            <path id="Path_918847" data-name="Path 918847" d="M320.112,291.621h3.743V293.5a9.468,9.468,0,0,1,3.406,1.412l1.329-1.329,2.646,2.647-1.329,1.328a9.47,9.47,0,0,1,1.412,3.406H333.2v3.743h-1.878a9.467,9.467,0,0,1-1.412,3.407l1.329,1.329-2.646,2.646-1.328-1.328a9.467,9.467,0,0,1-3.406,1.412v1.878h-3.743v-1.878a9.468,9.468,0,0,1-3.407-1.412l-1.328,1.328-2.646-2.647,1.328-1.328a9.468,9.468,0,0,1-1.412-3.407h-1.878v-3.743h1.878a9.468,9.468,0,0,1,1.412-3.406l-1.329-1.329,2.647-2.646,1.329,1.328a9.47,9.47,0,0,1,3.407-1.412Z" transform="translate(-310.769 -291.621)" fill="#8d9ca8" fill-rule="evenodd"/>
            <circle id="Ellipse_12025" data-name="Ellipse 12025" cx="5.834" cy="5.834" r="5.834" transform="translate(2.955 11.214) rotate(-45)" fill="#eff4f7"/>
          </g>
          <g id="Group_1120878" data-name="Group 1120878" transform="translate(0 30.74)">
            <path id="Path_918848" data-name="Path 918848" d="M18.343,291.621h3.743V293.5a9.468,9.468,0,0,1,3.407,1.412l1.329-1.329,2.647,2.647-1.328,1.328a9.47,9.47,0,0,1,1.412,3.406h1.878v3.743H29.551a9.467,9.467,0,0,1-1.412,3.407l1.328,1.329-2.647,2.646-1.328-1.328a9.468,9.468,0,0,1-3.407,1.412v1.878H18.343v-1.878a9.468,9.468,0,0,1-3.407-1.412l-1.328,1.328-2.647-2.646,1.328-1.328a9.468,9.468,0,0,1-1.412-3.407H9v-3.743h1.878a9.468,9.468,0,0,1,1.412-3.406l-1.329-1.329,2.647-2.647,1.329,1.328a9.47,9.47,0,0,1,3.407-1.412Z" transform="translate(-9 -291.621)" fill="#8d9ca8" fill-rule="evenodd"/>
            <circle id="Ellipse_12026" data-name="Ellipse 12026" cx="5.834" cy="5.834" r="5.834" transform="matrix(1, -0.022, 0.022, 1, 5.267, 5.516)" fill="#eff4f7"/>
          </g>
        </g>
        <path id="Path_918849" data-name="Path 918849" d="M13.146,67.938a4.9,4.9,0,1,1,4.9-4.9,4.906,4.906,0,0,1-4.9,4.9Zm0-11.667a6.767,6.767,0,1,0,6.767,6.767A6.774,6.774,0,0,0,13.146,56.27Zm10.281,7.7V62.1h-.945a.933.933,0,0,1-.914-.751,8.51,8.51,0,0,0-1.273-3.071.932.932,0,0,1,.117-1.178l.668-.668L19.754,55.1l-.669.667a.933.933,0,0,1-1.178.117,8.506,8.506,0,0,0-3.071-1.273.933.933,0,0,1-.751-.914v-.945H12.208V53.7a.932.932,0,0,1-.75.914,8.5,8.5,0,0,0-3.071,1.273.933.933,0,0,1-1.178-.117L6.54,55.1,5.214,56.43l.668.668A.933.933,0,0,1,6,58.277a8.5,8.5,0,0,0-1.273,3.071.934.934,0,0,1-.916.751H2.866v1.876H3.81a.933.933,0,0,1,.916.75A8.483,8.483,0,0,0,6,67.8a.932.932,0,0,1-.117,1.178l-.668.669L6.54,70.97l.669-.669a.935.935,0,0,1,1.178-.117,8.493,8.493,0,0,0,3.071,1.273.934.934,0,0,1,.75.916v.944h1.876v-.944a.935.935,0,0,1,.751-.916,8.488,8.488,0,0,0,3.071-1.273.934.934,0,0,1,1.178.117l.669.669,1.325-1.327-.667-.669a.932.932,0,0,1-.117-1.178,8.494,8.494,0,0,0,1.273-3.071.932.932,0,0,1,.914-.75Zm.933-3.743H23.22a10.324,10.324,0,0,0-.967-2.335l.807-.807a.933.933,0,0,0,0-1.319l-2.647-2.647a.933.933,0,0,0-1.32,0l-.807.808a10.327,10.327,0,0,0-2.335-.968V51.823a.933.933,0,0,0-.934-.933H11.275a.934.934,0,0,0-.934.933v1.141a10.392,10.392,0,0,0-2.333.967L7.2,53.123a.935.935,0,0,0-1.321,0L3.234,55.771a.933.933,0,0,0,0,1.319l.807.807a10.344,10.344,0,0,0-.967,2.335H1.933A.933.933,0,0,0,1,61.166v3.743a.934.934,0,0,0,.934.934H3.074a10.336,10.336,0,0,0,.967,2.333l-.807.807a.934.934,0,0,0,0,1.321L5.88,72.95a.935.935,0,0,0,1.321,0l.807-.807a10.331,10.331,0,0,0,2.333.967v1.141a.934.934,0,0,0,.934.933h3.743a.933.933,0,0,0,.934-.933V73.11a10.324,10.324,0,0,0,2.335-.967l.807.807a.934.934,0,0,0,1.319,0L23.06,70.3a.935.935,0,0,0,0-1.321l-.807-.807a10.336,10.336,0,0,0,.967-2.333h1.141a.934.934,0,0,0,.934-.934V61.166a.933.933,0,0,0-.934-.934Zm23.994,7.705a4.9,4.9,0,1,1,4.9-4.9A4.906,4.906,0,0,1,48.355,67.938Zm0-11.667a6.767,6.767,0,1,0,6.767,6.767A6.775,6.775,0,0,0,48.355,56.27Zm10.281,7.7V62.1h-.945a.933.933,0,0,1-.914-.751A8.54,8.54,0,0,0,55.5,58.277a.934.934,0,0,1,.115-1.178l.668-.668L54.96,55.1l-.668.667a.932.932,0,0,1-1.177.117,8.506,8.506,0,0,0-3.071-1.273.933.933,0,0,1-.751-.914v-.945H47.417V53.7a.932.932,0,0,1-.75.914A8.5,8.5,0,0,0,43.6,55.888a.933.933,0,0,1-1.178-.117l-.669-.668L40.422,56.43l.668.668a.935.935,0,0,1,.117,1.178,8.491,8.491,0,0,0-1.273,3.071.934.934,0,0,1-.916.751h-.944v1.876h.944a.933.933,0,0,1,.916.75A8.476,8.476,0,0,0,41.208,67.8a.935.935,0,0,1-.117,1.178l-.668.669,1.326,1.327.669-.669a.933.933,0,0,1,1.177-.117,8.5,8.5,0,0,0,3.072,1.273.934.934,0,0,1,.75.916v.944h1.876v-.944a.935.935,0,0,1,.751-.916,8.488,8.488,0,0,0,3.071-1.273.931.931,0,0,1,1.177.117l.668.669,1.327-1.327-.668-.669A.934.934,0,0,1,55.5,67.8a8.521,8.521,0,0,0,1.273-3.071.932.932,0,0,1,.914-.75Zm.933-3.743H58.428A10.353,10.353,0,0,0,57.46,57.9l.807-.807a.931.931,0,0,0,0-1.319l-2.646-2.647a.933.933,0,0,0-1.319,0l-.807.808a10.316,10.316,0,0,0-2.335-.968V51.823a.933.933,0,0,0-.934-.933H46.483a.933.933,0,0,0-.934.933v1.141a10.338,10.338,0,0,0-2.333.967l-.807-.807a.935.935,0,0,0-1.321,0l-2.646,2.647a.933.933,0,0,0,0,1.319l.807.807a10.291,10.291,0,0,0-.967,2.335H37.141a.933.933,0,0,0-.934.934v3.743a.934.934,0,0,0,.934.934h1.141a10.283,10.283,0,0,0,.967,2.333l-.807.807a.934.934,0,0,0,0,1.321l2.646,2.646a.935.935,0,0,0,1.321,0l.807-.807a10.331,10.331,0,0,0,2.333.967v1.141a.933.933,0,0,0,.934.933h3.743a.933.933,0,0,0,.934-.933V73.11a10.345,10.345,0,0,0,2.335-.967l.807.807a.934.934,0,0,0,1.319,0L58.267,70.3a.932.932,0,0,0,0-1.321l-.807-.807a10.334,10.334,0,0,0,.968-2.333h1.141a.934.934,0,0,0,.934-.934V61.166A.933.933,0,0,0,59.569,60.232ZM30.751,46.42a8.8,8.8,0,0,1-5.717-2.106l2.1-1.211a6.648,6.648,0,0,0,6.919.2,6.557,6.557,0,0,0,3.3-5.538.932.932,0,0,0-1.4-.834l-3.612,2.085-2.029-1.172V35.5l3.612-2.085a.933.933,0,0,0-.022-1.629,6.559,6.559,0,0,0-6.446.085,6.649,6.649,0,0,0-3.29,6.09l-2.1,1.213a8.836,8.836,0,1,1,8.692,7.249Zm-4.676-8.1a.934.934,0,0,1-.456.953l-3.013,1.74a8.839,8.839,0,0,0,1.109,1.91l3.009-1.737a.931.931,0,0,1,1.052.082,4.765,4.765,0,0,0,5.341.417,4.714,4.714,0,0,0,1.915-2.072L32.8,40.9a.934.934,0,0,1-.933,0l-2.962-1.71a.934.934,0,0,1-.467-.808V34.958a.935.935,0,0,1,.467-.809l2.228-1.285a4.71,4.71,0,0,0-2.751.622,4.763,4.763,0,0,0-2.31,4.834ZM30.751,26.88a10.7,10.7,0,1,0,10.7,10.7,10.715,10.715,0,0,0-10.7-10.7Zm2.57,23.526a.934.934,0,0,0-.75.916v1.83h-3.64v-1.83a.935.935,0,0,0-.751-.916A12.937,12.937,0,0,1,23.5,48.468a.933.933,0,0,0-1.177.115l-1.3,1.3-2.574-2.574,1.294-1.3a.934.934,0,0,0,.117-1.179,12.916,12.916,0,0,1-1.938-4.676.934.934,0,0,0-.916-.752h-1.83v-3.64h1.83a.934.934,0,0,0,.916-.751,12.932,12.932,0,0,1,1.938-4.676.933.933,0,0,0-.117-1.178l-1.294-1.295,2.574-2.574,1.3,1.294A.932.932,0,0,0,23.5,26.7a12.93,12.93,0,0,1,4.677-1.938.935.935,0,0,0,.751-.916v-1.83h3.64v1.829a.934.934,0,0,0,.751.916A12.938,12.938,0,0,1,38,26.7a.933.933,0,0,0,1.178-.117l1.3-1.294,2.574,2.574-1.295,1.295a.935.935,0,0,0-.117,1.178,12.937,12.937,0,0,1,1.939,4.676.933.933,0,0,0,.914.751h1.831V39.4H44.488a.932.932,0,0,0-.914.752,12.944,12.944,0,0,1-1.939,4.676.935.935,0,0,0,.117,1.179l1.295,1.3-2.574,2.574-1.3-1.3A.933.933,0,0,0,38,48.468,12.947,12.947,0,0,1,33.321,50.406Zm6.49,1.453-1.428-1.427a14.788,14.788,0,0,1-3.946,1.636v2.017a.933.933,0,0,1-.934.934H28a.933.933,0,0,1-.934-.934V52.068a14.8,14.8,0,0,1-3.947-1.636L21.69,51.859a.937.937,0,0,1-1.321,0l-3.893-3.895a.932.932,0,0,1,0-1.319L17.9,45.216a14.778,14.778,0,0,1-1.636-3.946H14.249a.933.933,0,0,1-.933-.933V34.83a.933.933,0,0,1,.933-.933h2.017A14.767,14.767,0,0,1,17.9,29.95l-1.428-1.427a.935.935,0,0,1,0-1.321l3.894-3.893a.933.933,0,0,1,1.321,0l1.427,1.427A14.8,14.8,0,0,1,27.064,23.1V21.083A.934.934,0,0,1,28,20.149H33.5a.934.934,0,0,1,.934.934V23.1a14.811,14.811,0,0,1,3.946,1.636l1.428-1.427a.931.931,0,0,1,1.32,0L45.026,27.2a.935.935,0,0,1,0,1.321L43.6,29.95A14.728,14.728,0,0,1,45.234,33.9h2.019a.933.933,0,0,1,.933.933v5.507a.933.933,0,0,1-.933.933H45.234A14.736,14.736,0,0,1,43.6,45.217l1.428,1.428a.933.933,0,0,1,0,1.319l-3.895,3.895a.934.934,0,0,1-1.319,0Z" fill-rule="evenodd"/>
      </g>
      <rect id="Rectangle_410808" data-name="Rectangle 410808" width="85" height="85" transform="translate(915.326 920)" fill="none"/>
    </g>
  </g>
</svg>
