<svg xmlns="http://www.w3.org/2000/svg" xmlns:xlink="http://www.w3.org/1999/xlink" width="125" height="125" viewBox="0 0 125 125">
  <defs>
    <clipPath id="clip-path">
      <path id="path10448" d="M0-682.665H69.4v69.4H0Z" transform="translate(0 682.665)"/>
    </clipPath>
  </defs>
  <g id="Group_1121566" data-name="Group 1121566" transform="translate(-1210 -878.081)">
    <circle id="Ellipse_11988" data-name="Ellipse 11988" cx="62.5" cy="62.5" r="62.5" transform="translate(1210 878.081)" fill="#e8e8e8"/>
    <g id="Group_1120881" data-name="Group 1120881" transform="translate(0 -21.851)">
      <g id="g10440" transform="translate(1237.8 1609.998)">
        <path id="path10442" d="M244.1-665.207H219.279v-7.458H244.1Z" transform="translate(-196.987 -8.983)" fill="#dae4ea"/>
        <g id="g10444" transform="translate(0 -682.665)">
          <g id="g10446" clip-path="url(#clip-path)">
            <g id="g10452" transform="translate(22.292 1.017)">
              <path id="path10454" d="M-171.379,0V1.041a3.706,3.706,0,0,1-3.705,3.706h-15.689V7.458h24.816V0Z" transform="translate(190.773)" fill="#c6d0da"/>
            </g>
            <path id="path10456" d="M255.037-599.305H233.014v3.729h22.023Z" transform="translate(-209.326 607.78)" fill="#b9c1cb"/>
            <g id="g10458" transform="translate(22.292 12.203)">
              <path id="path10460" d="M0,0V19.3H3.389l1-1.872a4.682,4.682,0,0,1,4.133-2.481H16.3a4.682,4.682,0,0,1,4.133,2.481l1,1.872h3.389V0Z" fill="#dae4ea"/>
            </g>
            <g id="g10462" transform="translate(42.15 12.203)">
              <path id="path10464" d="M-7.878,0V15.693a.891.891,0,0,1-.891.892h0a4.686,4.686,0,0,1,.572.839l1,1.872h3.389V0Z" transform="translate(8.769)" fill="#c6d0da"/>
            </g>
            <g id="g10466" transform="translate(27.229 12.203)">
              <path id="path10468" d="M-132.044-66.021a7.471,7.471,0,0,1-7.471,7.471,7.471,7.471,0,0,1-7.471-7.471,7.471,7.471,0,0,1,7.471-7.471,7.471,7.471,0,0,1,7.471,7.471" transform="translate(146.986 73.492)" fill="#f6f9f9"/>
            </g>
            <g id="g10470" transform="translate(30.618 15.592)">
              <path id="path10472" d="M-72.154-36.076a4.083,4.083,0,0,1-4.083,4.083,4.083,4.083,0,0,1-4.083-4.083,4.083,4.083,0,0,1,4.083-4.083,4.083,4.083,0,0,1,4.083,4.083" transform="translate(80.32 40.159)" fill="#808b95"/>
            </g>
            <g id="g10474" transform="translate(24.678 48.34)">
              <path id="path10476" d="M-88.562-140.666a5.9,5.9,0,0,1-5.9-5.9,5.9,5.9,0,0,1,5.9-5.9,5.9,5.9,0,0,1,5.9,5.9,5.9,5.9,0,0,1-5.9,5.9m0-15.919a10.022,10.022,0,0,0-10.022,10.022,10.022,10.022,0,0,0,10.022,10.022A10.022,10.022,0,0,0-78.54-146.563a10.022,10.022,0,0,0-10.022-10.022" transform="translate(98.584 156.585)" fill="#dae4ea"/>
            </g>
            <g id="g10478" transform="translate(27.719 48.46)">
              <path id="path10480" d="M-75.47,0a9.993,9.993,0,0,1,2.987,6.147A5.872,5.872,0,0,1-71.133,9.9a5.9,5.9,0,0,1-5.9,5.9q-.138,0-.274-.007a9.976,9.976,0,0,1-5.147,1.421,10.091,10.091,0,0,1-1.559-.121,9.989,9.989,0,0,0,6.981,2.832A10.022,10.022,0,0,0-67.007,9.9,10.025,10.025,0,0,0-75.47,0" transform="translate(84.01)" fill="#c6d0da"/>
            </g>
            <g id="g10482" transform="translate(27.031 27.146)">
              <path id="path10484" d="M-97.717-104.6v-11.837h-6.777V-104.6A21.48,21.48,0,0,1-108.089-92.7l-.687,1.033a10,10,0,0,1,7.67-3.57,10,10,0,0,1,7.67,3.57l-.687-1.033A21.48,21.48,0,0,1-97.717-104.6" transform="translate(108.776 116.432)" fill="#b9c1cb"/>
            </g>
            <path id="path10486" d="M434.179-202.785H430.7v-3.479h3.479Z" transform="translate(-386.915 254.695)" fill="#808b95"/>
            <path id="path10488" d="M434.179-41.643H430.7v-3.479h3.479Z" transform="translate(-386.915 109.935)" fill="#808b95"/>
            <g id="g10490" transform="translate(42.37 51.91)">
              <path id="path10492" d="M0,0A9.982,9.982,0,0,1,2.353,6.452H6.924V0Z" fill="#b9c1cb"/>
            </g>
            <g id="g10494" transform="translate(42.37 58.362)">
              <path id="path10496" d="M-20.789,0a9.983,9.983,0,0,1-2.353,6.452h6.924V0Z" transform="translate(23.141)" fill="#a0aab7"/>
            </g>
            <path id="path10498" d="M217.747-202.785h3.479v-3.479h-3.479Z" transform="translate(-195.611 254.695)" fill="#808b95"/>
            <path id="path10500" d="M217.747-41.643h3.479v-3.479h-3.479Z" transform="translate(-195.611 109.935)" fill="#808b95"/>
            <g id="g10502" transform="translate(20.107 51.91)">
              <path id="path10504" d="M-61.18,0a9.982,9.982,0,0,0-2.353,6.452H-68.1V0Z" transform="translate(68.104)" fill="#b9c1cb"/>
            </g>
            <g id="g10506" transform="translate(20.107 58.362)">
              <path id="path10508" d="M-40.392,0a9.983,9.983,0,0,0,2.353,6.452h-6.924V0Z" transform="translate(44.963)" fill="#a0aab7"/>
            </g>
            <g id="g10510" transform="translate(3.735 44.06)">
              <path id="path10512" d="M-144.673-126.382v-.993a29.815,29.815,0,0,1-10.806-8.369l2.179-1.515-7.745-3.425.515,8.453,2.264-1.575a33.028,33.028,0,0,0,11.271,9.074q1.138.567,2.321,1.055Zm45.558-14.3-.515,8.453-2.264-1.575a33.029,33.029,0,0,1-11.271,9.074q-1.138.567-2.321,1.055v-3.7a29.816,29.816,0,0,0,10.806-8.369l-2.179-1.515Z" transform="translate(161.045 140.684)" fill="#80bc93"/>
            </g>
            <path id="path10514" d="M244.1-665.207H219.279v-7.458H244.1Z" transform="translate(-196.987 673.682)" fill="none" stroke="#000" stroke-linecap="round" stroke-linejoin="round" stroke-miterlimit="10" stroke-width="2"/>
            <path id="path10516" d="M255.037-599.305H233.014v3.729h22.023Z" transform="translate(-209.326 607.78)" fill="none" stroke="#000" stroke-linecap="round" stroke-linejoin="round" stroke-miterlimit="10" stroke-width="2"/>
            <g id="g10518" transform="translate(45.081 4.746)">
              <path id="path10520" d="M0,0H2.773" fill="none" stroke="#000" stroke-linecap="round" stroke-linejoin="round" stroke-miterlimit="10" stroke-width="2"/>
            </g>
            <g id="g10522" transform="translate(21.546 4.746)">
              <path id="path10524" d="M0,0H18.79" fill="none" stroke="#000" stroke-linecap="round" stroke-linejoin="round" stroke-miterlimit="10" stroke-width="2"/>
            </g>
            <g id="g10526" transform="translate(22.292 12.203)">
              <path id="path10528" d="M0,0V19.3H3.389l1-1.872a4.682,4.682,0,0,1,4.133-2.481H16.3a4.682,4.682,0,0,1,4.133,2.481l1,1.872h3.389V0Z" fill="none" stroke="#000" stroke-linecap="round" stroke-linejoin="round" stroke-miterlimit="10" stroke-width="2"/>
            </g>
            <g id="g10530" transform="translate(27.229 12.203)">
              <path id="path10532" d="M-132.044-66.021a7.471,7.471,0,0,1-7.471,7.471,7.471,7.471,0,0,1-7.471-7.471,7.471,7.471,0,0,1,7.471-7.471A7.471,7.471,0,0,1-132.044-66.021Z" transform="translate(146.986 73.492)" fill="none" stroke="#000" stroke-linecap="round" stroke-linejoin="round" stroke-miterlimit="10" stroke-width="2"/>
            </g>
            <g id="g10534" transform="translate(30.618 15.592)">
              <path id="path10536" d="M-72.154-36.076a4.083,4.083,0,0,1-4.083,4.083,4.083,4.083,0,0,1-4.083-4.083,4.083,4.083,0,0,1,4.083-4.083A4.083,4.083,0,0,1-72.154-36.076Z" transform="translate(80.32 40.159)" fill="none" stroke="#000" stroke-linecap="round" stroke-linejoin="round" stroke-miterlimit="10" stroke-width="2"/>
            </g>
            <g id="g10538" transform="translate(24.678 48.34)">
              <path id="path10540" d="M-177.124-88.562A10.022,10.022,0,0,1-187.147-78.54a10.022,10.022,0,0,1-10.022-10.022,10.022,10.022,0,0,1,10.022-10.022A10.022,10.022,0,0,1-177.124-88.562Z" transform="translate(197.169 98.584)" fill="none" stroke="#000" stroke-linecap="round" stroke-linejoin="round" stroke-miterlimit="10" stroke-width="2"/>
            </g>
            <g id="g10542" transform="translate(28.804 52.465)">
              <path id="path10544" d="M-77.543-97.589a5.869,5.869,0,0,1-2.879.749,5.9,5.9,0,0,1-5.9-5.9,5.9,5.9,0,0,1,5.9-5.9,5.9,5.9,0,0,1,5.9,5.9,5.92,5.92,0,0,1-.153,1.341" transform="translate(86.318 108.633)" fill="none" stroke="#000" stroke-linecap="round" stroke-linejoin="round" stroke-miterlimit="10" stroke-width="2"/>
            </g>
            <g id="g10546" transform="translate(43.192 25.735)">
              <path id="path10548" d="M0,0H0" fill="none" stroke="#000" stroke-linecap="round" stroke-linejoin="round" stroke-miterlimit="10" stroke-width="2"/>
            </g>
            <g id="g10550" transform="translate(26.208 25.735)">
              <path id="path10552" d="M0,0H0" fill="none" stroke="#000" stroke-linecap="round" stroke-linejoin="round" stroke-miterlimit="10" stroke-width="2"/>
            </g>
            <g id="g10554" transform="translate(34.7 27.146)">
              <path id="path10556" d="M0,0V17.489" fill="none" stroke="#000" stroke-linecap="round" stroke-linejoin="round" stroke-miterlimit="10" stroke-width="2"/>
            </g>
            <g id="g10558" transform="translate(31.312 27.146)">
              <path id="path10560" d="M-97.717-218.83l-.687-1.033A21.48,21.48,0,0,1-102-231.758v-11.837h-6.777v4.352" transform="translate(108.776 243.594)" fill="none" stroke="#000" stroke-linecap="round" stroke-linejoin="round" stroke-miterlimit="10" stroke-width="2"/>
            </g>
            <g id="g10562" transform="translate(27.031 36.242)">
              <path id="path10564" d="M-37.828,0V2.74a21.48,21.48,0,0,1-3.594,11.895l-.687,1.033" transform="translate(42.109)" fill="none" stroke="#000" stroke-linecap="round" stroke-linejoin="round" stroke-miterlimit="10" stroke-width="2"/>
            </g>
            <path id="path10566" d="M434.179-202.785H430.7v-3.479h3.479Z" transform="translate(-386.915 254.695)" fill="none" stroke="#000" stroke-linecap="round" stroke-linejoin="round" stroke-miterlimit="10" stroke-width="2"/>
            <path id="path10568" d="M434.179-41.643H430.7v-3.479h3.479Z" transform="translate(-386.915 109.935)" fill="none" stroke="#000" stroke-linecap="round" stroke-linejoin="round" stroke-miterlimit="10" stroke-width="2"/>
            <g id="g10570" transform="translate(42.37 51.91)">
              <path id="path10572" d="M-20.789-57.011h4.571v-6.452h-6.924" transform="translate(23.141 63.463)" fill="none" stroke="#000" stroke-linecap="round" stroke-linejoin="round" stroke-miterlimit="10" stroke-width="2"/>
            </g>
            <g id="g10574" transform="translate(42.37 58.362)">
              <path id="path10576" d="M0-57.012H6.924v-6.452H2.353" transform="translate(0 63.464)" fill="none" stroke="#000" stroke-linecap="round" stroke-linejoin="round" stroke-miterlimit="10" stroke-width="2"/>
            </g>
            <path id="path10578" d="M217.747-202.785h3.479v-3.479h-3.479Z" transform="translate(-195.611 254.695)" fill="none" stroke="#000" stroke-linecap="round" stroke-linejoin="round" stroke-miterlimit="10" stroke-width="2"/>
            <path id="path10580" d="M217.747-41.643h3.479v-3.479h-3.479Z" transform="translate(-195.611 109.935)" fill="none" stroke="#000" stroke-linecap="round" stroke-linejoin="round" stroke-miterlimit="10" stroke-width="2"/>
            <g id="g10582" transform="translate(20.107 51.91)">
              <path id="path10584" d="M-40.392-57.011h-4.571v-6.452h6.924" transform="translate(44.963 63.463)" fill="none" stroke="#000" stroke-linecap="round" stroke-linejoin="round" stroke-miterlimit="10" stroke-width="2"/>
            </g>
            <g id="g10586" transform="translate(20.107 58.362)">
              <path id="path10588" d="M-61.18-57.012H-68.1v-6.452h4.571" transform="translate(68.104 63.464)" fill="none" stroke="#000" stroke-linecap="round" stroke-linejoin="round" stroke-miterlimit="10" stroke-width="2"/>
            </g>
            <g id="g10590" transform="translate(3.735 44.06)">
              <path id="path10592" d="M-144.673-126.382v-.993a29.815,29.815,0,0,1-10.806-8.369l2.179-1.515-7.745-3.425.515,8.453,2.264-1.575a33.028,33.028,0,0,0,11.271,9.074q1.138.567,2.321,1.055Zm45.558-14.3-.515,8.453-2.264-1.575a33.029,33.029,0,0,1-11.271,9.074q-1.138.567-2.321,1.055v-3.7a29.816,29.816,0,0,0,10.806-8.369l-2.179-1.515Z" transform="translate(161.045 140.684)" fill="none" stroke="#000" stroke-linecap="round" stroke-linejoin="round" stroke-miterlimit="10" stroke-width="2"/>
            </g>
          </g>
        </g>
      </g>
      <rect id="Rectangle_410809" data-name="Rectangle 410809" width="85" height="85" transform="translate(1230.326 920)" fill="none"/>
    </g>
  </g>
</svg>
