<svg xmlns="http://www.w3.org/2000/svg" width="112.828" height="112.828" viewBox="0 0 112.828 112.828">
  <g id="Group_1120030" data-name="Group 1120030" transform="translate(-409.326 -3045)">
    <rect id="Rectangle_409891" data-name="Rectangle 409891" width="112.828" height="112.828" transform="translate(409.326 3045)" fill="none"/>
    <g id="Group_1120029" data-name="Group 1120029" transform="translate(373.431 3054)">
      <path id="Path_915872" data-name="Path 915872" d="M145.327,234.291H161.42v20.116H105.1V234.291h16.093l2.012-6.035h20.116ZM105.1,202.1v22.128h12.07l2.012-6.035h28.163l2.012,6.035h12.07V202.1Z" transform="translate(-41.645 -164.387)" fill="#999"/>
      <path id="Path_915873" data-name="Path 915873" d="M215.466,59.816h-24.14V29.642h24.139V59.816Z" transform="translate(-111.783 -24.11)" fill="#6d6d6d"/>
      <path id="Path_915874" data-name="Path 915874" d="M207.419,39.7H191.326V29.642h16.093Zm0,6.035H191.326V51.77h16.093Z" transform="translate(-111.783 -24.11)" fill="#999"/>
      <path id="Path_915875" data-name="Path 915875" d="M134.4,182.559v4.023a2.012,2.012,0,0,1-2.012,2.012h-6.035v18.1h-7.644v-18.1H63.991a2.012,2.012,0,0,1-2.012-2.012v-4.023a2.012,2.012,0,0,1,2.012-2.012h68.395A2.012,2.012,0,0,1,134.4,182.559Zm-2.012,50.29h-6.035V216.756h-7.644v16.093H63.991a2.012,2.012,0,0,0-2.012,2.012v4.023a2.012,2.012,0,0,0,2.012,2.012h68.395a2.012,2.012,0,0,0,2.012-2.012v-4.023A2.012,2.012,0,0,0,132.386,232.849Z" transform="translate(-6.575 -146.852)" fill="#6d6d6d"/>
      <g id="Group_1120028" data-name="Group 1120028" transform="translate(62.967 1.509)">
        <path id="Path_915876" data-name="Path 915876" d="M110.554,180.547h16.415l-8.047,8.047H102.507Zm35.244,8.047h5.874l8.047-8.047H143.3l-8.047,8.047H145.8Zm-43.29,52.3h16.415l8.046-8.047H110.554Zm32.749,0h16.415l8.047-8.047H143.3Z" transform="translate(-102.507 -148.361)" fill="#ffd34e"/>
        <path id="Path_915877" data-name="Path 915877" d="M188.442,10.1v4.023a2.012,2.012,0,0,1-2.012,2.012h-2.012v4.023a2.012,2.012,0,0,1-2.012,2.012h-4.023a2.012,2.012,0,0,1-2.012-2.012V16.131H160.279v4.023a2.012,2.012,0,0,1-2.012,2.012h-4.023a2.012,2.012,0,0,1-2.012-2.012V16.131h-2.012a2.012,2.012,0,0,1-2.012-2.012V10.1a2.012,2.012,0,0,1,2.012-2.012H186.43A2.012,2.012,0,0,1,188.442,10.1Z" transform="translate(-139.68 -8.084)" fill="#ffd34e"/>
      </g>
      <path id="Path_915878" data-name="Path 915878" d="M188.442,29.642v2.012a2.012,2.012,0,0,1-2.012,2.012h-2.012v4.023a2.012,2.012,0,0,1-2.012,2.012H180.4V33.665H160.28v4.023a2.012,2.012,0,0,1-2.012,2.012h-2.012V33.665h-6.035a2.012,2.012,0,0,1-2.012-2.012V29.642Z" transform="translate(-76.713 -24.11)" fill="#ffb933"/>
      <path id="Path_915879" data-name="Path 915879" d="M86.081,15.59a1.508,1.508,0,0,1,1.509-1.509h8.047a1.509,1.509,0,1,1,0,3.017H87.59A1.508,1.508,0,0,1,86.081,15.59Zm43.25,72.418v4.023a3.524,3.524,0,0,1-3.52,3.52H57.415a3.524,3.524,0,0,1-3.52-3.52V88.008a3.524,3.524,0,0,1,3.52-3.52h4.526V69.9A1.508,1.508,0,0,1,63.45,68.4H78.456l1.668-5a1.509,1.509,0,0,1,1.431-1.031H95.636a1.509,1.509,0,1,1,0,3.017H82.642l-1.668,5a1.509,1.509,0,0,1-1.431,1.031H64.959V84.488h53.308V71.412H103.683a1.508,1.508,0,0,1-1.431-1.031l-2.012-6.035a1.509,1.509,0,1,1,2.862-.954l1.668,5h15.006a1.508,1.508,0,0,1,1.509,1.509V84.488h4.526A3.525,3.525,0,0,1,129.331,88.008ZM62.342,92.535l5.029-5.029H57.415a.5.5,0,0,0-.5.5v4.023a.5.5,0,0,0,.5.5h4.927Zm16.415,0,5.029-5.029H71.639L66.61,92.535Zm16.415,0,5.029-5.029H88.053l-5.029,5.029Zm16.415,0,5.029-5.029H104.468l-5.029,5.029Zm14.726-4.526a.5.5,0,0,0-.5-.5h-4.927l-5.029,5.029h9.956a.5.5,0,0,0,.5-.5Zm3.017-52.3v4.023a3.524,3.524,0,0,1-3.52,3.52h-4.526v16.6a1.508,1.508,0,0,1-1.509,1.509h-12.07a1.508,1.508,0,0,1-1.431-1.031l-1.668-5H78.619l-1.668,5a1.509,1.509,0,0,1-1.431,1.031H63.45a1.508,1.508,0,0,1-1.509-1.509V47.776a1.509,1.509,0,0,1,3.017,0V58.337h9.474l1.668-5A1.509,1.509,0,0,1,77.531,52.3h28.163a1.508,1.508,0,0,1,1.431,1.031l1.668,5h9.474V43.25H75.52a1.509,1.509,0,1,1,0-3.017h3.238L83.786,35.2H71.639L66.61,40.232h2.875a1.509,1.509,0,1,1,0,3.017H57.415a3.524,3.524,0,0,1-3.52-3.52V35.706a3.524,3.524,0,0,1,3.52-3.52H78.034V17.1h-.5a3.524,3.524,0,0,1-3.52-3.52V11.064h-.5a3.524,3.524,0,0,1-3.52-3.52V3.52A3.525,3.525,0,0,1,73.508,0H97.647a1.509,1.509,0,1,1,0,3.017H73.508a.5.5,0,0,0-.5.5V7.544a.5.5,0,0,0,.5.5h36.209a.5.5,0,0,0,.5-.5V3.52a.5.5,0,0,0-.5-.5h-6.035a1.509,1.509,0,1,1,0-3.017h6.035a3.524,3.524,0,0,1,3.52,3.52V7.544a3.524,3.524,0,0,1-3.52,3.52h-.5v2.515a3.524,3.524,0,0,1-3.52,3.52h-.5V32.186H125.81A3.524,3.524,0,0,1,129.331,35.706Zm-61.959-.5H57.415a.5.5,0,0,0-.5.5V39.73a.5.5,0,0,0,.5.5h4.927Zm33.8-21.625a.5.5,0,0,0,.5.5h4.023a.5.5,0,0,0,.5-.5V11.064h-5.029Zm-19.613.5a.5.5,0,0,0,.5-.5V11.064H77.029v2.515a.5.5,0,0,0,.5.5Zm20.619,18.1V29.169h-16.6a1.509,1.509,0,1,1,0-3.017h16.6V23.134h-16.6a1.509,1.509,0,1,1,0-3.017h16.6V17.1h-.5a3.524,3.524,0,0,1-3.52-3.52V11.064H85.075v2.515a3.524,3.524,0,0,1-3.52,3.52h-.5V32.186h21.122Zm-7,8.047L100.2,35.2H88.053l-5.029,5.029Zm16.415,0,5.029-5.029H104.468l-5.029,5.029Zm14.726-4.526a.5.5,0,0,0-.5-.5h-4.927l-5.029,5.029h9.956a.5.5,0,0,0,.5-.5Z" transform="translate(0 0)"/>
    </g>
  </g>
</svg>
