<svg xmlns="http://www.w3.org/2000/svg" xmlns:xlink="http://www.w3.org/1999/xlink" width="543.051" height="85.276" viewBox="0 0 543.051 85.276">
  <defs>
    <clipPath id="clip-path">
      <rect id="Rectangle_401360" data-name="Rectangle 401360" width="82.56" height="85.276" fill="none"/>
    </clipPath>
    <clipPath id="clip-path-3">
      <rect id="Rectangle_401347" data-name="Rectangle 401347" width="77.014" height="67.51" fill="none"/>
    </clipPath>
    <clipPath id="clip-path-4">
      <path id="Path_873361" data-name="Path 873361" d="M31.878,23.717a3.035,3.035,0,0,0-2.628,1.518L11.514,55.955a3.033,3.033,0,0,0,0,3.034L29.25,89.709a3.035,3.035,0,0,0,2.628,1.518H67.351a3.036,3.036,0,0,0,2.628-1.518l17.735-30.72a3.027,3.027,0,0,0,.407-1.491v-.051a3.027,3.027,0,0,0-.407-1.491L69.979,25.235a3.036,3.036,0,0,0-2.628-1.518Z" transform="translate(-11.108 -23.717)" fill="none"/>
    </clipPath>
    <radialGradient id="radial-gradient" cx="0.715" cy="0.515" r="0.578" gradientTransform="translate(0.112 1.781) rotate(180) scale(1.028 1)" gradientUnits="objectBoundingBox">
      <stop offset="0" stop-color="#b4e7df"/>
      <stop offset="1" stop-color="#859ca6"/>
    </radialGradient>
    <clipPath id="clip-path-6">
      <rect id="Rectangle_401350" data-name="Rectangle 401350" width="58.821" height="33.96" fill="none"/>
    </clipPath>
    <clipPath id="clip-path-7">
      <path id="Path_873380" data-name="Path 873380" d="M76.594,30.913v1.923h0a.519.519,0,0,0,.305.427l1.08.623a1.617,1.617,0,0,0,1.466,0l1.063.614v.6h0a.521.521,0,0,0,.306.423l1.079.623a1.62,1.62,0,0,0,1.466,0l3.062-1.768a.51.51,0,0,0,.3-.42h0v0h0V32.03l-4.134.032a.471.471,0,0,0,.22-.361h0V29.771Z" transform="translate(-76.594 -29.771)" fill="none"/>
    </clipPath>
    <linearGradient id="linear-gradient" x1="-3.775" y1="10.653" x2="-3.726" y2="10.653" gradientUnits="objectBoundingBox">
      <stop offset="0" stop-color="#a5a7b3"/>
      <stop offset="0.118" stop-color="#a5a7b3"/>
      <stop offset="0.24" stop-color="#dfdfdf"/>
      <stop offset="0.286" stop-color="#b9bac3"/>
      <stop offset="0.436" stop-color="#b3b4be"/>
      <stop offset="0.576" stop-color="#c3c3ca"/>
      <stop offset="0.656" stop-color="#e2e2e2"/>
      <stop offset="1" stop-color="#d7d7d9"/>
    </linearGradient>
    <clipPath id="clip-path-8">
      <path id="Path_873381" data-name="Path 873381" d="M97.121,42.763v1.923h0a.519.519,0,0,0,.306.427l1.079.623a1.618,1.618,0,0,0,1.465,0l1.063.613v.6h0a.519.519,0,0,0,.306.422l1.079.623a1.62,1.62,0,0,0,1.466,0l3.063-1.768a.512.512,0,0,0,.3-.42h0v0h0V43.881l-4.134.032a.471.471,0,0,0,.22-.361h0v0h0V41.621Z" transform="translate(-97.121 -41.621)" fill="none"/>
    </clipPath>
    <linearGradient id="linear-gradient-2" x1="-4.787" y1="9.758" x2="-4.738" y2="9.758" xlink:href="#linear-gradient"/>
    <clipPath id="clip-path-9">
      <path id="Path_873382" data-name="Path 873382" d="M56.068,19.06v1.924h0a.517.517,0,0,0,.306.426l1.079.623a1.619,1.619,0,0,0,1.466,0l1.062.614v.6h0a.523.523,0,0,0,.306.423l1.08.623a1.62,1.62,0,0,0,1.466,0L65.9,22.528a.512.512,0,0,0,.3-.421h0V20.179l-4.134.032a.468.468,0,0,0,.22-.36h0v0h0V17.919Z" transform="translate(-56.068 -17.919)" fill="none"/>
    </clipPath>
    <linearGradient id="linear-gradient-3" x1="-2.764" y1="11.548" x2="-2.714" y2="11.548" xlink:href="#linear-gradient"/>
    <clipPath id="clip-path-11">
      <path id="Path_873408" data-name="Path 873408" d="M119.132,60.934a4.757,4.757,0,0,0-2.16,3.724c0,1.368.967,1.92,2.16,1.231a4.759,4.759,0,0,0,2.159-3.724c0-.969-.484-1.528-1.19-1.528a1.968,1.968,0,0,0-.969.3" transform="translate(-116.972 -60.637)" fill="none"/>
    </clipPath>
    <linearGradient id="linear-gradient-4" x1="-7.79" y1="8.252" x2="-7.722" y2="8.252" gradientUnits="objectBoundingBox">
      <stop offset="0" stop-color="#c9c9cf"/>
      <stop offset="0.189" stop-color="#c9c9cf"/>
      <stop offset="0.292" stop-color="#bbbbc3"/>
      <stop offset="0.425" stop-color="#b3b3bc"/>
      <stop offset="0.647" stop-color="#b1b1ba"/>
      <stop offset="0.873" stop-color="#b3b4be"/>
      <stop offset="0.882" stop-color="#a5a7b3"/>
      <stop offset="1" stop-color="#a5a7b3"/>
    </linearGradient>
    <clipPath id="clip-path-12">
      <path id="Path_873409" data-name="Path 873409" d="M111.8,77.985a12.077,12.077,0,0,0-5.481,9.454c0,3.473,2.454,4.872,5.481,3.124a12.076,12.076,0,0,0,5.481-9.454c0-2.458-1.229-3.877-3.02-3.877a5,5,0,0,0-2.46.753" transform="translate(-106.319 -77.232)" fill="none"/>
    </clipPath>
    <linearGradient id="linear-gradient-5" x1="-2.659" y1="2.8" x2="-2.632" y2="2.8" gradientUnits="objectBoundingBox">
      <stop offset="0" stop-color="#a5a7b3"/>
      <stop offset="0.118" stop-color="#a5a7b3"/>
      <stop offset="0.127" stop-color="#b3b4be"/>
      <stop offset="0.473" stop-color="#c3c3ca"/>
      <stop offset="0.57" stop-color="#e3e3e3"/>
      <stop offset="0.583" stop-color="#e5e6e8"/>
      <stop offset="0.626" stop-color="#ebeff3"/>
      <stop offset="0.673" stop-color="#eef2f7"/>
      <stop offset="0.743" stop-color="#ecf0f4"/>
      <stop offset="0.784" stop-color="#e7e9ec"/>
      <stop offset="0.811" stop-color="#e2e2e2"/>
      <stop offset="1" stop-color="#d7d7d9"/>
    </linearGradient>
  </defs>
  <g id="Group_1118036" data-name="Group 1118036" transform="translate(-180 -954.798)">
    <path id="Rectangle_409953" data-name="Rectangle 409953" d="M19,0H502a0,0,0,0,1,0,0V38a14,14,0,0,1-14,14H0a0,0,0,0,1,0,0V19A19,19,0,0,1,19,0Z" transform="translate(221.051 975)" fill="#a2cbca"/>
    <g id="Group_1117835" data-name="Group 1117835" transform="translate(180 954.798)">
      <g id="Group_1099455" data-name="Group 1099455" clip-path="url(#clip-path)">
        <g id="Group_1099433" data-name="Group 1099433">
          <g id="Group_1099432" data-name="Group 1099432" clip-path="url(#clip-path)">
            <g id="Group_1099431" data-name="Group 1099431" transform="translate(0 17.766)" opacity="0.1">
              <g id="Group_1099430" data-name="Group 1099430">
                <g id="Group_1099429" data-name="Group 1099429" clip-path="url(#clip-path-3)">
                  <path id="Path_873360" data-name="Path 873360" d="M58.872,101.578l17.736-30.72a3.036,3.036,0,0,0,0-3.034L58.872,37.1a3.034,3.034,0,0,0-2.628-1.517H20.771A3.034,3.034,0,0,0,18.143,37.1L.407,67.823a3.034,3.034,0,0,0,0,3.034l17.736,30.72a3.034,3.034,0,0,0,2.628,1.517H56.244a3.034,3.034,0,0,0,2.628-1.517" transform="translate(0 -35.586)" fill="#353e42"/>
                </g>
              </g>
            </g>
          </g>
        </g>
        <g id="Group_1099435" data-name="Group 1099435" transform="translate(5.545 11.841)">
          <g id="Group_1099434" data-name="Group 1099434" clip-path="url(#clip-path-4)">
            <rect id="Rectangle_401349" data-name="Rectangle 401349" width="98.852" height="101.582" transform="translate(-31.182 47.002) rotate(-56.553)" fill="url(#radial-gradient)"/>
          </g>
        </g>
        <g id="Group_1099440" data-name="Group 1099440">
          <g id="Group_1099439" data-name="Group 1099439" clip-path="url(#clip-path)">
            <g id="Group_1099438" data-name="Group 1099438" transform="translate(14.43 31.604)" style="mix-blend-mode: multiply;isolation: isolate">
              <g id="Group_1099437" data-name="Group 1099437">
                <g id="Group_1099436" data-name="Group 1099436" clip-path="url(#clip-path-6)">
                  <path id="Path_873362" data-name="Path 873362" d="M57.745,96.3,30.57,80.611c-2.47-1.426-2.16-3.916.691-5.562L49.246,64.665c2.852-1.646,7.165-1.825,9.635-.4l27.175,15.69c2.47,1.426,2.16,3.916-.691,5.563L67.379,95.9c-2.852,1.647-7.165,1.825-9.635.4" transform="translate(-28.903 -63.303)" fill="#c7dcf3"/>
                </g>
              </g>
            </g>
            <path id="Path_873363" data-name="Path 873363" d="M32.646,40.758l27.542,15.9L80.923,44.688l-27.542-15.9Z" transform="translate(-16.347 -14.415)" fill="#262f32"/>
            <path id="Path_873364" data-name="Path 873364" d="M93.524,101.279l6.353,3.668-.12-8.055-8.4-4.848.1,5.694a4.139,4.139,0,0,0,2.069,3.541" transform="translate(-45.748 -46.091)" fill="#9698a6"/>
            <path id="Path_873365" data-name="Path 873365" d="M51.393,28.787,30.658,40.759,28.676,44.4,29.9,51.966c.225,2.644,3.628,2.8,6.055,1.4l10.134-5.85a10.465,10.465,0,0,0,4.68-7.6l2.6-9.779Z" transform="translate(-14.359 -14.415)" fill="#3e3e3e"/>
            <path id="Path_873366" data-name="Path 873366" d="M36.9,19.4l-6.18,3.568-1.3,1.676s-1.127,8.106.406,10.139l7.115-4.108,1.375-10.584c0-.832-1.412-.692-1.412-.692" transform="translate(-14.528 -9.71)" fill="#424a4d"/>
            <path id="Path_873367" data-name="Path 873367" d="M30.086,40.052l1.489.86-.406-10.139-1.489-.86-.133,7.181Z" transform="translate(-14.796 -14.979)" fill="#262f32"/>
            <path id="Path_873368" data-name="Path 873368" d="M70.8,0,64.622,3.569,63.21,5.891v9.79l1.489.86s2.742-3.3,4.25-4.173c1.535-3.8,3.156-12.2,3.156-12.2Z" transform="translate(-31.652 -0.001)" fill="#262f32"/>
            <path id="Path_873369" data-name="Path 873369" d="M72.219,0,66.04,3.568l1.489.86L73.709.86Z" transform="translate(-33.069 0)" fill="#4a5154"/>
            <path id="Path_873370" data-name="Path 873370" d="M79.721.171,78.418,0l1.489.86,1.3.171Z" transform="translate(-39.268 0)" fill="#424a4d"/>
            <path id="Path_873371" data-name="Path 873371" d="M64.623,7.147,63.21,9.47l1.489.86,1.412-2.323Z" transform="translate(-31.652 -3.579)" fill="#424a4d"/>
            <path id="Path_873372" data-name="Path 873372" d="M45.852,19.551l1.624.943-1.184-.227-1.489-.86Z" transform="translate(-22.435 -9.718)" fill="#424a4d"/>
            <path id="Path_873373" data-name="Path 873373" d="M38.6,19.408l-6.18,3.568,1.489.86,6.18-3.568Z" transform="translate(-16.237 -9.718)" fill="#4a5154"/>
            <path id="Path_873374" data-name="Path 873374" d="M32.535,77.768l27.542,15.9-1.4-2.555-27.542-15.9Z" transform="translate(-15.591 -37.663)" fill="#262f32"/>
            <path id="Path_873375" data-name="Path 873375" d="M110.733,55.81,85.825,70.191l-1.982,3.64L85.07,81.4c.072.85.616,2.3,1.4,2.555,1.655.538,4.383-1,6.03-1.951l15.387-8.172a13.212,13.212,0,0,0,3.6-7.684l1.227-8.986Z" transform="translate(-41.984 -27.947)" fill="#323a3d"/>
            <path id="Path_873376" data-name="Path 873376" d="M41.289,21.818,39.914,32.4c-1.91,1.1-5.195,3-7.112,4.108-.642-.859-.819-2.793-.8-4.742.008-.441.016-.875.04-1.308.1-2.191.361-4.092.361-4.092l1.3-1.678,6.176-3.562s1.412-.144,1.412.69" transform="translate(-16.023 -10.575)" fill="#cfcbca"/>
            <path id="Path_873377" data-name="Path 873377" d="M73.785,1.723,67.605,5.291,66.193,7.613V17.4l5.739-3.313c1.535-3.8,3.156-12.2,3.156-12.2Z" transform="translate(-33.146 -0.863)" fill="#e4e1e0"/>
            <path id="Path_873378" data-name="Path 873378" d="M95.6,40.287V30.5L66.193,13.52v9.79Z" transform="translate(-33.146 -6.77)" fill="#cfcbca"/>
            <path id="Path_873379" data-name="Path 873379" d="M59.338,15.982,52.5,19.929,81.906,36.9l6.835-3.946Z" transform="translate(-26.29 -8.003)" fill="#4c5457"/>
          </g>
        </g>
        <g id="Group_1099442" data-name="Group 1099442" transform="translate(38.24 14.863)">
          <g id="Group_1099441" data-name="Group 1099441" clip-path="url(#clip-path-7)">
            <rect id="Rectangle_401352" data-name="Rectangle 401352" width="10.129" height="6.61" transform="translate(0 0)" fill="url(#linear-gradient)"/>
          </g>
        </g>
        <g id="Group_1099444" data-name="Group 1099444" transform="translate(48.488 20.779)">
          <g id="Group_1099443" data-name="Group 1099443" clip-path="url(#clip-path-8)">
            <rect id="Rectangle_401353" data-name="Rectangle 401353" width="10.129" height="6.61" transform="translate(0 0)" fill="url(#linear-gradient-2)"/>
          </g>
        </g>
        <g id="Group_1099446" data-name="Group 1099446" transform="translate(27.992 8.946)">
          <g id="Group_1099445" data-name="Group 1099445" clip-path="url(#clip-path-9)">
            <rect id="Rectangle_401354" data-name="Rectangle 401354" width="10.129" height="6.61" transform="translate(0 0)" fill="url(#linear-gradient-3)"/>
          </g>
        </g>
        <g id="Group_1099448" data-name="Group 1099448">
          <g id="Group_1099447" data-name="Group 1099447" clip-path="url(#clip-path)">
            <path id="Path_873383" data-name="Path 873383" d="M63.346,17.9l-.67.387L61.312,17.5l.67-.387a.447.447,0,0,0,0-.846L60.9,15.641a1.62,1.62,0,0,0-1.466,0l-3.062,1.768a.447.447,0,0,0,0,.846l1.079.623a1.62,1.62,0,0,0,1.466,0l1.364.787a.447.447,0,0,0,0,.846l1.079.623a1.619,1.619,0,0,0,1.466,0L65.9,19.37a.447.447,0,0,0,0-.847L64.811,17.9a1.62,1.62,0,0,0-1.466,0" transform="translate(-28.076 -7.744)" fill="#dee0e6"/>
            <path id="Path_873384" data-name="Path 873384" d="M83.872,29.749l-.67.387-1.364-.787.67-.387a.447.447,0,0,0,0-.846l-1.079-.624a1.62,1.62,0,0,0-1.466,0L76.9,29.258a.447.447,0,0,0,0,.846l1.079.623a1.619,1.619,0,0,0,1.466,0l1.364.788a.447.447,0,0,0,0,.846l1.079.623a1.619,1.619,0,0,0,1.466,0l3.062-1.768a.447.447,0,0,0,0-.847l-1.079-.623a1.62,1.62,0,0,0-1.466,0" transform="translate(-38.354 -13.678)" fill="#dee0e6"/>
            <path id="Path_873385" data-name="Path 873385" d="M104.4,41.6l-.67.387-1.364-.787.67-.387a.447.447,0,0,0,0-.846l-1.079-.624a1.62,1.62,0,0,0-1.466,0l-3.062,1.768a.447.447,0,0,0,0,.846l1.079.623a1.619,1.619,0,0,0,1.466,0l1.364.788a.447.447,0,0,0,0,.846l1.079.623a1.619,1.619,0,0,0,1.466,0l3.062-1.768a.447.447,0,0,0,0-.847l-1.079-.623a1.62,1.62,0,0,0-1.466,0" transform="translate(-48.633 -19.612)" fill="#dee0e6"/>
            <path id="Path_873386" data-name="Path 873386" d="M75.2,1.722,69.022,5.29l29.4,16.976,6.18-3.568Z" transform="translate(-34.563 -0.862)" fill="#f7f4f3"/>
            <path id="Path_873387" data-name="Path 873387" d="M82.7,1.893l-1.3-.171L110.8,18.7l1.3.171Z" transform="translate(-40.761 -0.862)" fill="#e4e1e0"/>
            <path id="Path_873388" data-name="Path 873388" d="M33.069,41.774l29.4,16.976-.406-10.139-29.4-16.976-.133,7.18Z" transform="translate(-16.289 -15.841)" fill="#cfcbca"/>
            <path id="Path_873389" data-name="Path 873389" d="M109.451,97.517l-7.423,4.286c-.529.305-.976.115-1.046-.445l-.817-3.1,1.59-3.2,9.829-5.675L110.5,95.862a2.359,2.359,0,0,1-1.047,1.655" transform="translate(-50.157 -44.756)" fill="#9698a6"/>
            <path id="Path_873390" data-name="Path 873390" d="M101.755,100.745l2.978,1.719-1.589,3.2-2.979-1.72Z" transform="translate(-50.157 -50.448)" fill="#c1c2c9"/>
            <path id="Path_873391" data-name="Path 873391" d="M115.417,100.962l-7.422,4.286c-.529.305-.977.115-1.047-.445l-.816-3.1,1.589-3.2,9.829-5.675-1.085,6.483a2.359,2.359,0,0,1-1.047,1.655" transform="translate(-53.145 -46.481)" fill="#b6b7c0"/>
            <path id="Path_873392" data-name="Path 873392" d="M48.835,21.273,78.372,38.332l-1.183-.227L47.786,21.13Z" transform="translate(-23.929 -10.581)" fill="#e4e1e0"/>
            <path id="Path_873393" data-name="Path 873393" d="M41.587,21.13,35.408,24.7l29.4,16.976,6.18-3.568Z" transform="translate(-17.73 -10.581)" fill="#f7f4f3"/>
            <path id="Path_873394" data-name="Path 873394" d="M32.8,29.953l1.3-1.676L63.5,45.253l-1.3,1.676Z" transform="translate(-16.423 -14.159)" fill="#e4e1e0"/>
            <path id="Path_873395" data-name="Path 873395" d="M66.193,11.191l1.412-2.323,29.4,16.976L95.6,28.167Z" transform="translate(-33.146 -4.441)" fill="#e4e1e0"/>
            <path id="Path_873396" data-name="Path 873396" d="M98.773,55.123l-6.18,3.568-1.3,1.676s-1.127,8.106.406,10.139l8.49-4.9v-9.79c0-.832-1.412-.692-1.412-.692" transform="translate(-45.513 -27.598)" fill="#424a4d"/>
            <path id="Path_873397" data-name="Path 873397" d="M91.963,75.776l1.489.86L93.047,66.5l-1.489-.86-.133,7.18Z" transform="translate(-45.781 -32.868)" fill="#262f32"/>
            <path id="Path_873398" data-name="Path 873398" d="M107.729,55.276l1.624.943-1.184-.227-1.489-.86Z" transform="translate(-53.42 -27.607)" fill="#424a4d"/>
            <path id="Path_873399" data-name="Path 873399" d="M100.482,55.132,94.3,58.7l1.489.86,6.18-3.568Z" transform="translate(-47.221 -27.607)" fill="#4a5154"/>
            <path id="Path_873400" data-name="Path 873400" d="M132.679,35.726,126.5,39.294l-1.412,2.322v9.79l1.489.86s2.742-3.3,4.25-4.173c1.535-3.8,3.156-12.2,3.156-12.2Z" transform="translate(-62.637 -17.89)" fill="#262f32"/>
            <path id="Path_873401" data-name="Path 873401" d="M134.1,35.725l-6.18,3.568,1.489.86,6.18-3.568Z" transform="translate(-64.054 -17.889)" fill="#4a5154"/>
            <path id="Path_873402" data-name="Path 873402" d="M141.6,35.9l-1.3-.171,1.489.86,1.3.171Z" transform="translate(-70.252 -17.889)" fill="#424a4d"/>
            <path id="Path_873403" data-name="Path 873403" d="M126.5,42.872l-1.412,2.323,1.489.86,1.412-2.323Z" transform="translate(-62.637 -21.468)" fill="#424a4d"/>
            <path id="Path_873404" data-name="Path 873404" d="M101.756,56.845l-6.18,3.568-1.3,1.676s-1.127,8.106.406,10.139l8.49-4.9v-9.79c0-.832-1.412-.691-1.412-.691" transform="translate(-47.007 -28.46)" fill="#42494c"/>
            <path id="Path_873405" data-name="Path 873405" d="M135.662,37.448l-6.179,3.568-1.412,2.322v9.79l8.489-4.9c1.535-3.8.406-10.609.406-10.609Z" transform="translate(-64.131 -18.752)" fill="#42494c"/>
            <path id="Path_873406" data-name="Path 873406" d="M116.959,68.127l-8.4,4.848V57.583L111.3,52.85l3.509-2.026,2.155,1.244Z" transform="translate(-54.362 -25.45)" fill="#9698a6"/>
            <rect id="Rectangle_401355" data-name="Rectangle 401355" width="5.466" height="2.149" transform="matrix(0.5, -0.866, 0.866, 0.5, 54.2, 32.133)" fill="#bcbcc5"/>
            <path id="Path_873407" data-name="Path 873407" d="M120.688,70.279l-8.4,4.848V59.736L115.024,55l3.509-2.026,2.155,1.244Z" transform="translate(-56.229 -26.527)" fill="#d3d3d6"/>
          </g>
        </g>
        <g id="Group_1099450" data-name="Group 1099450" transform="translate(58.399 30.273)">
          <g id="Group_1099449" data-name="Group 1099449" clip-path="url(#clip-path-11)">
            <rect id="Rectangle_401357" data-name="Rectangle 401357" width="7.305" height="6.711" transform="matrix(0.5, -0.866, 0.866, 0.5, -2.573, 4.456)" fill="url(#linear-gradient-4)"/>
          </g>
        </g>
        <g id="Group_1099452" data-name="Group 1099452" transform="translate(53.08 38.558)">
          <g id="Group_1099451" data-name="Group 1099451" clip-path="url(#clip-path-12)">
            <rect id="Rectangle_401358" data-name="Rectangle 401358" width="18.54" height="17.033" transform="translate(-6.529 11.309) rotate(-60)" fill="url(#linear-gradient-5)"/>
          </g>
        </g>
        <g id="Group_1099454" data-name="Group 1099454">
          <g id="Group_1099453" data-name="Group 1099453" clip-path="url(#clip-path)">
            <path id="Path_873410" data-name="Path 873410" d="M117.291,87a5.119,5.119,0,0,1-2.323,4.006c-1.283.74-2.322.147-2.322-1.325a5.116,5.116,0,0,1,2.322-4.006c1.283-.74,2.323-.148,2.323,1.324" transform="translate(-56.407 -42.744)" fill="#9698a6"/>
            <path id="Path_873411" data-name="Path 873411" d="M115.528,80.137a12.077,12.077,0,0,0-5.481,9.454c0,3.473,2.454,4.872,5.481,3.125a12.076,12.076,0,0,0,5.481-9.454c0-3.473-2.454-4.873-5.481-3.125m0,8.954c-1.283.74-2.323.148-2.323-1.324a5.117,5.117,0,0,1,2.323-4.006c1.283-.741,2.323-.148,2.323,1.324a5.117,5.117,0,0,1-2.323,4.006" transform="translate(-55.106 -39.751)" fill="#d3d3d6"/>
            <path id="Path_873412" data-name="Path 873412" d="M28.676,56.405l27.542,15.9,1.982-3.64-27.542-15.9Z" transform="translate(-14.36 -26.422)" fill="#424a4d"/>
            <path id="Path_873413" data-name="Path 873413" d="M28.676,60.055l27.542,15.9,1.228,7.568L29.9,67.624Z" transform="translate(-14.36 -30.073)" fill="#262f32"/>
            <path id="Path_873414" data-name="Path 873414" d="M117.546,50.824l1.862,1.075-3.51,2.026-1.861-1.075Z" transform="translate(-57.103 -25.45)" fill="#dee0e6"/>
          </g>
        </g>
      </g>
    </g>
  </g>
</svg>
